M48
; DRILL file {KiCad (5.1.8)-1} date 08/04/21 08:43:18
; FORMAT={-:-/ absolute / inch / decimal}
; #@! TF.CreationDate,2021-08-04T08:43:18+02:00
; #@! TF.GenerationSoftware,Kicad,Pcbnew,(5.1.8)-1
; #@! TF.FileFunction,Plated,1,2,PTH
FMAT,2
INCH
T1C0.0118
T2C0.0120
T3C0.0157
T4C0.0394
%
G90
G05
T1
X5.284Y-3.42
X5.344Y-3.34
X5.3471Y-4.3821
X5.379Y-3.42
X5.439Y-4.365
X5.444Y-4.33
X5.4681Y-4.3529
X5.4861Y-4.3271
X5.559Y-3.97
X5.674Y-3.97
X5.764Y-4.21
X6.0431Y-4.3509
X6.0606Y-4.2849
X6.1244Y-3.85
X6.138Y-4.016
X6.179Y-4.56
X6.2192Y-4.0978
X6.226Y-3.9423
X6.284Y-3.605
X6.284Y-4.355
X6.329Y-3.24
X6.329Y-3.44
X6.3557Y-3.8916
X6.394Y-3.555
X6.424Y-3.6408
X6.4365Y-4.1625
X6.459Y-3.205
X6.4615Y-4.0525
X6.539Y-3.56
X6.5668Y-4.1125
X6.614Y-4.56
T2
X5.374Y-4.453
X5.404Y-3.28
X5.735Y-3.417
X5.735Y-3.457
X5.735Y-3.497
X5.735Y-3.537
X5.735Y-3.577
X5.775Y-3.417
X5.775Y-3.457
X5.775Y-3.497
X5.775Y-3.537
X5.775Y-3.577
X5.815Y-3.417
X5.815Y-3.457
X5.815Y-3.497
X5.815Y-3.537
X5.815Y-3.577
X5.8407Y-3.8272
X5.855Y-3.417
X5.855Y-3.457
X5.855Y-3.497
X5.855Y-3.537
X5.855Y-3.577
X5.8736Y-3.8286
X5.895Y-3.417
X5.895Y-3.457
X5.895Y-3.497
X5.895Y-3.537
X5.895Y-3.577
X5.906Y-3.8291
X5.9386Y-3.8313
X5.9638Y-4.1242
X6.1244Y-3.4804
X6.125Y-3.2764
T3
X5.179Y-3.245
X5.269Y-3.285
X5.349Y-4.31
X5.455Y-3.197
X5.629Y-3.825
X5.669Y-4.06
X5.73Y-3.804
X5.749Y-4.02
X5.9426Y-4.0954
X5.984Y-4.35
X5.9906Y-4.175
X5.994Y-4.225
X5.999Y-4.425
X6.0851Y-4.175
X6.25Y-3.202
T4
X5.244Y-4.61
X5.344Y-4.61
X5.444Y-4.61
X5.544Y-4.61
X5.644Y-4.61
X5.744Y-4.61
X5.844Y-4.61
X5.944Y-4.61
X6.044Y-4.61
X6.144Y-4.61
X6.244Y-4.61
X6.344Y-4.61
X6.444Y-4.61
X5.044Y-3.21
X5.044Y-3.31
X5.044Y-3.41
X5.044Y-3.51
X5.044Y-3.61
X5.044Y-3.71
X5.044Y-3.81
X5.044Y-3.91
X5.044Y-4.01
X5.044Y-4.11
X5.044Y-4.21
X5.044Y-4.31
X5.044Y-4.41
X5.044Y-4.51
X6.644Y-3.21
X6.644Y-3.31
X6.644Y-3.41
X6.644Y-3.51
X6.644Y-3.61
X6.644Y-3.71
X6.644Y-3.81
X6.644Y-3.91
X6.644Y-4.01
X6.644Y-4.11
X6.644Y-4.21
X6.644Y-4.31
X6.644Y-4.41
X6.644Y-4.51
T0
M30
