G04 #@! TF.GenerationSoftware,KiCad,Pcbnew,(5.1.8)-1*
G04 #@! TF.CreationDate,2022-05-07T10:28:52+02:00*
G04 #@! TF.ProjectId,SuperPower-uC-KiCad,53757065-7250-46f7-9765-722d75432d4b,rev?*
G04 #@! TF.SameCoordinates,Original*
G04 #@! TF.FileFunction,Soldermask,Top*
G04 #@! TF.FilePolarity,Negative*
%FSLAX46Y46*%
G04 Gerber Fmt 4.6, Leading zero omitted, Abs format (unit mm)*
G04 Created by KiCad (PCBNEW (5.1.8)-1) date 2022-05-07 10:28:52*
%MOMM*%
%LPD*%
G01*
G04 APERTURE LIST*
%ADD10R,0.650000X1.060000*%
%ADD11R,1.000000X1.500000*%
%ADD12C,2.700000*%
%ADD13O,1.700000X1.700000*%
%ADD14R,1.700000X1.700000*%
%ADD15R,2.000000X0.900000*%
%ADD16R,0.900000X2.000000*%
%ADD17R,5.000000X5.000000*%
%ADD18R,2.000000X1.500000*%
%ADD19R,2.000000X3.800000*%
%ADD20R,1.900000X0.800000*%
%ADD21R,0.900000X1.200000*%
G04 APERTURE END LIST*
G36*
G01*
X161716600Y-110867000D02*
X161716600Y-110367000D01*
G75*
G02*
X161941600Y-110142000I225000J0D01*
G01*
X162391600Y-110142000D01*
G75*
G02*
X162616600Y-110367000I0J-225000D01*
G01*
X162616600Y-110867000D01*
G75*
G02*
X162391600Y-111092000I-225000J0D01*
G01*
X161941600Y-111092000D01*
G75*
G02*
X161716600Y-110867000I0J225000D01*
G01*
G37*
G36*
G01*
X160166600Y-110867000D02*
X160166600Y-110367000D01*
G75*
G02*
X160391600Y-110142000I225000J0D01*
G01*
X160841600Y-110142000D01*
G75*
G02*
X161066600Y-110367000I0J-225000D01*
G01*
X161066600Y-110867000D01*
G75*
G02*
X160841600Y-111092000I-225000J0D01*
G01*
X160391600Y-111092000D01*
G75*
G02*
X160166600Y-110867000I0J225000D01*
G01*
G37*
G36*
G01*
X163173600Y-89465000D02*
X163673600Y-89465000D01*
G75*
G02*
X163898600Y-89690000I0J-225000D01*
G01*
X163898600Y-90140000D01*
G75*
G02*
X163673600Y-90365000I-225000J0D01*
G01*
X163173600Y-90365000D01*
G75*
G02*
X162948600Y-90140000I0J225000D01*
G01*
X162948600Y-89690000D01*
G75*
G02*
X163173600Y-89465000I225000J0D01*
G01*
G37*
G36*
G01*
X163173600Y-87915000D02*
X163673600Y-87915000D01*
G75*
G02*
X163898600Y-88140000I0J-225000D01*
G01*
X163898600Y-88590000D01*
G75*
G02*
X163673600Y-88815000I-225000J0D01*
G01*
X163173600Y-88815000D01*
G75*
G02*
X162948600Y-88590000I0J225000D01*
G01*
X162948600Y-88140000D01*
G75*
G02*
X163173600Y-87915000I225000J0D01*
G01*
G37*
G36*
G01*
X138299000Y-82973000D02*
X137799000Y-82973000D01*
G75*
G02*
X137574000Y-82748000I0J225000D01*
G01*
X137574000Y-82298000D01*
G75*
G02*
X137799000Y-82073000I225000J0D01*
G01*
X138299000Y-82073000D01*
G75*
G02*
X138524000Y-82298000I0J-225000D01*
G01*
X138524000Y-82748000D01*
G75*
G02*
X138299000Y-82973000I-225000J0D01*
G01*
G37*
G36*
G01*
X138299000Y-84523000D02*
X137799000Y-84523000D01*
G75*
G02*
X137574000Y-84298000I0J225000D01*
G01*
X137574000Y-83848000D01*
G75*
G02*
X137799000Y-83623000I225000J0D01*
G01*
X138299000Y-83623000D01*
G75*
G02*
X138524000Y-83848000I0J-225000D01*
G01*
X138524000Y-84298000D01*
G75*
G02*
X138299000Y-84523000I-225000J0D01*
G01*
G37*
G36*
G01*
X133066600Y-82973000D02*
X132566600Y-82973000D01*
G75*
G02*
X132341600Y-82748000I0J225000D01*
G01*
X132341600Y-82298000D01*
G75*
G02*
X132566600Y-82073000I225000J0D01*
G01*
X133066600Y-82073000D01*
G75*
G02*
X133291600Y-82298000I0J-225000D01*
G01*
X133291600Y-82748000D01*
G75*
G02*
X133066600Y-82973000I-225000J0D01*
G01*
G37*
G36*
G01*
X133066600Y-84523000D02*
X132566600Y-84523000D01*
G75*
G02*
X132341600Y-84298000I0J225000D01*
G01*
X132341600Y-83848000D01*
G75*
G02*
X132566600Y-83623000I225000J0D01*
G01*
X133066600Y-83623000D01*
G75*
G02*
X133291600Y-83848000I0J-225000D01*
G01*
X133291600Y-84298000D01*
G75*
G02*
X133066600Y-84523000I-225000J0D01*
G01*
G37*
G36*
G01*
X150527600Y-110740000D02*
X150527600Y-110240000D01*
G75*
G02*
X150752600Y-110015000I225000J0D01*
G01*
X151202600Y-110015000D01*
G75*
G02*
X151427600Y-110240000I0J-225000D01*
G01*
X151427600Y-110740000D01*
G75*
G02*
X151202600Y-110965000I-225000J0D01*
G01*
X150752600Y-110965000D01*
G75*
G02*
X150527600Y-110740000I0J225000D01*
G01*
G37*
G36*
G01*
X148977600Y-110740000D02*
X148977600Y-110240000D01*
G75*
G02*
X149202600Y-110015000I225000J0D01*
G01*
X149652600Y-110015000D01*
G75*
G02*
X149877600Y-110240000I0J-225000D01*
G01*
X149877600Y-110740000D01*
G75*
G02*
X149652600Y-110965000I-225000J0D01*
G01*
X149202600Y-110965000D01*
G75*
G02*
X148977600Y-110740000I0J225000D01*
G01*
G37*
G36*
G01*
X146943000Y-107273000D02*
X147443000Y-107273000D01*
G75*
G02*
X147668000Y-107498000I0J-225000D01*
G01*
X147668000Y-107948000D01*
G75*
G02*
X147443000Y-108173000I-225000J0D01*
G01*
X146943000Y-108173000D01*
G75*
G02*
X146718000Y-107948000I0J225000D01*
G01*
X146718000Y-107498000D01*
G75*
G02*
X146943000Y-107273000I225000J0D01*
G01*
G37*
G36*
G01*
X146943000Y-105723000D02*
X147443000Y-105723000D01*
G75*
G02*
X147668000Y-105948000I0J-225000D01*
G01*
X147668000Y-106398000D01*
G75*
G02*
X147443000Y-106623000I-225000J0D01*
G01*
X146943000Y-106623000D01*
G75*
G02*
X146718000Y-106398000I0J225000D01*
G01*
X146718000Y-105948000D01*
G75*
G02*
X146943000Y-105723000I225000J0D01*
G01*
G37*
G36*
G01*
X150853600Y-112870000D02*
X150853600Y-111920000D01*
G75*
G02*
X151103600Y-111670000I250000J0D01*
G01*
X151603600Y-111670000D01*
G75*
G02*
X151853600Y-111920000I0J-250000D01*
G01*
X151853600Y-112870000D01*
G75*
G02*
X151603600Y-113120000I-250000J0D01*
G01*
X151103600Y-113120000D01*
G75*
G02*
X150853600Y-112870000I0J250000D01*
G01*
G37*
G36*
G01*
X148953600Y-112870000D02*
X148953600Y-111920000D01*
G75*
G02*
X149203600Y-111670000I250000J0D01*
G01*
X149703600Y-111670000D01*
G75*
G02*
X149953600Y-111920000I0J-250000D01*
G01*
X149953600Y-112870000D01*
G75*
G02*
X149703600Y-113120000I-250000J0D01*
G01*
X149203600Y-113120000D01*
G75*
G02*
X148953600Y-112870000I0J250000D01*
G01*
G37*
G36*
G01*
X144630600Y-102456000D02*
X144630600Y-101506000D01*
G75*
G02*
X144880600Y-101256000I250000J0D01*
G01*
X145380600Y-101256000D01*
G75*
G02*
X145630600Y-101506000I0J-250000D01*
G01*
X145630600Y-102456000D01*
G75*
G02*
X145380600Y-102706000I-250000J0D01*
G01*
X144880600Y-102706000D01*
G75*
G02*
X144630600Y-102456000I0J250000D01*
G01*
G37*
G36*
G01*
X142730600Y-102456000D02*
X142730600Y-101506000D01*
G75*
G02*
X142980600Y-101256000I250000J0D01*
G01*
X143480600Y-101256000D01*
G75*
G02*
X143730600Y-101506000I0J-250000D01*
G01*
X143730600Y-102456000D01*
G75*
G02*
X143480600Y-102706000I-250000J0D01*
G01*
X142980600Y-102706000D01*
G75*
G02*
X142730600Y-102456000I0J250000D01*
G01*
G37*
D10*
X159618600Y-88265000D03*
X161518600Y-88265000D03*
X161518600Y-90465000D03*
X160568600Y-90465000D03*
X159618600Y-90465000D03*
D11*
X159867600Y-86307000D03*
X163067600Y-86307000D03*
X159867600Y-81407000D03*
X163067600Y-81407000D03*
G36*
G01*
X135069600Y-82796000D02*
X134119600Y-82796000D01*
G75*
G02*
X133869600Y-82546000I0J250000D01*
G01*
X133869600Y-82046000D01*
G75*
G02*
X134119600Y-81796000I250000J0D01*
G01*
X135069600Y-81796000D01*
G75*
G02*
X135319600Y-82046000I0J-250000D01*
G01*
X135319600Y-82546000D01*
G75*
G02*
X135069600Y-82796000I-250000J0D01*
G01*
G37*
G36*
G01*
X135069600Y-84696000D02*
X134119600Y-84696000D01*
G75*
G02*
X133869600Y-84446000I0J250000D01*
G01*
X133869600Y-83946000D01*
G75*
G02*
X134119600Y-83696000I250000J0D01*
G01*
X135069600Y-83696000D01*
G75*
G02*
X135319600Y-83946000I0J-250000D01*
G01*
X135319600Y-84446000D01*
G75*
G02*
X135069600Y-84696000I-250000J0D01*
G01*
G37*
G36*
G01*
X134942600Y-108069000D02*
X133992600Y-108069000D01*
G75*
G02*
X133742600Y-107819000I0J250000D01*
G01*
X133742600Y-107319000D01*
G75*
G02*
X133992600Y-107069000I250000J0D01*
G01*
X134942600Y-107069000D01*
G75*
G02*
X135192600Y-107319000I0J-250000D01*
G01*
X135192600Y-107819000D01*
G75*
G02*
X134942600Y-108069000I-250000J0D01*
G01*
G37*
G36*
G01*
X134942600Y-109969000D02*
X133992600Y-109969000D01*
G75*
G02*
X133742600Y-109719000I0J250000D01*
G01*
X133742600Y-109219000D01*
G75*
G02*
X133992600Y-108969000I250000J0D01*
G01*
X134942600Y-108969000D01*
G75*
G02*
X135192600Y-109219000I0J-250000D01*
G01*
X135192600Y-109719000D01*
G75*
G02*
X134942600Y-109969000I-250000J0D01*
G01*
G37*
D12*
X128432560Y-75905360D03*
X168462960Y-75905360D03*
G36*
G01*
X160740100Y-92727000D02*
X160265100Y-92727000D01*
G75*
G02*
X160027600Y-92489500I0J237500D01*
G01*
X160027600Y-91914500D01*
G75*
G02*
X160265100Y-91677000I237500J0D01*
G01*
X160740100Y-91677000D01*
G75*
G02*
X160977600Y-91914500I0J-237500D01*
G01*
X160977600Y-92489500D01*
G75*
G02*
X160740100Y-92727000I-237500J0D01*
G01*
G37*
G36*
G01*
X160740100Y-94477000D02*
X160265100Y-94477000D01*
G75*
G02*
X160027600Y-94239500I0J237500D01*
G01*
X160027600Y-93664500D01*
G75*
G02*
X160265100Y-93427000I237500J0D01*
G01*
X160740100Y-93427000D01*
G75*
G02*
X160977600Y-93664500I0J-237500D01*
G01*
X160977600Y-94239500D01*
G75*
G02*
X160740100Y-94477000I-237500J0D01*
G01*
G37*
G36*
G01*
X162391100Y-92727000D02*
X161916100Y-92727000D01*
G75*
G02*
X161678600Y-92489500I0J237500D01*
G01*
X161678600Y-91914500D01*
G75*
G02*
X161916100Y-91677000I237500J0D01*
G01*
X162391100Y-91677000D01*
G75*
G02*
X162628600Y-91914500I0J-237500D01*
G01*
X162628600Y-92489500D01*
G75*
G02*
X162391100Y-92727000I-237500J0D01*
G01*
G37*
G36*
G01*
X162391100Y-94477000D02*
X161916100Y-94477000D01*
G75*
G02*
X161678600Y-94239500I0J237500D01*
G01*
X161678600Y-93664500D01*
G75*
G02*
X161916100Y-93427000I237500J0D01*
G01*
X162391100Y-93427000D01*
G75*
G02*
X162628600Y-93664500I0J-237500D01*
G01*
X162628600Y-94239500D01*
G75*
G02*
X162391100Y-94477000I-237500J0D01*
G01*
G37*
D13*
X163677600Y-117094000D03*
X161137600Y-117094000D03*
X158597600Y-117094000D03*
X156057600Y-117094000D03*
X153517600Y-117094000D03*
X150977600Y-117094000D03*
X148437600Y-117094000D03*
X145897600Y-117094000D03*
X143357600Y-117094000D03*
X140817600Y-117094000D03*
X138277600Y-117094000D03*
X135737600Y-117094000D03*
D14*
X133197600Y-117094000D03*
G36*
G01*
X161800400Y-107759600D02*
X162100400Y-107759600D01*
G75*
G02*
X162250400Y-107909600I0J-150000D01*
G01*
X162250400Y-109209600D01*
G75*
G02*
X162100400Y-109359600I-150000J0D01*
G01*
X161800400Y-109359600D01*
G75*
G02*
X161650400Y-109209600I0J150000D01*
G01*
X161650400Y-107909600D01*
G75*
G02*
X161800400Y-107759600I150000J0D01*
G01*
G37*
G36*
G01*
X160530400Y-107759600D02*
X160830400Y-107759600D01*
G75*
G02*
X160980400Y-107909600I0J-150000D01*
G01*
X160980400Y-109209600D01*
G75*
G02*
X160830400Y-109359600I-150000J0D01*
G01*
X160530400Y-109359600D01*
G75*
G02*
X160380400Y-109209600I0J150000D01*
G01*
X160380400Y-107909600D01*
G75*
G02*
X160530400Y-107759600I150000J0D01*
G01*
G37*
G36*
G01*
X159260400Y-107759600D02*
X159560400Y-107759600D01*
G75*
G02*
X159710400Y-107909600I0J-150000D01*
G01*
X159710400Y-109209600D01*
G75*
G02*
X159560400Y-109359600I-150000J0D01*
G01*
X159260400Y-109359600D01*
G75*
G02*
X159110400Y-109209600I0J150000D01*
G01*
X159110400Y-107909600D01*
G75*
G02*
X159260400Y-107759600I150000J0D01*
G01*
G37*
G36*
G01*
X157990400Y-107759600D02*
X158290400Y-107759600D01*
G75*
G02*
X158440400Y-107909600I0J-150000D01*
G01*
X158440400Y-109209600D01*
G75*
G02*
X158290400Y-109359600I-150000J0D01*
G01*
X157990400Y-109359600D01*
G75*
G02*
X157840400Y-109209600I0J150000D01*
G01*
X157840400Y-107909600D01*
G75*
G02*
X157990400Y-107759600I150000J0D01*
G01*
G37*
G36*
G01*
X157990400Y-100559600D02*
X158290400Y-100559600D01*
G75*
G02*
X158440400Y-100709600I0J-150000D01*
G01*
X158440400Y-102009600D01*
G75*
G02*
X158290400Y-102159600I-150000J0D01*
G01*
X157990400Y-102159600D01*
G75*
G02*
X157840400Y-102009600I0J150000D01*
G01*
X157840400Y-100709600D01*
G75*
G02*
X157990400Y-100559600I150000J0D01*
G01*
G37*
G36*
G01*
X159260400Y-100559600D02*
X159560400Y-100559600D01*
G75*
G02*
X159710400Y-100709600I0J-150000D01*
G01*
X159710400Y-102009600D01*
G75*
G02*
X159560400Y-102159600I-150000J0D01*
G01*
X159260400Y-102159600D01*
G75*
G02*
X159110400Y-102009600I0J150000D01*
G01*
X159110400Y-100709600D01*
G75*
G02*
X159260400Y-100559600I150000J0D01*
G01*
G37*
G36*
G01*
X160530400Y-100559600D02*
X160830400Y-100559600D01*
G75*
G02*
X160980400Y-100709600I0J-150000D01*
G01*
X160980400Y-102009600D01*
G75*
G02*
X160830400Y-102159600I-150000J0D01*
G01*
X160530400Y-102159600D01*
G75*
G02*
X160380400Y-102009600I0J150000D01*
G01*
X160380400Y-100709600D01*
G75*
G02*
X160530400Y-100559600I150000J0D01*
G01*
G37*
G36*
G01*
X161800400Y-100559600D02*
X162100400Y-100559600D01*
G75*
G02*
X162250400Y-100709600I0J-150000D01*
G01*
X162250400Y-102009600D01*
G75*
G02*
X162100400Y-102159600I-150000J0D01*
G01*
X161800400Y-102159600D01*
G75*
G02*
X161650400Y-102009600I0J150000D01*
G01*
X161650400Y-100709600D01*
G75*
G02*
X161800400Y-100559600I150000J0D01*
G01*
G37*
D15*
X157182600Y-81305400D03*
X157182600Y-82575400D03*
X157182600Y-83845400D03*
X157182600Y-85115400D03*
X157182600Y-86385400D03*
X157182600Y-87655400D03*
X157182600Y-88925400D03*
X157182600Y-90195400D03*
X157182600Y-91465400D03*
X157182600Y-92735400D03*
X157182600Y-94005400D03*
X157182600Y-95275400D03*
X157182600Y-96545400D03*
X157182600Y-97815400D03*
D16*
X154397600Y-98815400D03*
X153127600Y-98815400D03*
X151857600Y-98815400D03*
X150587600Y-98815400D03*
X149317600Y-98815400D03*
X148047600Y-98815400D03*
X146777600Y-98815400D03*
X145507600Y-98815400D03*
X144237600Y-98815400D03*
X142967600Y-98815400D03*
D15*
X140182600Y-97815400D03*
X140182600Y-96545400D03*
X140182600Y-95275400D03*
X140182600Y-94005400D03*
X140182600Y-92735400D03*
X140182600Y-91465400D03*
X140182600Y-90195400D03*
X140182600Y-88925400D03*
X140182600Y-87655400D03*
X140182600Y-86385400D03*
X140182600Y-85115400D03*
X140182600Y-83845400D03*
X140182600Y-82575400D03*
X140182600Y-81305400D03*
D17*
X147682600Y-88805400D03*
G36*
G01*
X164042100Y-107614000D02*
X163567100Y-107614000D01*
G75*
G02*
X163329600Y-107376500I0J237500D01*
G01*
X163329600Y-106801500D01*
G75*
G02*
X163567100Y-106564000I237500J0D01*
G01*
X164042100Y-106564000D01*
G75*
G02*
X164279600Y-106801500I0J-237500D01*
G01*
X164279600Y-107376500D01*
G75*
G02*
X164042100Y-107614000I-237500J0D01*
G01*
G37*
G36*
G01*
X164042100Y-109364000D02*
X163567100Y-109364000D01*
G75*
G02*
X163329600Y-109126500I0J237500D01*
G01*
X163329600Y-108551500D01*
G75*
G02*
X163567100Y-108314000I237500J0D01*
G01*
X164042100Y-108314000D01*
G75*
G02*
X164279600Y-108551500I0J-237500D01*
G01*
X164279600Y-109126500D01*
G75*
G02*
X164042100Y-109364000I-237500J0D01*
G01*
G37*
G36*
G01*
X132915600Y-87668000D02*
X132915600Y-86068000D01*
G75*
G02*
X133115600Y-85868000I200000J0D01*
G01*
X133515600Y-85868000D01*
G75*
G02*
X133715600Y-86068000I0J-200000D01*
G01*
X133715600Y-87668000D01*
G75*
G02*
X133515600Y-87868000I-200000J0D01*
G01*
X133115600Y-87868000D01*
G75*
G02*
X132915600Y-87668000I0J200000D01*
G01*
G37*
G36*
G01*
X137115600Y-87668000D02*
X137115600Y-86068000D01*
G75*
G02*
X137315600Y-85868000I200000J0D01*
G01*
X137715600Y-85868000D01*
G75*
G02*
X137915600Y-86068000I0J-200000D01*
G01*
X137915600Y-87668000D01*
G75*
G02*
X137715600Y-87868000I-200000J0D01*
G01*
X137315600Y-87868000D01*
G75*
G02*
X137115600Y-87668000I0J200000D01*
G01*
G37*
D13*
X128117600Y-114554000D03*
X128117600Y-112014000D03*
X128117600Y-109474000D03*
X128117600Y-106934000D03*
X128117600Y-104394000D03*
X128117600Y-101854000D03*
X128117600Y-99314000D03*
X128117600Y-96774000D03*
X128117600Y-94234000D03*
X128117600Y-91694000D03*
X128117600Y-89154000D03*
X128117600Y-86614000D03*
X128117600Y-84074000D03*
D14*
X128117600Y-81534000D03*
D13*
X168757600Y-114554000D03*
X168757600Y-112014000D03*
X168757600Y-109474000D03*
X168757600Y-106934000D03*
X168757600Y-104394000D03*
X168757600Y-101854000D03*
X168757600Y-99314000D03*
X168757600Y-96774000D03*
X168757600Y-94234000D03*
X168757600Y-91694000D03*
X168757600Y-89154000D03*
X168757600Y-86614000D03*
X168757600Y-84074000D03*
D14*
X168757600Y-81534000D03*
D18*
X149377400Y-103680200D03*
X149377400Y-108280200D03*
X149377400Y-105980200D03*
D19*
X155677400Y-105980200D03*
G36*
G01*
X136649600Y-108676200D02*
X136349600Y-108676200D01*
G75*
G02*
X136199600Y-108526200I0J150000D01*
G01*
X136199600Y-107226200D01*
G75*
G02*
X136349600Y-107076200I150000J0D01*
G01*
X136649600Y-107076200D01*
G75*
G02*
X136799600Y-107226200I0J-150000D01*
G01*
X136799600Y-108526200D01*
G75*
G02*
X136649600Y-108676200I-150000J0D01*
G01*
G37*
G36*
G01*
X137919600Y-108676200D02*
X137619600Y-108676200D01*
G75*
G02*
X137469600Y-108526200I0J150000D01*
G01*
X137469600Y-107226200D01*
G75*
G02*
X137619600Y-107076200I150000J0D01*
G01*
X137919600Y-107076200D01*
G75*
G02*
X138069600Y-107226200I0J-150000D01*
G01*
X138069600Y-108526200D01*
G75*
G02*
X137919600Y-108676200I-150000J0D01*
G01*
G37*
G36*
G01*
X139189600Y-108676200D02*
X138889600Y-108676200D01*
G75*
G02*
X138739600Y-108526200I0J150000D01*
G01*
X138739600Y-107226200D01*
G75*
G02*
X138889600Y-107076200I150000J0D01*
G01*
X139189600Y-107076200D01*
G75*
G02*
X139339600Y-107226200I0J-150000D01*
G01*
X139339600Y-108526200D01*
G75*
G02*
X139189600Y-108676200I-150000J0D01*
G01*
G37*
G36*
G01*
X140459600Y-108676200D02*
X140159600Y-108676200D01*
G75*
G02*
X140009600Y-108526200I0J150000D01*
G01*
X140009600Y-107226200D01*
G75*
G02*
X140159600Y-107076200I150000J0D01*
G01*
X140459600Y-107076200D01*
G75*
G02*
X140609600Y-107226200I0J-150000D01*
G01*
X140609600Y-108526200D01*
G75*
G02*
X140459600Y-108676200I-150000J0D01*
G01*
G37*
G36*
G01*
X141729600Y-108676200D02*
X141429600Y-108676200D01*
G75*
G02*
X141279600Y-108526200I0J150000D01*
G01*
X141279600Y-107226200D01*
G75*
G02*
X141429600Y-107076200I150000J0D01*
G01*
X141729600Y-107076200D01*
G75*
G02*
X141879600Y-107226200I0J-150000D01*
G01*
X141879600Y-108526200D01*
G75*
G02*
X141729600Y-108676200I-150000J0D01*
G01*
G37*
G36*
G01*
X142999600Y-108676200D02*
X142699600Y-108676200D01*
G75*
G02*
X142549600Y-108526200I0J150000D01*
G01*
X142549600Y-107226200D01*
G75*
G02*
X142699600Y-107076200I150000J0D01*
G01*
X142999600Y-107076200D01*
G75*
G02*
X143149600Y-107226200I0J-150000D01*
G01*
X143149600Y-108526200D01*
G75*
G02*
X142999600Y-108676200I-150000J0D01*
G01*
G37*
G36*
G01*
X144269600Y-108676200D02*
X143969600Y-108676200D01*
G75*
G02*
X143819600Y-108526200I0J150000D01*
G01*
X143819600Y-107226200D01*
G75*
G02*
X143969600Y-107076200I150000J0D01*
G01*
X144269600Y-107076200D01*
G75*
G02*
X144419600Y-107226200I0J-150000D01*
G01*
X144419600Y-108526200D01*
G75*
G02*
X144269600Y-108676200I-150000J0D01*
G01*
G37*
G36*
G01*
X145539600Y-108676200D02*
X145239600Y-108676200D01*
G75*
G02*
X145089600Y-108526200I0J150000D01*
G01*
X145089600Y-107226200D01*
G75*
G02*
X145239600Y-107076200I150000J0D01*
G01*
X145539600Y-107076200D01*
G75*
G02*
X145689600Y-107226200I0J-150000D01*
G01*
X145689600Y-108526200D01*
G75*
G02*
X145539600Y-108676200I-150000J0D01*
G01*
G37*
G36*
G01*
X145539600Y-115176200D02*
X145239600Y-115176200D01*
G75*
G02*
X145089600Y-115026200I0J150000D01*
G01*
X145089600Y-113726200D01*
G75*
G02*
X145239600Y-113576200I150000J0D01*
G01*
X145539600Y-113576200D01*
G75*
G02*
X145689600Y-113726200I0J-150000D01*
G01*
X145689600Y-115026200D01*
G75*
G02*
X145539600Y-115176200I-150000J0D01*
G01*
G37*
G36*
G01*
X144269600Y-115176200D02*
X143969600Y-115176200D01*
G75*
G02*
X143819600Y-115026200I0J150000D01*
G01*
X143819600Y-113726200D01*
G75*
G02*
X143969600Y-113576200I150000J0D01*
G01*
X144269600Y-113576200D01*
G75*
G02*
X144419600Y-113726200I0J-150000D01*
G01*
X144419600Y-115026200D01*
G75*
G02*
X144269600Y-115176200I-150000J0D01*
G01*
G37*
G36*
G01*
X142999600Y-115176200D02*
X142699600Y-115176200D01*
G75*
G02*
X142549600Y-115026200I0J150000D01*
G01*
X142549600Y-113726200D01*
G75*
G02*
X142699600Y-113576200I150000J0D01*
G01*
X142999600Y-113576200D01*
G75*
G02*
X143149600Y-113726200I0J-150000D01*
G01*
X143149600Y-115026200D01*
G75*
G02*
X142999600Y-115176200I-150000J0D01*
G01*
G37*
G36*
G01*
X141729600Y-115176200D02*
X141429600Y-115176200D01*
G75*
G02*
X141279600Y-115026200I0J150000D01*
G01*
X141279600Y-113726200D01*
G75*
G02*
X141429600Y-113576200I150000J0D01*
G01*
X141729600Y-113576200D01*
G75*
G02*
X141879600Y-113726200I0J-150000D01*
G01*
X141879600Y-115026200D01*
G75*
G02*
X141729600Y-115176200I-150000J0D01*
G01*
G37*
G36*
G01*
X140459600Y-115176200D02*
X140159600Y-115176200D01*
G75*
G02*
X140009600Y-115026200I0J150000D01*
G01*
X140009600Y-113726200D01*
G75*
G02*
X140159600Y-113576200I150000J0D01*
G01*
X140459600Y-113576200D01*
G75*
G02*
X140609600Y-113726200I0J-150000D01*
G01*
X140609600Y-115026200D01*
G75*
G02*
X140459600Y-115176200I-150000J0D01*
G01*
G37*
G36*
G01*
X139189600Y-115176200D02*
X138889600Y-115176200D01*
G75*
G02*
X138739600Y-115026200I0J150000D01*
G01*
X138739600Y-113726200D01*
G75*
G02*
X138889600Y-113576200I150000J0D01*
G01*
X139189600Y-113576200D01*
G75*
G02*
X139339600Y-113726200I0J-150000D01*
G01*
X139339600Y-115026200D01*
G75*
G02*
X139189600Y-115176200I-150000J0D01*
G01*
G37*
G36*
G01*
X137919600Y-115176200D02*
X137619600Y-115176200D01*
G75*
G02*
X137469600Y-115026200I0J150000D01*
G01*
X137469600Y-113726200D01*
G75*
G02*
X137619600Y-113576200I150000J0D01*
G01*
X137919600Y-113576200D01*
G75*
G02*
X138069600Y-113726200I0J-150000D01*
G01*
X138069600Y-115026200D01*
G75*
G02*
X137919600Y-115176200I-150000J0D01*
G01*
G37*
G36*
G01*
X136649600Y-115176200D02*
X136349600Y-115176200D01*
G75*
G02*
X136199600Y-115026200I0J150000D01*
G01*
X136199600Y-113726200D01*
G75*
G02*
X136349600Y-113576200I150000J0D01*
G01*
X136649600Y-113576200D01*
G75*
G02*
X136799600Y-113726200I0J-150000D01*
G01*
X136799600Y-115026200D01*
G75*
G02*
X136649600Y-115176200I-150000J0D01*
G01*
G37*
G36*
G01*
X146955500Y-103894400D02*
X147430500Y-103894400D01*
G75*
G02*
X147668000Y-104131900I0J-237500D01*
G01*
X147668000Y-104706900D01*
G75*
G02*
X147430500Y-104944400I-237500J0D01*
G01*
X146955500Y-104944400D01*
G75*
G02*
X146718000Y-104706900I0J237500D01*
G01*
X146718000Y-104131900D01*
G75*
G02*
X146955500Y-103894400I237500J0D01*
G01*
G37*
G36*
G01*
X146955500Y-102144400D02*
X147430500Y-102144400D01*
G75*
G02*
X147668000Y-102381900I0J-237500D01*
G01*
X147668000Y-102956900D01*
G75*
G02*
X147430500Y-103194400I-237500J0D01*
G01*
X146955500Y-103194400D01*
G75*
G02*
X146718000Y-102956900I0J237500D01*
G01*
X146718000Y-102381900D01*
G75*
G02*
X146955500Y-102144400I237500J0D01*
G01*
G37*
G36*
G01*
X136236700Y-83648000D02*
X136711700Y-83648000D01*
G75*
G02*
X136949200Y-83885500I0J-237500D01*
G01*
X136949200Y-84460500D01*
G75*
G02*
X136711700Y-84698000I-237500J0D01*
G01*
X136236700Y-84698000D01*
G75*
G02*
X135999200Y-84460500I0J237500D01*
G01*
X135999200Y-83885500D01*
G75*
G02*
X136236700Y-83648000I237500J0D01*
G01*
G37*
G36*
G01*
X136236700Y-81898000D02*
X136711700Y-81898000D01*
G75*
G02*
X136949200Y-82135500I0J-237500D01*
G01*
X136949200Y-82710500D01*
G75*
G02*
X136711700Y-82948000I-237500J0D01*
G01*
X136236700Y-82948000D01*
G75*
G02*
X135999200Y-82710500I0J237500D01*
G01*
X135999200Y-82135500D01*
G75*
G02*
X136236700Y-81898000I237500J0D01*
G01*
G37*
G36*
G01*
X139375600Y-105977700D02*
X139375600Y-105502700D01*
G75*
G02*
X139613100Y-105265200I237500J0D01*
G01*
X140188100Y-105265200D01*
G75*
G02*
X140425600Y-105502700I0J-237500D01*
G01*
X140425600Y-105977700D01*
G75*
G02*
X140188100Y-106215200I-237500J0D01*
G01*
X139613100Y-106215200D01*
G75*
G02*
X139375600Y-105977700I0J237500D01*
G01*
G37*
G36*
G01*
X137625600Y-105977700D02*
X137625600Y-105502700D01*
G75*
G02*
X137863100Y-105265200I237500J0D01*
G01*
X138438100Y-105265200D01*
G75*
G02*
X138675600Y-105502700I0J-237500D01*
G01*
X138675600Y-105977700D01*
G75*
G02*
X138438100Y-106215200I-237500J0D01*
G01*
X137863100Y-106215200D01*
G75*
G02*
X137625600Y-105977700I0J237500D01*
G01*
G37*
G36*
G01*
X138675600Y-103851700D02*
X138675600Y-104326700D01*
G75*
G02*
X138438100Y-104564200I-237500J0D01*
G01*
X137863100Y-104564200D01*
G75*
G02*
X137625600Y-104326700I0J237500D01*
G01*
X137625600Y-103851700D01*
G75*
G02*
X137863100Y-103614200I237500J0D01*
G01*
X138438100Y-103614200D01*
G75*
G02*
X138675600Y-103851700I0J-237500D01*
G01*
G37*
G36*
G01*
X140425600Y-103851700D02*
X140425600Y-104326700D01*
G75*
G02*
X140188100Y-104564200I-237500J0D01*
G01*
X139613100Y-104564200D01*
G75*
G02*
X139375600Y-104326700I0J237500D01*
G01*
X139375600Y-103851700D01*
G75*
G02*
X139613100Y-103614200I237500J0D01*
G01*
X140188100Y-103614200D01*
G75*
G02*
X140425600Y-103851700I0J-237500D01*
G01*
G37*
D20*
X132991600Y-104912200D03*
X135991600Y-103962200D03*
X135991600Y-105862200D03*
X145087600Y-104912200D03*
X142087600Y-105862200D03*
X142087600Y-103962200D03*
D21*
X140817600Y-101930200D03*
X137517600Y-101930200D03*
M02*
