G04 #@! TF.GenerationSoftware,KiCad,Pcbnew,(5.1.8)-1*
G04 #@! TF.CreationDate,2022-05-07T10:28:52+02:00*
G04 #@! TF.ProjectId,SuperPower-uC-KiCad,53757065-7250-46f7-9765-722d75432d4b,rev?*
G04 #@! TF.SameCoordinates,Original*
G04 #@! TF.FileFunction,Soldermask,Bot*
G04 #@! TF.FilePolarity,Negative*
%FSLAX46Y46*%
G04 Gerber Fmt 4.6, Leading zero omitted, Abs format (unit mm)*
G04 Created by KiCad (PCBNEW (5.1.8)-1) date 2022-05-07 10:28:52*
%MOMM*%
%LPD*%
G01*
G04 APERTURE LIST*
%ADD10R,1.500000X1.000000*%
%ADD11C,2.700000*%
%ADD12O,1.700000X1.700000*%
%ADD13R,1.700000X1.700000*%
G04 APERTURE END LIST*
D10*
X152247600Y-106045000D03*
X152247600Y-107345000D03*
D11*
X128432560Y-75905360D03*
X168462960Y-75905360D03*
D12*
X163677600Y-117094000D03*
X161137600Y-117094000D03*
X158597600Y-117094000D03*
X156057600Y-117094000D03*
X153517600Y-117094000D03*
X150977600Y-117094000D03*
X148437600Y-117094000D03*
X145897600Y-117094000D03*
X143357600Y-117094000D03*
X140817600Y-117094000D03*
X138277600Y-117094000D03*
X135737600Y-117094000D03*
D13*
X133197600Y-117094000D03*
D12*
X128117600Y-114554000D03*
X128117600Y-112014000D03*
X128117600Y-109474000D03*
X128117600Y-106934000D03*
X128117600Y-104394000D03*
X128117600Y-101854000D03*
X128117600Y-99314000D03*
X128117600Y-96774000D03*
X128117600Y-94234000D03*
X128117600Y-91694000D03*
X128117600Y-89154000D03*
X128117600Y-86614000D03*
X128117600Y-84074000D03*
D13*
X128117600Y-81534000D03*
D12*
X168757600Y-114554000D03*
X168757600Y-112014000D03*
X168757600Y-109474000D03*
X168757600Y-106934000D03*
X168757600Y-104394000D03*
X168757600Y-101854000D03*
X168757600Y-99314000D03*
X168757600Y-96774000D03*
X168757600Y-94234000D03*
X168757600Y-91694000D03*
X168757600Y-89154000D03*
X168757600Y-86614000D03*
X168757600Y-84074000D03*
D13*
X168757600Y-81534000D03*
M02*
