G04 #@! TF.GenerationSoftware,KiCad,Pcbnew,(5.1.8)-1*
G04 #@! TF.CreationDate,2022-05-07T10:28:52+02:00*
G04 #@! TF.ProjectId,SuperPower-uC-KiCad,53757065-7250-46f7-9765-722d75432d4b,rev?*
G04 #@! TF.SameCoordinates,Original*
G04 #@! TF.FileFunction,Copper,L2,Bot*
G04 #@! TF.FilePolarity,Positive*
%FSLAX46Y46*%
G04 Gerber Fmt 4.6, Leading zero omitted, Abs format (unit mm)*
G04 Created by KiCad (PCBNEW (5.1.8)-1) date 2022-05-07 10:28:52*
%MOMM*%
%LPD*%
G01*
G04 APERTURE LIST*
G04 #@! TA.AperFunction,SMDPad,CuDef*
%ADD10R,1.500000X1.000000*%
G04 #@! TD*
G04 #@! TA.AperFunction,ComponentPad*
%ADD11O,1.700000X1.700000*%
G04 #@! TD*
G04 #@! TA.AperFunction,ComponentPad*
%ADD12R,1.700000X1.700000*%
G04 #@! TD*
G04 #@! TA.AperFunction,ViaPad*
%ADD13C,0.600000*%
G04 #@! TD*
G04 #@! TA.AperFunction,ViaPad*
%ADD14C,0.800000*%
G04 #@! TD*
G04 #@! TA.AperFunction,Conductor*
%ADD15C,0.250000*%
G04 #@! TD*
G04 #@! TA.AperFunction,Conductor*
%ADD16C,0.500000*%
G04 #@! TD*
G04 #@! TA.AperFunction,Conductor*
%ADD17C,0.600000*%
G04 #@! TD*
G04 #@! TA.AperFunction,Conductor*
%ADD18C,0.400000*%
G04 #@! TD*
G04 #@! TA.AperFunction,Conductor*
%ADD19C,0.150000*%
G04 #@! TD*
G04 #@! TA.AperFunction,Conductor*
%ADD20C,0.100000*%
G04 #@! TD*
G04 APERTURE END LIST*
D10*
X152247600Y-106045000D03*
X152247600Y-107345000D03*
D11*
X163677600Y-117094000D03*
X161137600Y-117094000D03*
X158597600Y-117094000D03*
X156057600Y-117094000D03*
X153517600Y-117094000D03*
X150977600Y-117094000D03*
X148437600Y-117094000D03*
X145897600Y-117094000D03*
X143357600Y-117094000D03*
X140817600Y-117094000D03*
X138277600Y-117094000D03*
X135737600Y-117094000D03*
D12*
X133197600Y-117094000D03*
D11*
X128117600Y-114554000D03*
X128117600Y-112014000D03*
X128117600Y-109474000D03*
X128117600Y-106934000D03*
X128117600Y-104394000D03*
X128117600Y-101854000D03*
X128117600Y-99314000D03*
X128117600Y-96774000D03*
X128117600Y-94234000D03*
X128117600Y-91694000D03*
X128117600Y-89154000D03*
X128117600Y-86614000D03*
X128117600Y-84074000D03*
D12*
X128117600Y-81534000D03*
D11*
X168757600Y-114554000D03*
X168757600Y-112014000D03*
X168757600Y-109474000D03*
X168757600Y-106934000D03*
X168757600Y-104394000D03*
X168757600Y-101854000D03*
X168757600Y-99314000D03*
X168757600Y-96774000D03*
X168757600Y-94234000D03*
X168757600Y-91694000D03*
X168757600Y-89154000D03*
X168757600Y-86614000D03*
X168757600Y-84074000D03*
D12*
X168757600Y-81534000D03*
D13*
X145669000Y-86791800D03*
X145669000Y-87807800D03*
X145669000Y-88823800D03*
X145669000Y-89839800D03*
X145669000Y-90855800D03*
X146685000Y-90855800D03*
X147701000Y-90855800D03*
X148717000Y-90855800D03*
X149733000Y-90855800D03*
X149733000Y-89839800D03*
X149733000Y-88823800D03*
X149733000Y-87807800D03*
X149733000Y-86791800D03*
X148717000Y-86791800D03*
X147701000Y-86791800D03*
X146685000Y-86791800D03*
X146685000Y-87807800D03*
X146685000Y-88823800D03*
X146685000Y-89839800D03*
X147701000Y-89839800D03*
X148717000Y-89839800D03*
X148717000Y-88823800D03*
X148717000Y-87807800D03*
X147701000Y-87807800D03*
X147701000Y-88823800D03*
D14*
X138557000Y-81203800D03*
X158750000Y-81330800D03*
D13*
X146405594Y-106934000D03*
D14*
X150942214Y-104022988D03*
D13*
X158140400Y-100135021D03*
D14*
X131546600Y-82423000D03*
X133832600Y-83439000D03*
X135864600Y-109474000D03*
D13*
X137261611Y-83311989D03*
X136626600Y-86868000D03*
X136499600Y-113106200D03*
X164058600Y-81407000D03*
X162407600Y-90297000D03*
X159613600Y-91567000D03*
D14*
X142976600Y-97155000D03*
X143992600Y-103124000D03*
X151993600Y-110490000D03*
X152374600Y-112395000D03*
D13*
X159613600Y-110617000D03*
X166795643Y-104457500D03*
X164122100Y-102933500D03*
X163487100Y-105727500D03*
X155559742Y-88402142D03*
X155575000Y-83220400D03*
X151480005Y-104755195D03*
X155559753Y-97790004D03*
X134213600Y-86868000D03*
X135737600Y-84836000D03*
X163169600Y-92476990D03*
X161433898Y-98846002D03*
X138889543Y-110564435D03*
X150012839Y-97259210D03*
X139347065Y-109908163D03*
X149189490Y-97246239D03*
X135816673Y-111305038D03*
X141198596Y-100838000D03*
X144119600Y-100838000D03*
X153495269Y-110512331D03*
X153939931Y-108835669D03*
X155905200Y-102005378D03*
X157968026Y-104083776D03*
D14*
X154561611Y-106045000D03*
X152161600Y-106045000D03*
X145541999Y-96621603D03*
X146024600Y-102108012D03*
X152247600Y-107315000D03*
D13*
X166090600Y-90424000D03*
X156946600Y-115824000D03*
X167995600Y-115824000D03*
X138150610Y-110871000D03*
X150840559Y-97315388D03*
X138277600Y-109982000D03*
X148353128Y-97211927D03*
X160756600Y-87376000D03*
X160756590Y-82296000D03*
D15*
X165271643Y-102933500D02*
X164122100Y-102933500D01*
X166795643Y-104457500D02*
X165271643Y-102933500D01*
X167424100Y-105727500D02*
X163487100Y-105727500D01*
X168757600Y-104394000D02*
X167424100Y-105727500D01*
X155559742Y-83235658D02*
X155575000Y-83220400D01*
X155559742Y-88402142D02*
X155559742Y-83235658D01*
X151480005Y-104755195D02*
X155559753Y-100675447D01*
X155559753Y-100675447D02*
X155559753Y-97790004D01*
X134213600Y-86360000D02*
X135737600Y-84836000D01*
X134213600Y-86868000D02*
X134213600Y-86360000D01*
X161433898Y-94212692D02*
X161433898Y-98846002D01*
X163169600Y-92476990D02*
X161433898Y-94212692D01*
X147860589Y-103447011D02*
X147860589Y-99658947D01*
X147860589Y-99658947D02*
X150012839Y-97506697D01*
X138889543Y-110564435D02*
X140743165Y-110564435D01*
X150012839Y-97506697D02*
X150012839Y-97259210D01*
X140743165Y-110564435D02*
X147860589Y-103447011D01*
X147352589Y-99330628D02*
X149189490Y-97493727D01*
X149189490Y-97493727D02*
X149189490Y-97246239D01*
X140636027Y-109908163D02*
X147352589Y-103191601D01*
X147352589Y-103191601D02*
X147352589Y-99330628D01*
X139347065Y-109908163D02*
X140636027Y-109908163D01*
X137541635Y-113030000D02*
X135816673Y-111305038D01*
X144373600Y-113030000D02*
X137541635Y-113030000D01*
X148437600Y-117094000D02*
X144373600Y-113030000D01*
X141198596Y-100838000D02*
X144119600Y-100838000D01*
X153495269Y-109280331D02*
X153939931Y-108835669D01*
X153495269Y-110512331D02*
X153495269Y-109280331D01*
X155905200Y-102005378D02*
X157968026Y-104068204D01*
X157968026Y-104068204D02*
X157968026Y-104083776D01*
D16*
X154561611Y-106045000D02*
X152161600Y-106045000D01*
D17*
X146024600Y-97104204D02*
X146024600Y-102108012D01*
X145541999Y-96621603D02*
X146024600Y-97104204D01*
D16*
X152247600Y-107345000D02*
X152247600Y-107315000D01*
D18*
X152247600Y-115824000D02*
X150977600Y-117094000D01*
X156946600Y-115824000D02*
X152247600Y-115824000D01*
X166090600Y-90424000D02*
X166090600Y-90877002D01*
X166090600Y-90877002D02*
X168177598Y-92964000D01*
X168177598Y-92964000D02*
X169365101Y-92964000D01*
X169365101Y-92964000D02*
X170408600Y-94007499D01*
X170408600Y-94007499D02*
X170408600Y-114753002D01*
X170408600Y-114753002D02*
X169337602Y-115824000D01*
X169337602Y-115824000D02*
X167995600Y-115824000D01*
D15*
X138150610Y-110871000D02*
X138577609Y-111297999D01*
X138577609Y-111297999D02*
X140771601Y-111297999D01*
X140771601Y-111297999D02*
X148310600Y-103759000D01*
X148310600Y-103759000D02*
X148310600Y-99845347D01*
X148310600Y-99845347D02*
X150840559Y-97315388D01*
X146902578Y-98662477D02*
X148353128Y-97211927D01*
X146902578Y-102881022D02*
X146902578Y-98662477D01*
X140690600Y-109093000D02*
X146902578Y-102881022D01*
X139166600Y-109093000D02*
X140690600Y-109093000D01*
X138277600Y-109982000D02*
X139166600Y-109093000D01*
D16*
X145897600Y-117094000D02*
X146278600Y-117094000D01*
D15*
X160756600Y-87376000D02*
X160756600Y-82296010D01*
X160756600Y-82296010D02*
X160756590Y-82296000D01*
D19*
X170708040Y-81915137D02*
X170705910Y-93633058D01*
X169717485Y-92644634D01*
X169702602Y-92626499D01*
X169630274Y-92567141D01*
X169547755Y-92523034D01*
X169526118Y-92516471D01*
X169631444Y-92411145D01*
X169754562Y-92226887D01*
X169839367Y-92022150D01*
X169882600Y-91804803D01*
X169882600Y-91583197D01*
X169839367Y-91365850D01*
X169754562Y-91161113D01*
X169631444Y-90976855D01*
X169474745Y-90820156D01*
X169290487Y-90697038D01*
X169085750Y-90612233D01*
X168868403Y-90569000D01*
X168646797Y-90569000D01*
X168429450Y-90612233D01*
X168224713Y-90697038D01*
X168040455Y-90820156D01*
X167883756Y-90976855D01*
X167760638Y-91161113D01*
X167675833Y-91365850D01*
X167632600Y-91583197D01*
X167632600Y-91747251D01*
X166592770Y-90707422D01*
X166600158Y-90696365D01*
X166643503Y-90591721D01*
X166665600Y-90480633D01*
X166665600Y-90367367D01*
X166643503Y-90256279D01*
X166600158Y-90151635D01*
X166537232Y-90057459D01*
X166457141Y-89977368D01*
X166362965Y-89914442D01*
X166258321Y-89871097D01*
X166147233Y-89849000D01*
X166033967Y-89849000D01*
X165922879Y-89871097D01*
X165818235Y-89914442D01*
X165724059Y-89977368D01*
X165643968Y-90057459D01*
X165581042Y-90151635D01*
X165537697Y-90256279D01*
X165515600Y-90367367D01*
X165515600Y-90480633D01*
X165537697Y-90591721D01*
X165581042Y-90696365D01*
X165615601Y-90748086D01*
X165615601Y-90853660D01*
X165613302Y-90877002D01*
X165622473Y-90970118D01*
X165631235Y-90999000D01*
X165649635Y-91059656D01*
X165693742Y-91142175D01*
X165753100Y-91214503D01*
X165771229Y-91229381D01*
X167825223Y-93283377D01*
X167840097Y-93301501D01*
X167912425Y-93360859D01*
X167966200Y-93389602D01*
X167994943Y-93404966D01*
X167995482Y-93405129D01*
X167883756Y-93516855D01*
X167760638Y-93701113D01*
X167675833Y-93905850D01*
X167632600Y-94123197D01*
X167632600Y-94344803D01*
X167675833Y-94562150D01*
X167760638Y-94766887D01*
X167883756Y-94951145D01*
X168040455Y-95107844D01*
X168224713Y-95230962D01*
X168429450Y-95315767D01*
X168646797Y-95359000D01*
X168868403Y-95359000D01*
X169085750Y-95315767D01*
X169290487Y-95230962D01*
X169474745Y-95107844D01*
X169631444Y-94951145D01*
X169754562Y-94766887D01*
X169839367Y-94562150D01*
X169882600Y-94344803D01*
X169882600Y-94153250D01*
X169933600Y-94204250D01*
X169933601Y-114556249D01*
X169882600Y-114607250D01*
X169882600Y-114443197D01*
X169839367Y-114225850D01*
X169754562Y-114021113D01*
X169631444Y-113836855D01*
X169474745Y-113680156D01*
X169290487Y-113557038D01*
X169085750Y-113472233D01*
X168868403Y-113429000D01*
X168646797Y-113429000D01*
X168429450Y-113472233D01*
X168224713Y-113557038D01*
X168040455Y-113680156D01*
X167883756Y-113836855D01*
X167760638Y-114021113D01*
X167675833Y-114225850D01*
X167632600Y-114443197D01*
X167632600Y-114664803D01*
X167675833Y-114882150D01*
X167760638Y-115086887D01*
X167877172Y-115261292D01*
X167827879Y-115271097D01*
X167723235Y-115314442D01*
X167629059Y-115377368D01*
X167548968Y-115457459D01*
X167486042Y-115551635D01*
X167442697Y-115656279D01*
X167420600Y-115767367D01*
X167420600Y-115880633D01*
X167442697Y-115991721D01*
X167486042Y-116096365D01*
X167548968Y-116190541D01*
X167629059Y-116270632D01*
X167723235Y-116333558D01*
X167827879Y-116376903D01*
X167938967Y-116399000D01*
X168052233Y-116399000D01*
X168163321Y-116376903D01*
X168267965Y-116333558D01*
X168319685Y-116299000D01*
X169314270Y-116299000D01*
X169337602Y-116301298D01*
X169360934Y-116299000D01*
X169430718Y-116292127D01*
X169520256Y-116264966D01*
X169602775Y-116220859D01*
X169675103Y-116161501D01*
X169689986Y-116143366D01*
X170652160Y-115181193D01*
X170652160Y-115819490D01*
X170607122Y-116278830D01*
X170477979Y-116706569D01*
X170268217Y-117101074D01*
X169985826Y-117447320D01*
X169641556Y-117732126D01*
X169248520Y-117944639D01*
X168821704Y-118076761D01*
X168363198Y-118124952D01*
X168360889Y-118124960D01*
X164128409Y-118124960D01*
X164210487Y-118090962D01*
X164394745Y-117967844D01*
X164551444Y-117811145D01*
X164674562Y-117626887D01*
X164759367Y-117422150D01*
X164802600Y-117204803D01*
X164802600Y-116983197D01*
X164759367Y-116765850D01*
X164674562Y-116561113D01*
X164551444Y-116376855D01*
X164394745Y-116220156D01*
X164210487Y-116097038D01*
X164005750Y-116012233D01*
X163788403Y-115969000D01*
X163566797Y-115969000D01*
X163349450Y-116012233D01*
X163144713Y-116097038D01*
X162960455Y-116220156D01*
X162803756Y-116376855D01*
X162680638Y-116561113D01*
X162595833Y-116765850D01*
X162552600Y-116983197D01*
X162552600Y-117204803D01*
X162595833Y-117422150D01*
X162680638Y-117626887D01*
X162803756Y-117811145D01*
X162960455Y-117967844D01*
X163144713Y-118090962D01*
X163226791Y-118124960D01*
X161588409Y-118124960D01*
X161670487Y-118090962D01*
X161854745Y-117967844D01*
X162011444Y-117811145D01*
X162134562Y-117626887D01*
X162219367Y-117422150D01*
X162262600Y-117204803D01*
X162262600Y-116983197D01*
X162219367Y-116765850D01*
X162134562Y-116561113D01*
X162011444Y-116376855D01*
X161854745Y-116220156D01*
X161670487Y-116097038D01*
X161465750Y-116012233D01*
X161248403Y-115969000D01*
X161026797Y-115969000D01*
X160809450Y-116012233D01*
X160604713Y-116097038D01*
X160420455Y-116220156D01*
X160263756Y-116376855D01*
X160140638Y-116561113D01*
X160055833Y-116765850D01*
X160012600Y-116983197D01*
X160012600Y-117204803D01*
X160055833Y-117422150D01*
X160140638Y-117626887D01*
X160263756Y-117811145D01*
X160420455Y-117967844D01*
X160604713Y-118090962D01*
X160686791Y-118124960D01*
X159039122Y-118124960D01*
X159196714Y-118046207D01*
X159370968Y-117911029D01*
X159515502Y-117744453D01*
X159624762Y-117552881D01*
X159694549Y-117343674D01*
X159651351Y-117169000D01*
X158672600Y-117169000D01*
X158672600Y-117189000D01*
X158522600Y-117189000D01*
X158522600Y-117169000D01*
X157543849Y-117169000D01*
X157500651Y-117343674D01*
X157570438Y-117552881D01*
X157679698Y-117744453D01*
X157824232Y-117911029D01*
X157998486Y-118046207D01*
X158156078Y-118124960D01*
X156508409Y-118124960D01*
X156590487Y-118090962D01*
X156774745Y-117967844D01*
X156931444Y-117811145D01*
X157054562Y-117626887D01*
X157139367Y-117422150D01*
X157182600Y-117204803D01*
X157182600Y-116983197D01*
X157154977Y-116844326D01*
X157500651Y-116844326D01*
X157543849Y-117019000D01*
X158522600Y-117019000D01*
X158522600Y-116040416D01*
X158672600Y-116040416D01*
X158672600Y-117019000D01*
X159651351Y-117019000D01*
X159694549Y-116844326D01*
X159624762Y-116635119D01*
X159515502Y-116443547D01*
X159370968Y-116276971D01*
X159196714Y-116141793D01*
X158999436Y-116043208D01*
X158847274Y-115997055D01*
X158672600Y-116040416D01*
X158522600Y-116040416D01*
X158347926Y-115997055D01*
X158195764Y-116043208D01*
X157998486Y-116141793D01*
X157824232Y-116276971D01*
X157679698Y-116443547D01*
X157570438Y-116635119D01*
X157500651Y-116844326D01*
X157154977Y-116844326D01*
X157139367Y-116765850D01*
X157054562Y-116561113D01*
X156946241Y-116399000D01*
X157003233Y-116399000D01*
X157114321Y-116376903D01*
X157218965Y-116333558D01*
X157313141Y-116270632D01*
X157393232Y-116190541D01*
X157456158Y-116096365D01*
X157499503Y-115991721D01*
X157521600Y-115880633D01*
X157521600Y-115767367D01*
X157499503Y-115656279D01*
X157456158Y-115551635D01*
X157393232Y-115457459D01*
X157313141Y-115377368D01*
X157218965Y-115314442D01*
X157114321Y-115271097D01*
X157003233Y-115249000D01*
X156889967Y-115249000D01*
X156778879Y-115271097D01*
X156674235Y-115314442D01*
X156622515Y-115349000D01*
X152270931Y-115349000D01*
X152247599Y-115346702D01*
X152154483Y-115355873D01*
X152127322Y-115364112D01*
X152064946Y-115383034D01*
X151982427Y-115427141D01*
X151910099Y-115486499D01*
X151895220Y-115504629D01*
X151363638Y-116036211D01*
X151305750Y-116012233D01*
X151088403Y-115969000D01*
X150866797Y-115969000D01*
X150649450Y-116012233D01*
X150444713Y-116097038D01*
X150260455Y-116220156D01*
X150103756Y-116376855D01*
X149980638Y-116561113D01*
X149895833Y-116765850D01*
X149852600Y-116983197D01*
X149852600Y-117204803D01*
X149895833Y-117422150D01*
X149980638Y-117626887D01*
X150103756Y-117811145D01*
X150260455Y-117967844D01*
X150444713Y-118090962D01*
X150526791Y-118124960D01*
X148888409Y-118124960D01*
X148970487Y-118090962D01*
X149154745Y-117967844D01*
X149311444Y-117811145D01*
X149434562Y-117626887D01*
X149519367Y-117422150D01*
X149562600Y-117204803D01*
X149562600Y-116983197D01*
X149519367Y-116765850D01*
X149434562Y-116561113D01*
X149311444Y-116376855D01*
X149154745Y-116220156D01*
X148970487Y-116097038D01*
X148765750Y-116012233D01*
X148548403Y-115969000D01*
X148326797Y-115969000D01*
X148109450Y-116012233D01*
X147976563Y-116067277D01*
X144670335Y-112761050D01*
X144657811Y-112745789D01*
X144596903Y-112695803D01*
X144527414Y-112658660D01*
X144452014Y-112635788D01*
X144393247Y-112630000D01*
X144393246Y-112630000D01*
X144373600Y-112628065D01*
X144353954Y-112630000D01*
X137707320Y-112630000D01*
X136980517Y-111903197D01*
X167632600Y-111903197D01*
X167632600Y-112124803D01*
X167675833Y-112342150D01*
X167760638Y-112546887D01*
X167883756Y-112731145D01*
X168040455Y-112887844D01*
X168224713Y-113010962D01*
X168429450Y-113095767D01*
X168646797Y-113139000D01*
X168868403Y-113139000D01*
X169085750Y-113095767D01*
X169290487Y-113010962D01*
X169474745Y-112887844D01*
X169631444Y-112731145D01*
X169754562Y-112546887D01*
X169839367Y-112342150D01*
X169882600Y-112124803D01*
X169882600Y-111903197D01*
X169839367Y-111685850D01*
X169754562Y-111481113D01*
X169631444Y-111296855D01*
X169474745Y-111140156D01*
X169290487Y-111017038D01*
X169085750Y-110932233D01*
X168868403Y-110889000D01*
X168646797Y-110889000D01*
X168429450Y-110932233D01*
X168224713Y-111017038D01*
X168040455Y-111140156D01*
X167883756Y-111296855D01*
X167760638Y-111481113D01*
X167675833Y-111685850D01*
X167632600Y-111903197D01*
X136980517Y-111903197D01*
X136391673Y-111314353D01*
X136391673Y-111248405D01*
X136369576Y-111137317D01*
X136326231Y-111032673D01*
X136263305Y-110938497D01*
X136183214Y-110858406D01*
X136117305Y-110814367D01*
X137575610Y-110814367D01*
X137575610Y-110927633D01*
X137597707Y-111038721D01*
X137641052Y-111143365D01*
X137703978Y-111237541D01*
X137784069Y-111317632D01*
X137878245Y-111380558D01*
X137982889Y-111423903D01*
X138093977Y-111446000D01*
X138159924Y-111446000D01*
X138280876Y-111566952D01*
X138293398Y-111582210D01*
X138308656Y-111594732D01*
X138308658Y-111594734D01*
X138354306Y-111632196D01*
X138423795Y-111669339D01*
X138499195Y-111692211D01*
X138577609Y-111699934D01*
X138597256Y-111697999D01*
X140751955Y-111697999D01*
X140771601Y-111699934D01*
X140791247Y-111697999D01*
X140791248Y-111697999D01*
X140850015Y-111692211D01*
X140925415Y-111669339D01*
X140994904Y-111632196D01*
X141055812Y-111582210D01*
X141068338Y-111566947D01*
X142179587Y-110455698D01*
X152920269Y-110455698D01*
X152920269Y-110568964D01*
X152942366Y-110680052D01*
X152985711Y-110784696D01*
X153048637Y-110878872D01*
X153128728Y-110958963D01*
X153222904Y-111021889D01*
X153327548Y-111065234D01*
X153438636Y-111087331D01*
X153551902Y-111087331D01*
X153662990Y-111065234D01*
X153767634Y-111021889D01*
X153861810Y-110958963D01*
X153941901Y-110878872D01*
X154004827Y-110784696D01*
X154048172Y-110680052D01*
X154070269Y-110568964D01*
X154070269Y-110455698D01*
X154048172Y-110344610D01*
X154004827Y-110239966D01*
X153941901Y-110145790D01*
X153895269Y-110099158D01*
X153895269Y-109446016D01*
X153930616Y-109410669D01*
X153996564Y-109410669D01*
X154107652Y-109388572D01*
X154168912Y-109363197D01*
X167632600Y-109363197D01*
X167632600Y-109584803D01*
X167675833Y-109802150D01*
X167760638Y-110006887D01*
X167883756Y-110191145D01*
X168040455Y-110347844D01*
X168224713Y-110470962D01*
X168429450Y-110555767D01*
X168646797Y-110599000D01*
X168868403Y-110599000D01*
X169085750Y-110555767D01*
X169290487Y-110470962D01*
X169474745Y-110347844D01*
X169631444Y-110191145D01*
X169754562Y-110006887D01*
X169839367Y-109802150D01*
X169882600Y-109584803D01*
X169882600Y-109363197D01*
X169839367Y-109145850D01*
X169754562Y-108941113D01*
X169631444Y-108756855D01*
X169474745Y-108600156D01*
X169290487Y-108477038D01*
X169085750Y-108392233D01*
X168868403Y-108349000D01*
X168646797Y-108349000D01*
X168429450Y-108392233D01*
X168224713Y-108477038D01*
X168040455Y-108600156D01*
X167883756Y-108756855D01*
X167760638Y-108941113D01*
X167675833Y-109145850D01*
X167632600Y-109363197D01*
X154168912Y-109363197D01*
X154212296Y-109345227D01*
X154306472Y-109282301D01*
X154386563Y-109202210D01*
X154449489Y-109108034D01*
X154492834Y-109003390D01*
X154514931Y-108892302D01*
X154514931Y-108779036D01*
X154492834Y-108667948D01*
X154449489Y-108563304D01*
X154386563Y-108469128D01*
X154306472Y-108389037D01*
X154212296Y-108326111D01*
X154107652Y-108282766D01*
X153996564Y-108260669D01*
X153883298Y-108260669D01*
X153772210Y-108282766D01*
X153667566Y-108326111D01*
X153573390Y-108389037D01*
X153493299Y-108469128D01*
X153430373Y-108563304D01*
X153387028Y-108667948D01*
X153364931Y-108779036D01*
X153364931Y-108844984D01*
X153226316Y-108983599D01*
X153211059Y-108996120D01*
X153198537Y-109011378D01*
X153198534Y-109011381D01*
X153161072Y-109057029D01*
X153123930Y-109126517D01*
X153101057Y-109201918D01*
X153093334Y-109280331D01*
X153095270Y-109299987D01*
X153095269Y-110099158D01*
X153048637Y-110145790D01*
X152985711Y-110239966D01*
X152942366Y-110344610D01*
X152920269Y-110455698D01*
X142179587Y-110455698D01*
X147936723Y-104698562D01*
X150905005Y-104698562D01*
X150905005Y-104811828D01*
X150927102Y-104922916D01*
X150970447Y-105027560D01*
X151033373Y-105121736D01*
X151113464Y-105201827D01*
X151207640Y-105264753D01*
X151312284Y-105308098D01*
X151345194Y-105314644D01*
X151344079Y-105315240D01*
X151302205Y-105349605D01*
X151267840Y-105391479D01*
X151242304Y-105439253D01*
X151226580Y-105491091D01*
X151221270Y-105545000D01*
X151221270Y-106545000D01*
X151226580Y-106598909D01*
X151242304Y-106650747D01*
X151265958Y-106695000D01*
X151242304Y-106739253D01*
X151226580Y-106791091D01*
X151221270Y-106845000D01*
X151221270Y-107845000D01*
X151226580Y-107898909D01*
X151242304Y-107950747D01*
X151267840Y-107998521D01*
X151302205Y-108040395D01*
X151344079Y-108074760D01*
X151391853Y-108100296D01*
X151443691Y-108116020D01*
X151497600Y-108121330D01*
X152997600Y-108121330D01*
X153051509Y-108116020D01*
X153103347Y-108100296D01*
X153151121Y-108074760D01*
X153192995Y-108040395D01*
X153227360Y-107998521D01*
X153252896Y-107950747D01*
X153268620Y-107898909D01*
X153273930Y-107845000D01*
X153273930Y-106845000D01*
X153271783Y-106823197D01*
X167632600Y-106823197D01*
X167632600Y-107044803D01*
X167675833Y-107262150D01*
X167760638Y-107466887D01*
X167883756Y-107651145D01*
X168040455Y-107807844D01*
X168224713Y-107930962D01*
X168429450Y-108015767D01*
X168646797Y-108059000D01*
X168868403Y-108059000D01*
X169085750Y-108015767D01*
X169290487Y-107930962D01*
X169474745Y-107807844D01*
X169631444Y-107651145D01*
X169754562Y-107466887D01*
X169839367Y-107262150D01*
X169882600Y-107044803D01*
X169882600Y-106823197D01*
X169839367Y-106605850D01*
X169754562Y-106401113D01*
X169631444Y-106216855D01*
X169474745Y-106060156D01*
X169290487Y-105937038D01*
X169085750Y-105852233D01*
X168868403Y-105809000D01*
X168646797Y-105809000D01*
X168429450Y-105852233D01*
X168224713Y-105937038D01*
X168040455Y-106060156D01*
X167883756Y-106216855D01*
X167760638Y-106401113D01*
X167675833Y-106605850D01*
X167632600Y-106823197D01*
X153271783Y-106823197D01*
X153268620Y-106791091D01*
X153252896Y-106739253D01*
X153229242Y-106695000D01*
X153252896Y-106650747D01*
X153268620Y-106598909D01*
X153271468Y-106570000D01*
X154132361Y-106570000D01*
X154241879Y-106643177D01*
X154364721Y-106694060D01*
X154495129Y-106720000D01*
X154628093Y-106720000D01*
X154758501Y-106694060D01*
X154881343Y-106643177D01*
X154991898Y-106569307D01*
X155085918Y-106475287D01*
X155159788Y-106364732D01*
X155210671Y-106241890D01*
X155236611Y-106111482D01*
X155236611Y-105978518D01*
X155210671Y-105848110D01*
X155159788Y-105725268D01*
X155123439Y-105670867D01*
X162912100Y-105670867D01*
X162912100Y-105784133D01*
X162934197Y-105895221D01*
X162977542Y-105999865D01*
X163040468Y-106094041D01*
X163120559Y-106174132D01*
X163214735Y-106237058D01*
X163319379Y-106280403D01*
X163430467Y-106302500D01*
X163543733Y-106302500D01*
X163654821Y-106280403D01*
X163759465Y-106237058D01*
X163853641Y-106174132D01*
X163900273Y-106127500D01*
X167404454Y-106127500D01*
X167424100Y-106129435D01*
X167443746Y-106127500D01*
X167443747Y-106127500D01*
X167502514Y-106121712D01*
X167577914Y-106098840D01*
X167647403Y-106061697D01*
X167708311Y-106011711D01*
X167720837Y-105996448D01*
X168296562Y-105420723D01*
X168429450Y-105475767D01*
X168646797Y-105519000D01*
X168868403Y-105519000D01*
X169085750Y-105475767D01*
X169290487Y-105390962D01*
X169474745Y-105267844D01*
X169631444Y-105111145D01*
X169754562Y-104926887D01*
X169839367Y-104722150D01*
X169882600Y-104504803D01*
X169882600Y-104283197D01*
X169839367Y-104065850D01*
X169754562Y-103861113D01*
X169631444Y-103676855D01*
X169474745Y-103520156D01*
X169290487Y-103397038D01*
X169085750Y-103312233D01*
X168868403Y-103269000D01*
X168646797Y-103269000D01*
X168429450Y-103312233D01*
X168224713Y-103397038D01*
X168040455Y-103520156D01*
X167883756Y-103676855D01*
X167760638Y-103861113D01*
X167675833Y-104065850D01*
X167632600Y-104283197D01*
X167632600Y-104504803D01*
X167675833Y-104722150D01*
X167730877Y-104855038D01*
X167258415Y-105327500D01*
X163900273Y-105327500D01*
X163853641Y-105280868D01*
X163759465Y-105217942D01*
X163654821Y-105174597D01*
X163543733Y-105152500D01*
X163430467Y-105152500D01*
X163319379Y-105174597D01*
X163214735Y-105217942D01*
X163120559Y-105280868D01*
X163040468Y-105360959D01*
X162977542Y-105455135D01*
X162934197Y-105559779D01*
X162912100Y-105670867D01*
X155123439Y-105670867D01*
X155085918Y-105614713D01*
X154991898Y-105520693D01*
X154881343Y-105446823D01*
X154758501Y-105395940D01*
X154628093Y-105370000D01*
X154495129Y-105370000D01*
X154364721Y-105395940D01*
X154241879Y-105446823D01*
X154132361Y-105520000D01*
X153271468Y-105520000D01*
X153268620Y-105491091D01*
X153252896Y-105439253D01*
X153227360Y-105391479D01*
X153192995Y-105349605D01*
X153151121Y-105315240D01*
X153103347Y-105289704D01*
X153051509Y-105273980D01*
X152997600Y-105268670D01*
X151742914Y-105268670D01*
X151752370Y-105264753D01*
X151846546Y-105201827D01*
X151926637Y-105121736D01*
X151989563Y-105027560D01*
X152032908Y-104922916D01*
X152055005Y-104811828D01*
X152055005Y-104745880D01*
X154852140Y-101948745D01*
X155330200Y-101948745D01*
X155330200Y-102062011D01*
X155352297Y-102173099D01*
X155395642Y-102277743D01*
X155458568Y-102371919D01*
X155538659Y-102452010D01*
X155632835Y-102514936D01*
X155737479Y-102558281D01*
X155848567Y-102580378D01*
X155914515Y-102580378D01*
X157393026Y-104058889D01*
X157393026Y-104140409D01*
X157415123Y-104251497D01*
X157458468Y-104356141D01*
X157521394Y-104450317D01*
X157601485Y-104530408D01*
X157695661Y-104593334D01*
X157800305Y-104636679D01*
X157911393Y-104658776D01*
X158024659Y-104658776D01*
X158135747Y-104636679D01*
X158240391Y-104593334D01*
X158334567Y-104530408D01*
X158414658Y-104450317D01*
X158477584Y-104356141D01*
X158520929Y-104251497D01*
X158543026Y-104140409D01*
X158543026Y-104027143D01*
X158520929Y-103916055D01*
X158477584Y-103811411D01*
X158414658Y-103717235D01*
X158334567Y-103637144D01*
X158240391Y-103574218D01*
X158135747Y-103530873D01*
X158024659Y-103508776D01*
X157974283Y-103508776D01*
X157342374Y-102876867D01*
X163547100Y-102876867D01*
X163547100Y-102990133D01*
X163569197Y-103101221D01*
X163612542Y-103205865D01*
X163675468Y-103300041D01*
X163755559Y-103380132D01*
X163849735Y-103443058D01*
X163954379Y-103486403D01*
X164065467Y-103508500D01*
X164178733Y-103508500D01*
X164289821Y-103486403D01*
X164394465Y-103443058D01*
X164488641Y-103380132D01*
X164535273Y-103333500D01*
X165105958Y-103333500D01*
X166220643Y-104448185D01*
X166220643Y-104514133D01*
X166242740Y-104625221D01*
X166286085Y-104729865D01*
X166349011Y-104824041D01*
X166429102Y-104904132D01*
X166523278Y-104967058D01*
X166627922Y-105010403D01*
X166739010Y-105032500D01*
X166852276Y-105032500D01*
X166963364Y-105010403D01*
X167068008Y-104967058D01*
X167162184Y-104904132D01*
X167242275Y-104824041D01*
X167305201Y-104729865D01*
X167348546Y-104625221D01*
X167370643Y-104514133D01*
X167370643Y-104400867D01*
X167348546Y-104289779D01*
X167305201Y-104185135D01*
X167242275Y-104090959D01*
X167162184Y-104010868D01*
X167068008Y-103947942D01*
X166963364Y-103904597D01*
X166852276Y-103882500D01*
X166786328Y-103882500D01*
X165568380Y-102664552D01*
X165555854Y-102649289D01*
X165494946Y-102599303D01*
X165425457Y-102562160D01*
X165350057Y-102539288D01*
X165291290Y-102533500D01*
X165291289Y-102533500D01*
X165271643Y-102531565D01*
X165251997Y-102533500D01*
X164535273Y-102533500D01*
X164488641Y-102486868D01*
X164394465Y-102423942D01*
X164289821Y-102380597D01*
X164178733Y-102358500D01*
X164065467Y-102358500D01*
X163954379Y-102380597D01*
X163849735Y-102423942D01*
X163755559Y-102486868D01*
X163675468Y-102566959D01*
X163612542Y-102661135D01*
X163569197Y-102765779D01*
X163547100Y-102876867D01*
X157342374Y-102876867D01*
X156480200Y-102014693D01*
X156480200Y-101948745D01*
X156458103Y-101837657D01*
X156418977Y-101743197D01*
X167632600Y-101743197D01*
X167632600Y-101964803D01*
X167675833Y-102182150D01*
X167760638Y-102386887D01*
X167883756Y-102571145D01*
X168040455Y-102727844D01*
X168224713Y-102850962D01*
X168429450Y-102935767D01*
X168646797Y-102979000D01*
X168868403Y-102979000D01*
X169085750Y-102935767D01*
X169290487Y-102850962D01*
X169474745Y-102727844D01*
X169631444Y-102571145D01*
X169754562Y-102386887D01*
X169839367Y-102182150D01*
X169882600Y-101964803D01*
X169882600Y-101743197D01*
X169839367Y-101525850D01*
X169754562Y-101321113D01*
X169631444Y-101136855D01*
X169474745Y-100980156D01*
X169290487Y-100857038D01*
X169085750Y-100772233D01*
X168868403Y-100729000D01*
X168646797Y-100729000D01*
X168429450Y-100772233D01*
X168224713Y-100857038D01*
X168040455Y-100980156D01*
X167883756Y-101136855D01*
X167760638Y-101321113D01*
X167675833Y-101525850D01*
X167632600Y-101743197D01*
X156418977Y-101743197D01*
X156414758Y-101733013D01*
X156351832Y-101638837D01*
X156271741Y-101558746D01*
X156177565Y-101495820D01*
X156072921Y-101452475D01*
X155961833Y-101430378D01*
X155848567Y-101430378D01*
X155737479Y-101452475D01*
X155632835Y-101495820D01*
X155538659Y-101558746D01*
X155458568Y-101638837D01*
X155395642Y-101733013D01*
X155352297Y-101837657D01*
X155330200Y-101948745D01*
X154852140Y-101948745D01*
X155828707Y-100972179D01*
X155843964Y-100959658D01*
X155893950Y-100898750D01*
X155931093Y-100829261D01*
X155953965Y-100753861D01*
X155959753Y-100695094D01*
X155959753Y-100695093D01*
X155961688Y-100675447D01*
X155959753Y-100655801D01*
X155959753Y-98789369D01*
X160858898Y-98789369D01*
X160858898Y-98902635D01*
X160880995Y-99013723D01*
X160924340Y-99118367D01*
X160987266Y-99212543D01*
X161067357Y-99292634D01*
X161161533Y-99355560D01*
X161266177Y-99398905D01*
X161377265Y-99421002D01*
X161490531Y-99421002D01*
X161601619Y-99398905D01*
X161706263Y-99355560D01*
X161800439Y-99292634D01*
X161880530Y-99212543D01*
X161886774Y-99203197D01*
X167632600Y-99203197D01*
X167632600Y-99424803D01*
X167675833Y-99642150D01*
X167760638Y-99846887D01*
X167883756Y-100031145D01*
X168040455Y-100187844D01*
X168224713Y-100310962D01*
X168429450Y-100395767D01*
X168646797Y-100439000D01*
X168868403Y-100439000D01*
X169085750Y-100395767D01*
X169290487Y-100310962D01*
X169474745Y-100187844D01*
X169631444Y-100031145D01*
X169754562Y-99846887D01*
X169839367Y-99642150D01*
X169882600Y-99424803D01*
X169882600Y-99203197D01*
X169839367Y-98985850D01*
X169754562Y-98781113D01*
X169631444Y-98596855D01*
X169474745Y-98440156D01*
X169290487Y-98317038D01*
X169085750Y-98232233D01*
X168868403Y-98189000D01*
X168646797Y-98189000D01*
X168429450Y-98232233D01*
X168224713Y-98317038D01*
X168040455Y-98440156D01*
X167883756Y-98596855D01*
X167760638Y-98781113D01*
X167675833Y-98985850D01*
X167632600Y-99203197D01*
X161886774Y-99203197D01*
X161943456Y-99118367D01*
X161986801Y-99013723D01*
X162008898Y-98902635D01*
X162008898Y-98789369D01*
X161986801Y-98678281D01*
X161943456Y-98573637D01*
X161880530Y-98479461D01*
X161833898Y-98432829D01*
X161833898Y-96663197D01*
X167632600Y-96663197D01*
X167632600Y-96884803D01*
X167675833Y-97102150D01*
X167760638Y-97306887D01*
X167883756Y-97491145D01*
X168040455Y-97647844D01*
X168224713Y-97770962D01*
X168429450Y-97855767D01*
X168646797Y-97899000D01*
X168868403Y-97899000D01*
X169085750Y-97855767D01*
X169290487Y-97770962D01*
X169474745Y-97647844D01*
X169631444Y-97491145D01*
X169754562Y-97306887D01*
X169839367Y-97102150D01*
X169882600Y-96884803D01*
X169882600Y-96663197D01*
X169839367Y-96445850D01*
X169754562Y-96241113D01*
X169631444Y-96056855D01*
X169474745Y-95900156D01*
X169290487Y-95777038D01*
X169085750Y-95692233D01*
X168868403Y-95649000D01*
X168646797Y-95649000D01*
X168429450Y-95692233D01*
X168224713Y-95777038D01*
X168040455Y-95900156D01*
X167883756Y-96056855D01*
X167760638Y-96241113D01*
X167675833Y-96445850D01*
X167632600Y-96663197D01*
X161833898Y-96663197D01*
X161833898Y-94378377D01*
X163160286Y-93051990D01*
X163226233Y-93051990D01*
X163337321Y-93029893D01*
X163441965Y-92986548D01*
X163536141Y-92923622D01*
X163616232Y-92843531D01*
X163679158Y-92749355D01*
X163722503Y-92644711D01*
X163744600Y-92533623D01*
X163744600Y-92420357D01*
X163722503Y-92309269D01*
X163679158Y-92204625D01*
X163616232Y-92110449D01*
X163536141Y-92030358D01*
X163441965Y-91967432D01*
X163337321Y-91924087D01*
X163226233Y-91901990D01*
X163112967Y-91901990D01*
X163001879Y-91924087D01*
X162897235Y-91967432D01*
X162803059Y-92030358D01*
X162722968Y-92110449D01*
X162660042Y-92204625D01*
X162616697Y-92309269D01*
X162594600Y-92420357D01*
X162594600Y-92486304D01*
X161164950Y-93915955D01*
X161149687Y-93928481D01*
X161099701Y-93989390D01*
X161062558Y-94058879D01*
X161049898Y-94100614D01*
X161039686Y-94134279D01*
X161031963Y-94212692D01*
X161033898Y-94232338D01*
X161033899Y-98432828D01*
X160987266Y-98479461D01*
X160924340Y-98573637D01*
X160880995Y-98678281D01*
X160858898Y-98789369D01*
X155959753Y-98789369D01*
X155959753Y-98203177D01*
X156006385Y-98156545D01*
X156069311Y-98062369D01*
X156112656Y-97957725D01*
X156134753Y-97846637D01*
X156134753Y-97733371D01*
X156112656Y-97622283D01*
X156069311Y-97517639D01*
X156006385Y-97423463D01*
X155926294Y-97343372D01*
X155832118Y-97280446D01*
X155727474Y-97237101D01*
X155616386Y-97215004D01*
X155503120Y-97215004D01*
X155392032Y-97237101D01*
X155287388Y-97280446D01*
X155193212Y-97343372D01*
X155113121Y-97423463D01*
X155050195Y-97517639D01*
X155006850Y-97622283D01*
X154984753Y-97733371D01*
X154984753Y-97846637D01*
X155006850Y-97957725D01*
X155050195Y-98062369D01*
X155113121Y-98156545D01*
X155159754Y-98203178D01*
X155159753Y-100509761D01*
X151489320Y-104180195D01*
X151423372Y-104180195D01*
X151312284Y-104202292D01*
X151207640Y-104245637D01*
X151113464Y-104308563D01*
X151033373Y-104388654D01*
X150970447Y-104482830D01*
X150927102Y-104587474D01*
X150905005Y-104698562D01*
X147936723Y-104698562D01*
X148579549Y-104055736D01*
X148594811Y-104043211D01*
X148644797Y-103982303D01*
X148681940Y-103912814D01*
X148704812Y-103837414D01*
X148710600Y-103778647D01*
X148710600Y-103778646D01*
X148712535Y-103759000D01*
X148710600Y-103739353D01*
X148710600Y-100011032D01*
X150831245Y-97890388D01*
X150897192Y-97890388D01*
X151008280Y-97868291D01*
X151112924Y-97824946D01*
X151207100Y-97762020D01*
X151287191Y-97681929D01*
X151350117Y-97587753D01*
X151393462Y-97483109D01*
X151415559Y-97372021D01*
X151415559Y-97258755D01*
X151393462Y-97147667D01*
X151350117Y-97043023D01*
X151287191Y-96948847D01*
X151207100Y-96868756D01*
X151112924Y-96805830D01*
X151008280Y-96762485D01*
X150897192Y-96740388D01*
X150783926Y-96740388D01*
X150672838Y-96762485D01*
X150568194Y-96805830D01*
X150474018Y-96868756D01*
X150454788Y-96887986D01*
X150379380Y-96812578D01*
X150285204Y-96749652D01*
X150180560Y-96706307D01*
X150069472Y-96684210D01*
X149956206Y-96684210D01*
X149845118Y-96706307D01*
X149740474Y-96749652D01*
X149646298Y-96812578D01*
X149607650Y-96851226D01*
X149556031Y-96799607D01*
X149461855Y-96736681D01*
X149357211Y-96693336D01*
X149246123Y-96671239D01*
X149132857Y-96671239D01*
X149021769Y-96693336D01*
X148917125Y-96736681D01*
X148822949Y-96799607D01*
X148788465Y-96834091D01*
X148719669Y-96765295D01*
X148625493Y-96702369D01*
X148520849Y-96659024D01*
X148409761Y-96636927D01*
X148296495Y-96636927D01*
X148185407Y-96659024D01*
X148080763Y-96702369D01*
X147986587Y-96765295D01*
X147906496Y-96845386D01*
X147843570Y-96939562D01*
X147800225Y-97044206D01*
X147778128Y-97155294D01*
X147778128Y-97221242D01*
X146633626Y-98365744D01*
X146618368Y-98378266D01*
X146605846Y-98393524D01*
X146605843Y-98393527D01*
X146599600Y-98401134D01*
X146599600Y-97132447D01*
X146602382Y-97104204D01*
X146599600Y-97075958D01*
X146591280Y-96991484D01*
X146558401Y-96883096D01*
X146541794Y-96852027D01*
X146505008Y-96783205D01*
X146451159Y-96717590D01*
X146433154Y-96695650D01*
X146411213Y-96677644D01*
X146199198Y-96465629D01*
X146191059Y-96424713D01*
X146140176Y-96301871D01*
X146066306Y-96191316D01*
X145972286Y-96097296D01*
X145861731Y-96023426D01*
X145738889Y-95972543D01*
X145608481Y-95946603D01*
X145475517Y-95946603D01*
X145345109Y-95972543D01*
X145222267Y-96023426D01*
X145111712Y-96097296D01*
X145017692Y-96191316D01*
X144943822Y-96301871D01*
X144892939Y-96424713D01*
X144866999Y-96555121D01*
X144866999Y-96688085D01*
X144892939Y-96818493D01*
X144943822Y-96941335D01*
X145017692Y-97051890D01*
X145111712Y-97145910D01*
X145222267Y-97219780D01*
X145345109Y-97270663D01*
X145386025Y-97278802D01*
X145449600Y-97342377D01*
X145449601Y-101753592D01*
X145426423Y-101788280D01*
X145375540Y-101911122D01*
X145349600Y-102041530D01*
X145349600Y-102174494D01*
X145375540Y-102304902D01*
X145426423Y-102427744D01*
X145500293Y-102538299D01*
X145594313Y-102632319D01*
X145704868Y-102706189D01*
X145827710Y-102757072D01*
X145958118Y-102783012D01*
X146091082Y-102783012D01*
X146221490Y-102757072D01*
X146344332Y-102706189D01*
X146454887Y-102632319D01*
X146502578Y-102584628D01*
X146502578Y-102715337D01*
X140524915Y-108693000D01*
X139186247Y-108693000D01*
X139166600Y-108691065D01*
X139088186Y-108698788D01*
X139012785Y-108721660D01*
X138943297Y-108758803D01*
X138897649Y-108796265D01*
X138897647Y-108796267D01*
X138882389Y-108808789D01*
X138869867Y-108824047D01*
X138286915Y-109407000D01*
X138220967Y-109407000D01*
X138109879Y-109429097D01*
X138005235Y-109472442D01*
X137911059Y-109535368D01*
X137830968Y-109615459D01*
X137768042Y-109709635D01*
X137724697Y-109814279D01*
X137702600Y-109925367D01*
X137702600Y-110038633D01*
X137724697Y-110149721D01*
X137768042Y-110254365D01*
X137830968Y-110348541D01*
X137857638Y-110375211D01*
X137784069Y-110424368D01*
X137703978Y-110504459D01*
X137641052Y-110598635D01*
X137597707Y-110703279D01*
X137575610Y-110814367D01*
X136117305Y-110814367D01*
X136089038Y-110795480D01*
X135984394Y-110752135D01*
X135873306Y-110730038D01*
X135760040Y-110730038D01*
X135648952Y-110752135D01*
X135544308Y-110795480D01*
X135450132Y-110858406D01*
X135370041Y-110938497D01*
X135307115Y-111032673D01*
X135263770Y-111137317D01*
X135241673Y-111248405D01*
X135241673Y-111361671D01*
X135263770Y-111472759D01*
X135307115Y-111577403D01*
X135370041Y-111671579D01*
X135450132Y-111751670D01*
X135544308Y-111814596D01*
X135648952Y-111857941D01*
X135760040Y-111880038D01*
X135825988Y-111880038D01*
X137244898Y-113298948D01*
X137257424Y-113314211D01*
X137272685Y-113326735D01*
X137318332Y-113364197D01*
X137387821Y-113401340D01*
X137463221Y-113424212D01*
X137541635Y-113431935D01*
X137561282Y-113430000D01*
X144207915Y-113430000D01*
X147410877Y-116632963D01*
X147355833Y-116765850D01*
X147312600Y-116983197D01*
X147312600Y-117204803D01*
X147355833Y-117422150D01*
X147440638Y-117626887D01*
X147563756Y-117811145D01*
X147720455Y-117967844D01*
X147904713Y-118090962D01*
X147986791Y-118124960D01*
X146348409Y-118124960D01*
X146430487Y-118090962D01*
X146614745Y-117967844D01*
X146771444Y-117811145D01*
X146894562Y-117626887D01*
X146979367Y-117422150D01*
X147022600Y-117204803D01*
X147022600Y-116983197D01*
X146979367Y-116765850D01*
X146894562Y-116561113D01*
X146771444Y-116376855D01*
X146614745Y-116220156D01*
X146430487Y-116097038D01*
X146225750Y-116012233D01*
X146008403Y-115969000D01*
X145786797Y-115969000D01*
X145569450Y-116012233D01*
X145364713Y-116097038D01*
X145180455Y-116220156D01*
X145023756Y-116376855D01*
X144900638Y-116561113D01*
X144815833Y-116765850D01*
X144772600Y-116983197D01*
X144772600Y-117204803D01*
X144815833Y-117422150D01*
X144900638Y-117626887D01*
X145023756Y-117811145D01*
X145180455Y-117967844D01*
X145364713Y-118090962D01*
X145446791Y-118124960D01*
X143808409Y-118124960D01*
X143890487Y-118090962D01*
X144074745Y-117967844D01*
X144231444Y-117811145D01*
X144354562Y-117626887D01*
X144439367Y-117422150D01*
X144482600Y-117204803D01*
X144482600Y-116983197D01*
X144439367Y-116765850D01*
X144354562Y-116561113D01*
X144231444Y-116376855D01*
X144074745Y-116220156D01*
X143890487Y-116097038D01*
X143685750Y-116012233D01*
X143468403Y-115969000D01*
X143246797Y-115969000D01*
X143029450Y-116012233D01*
X142824713Y-116097038D01*
X142640455Y-116220156D01*
X142483756Y-116376855D01*
X142360638Y-116561113D01*
X142275833Y-116765850D01*
X142232600Y-116983197D01*
X142232600Y-117204803D01*
X142275833Y-117422150D01*
X142360638Y-117626887D01*
X142483756Y-117811145D01*
X142640455Y-117967844D01*
X142824713Y-118090962D01*
X142906791Y-118124960D01*
X141268409Y-118124960D01*
X141350487Y-118090962D01*
X141534745Y-117967844D01*
X141691444Y-117811145D01*
X141814562Y-117626887D01*
X141899367Y-117422150D01*
X141942600Y-117204803D01*
X141942600Y-116983197D01*
X141899367Y-116765850D01*
X141814562Y-116561113D01*
X141691444Y-116376855D01*
X141534745Y-116220156D01*
X141350487Y-116097038D01*
X141145750Y-116012233D01*
X140928403Y-115969000D01*
X140706797Y-115969000D01*
X140489450Y-116012233D01*
X140284713Y-116097038D01*
X140100455Y-116220156D01*
X139943756Y-116376855D01*
X139820638Y-116561113D01*
X139735833Y-116765850D01*
X139692600Y-116983197D01*
X139692600Y-117204803D01*
X139735833Y-117422150D01*
X139820638Y-117626887D01*
X139943756Y-117811145D01*
X140100455Y-117967844D01*
X140284713Y-118090962D01*
X140366791Y-118124960D01*
X138719122Y-118124960D01*
X138876714Y-118046207D01*
X139050968Y-117911029D01*
X139195502Y-117744453D01*
X139304762Y-117552881D01*
X139374549Y-117343674D01*
X139331351Y-117169000D01*
X138352600Y-117169000D01*
X138352600Y-117189000D01*
X138202600Y-117189000D01*
X138202600Y-117169000D01*
X137223849Y-117169000D01*
X137180651Y-117343674D01*
X137250438Y-117552881D01*
X137359698Y-117744453D01*
X137504232Y-117911029D01*
X137678486Y-118046207D01*
X137836078Y-118124960D01*
X136188409Y-118124960D01*
X136270487Y-118090962D01*
X136454745Y-117967844D01*
X136611444Y-117811145D01*
X136734562Y-117626887D01*
X136819367Y-117422150D01*
X136862600Y-117204803D01*
X136862600Y-116983197D01*
X136834977Y-116844326D01*
X137180651Y-116844326D01*
X137223849Y-117019000D01*
X138202600Y-117019000D01*
X138202600Y-116040416D01*
X138352600Y-116040416D01*
X138352600Y-117019000D01*
X139331351Y-117019000D01*
X139374549Y-116844326D01*
X139304762Y-116635119D01*
X139195502Y-116443547D01*
X139050968Y-116276971D01*
X138876714Y-116141793D01*
X138679436Y-116043208D01*
X138527274Y-115997055D01*
X138352600Y-116040416D01*
X138202600Y-116040416D01*
X138027926Y-115997055D01*
X137875764Y-116043208D01*
X137678486Y-116141793D01*
X137504232Y-116276971D01*
X137359698Y-116443547D01*
X137250438Y-116635119D01*
X137180651Y-116844326D01*
X136834977Y-116844326D01*
X136819367Y-116765850D01*
X136734562Y-116561113D01*
X136611444Y-116376855D01*
X136454745Y-116220156D01*
X136270487Y-116097038D01*
X136065750Y-116012233D01*
X135848403Y-115969000D01*
X135626797Y-115969000D01*
X135409450Y-116012233D01*
X135204713Y-116097038D01*
X135020455Y-116220156D01*
X134863756Y-116376855D01*
X134740638Y-116561113D01*
X134655833Y-116765850D01*
X134612600Y-116983197D01*
X134612600Y-117204803D01*
X134655833Y-117422150D01*
X134740638Y-117626887D01*
X134863756Y-117811145D01*
X135020455Y-117967844D01*
X135204713Y-118090962D01*
X135286791Y-118124960D01*
X134254841Y-118124960D01*
X134277360Y-118097521D01*
X134302896Y-118049747D01*
X134318620Y-117997909D01*
X134323930Y-117944000D01*
X134323930Y-116244000D01*
X134318620Y-116190091D01*
X134302896Y-116138253D01*
X134277360Y-116090479D01*
X134242995Y-116048605D01*
X134201121Y-116014240D01*
X134153347Y-115988704D01*
X134101509Y-115972980D01*
X134047600Y-115967670D01*
X132347600Y-115967670D01*
X132293691Y-115972980D01*
X132241853Y-115988704D01*
X132194079Y-116014240D01*
X132152205Y-116048605D01*
X132117840Y-116090479D01*
X132092304Y-116138253D01*
X132076580Y-116190091D01*
X132071270Y-116244000D01*
X132071270Y-117944000D01*
X132076580Y-117997909D01*
X132092304Y-118049747D01*
X132117840Y-118097521D01*
X132140359Y-118124960D01*
X128447230Y-118124960D01*
X127997757Y-118080889D01*
X127579508Y-117954612D01*
X127193760Y-117749507D01*
X126855193Y-117473378D01*
X126576710Y-117136749D01*
X126368914Y-116752438D01*
X126239722Y-116335089D01*
X126192567Y-115886440D01*
X126192560Y-115884483D01*
X126192560Y-114443197D01*
X126992600Y-114443197D01*
X126992600Y-114664803D01*
X127035833Y-114882150D01*
X127120638Y-115086887D01*
X127243756Y-115271145D01*
X127400455Y-115427844D01*
X127584713Y-115550962D01*
X127789450Y-115635767D01*
X128006797Y-115679000D01*
X128228403Y-115679000D01*
X128445750Y-115635767D01*
X128650487Y-115550962D01*
X128834745Y-115427844D01*
X128991444Y-115271145D01*
X129114562Y-115086887D01*
X129199367Y-114882150D01*
X129242600Y-114664803D01*
X129242600Y-114443197D01*
X129199367Y-114225850D01*
X129114562Y-114021113D01*
X128991444Y-113836855D01*
X128834745Y-113680156D01*
X128650487Y-113557038D01*
X128445750Y-113472233D01*
X128228403Y-113429000D01*
X128006797Y-113429000D01*
X127789450Y-113472233D01*
X127584713Y-113557038D01*
X127400455Y-113680156D01*
X127243756Y-113836855D01*
X127120638Y-114021113D01*
X127035833Y-114225850D01*
X126992600Y-114443197D01*
X126192560Y-114443197D01*
X126192560Y-111903197D01*
X126992600Y-111903197D01*
X126992600Y-112124803D01*
X127035833Y-112342150D01*
X127120638Y-112546887D01*
X127243756Y-112731145D01*
X127400455Y-112887844D01*
X127584713Y-113010962D01*
X127789450Y-113095767D01*
X128006797Y-113139000D01*
X128228403Y-113139000D01*
X128445750Y-113095767D01*
X128650487Y-113010962D01*
X128834745Y-112887844D01*
X128991444Y-112731145D01*
X129114562Y-112546887D01*
X129199367Y-112342150D01*
X129242600Y-112124803D01*
X129242600Y-111903197D01*
X129199367Y-111685850D01*
X129114562Y-111481113D01*
X128991444Y-111296855D01*
X128834745Y-111140156D01*
X128650487Y-111017038D01*
X128445750Y-110932233D01*
X128228403Y-110889000D01*
X128006797Y-110889000D01*
X127789450Y-110932233D01*
X127584713Y-111017038D01*
X127400455Y-111140156D01*
X127243756Y-111296855D01*
X127120638Y-111481113D01*
X127035833Y-111685850D01*
X126992600Y-111903197D01*
X126192560Y-111903197D01*
X126192560Y-109363197D01*
X126992600Y-109363197D01*
X126992600Y-109584803D01*
X127035833Y-109802150D01*
X127120638Y-110006887D01*
X127243756Y-110191145D01*
X127400455Y-110347844D01*
X127584713Y-110470962D01*
X127789450Y-110555767D01*
X128006797Y-110599000D01*
X128228403Y-110599000D01*
X128445750Y-110555767D01*
X128650487Y-110470962D01*
X128834745Y-110347844D01*
X128991444Y-110191145D01*
X129114562Y-110006887D01*
X129199367Y-109802150D01*
X129242600Y-109584803D01*
X129242600Y-109363197D01*
X129199367Y-109145850D01*
X129114562Y-108941113D01*
X128991444Y-108756855D01*
X128834745Y-108600156D01*
X128650487Y-108477038D01*
X128445750Y-108392233D01*
X128228403Y-108349000D01*
X128006797Y-108349000D01*
X127789450Y-108392233D01*
X127584713Y-108477038D01*
X127400455Y-108600156D01*
X127243756Y-108756855D01*
X127120638Y-108941113D01*
X127035833Y-109145850D01*
X126992600Y-109363197D01*
X126192560Y-109363197D01*
X126192560Y-106823197D01*
X126992600Y-106823197D01*
X126992600Y-107044803D01*
X127035833Y-107262150D01*
X127120638Y-107466887D01*
X127243756Y-107651145D01*
X127400455Y-107807844D01*
X127584713Y-107930962D01*
X127789450Y-108015767D01*
X128006797Y-108059000D01*
X128228403Y-108059000D01*
X128445750Y-108015767D01*
X128650487Y-107930962D01*
X128834745Y-107807844D01*
X128991444Y-107651145D01*
X129114562Y-107466887D01*
X129199367Y-107262150D01*
X129242600Y-107044803D01*
X129242600Y-106823197D01*
X129199367Y-106605850D01*
X129114562Y-106401113D01*
X128991444Y-106216855D01*
X128834745Y-106060156D01*
X128650487Y-105937038D01*
X128445750Y-105852233D01*
X128228403Y-105809000D01*
X128006797Y-105809000D01*
X127789450Y-105852233D01*
X127584713Y-105937038D01*
X127400455Y-106060156D01*
X127243756Y-106216855D01*
X127120638Y-106401113D01*
X127035833Y-106605850D01*
X126992600Y-106823197D01*
X126192560Y-106823197D01*
X126192560Y-104283197D01*
X126992600Y-104283197D01*
X126992600Y-104504803D01*
X127035833Y-104722150D01*
X127120638Y-104926887D01*
X127243756Y-105111145D01*
X127400455Y-105267844D01*
X127584713Y-105390962D01*
X127789450Y-105475767D01*
X128006797Y-105519000D01*
X128228403Y-105519000D01*
X128445750Y-105475767D01*
X128650487Y-105390962D01*
X128834745Y-105267844D01*
X128991444Y-105111145D01*
X129114562Y-104926887D01*
X129199367Y-104722150D01*
X129242600Y-104504803D01*
X129242600Y-104283197D01*
X129199367Y-104065850D01*
X129114562Y-103861113D01*
X128991444Y-103676855D01*
X128834745Y-103520156D01*
X128650487Y-103397038D01*
X128445750Y-103312233D01*
X128228403Y-103269000D01*
X128006797Y-103269000D01*
X127789450Y-103312233D01*
X127584713Y-103397038D01*
X127400455Y-103520156D01*
X127243756Y-103676855D01*
X127120638Y-103861113D01*
X127035833Y-104065850D01*
X126992600Y-104283197D01*
X126192560Y-104283197D01*
X126192560Y-101743197D01*
X126992600Y-101743197D01*
X126992600Y-101964803D01*
X127035833Y-102182150D01*
X127120638Y-102386887D01*
X127243756Y-102571145D01*
X127400455Y-102727844D01*
X127584713Y-102850962D01*
X127789450Y-102935767D01*
X128006797Y-102979000D01*
X128228403Y-102979000D01*
X128445750Y-102935767D01*
X128650487Y-102850962D01*
X128834745Y-102727844D01*
X128991444Y-102571145D01*
X129114562Y-102386887D01*
X129199367Y-102182150D01*
X129242600Y-101964803D01*
X129242600Y-101743197D01*
X129199367Y-101525850D01*
X129114562Y-101321113D01*
X128991444Y-101136855D01*
X128834745Y-100980156D01*
X128650487Y-100857038D01*
X128467802Y-100781367D01*
X140623596Y-100781367D01*
X140623596Y-100894633D01*
X140645693Y-101005721D01*
X140689038Y-101110365D01*
X140751964Y-101204541D01*
X140832055Y-101284632D01*
X140926231Y-101347558D01*
X141030875Y-101390903D01*
X141141963Y-101413000D01*
X141255229Y-101413000D01*
X141366317Y-101390903D01*
X141470961Y-101347558D01*
X141565137Y-101284632D01*
X141611769Y-101238000D01*
X143706427Y-101238000D01*
X143753059Y-101284632D01*
X143847235Y-101347558D01*
X143951879Y-101390903D01*
X144062967Y-101413000D01*
X144176233Y-101413000D01*
X144287321Y-101390903D01*
X144391965Y-101347558D01*
X144486141Y-101284632D01*
X144566232Y-101204541D01*
X144629158Y-101110365D01*
X144672503Y-101005721D01*
X144694600Y-100894633D01*
X144694600Y-100781367D01*
X144672503Y-100670279D01*
X144629158Y-100565635D01*
X144566232Y-100471459D01*
X144486141Y-100391368D01*
X144391965Y-100328442D01*
X144287321Y-100285097D01*
X144176233Y-100263000D01*
X144062967Y-100263000D01*
X143951879Y-100285097D01*
X143847235Y-100328442D01*
X143753059Y-100391368D01*
X143706427Y-100438000D01*
X141611769Y-100438000D01*
X141565137Y-100391368D01*
X141470961Y-100328442D01*
X141366317Y-100285097D01*
X141255229Y-100263000D01*
X141141963Y-100263000D01*
X141030875Y-100285097D01*
X140926231Y-100328442D01*
X140832055Y-100391368D01*
X140751964Y-100471459D01*
X140689038Y-100565635D01*
X140645693Y-100670279D01*
X140623596Y-100781367D01*
X128467802Y-100781367D01*
X128445750Y-100772233D01*
X128228403Y-100729000D01*
X128006797Y-100729000D01*
X127789450Y-100772233D01*
X127584713Y-100857038D01*
X127400455Y-100980156D01*
X127243756Y-101136855D01*
X127120638Y-101321113D01*
X127035833Y-101525850D01*
X126992600Y-101743197D01*
X126192560Y-101743197D01*
X126192560Y-99203197D01*
X126992600Y-99203197D01*
X126992600Y-99424803D01*
X127035833Y-99642150D01*
X127120638Y-99846887D01*
X127243756Y-100031145D01*
X127400455Y-100187844D01*
X127584713Y-100310962D01*
X127789450Y-100395767D01*
X128006797Y-100439000D01*
X128228403Y-100439000D01*
X128445750Y-100395767D01*
X128650487Y-100310962D01*
X128834745Y-100187844D01*
X128991444Y-100031145D01*
X129114562Y-99846887D01*
X129199367Y-99642150D01*
X129242600Y-99424803D01*
X129242600Y-99203197D01*
X129199367Y-98985850D01*
X129114562Y-98781113D01*
X128991444Y-98596855D01*
X128834745Y-98440156D01*
X128650487Y-98317038D01*
X128445750Y-98232233D01*
X128228403Y-98189000D01*
X128006797Y-98189000D01*
X127789450Y-98232233D01*
X127584713Y-98317038D01*
X127400455Y-98440156D01*
X127243756Y-98596855D01*
X127120638Y-98781113D01*
X127035833Y-98985850D01*
X126992600Y-99203197D01*
X126192560Y-99203197D01*
X126192560Y-96663197D01*
X126992600Y-96663197D01*
X126992600Y-96884803D01*
X127035833Y-97102150D01*
X127120638Y-97306887D01*
X127243756Y-97491145D01*
X127400455Y-97647844D01*
X127584713Y-97770962D01*
X127789450Y-97855767D01*
X128006797Y-97899000D01*
X128228403Y-97899000D01*
X128445750Y-97855767D01*
X128650487Y-97770962D01*
X128834745Y-97647844D01*
X128991444Y-97491145D01*
X129114562Y-97306887D01*
X129199367Y-97102150D01*
X129242600Y-96884803D01*
X129242600Y-96663197D01*
X129199367Y-96445850D01*
X129114562Y-96241113D01*
X128991444Y-96056855D01*
X128834745Y-95900156D01*
X128650487Y-95777038D01*
X128445750Y-95692233D01*
X128228403Y-95649000D01*
X128006797Y-95649000D01*
X127789450Y-95692233D01*
X127584713Y-95777038D01*
X127400455Y-95900156D01*
X127243756Y-96056855D01*
X127120638Y-96241113D01*
X127035833Y-96445850D01*
X126992600Y-96663197D01*
X126192560Y-96663197D01*
X126192560Y-94123197D01*
X126992600Y-94123197D01*
X126992600Y-94344803D01*
X127035833Y-94562150D01*
X127120638Y-94766887D01*
X127243756Y-94951145D01*
X127400455Y-95107844D01*
X127584713Y-95230962D01*
X127789450Y-95315767D01*
X128006797Y-95359000D01*
X128228403Y-95359000D01*
X128445750Y-95315767D01*
X128650487Y-95230962D01*
X128834745Y-95107844D01*
X128991444Y-94951145D01*
X129114562Y-94766887D01*
X129199367Y-94562150D01*
X129242600Y-94344803D01*
X129242600Y-94123197D01*
X129199367Y-93905850D01*
X129114562Y-93701113D01*
X128991444Y-93516855D01*
X128834745Y-93360156D01*
X128650487Y-93237038D01*
X128445750Y-93152233D01*
X128228403Y-93109000D01*
X128006797Y-93109000D01*
X127789450Y-93152233D01*
X127584713Y-93237038D01*
X127400455Y-93360156D01*
X127243756Y-93516855D01*
X127120638Y-93701113D01*
X127035833Y-93905850D01*
X126992600Y-94123197D01*
X126192560Y-94123197D01*
X126192560Y-91583197D01*
X126992600Y-91583197D01*
X126992600Y-91804803D01*
X127035833Y-92022150D01*
X127120638Y-92226887D01*
X127243756Y-92411145D01*
X127400455Y-92567844D01*
X127584713Y-92690962D01*
X127789450Y-92775767D01*
X128006797Y-92819000D01*
X128228403Y-92819000D01*
X128445750Y-92775767D01*
X128650487Y-92690962D01*
X128834745Y-92567844D01*
X128991444Y-92411145D01*
X129114562Y-92226887D01*
X129199367Y-92022150D01*
X129242600Y-91804803D01*
X129242600Y-91583197D01*
X129199367Y-91365850D01*
X129114562Y-91161113D01*
X128991444Y-90976855D01*
X128834745Y-90820156D01*
X128650487Y-90697038D01*
X128445750Y-90612233D01*
X128228403Y-90569000D01*
X128006797Y-90569000D01*
X127789450Y-90612233D01*
X127584713Y-90697038D01*
X127400455Y-90820156D01*
X127243756Y-90976855D01*
X127120638Y-91161113D01*
X127035833Y-91365850D01*
X126992600Y-91583197D01*
X126192560Y-91583197D01*
X126192560Y-89043197D01*
X126992600Y-89043197D01*
X126992600Y-89264803D01*
X127035833Y-89482150D01*
X127120638Y-89686887D01*
X127243756Y-89871145D01*
X127400455Y-90027844D01*
X127584713Y-90150962D01*
X127789450Y-90235767D01*
X128006797Y-90279000D01*
X128228403Y-90279000D01*
X128445750Y-90235767D01*
X128650487Y-90150962D01*
X128834745Y-90027844D01*
X128991444Y-89871145D01*
X129114562Y-89686887D01*
X129199367Y-89482150D01*
X129242600Y-89264803D01*
X129242600Y-89043197D01*
X167632600Y-89043197D01*
X167632600Y-89264803D01*
X167675833Y-89482150D01*
X167760638Y-89686887D01*
X167883756Y-89871145D01*
X168040455Y-90027844D01*
X168224713Y-90150962D01*
X168429450Y-90235767D01*
X168646797Y-90279000D01*
X168868403Y-90279000D01*
X169085750Y-90235767D01*
X169290487Y-90150962D01*
X169474745Y-90027844D01*
X169631444Y-89871145D01*
X169754562Y-89686887D01*
X169839367Y-89482150D01*
X169882600Y-89264803D01*
X169882600Y-89043197D01*
X169839367Y-88825850D01*
X169754562Y-88621113D01*
X169631444Y-88436855D01*
X169474745Y-88280156D01*
X169290487Y-88157038D01*
X169085750Y-88072233D01*
X168868403Y-88029000D01*
X168646797Y-88029000D01*
X168429450Y-88072233D01*
X168224713Y-88157038D01*
X168040455Y-88280156D01*
X167883756Y-88436855D01*
X167760638Y-88621113D01*
X167675833Y-88825850D01*
X167632600Y-89043197D01*
X129242600Y-89043197D01*
X129199367Y-88825850D01*
X129114562Y-88621113D01*
X128991444Y-88436855D01*
X128900098Y-88345509D01*
X154984742Y-88345509D01*
X154984742Y-88458775D01*
X155006839Y-88569863D01*
X155050184Y-88674507D01*
X155113110Y-88768683D01*
X155193201Y-88848774D01*
X155287377Y-88911700D01*
X155392021Y-88955045D01*
X155503109Y-88977142D01*
X155616375Y-88977142D01*
X155727463Y-88955045D01*
X155832107Y-88911700D01*
X155926283Y-88848774D01*
X156006374Y-88768683D01*
X156069300Y-88674507D01*
X156112645Y-88569863D01*
X156134742Y-88458775D01*
X156134742Y-88345509D01*
X156112645Y-88234421D01*
X156069300Y-88129777D01*
X156006374Y-88035601D01*
X155959742Y-87988969D01*
X155959742Y-83648831D01*
X156021632Y-83586941D01*
X156084558Y-83492765D01*
X156127903Y-83388121D01*
X156150000Y-83277033D01*
X156150000Y-83163767D01*
X156127903Y-83052679D01*
X156084558Y-82948035D01*
X156021632Y-82853859D01*
X155941541Y-82773768D01*
X155847365Y-82710842D01*
X155742721Y-82667497D01*
X155631633Y-82645400D01*
X155518367Y-82645400D01*
X155407279Y-82667497D01*
X155302635Y-82710842D01*
X155208459Y-82773768D01*
X155128368Y-82853859D01*
X155065442Y-82948035D01*
X155022097Y-83052679D01*
X155000000Y-83163767D01*
X155000000Y-83277033D01*
X155022097Y-83388121D01*
X155065442Y-83492765D01*
X155128368Y-83586941D01*
X155159743Y-83618316D01*
X155159742Y-87988969D01*
X155113110Y-88035601D01*
X155050184Y-88129777D01*
X155006839Y-88234421D01*
X154984742Y-88345509D01*
X128900098Y-88345509D01*
X128834745Y-88280156D01*
X128650487Y-88157038D01*
X128445750Y-88072233D01*
X128228403Y-88029000D01*
X128006797Y-88029000D01*
X127789450Y-88072233D01*
X127584713Y-88157038D01*
X127400455Y-88280156D01*
X127243756Y-88436855D01*
X127120638Y-88621113D01*
X127035833Y-88825850D01*
X126992600Y-89043197D01*
X126192560Y-89043197D01*
X126192560Y-86503197D01*
X126992600Y-86503197D01*
X126992600Y-86724803D01*
X127035833Y-86942150D01*
X127120638Y-87146887D01*
X127243756Y-87331145D01*
X127400455Y-87487844D01*
X127584713Y-87610962D01*
X127789450Y-87695767D01*
X128006797Y-87739000D01*
X128228403Y-87739000D01*
X128445750Y-87695767D01*
X128650487Y-87610962D01*
X128834745Y-87487844D01*
X128991444Y-87331145D01*
X129114562Y-87146887D01*
X129199367Y-86942150D01*
X129225381Y-86811367D01*
X133638600Y-86811367D01*
X133638600Y-86924633D01*
X133660697Y-87035721D01*
X133704042Y-87140365D01*
X133766968Y-87234541D01*
X133847059Y-87314632D01*
X133941235Y-87377558D01*
X134045879Y-87420903D01*
X134156967Y-87443000D01*
X134270233Y-87443000D01*
X134381321Y-87420903D01*
X134485965Y-87377558D01*
X134580141Y-87314632D01*
X134660232Y-87234541D01*
X134723158Y-87140365D01*
X134766503Y-87035721D01*
X134788600Y-86924633D01*
X134788600Y-86811367D01*
X134766503Y-86700279D01*
X134723158Y-86595635D01*
X134660232Y-86501459D01*
X134649029Y-86490256D01*
X135728285Y-85411000D01*
X135794233Y-85411000D01*
X135905321Y-85388903D01*
X136009965Y-85345558D01*
X136104141Y-85282632D01*
X136184232Y-85202541D01*
X136247158Y-85108365D01*
X136290503Y-85003721D01*
X136312600Y-84892633D01*
X136312600Y-84779367D01*
X136290503Y-84668279D01*
X136247158Y-84563635D01*
X136184232Y-84469459D01*
X136104141Y-84389368D01*
X136009965Y-84326442D01*
X135905321Y-84283097D01*
X135794233Y-84261000D01*
X135680967Y-84261000D01*
X135569879Y-84283097D01*
X135465235Y-84326442D01*
X135371059Y-84389368D01*
X135290968Y-84469459D01*
X135228042Y-84563635D01*
X135184697Y-84668279D01*
X135162600Y-84779367D01*
X135162600Y-84845315D01*
X133944648Y-86063267D01*
X133929390Y-86075789D01*
X133916868Y-86091047D01*
X133916865Y-86091050D01*
X133879403Y-86136698D01*
X133842261Y-86206186D01*
X133819388Y-86281587D01*
X133811665Y-86360000D01*
X133813601Y-86379656D01*
X133813601Y-86454826D01*
X133766968Y-86501459D01*
X133704042Y-86595635D01*
X133660697Y-86700279D01*
X133638600Y-86811367D01*
X129225381Y-86811367D01*
X129242600Y-86724803D01*
X129242600Y-86503197D01*
X129199367Y-86285850D01*
X129114562Y-86081113D01*
X128991444Y-85896855D01*
X128834745Y-85740156D01*
X128650487Y-85617038D01*
X128445750Y-85532233D01*
X128228403Y-85489000D01*
X128006797Y-85489000D01*
X127789450Y-85532233D01*
X127584713Y-85617038D01*
X127400455Y-85740156D01*
X127243756Y-85896855D01*
X127120638Y-86081113D01*
X127035833Y-86285850D01*
X126992600Y-86503197D01*
X126192560Y-86503197D01*
X126192560Y-83963197D01*
X126992600Y-83963197D01*
X126992600Y-84184803D01*
X127035833Y-84402150D01*
X127120638Y-84606887D01*
X127243756Y-84791145D01*
X127400455Y-84947844D01*
X127584713Y-85070962D01*
X127789450Y-85155767D01*
X128006797Y-85199000D01*
X128228403Y-85199000D01*
X128445750Y-85155767D01*
X128650487Y-85070962D01*
X128834745Y-84947844D01*
X128991444Y-84791145D01*
X129114562Y-84606887D01*
X129199367Y-84402150D01*
X129242600Y-84184803D01*
X129242600Y-83963197D01*
X129199367Y-83745850D01*
X129114562Y-83541113D01*
X128991444Y-83356855D01*
X128834745Y-83200156D01*
X128650487Y-83077038D01*
X128445750Y-82992233D01*
X128228403Y-82949000D01*
X128006797Y-82949000D01*
X127789450Y-82992233D01*
X127584713Y-83077038D01*
X127400455Y-83200156D01*
X127243756Y-83356855D01*
X127120638Y-83541113D01*
X127035833Y-83745850D01*
X126992600Y-83963197D01*
X126192560Y-83963197D01*
X126192560Y-82384000D01*
X126991269Y-82384000D01*
X126996579Y-82437910D01*
X127012303Y-82489747D01*
X127037839Y-82537521D01*
X127072204Y-82579396D01*
X127114079Y-82613761D01*
X127161853Y-82639297D01*
X127213690Y-82655021D01*
X127267600Y-82660331D01*
X127973850Y-82659000D01*
X128042600Y-82590250D01*
X128042600Y-81609000D01*
X128192600Y-81609000D01*
X128192600Y-82590250D01*
X128261350Y-82659000D01*
X128967600Y-82660331D01*
X129021510Y-82655021D01*
X129073347Y-82639297D01*
X129121121Y-82613761D01*
X129162996Y-82579396D01*
X129197361Y-82537521D01*
X129222897Y-82489747D01*
X129238621Y-82437910D01*
X129243931Y-82384000D01*
X129243659Y-82239367D01*
X160181590Y-82239367D01*
X160181590Y-82352633D01*
X160203687Y-82463721D01*
X160247032Y-82568365D01*
X160309958Y-82662541D01*
X160356601Y-82709184D01*
X160356600Y-86962827D01*
X160309968Y-87009459D01*
X160247042Y-87103635D01*
X160203697Y-87208279D01*
X160181600Y-87319367D01*
X160181600Y-87432633D01*
X160203697Y-87543721D01*
X160247042Y-87648365D01*
X160309968Y-87742541D01*
X160390059Y-87822632D01*
X160484235Y-87885558D01*
X160588879Y-87928903D01*
X160699967Y-87951000D01*
X160813233Y-87951000D01*
X160924321Y-87928903D01*
X161028965Y-87885558D01*
X161123141Y-87822632D01*
X161203232Y-87742541D01*
X161266158Y-87648365D01*
X161309503Y-87543721D01*
X161331600Y-87432633D01*
X161331600Y-87319367D01*
X161309503Y-87208279D01*
X161266158Y-87103635D01*
X161203232Y-87009459D01*
X161156600Y-86962827D01*
X161156600Y-86503197D01*
X167632600Y-86503197D01*
X167632600Y-86724803D01*
X167675833Y-86942150D01*
X167760638Y-87146887D01*
X167883756Y-87331145D01*
X168040455Y-87487844D01*
X168224713Y-87610962D01*
X168429450Y-87695767D01*
X168646797Y-87739000D01*
X168868403Y-87739000D01*
X169085750Y-87695767D01*
X169290487Y-87610962D01*
X169474745Y-87487844D01*
X169631444Y-87331145D01*
X169754562Y-87146887D01*
X169839367Y-86942150D01*
X169882600Y-86724803D01*
X169882600Y-86503197D01*
X169839367Y-86285850D01*
X169754562Y-86081113D01*
X169631444Y-85896855D01*
X169474745Y-85740156D01*
X169290487Y-85617038D01*
X169085750Y-85532233D01*
X168868403Y-85489000D01*
X168646797Y-85489000D01*
X168429450Y-85532233D01*
X168224713Y-85617038D01*
X168040455Y-85740156D01*
X167883756Y-85896855D01*
X167760638Y-86081113D01*
X167675833Y-86285850D01*
X167632600Y-86503197D01*
X161156600Y-86503197D01*
X161156600Y-83963197D01*
X167632600Y-83963197D01*
X167632600Y-84184803D01*
X167675833Y-84402150D01*
X167760638Y-84606887D01*
X167883756Y-84791145D01*
X168040455Y-84947844D01*
X168224713Y-85070962D01*
X168429450Y-85155767D01*
X168646797Y-85199000D01*
X168868403Y-85199000D01*
X169085750Y-85155767D01*
X169290487Y-85070962D01*
X169474745Y-84947844D01*
X169631444Y-84791145D01*
X169754562Y-84606887D01*
X169839367Y-84402150D01*
X169882600Y-84184803D01*
X169882600Y-83963197D01*
X169839367Y-83745850D01*
X169754562Y-83541113D01*
X169631444Y-83356855D01*
X169474745Y-83200156D01*
X169290487Y-83077038D01*
X169085750Y-82992233D01*
X168868403Y-82949000D01*
X168646797Y-82949000D01*
X168429450Y-82992233D01*
X168224713Y-83077038D01*
X168040455Y-83200156D01*
X167883756Y-83356855D01*
X167760638Y-83541113D01*
X167675833Y-83745850D01*
X167632600Y-83963197D01*
X161156600Y-83963197D01*
X161156600Y-82709163D01*
X161203222Y-82662541D01*
X161266148Y-82568365D01*
X161309493Y-82463721D01*
X161331590Y-82352633D01*
X161331590Y-82239367D01*
X161309493Y-82128279D01*
X161266148Y-82023635D01*
X161203222Y-81929459D01*
X161123131Y-81849368D01*
X161028955Y-81786442D01*
X160924311Y-81743097D01*
X160813223Y-81721000D01*
X160699957Y-81721000D01*
X160588869Y-81743097D01*
X160484225Y-81786442D01*
X160390049Y-81849368D01*
X160309958Y-81929459D01*
X160247032Y-82023635D01*
X160203687Y-82128279D01*
X160181590Y-82239367D01*
X129243659Y-82239367D01*
X129242600Y-81677750D01*
X129173850Y-81609000D01*
X128192600Y-81609000D01*
X128042600Y-81609000D01*
X127061350Y-81609000D01*
X126992600Y-81677750D01*
X126991269Y-82384000D01*
X126192560Y-82384000D01*
X126192560Y-80684000D01*
X126991269Y-80684000D01*
X126992600Y-81390250D01*
X127061350Y-81459000D01*
X128042600Y-81459000D01*
X128042600Y-80477750D01*
X128192600Y-80477750D01*
X128192600Y-81459000D01*
X129173850Y-81459000D01*
X129242600Y-81390250D01*
X129243931Y-80684000D01*
X167631270Y-80684000D01*
X167631270Y-82384000D01*
X167636580Y-82437909D01*
X167652304Y-82489747D01*
X167677840Y-82537521D01*
X167712205Y-82579395D01*
X167754079Y-82613760D01*
X167801853Y-82639296D01*
X167853691Y-82655020D01*
X167907600Y-82660330D01*
X169607600Y-82660330D01*
X169661509Y-82655020D01*
X169713347Y-82639296D01*
X169761121Y-82613760D01*
X169802995Y-82579395D01*
X169837360Y-82537521D01*
X169862896Y-82489747D01*
X169878620Y-82437909D01*
X169883930Y-82384000D01*
X169883930Y-80684000D01*
X169878620Y-80630091D01*
X169862896Y-80578253D01*
X169837360Y-80530479D01*
X169802995Y-80488605D01*
X169761121Y-80454240D01*
X169713347Y-80428704D01*
X169661509Y-80412980D01*
X169607600Y-80407670D01*
X167907600Y-80407670D01*
X167853691Y-80412980D01*
X167801853Y-80428704D01*
X167754079Y-80454240D01*
X167712205Y-80488605D01*
X167677840Y-80530479D01*
X167652304Y-80578253D01*
X167636580Y-80630091D01*
X167631270Y-80684000D01*
X129243931Y-80684000D01*
X129238621Y-80630090D01*
X129222897Y-80578253D01*
X129197361Y-80530479D01*
X129162996Y-80488604D01*
X129121121Y-80454239D01*
X129073347Y-80428703D01*
X129021510Y-80412979D01*
X128967600Y-80407669D01*
X128261350Y-80409000D01*
X128192600Y-80477750D01*
X128042600Y-80477750D01*
X127973850Y-80409000D01*
X127267600Y-80407669D01*
X127213690Y-80412979D01*
X127161853Y-80428703D01*
X127114079Y-80454239D01*
X127072204Y-80488604D01*
X127037839Y-80530479D01*
X127012303Y-80578253D01*
X126996579Y-80630090D01*
X126991269Y-80684000D01*
X126192560Y-80684000D01*
X126192560Y-79831000D01*
X170705435Y-79831000D01*
X170708040Y-81915137D01*
G04 #@! TA.AperFunction,Conductor*
D20*
G36*
X170708040Y-81915137D02*
G01*
X170705910Y-93633058D01*
X169717485Y-92644634D01*
X169702602Y-92626499D01*
X169630274Y-92567141D01*
X169547755Y-92523034D01*
X169526118Y-92516471D01*
X169631444Y-92411145D01*
X169754562Y-92226887D01*
X169839367Y-92022150D01*
X169882600Y-91804803D01*
X169882600Y-91583197D01*
X169839367Y-91365850D01*
X169754562Y-91161113D01*
X169631444Y-90976855D01*
X169474745Y-90820156D01*
X169290487Y-90697038D01*
X169085750Y-90612233D01*
X168868403Y-90569000D01*
X168646797Y-90569000D01*
X168429450Y-90612233D01*
X168224713Y-90697038D01*
X168040455Y-90820156D01*
X167883756Y-90976855D01*
X167760638Y-91161113D01*
X167675833Y-91365850D01*
X167632600Y-91583197D01*
X167632600Y-91747251D01*
X166592770Y-90707422D01*
X166600158Y-90696365D01*
X166643503Y-90591721D01*
X166665600Y-90480633D01*
X166665600Y-90367367D01*
X166643503Y-90256279D01*
X166600158Y-90151635D01*
X166537232Y-90057459D01*
X166457141Y-89977368D01*
X166362965Y-89914442D01*
X166258321Y-89871097D01*
X166147233Y-89849000D01*
X166033967Y-89849000D01*
X165922879Y-89871097D01*
X165818235Y-89914442D01*
X165724059Y-89977368D01*
X165643968Y-90057459D01*
X165581042Y-90151635D01*
X165537697Y-90256279D01*
X165515600Y-90367367D01*
X165515600Y-90480633D01*
X165537697Y-90591721D01*
X165581042Y-90696365D01*
X165615601Y-90748086D01*
X165615601Y-90853660D01*
X165613302Y-90877002D01*
X165622473Y-90970118D01*
X165631235Y-90999000D01*
X165649635Y-91059656D01*
X165693742Y-91142175D01*
X165753100Y-91214503D01*
X165771229Y-91229381D01*
X167825223Y-93283377D01*
X167840097Y-93301501D01*
X167912425Y-93360859D01*
X167966200Y-93389602D01*
X167994943Y-93404966D01*
X167995482Y-93405129D01*
X167883756Y-93516855D01*
X167760638Y-93701113D01*
X167675833Y-93905850D01*
X167632600Y-94123197D01*
X167632600Y-94344803D01*
X167675833Y-94562150D01*
X167760638Y-94766887D01*
X167883756Y-94951145D01*
X168040455Y-95107844D01*
X168224713Y-95230962D01*
X168429450Y-95315767D01*
X168646797Y-95359000D01*
X168868403Y-95359000D01*
X169085750Y-95315767D01*
X169290487Y-95230962D01*
X169474745Y-95107844D01*
X169631444Y-94951145D01*
X169754562Y-94766887D01*
X169839367Y-94562150D01*
X169882600Y-94344803D01*
X169882600Y-94153250D01*
X169933600Y-94204250D01*
X169933601Y-114556249D01*
X169882600Y-114607250D01*
X169882600Y-114443197D01*
X169839367Y-114225850D01*
X169754562Y-114021113D01*
X169631444Y-113836855D01*
X169474745Y-113680156D01*
X169290487Y-113557038D01*
X169085750Y-113472233D01*
X168868403Y-113429000D01*
X168646797Y-113429000D01*
X168429450Y-113472233D01*
X168224713Y-113557038D01*
X168040455Y-113680156D01*
X167883756Y-113836855D01*
X167760638Y-114021113D01*
X167675833Y-114225850D01*
X167632600Y-114443197D01*
X167632600Y-114664803D01*
X167675833Y-114882150D01*
X167760638Y-115086887D01*
X167877172Y-115261292D01*
X167827879Y-115271097D01*
X167723235Y-115314442D01*
X167629059Y-115377368D01*
X167548968Y-115457459D01*
X167486042Y-115551635D01*
X167442697Y-115656279D01*
X167420600Y-115767367D01*
X167420600Y-115880633D01*
X167442697Y-115991721D01*
X167486042Y-116096365D01*
X167548968Y-116190541D01*
X167629059Y-116270632D01*
X167723235Y-116333558D01*
X167827879Y-116376903D01*
X167938967Y-116399000D01*
X168052233Y-116399000D01*
X168163321Y-116376903D01*
X168267965Y-116333558D01*
X168319685Y-116299000D01*
X169314270Y-116299000D01*
X169337602Y-116301298D01*
X169360934Y-116299000D01*
X169430718Y-116292127D01*
X169520256Y-116264966D01*
X169602775Y-116220859D01*
X169675103Y-116161501D01*
X169689986Y-116143366D01*
X170652160Y-115181193D01*
X170652160Y-115819490D01*
X170607122Y-116278830D01*
X170477979Y-116706569D01*
X170268217Y-117101074D01*
X169985826Y-117447320D01*
X169641556Y-117732126D01*
X169248520Y-117944639D01*
X168821704Y-118076761D01*
X168363198Y-118124952D01*
X168360889Y-118124960D01*
X164128409Y-118124960D01*
X164210487Y-118090962D01*
X164394745Y-117967844D01*
X164551444Y-117811145D01*
X164674562Y-117626887D01*
X164759367Y-117422150D01*
X164802600Y-117204803D01*
X164802600Y-116983197D01*
X164759367Y-116765850D01*
X164674562Y-116561113D01*
X164551444Y-116376855D01*
X164394745Y-116220156D01*
X164210487Y-116097038D01*
X164005750Y-116012233D01*
X163788403Y-115969000D01*
X163566797Y-115969000D01*
X163349450Y-116012233D01*
X163144713Y-116097038D01*
X162960455Y-116220156D01*
X162803756Y-116376855D01*
X162680638Y-116561113D01*
X162595833Y-116765850D01*
X162552600Y-116983197D01*
X162552600Y-117204803D01*
X162595833Y-117422150D01*
X162680638Y-117626887D01*
X162803756Y-117811145D01*
X162960455Y-117967844D01*
X163144713Y-118090962D01*
X163226791Y-118124960D01*
X161588409Y-118124960D01*
X161670487Y-118090962D01*
X161854745Y-117967844D01*
X162011444Y-117811145D01*
X162134562Y-117626887D01*
X162219367Y-117422150D01*
X162262600Y-117204803D01*
X162262600Y-116983197D01*
X162219367Y-116765850D01*
X162134562Y-116561113D01*
X162011444Y-116376855D01*
X161854745Y-116220156D01*
X161670487Y-116097038D01*
X161465750Y-116012233D01*
X161248403Y-115969000D01*
X161026797Y-115969000D01*
X160809450Y-116012233D01*
X160604713Y-116097038D01*
X160420455Y-116220156D01*
X160263756Y-116376855D01*
X160140638Y-116561113D01*
X160055833Y-116765850D01*
X160012600Y-116983197D01*
X160012600Y-117204803D01*
X160055833Y-117422150D01*
X160140638Y-117626887D01*
X160263756Y-117811145D01*
X160420455Y-117967844D01*
X160604713Y-118090962D01*
X160686791Y-118124960D01*
X159039122Y-118124960D01*
X159196714Y-118046207D01*
X159370968Y-117911029D01*
X159515502Y-117744453D01*
X159624762Y-117552881D01*
X159694549Y-117343674D01*
X159651351Y-117169000D01*
X158672600Y-117169000D01*
X158672600Y-117189000D01*
X158522600Y-117189000D01*
X158522600Y-117169000D01*
X157543849Y-117169000D01*
X157500651Y-117343674D01*
X157570438Y-117552881D01*
X157679698Y-117744453D01*
X157824232Y-117911029D01*
X157998486Y-118046207D01*
X158156078Y-118124960D01*
X156508409Y-118124960D01*
X156590487Y-118090962D01*
X156774745Y-117967844D01*
X156931444Y-117811145D01*
X157054562Y-117626887D01*
X157139367Y-117422150D01*
X157182600Y-117204803D01*
X157182600Y-116983197D01*
X157154977Y-116844326D01*
X157500651Y-116844326D01*
X157543849Y-117019000D01*
X158522600Y-117019000D01*
X158522600Y-116040416D01*
X158672600Y-116040416D01*
X158672600Y-117019000D01*
X159651351Y-117019000D01*
X159694549Y-116844326D01*
X159624762Y-116635119D01*
X159515502Y-116443547D01*
X159370968Y-116276971D01*
X159196714Y-116141793D01*
X158999436Y-116043208D01*
X158847274Y-115997055D01*
X158672600Y-116040416D01*
X158522600Y-116040416D01*
X158347926Y-115997055D01*
X158195764Y-116043208D01*
X157998486Y-116141793D01*
X157824232Y-116276971D01*
X157679698Y-116443547D01*
X157570438Y-116635119D01*
X157500651Y-116844326D01*
X157154977Y-116844326D01*
X157139367Y-116765850D01*
X157054562Y-116561113D01*
X156946241Y-116399000D01*
X157003233Y-116399000D01*
X157114321Y-116376903D01*
X157218965Y-116333558D01*
X157313141Y-116270632D01*
X157393232Y-116190541D01*
X157456158Y-116096365D01*
X157499503Y-115991721D01*
X157521600Y-115880633D01*
X157521600Y-115767367D01*
X157499503Y-115656279D01*
X157456158Y-115551635D01*
X157393232Y-115457459D01*
X157313141Y-115377368D01*
X157218965Y-115314442D01*
X157114321Y-115271097D01*
X157003233Y-115249000D01*
X156889967Y-115249000D01*
X156778879Y-115271097D01*
X156674235Y-115314442D01*
X156622515Y-115349000D01*
X152270931Y-115349000D01*
X152247599Y-115346702D01*
X152154483Y-115355873D01*
X152127322Y-115364112D01*
X152064946Y-115383034D01*
X151982427Y-115427141D01*
X151910099Y-115486499D01*
X151895220Y-115504629D01*
X151363638Y-116036211D01*
X151305750Y-116012233D01*
X151088403Y-115969000D01*
X150866797Y-115969000D01*
X150649450Y-116012233D01*
X150444713Y-116097038D01*
X150260455Y-116220156D01*
X150103756Y-116376855D01*
X149980638Y-116561113D01*
X149895833Y-116765850D01*
X149852600Y-116983197D01*
X149852600Y-117204803D01*
X149895833Y-117422150D01*
X149980638Y-117626887D01*
X150103756Y-117811145D01*
X150260455Y-117967844D01*
X150444713Y-118090962D01*
X150526791Y-118124960D01*
X148888409Y-118124960D01*
X148970487Y-118090962D01*
X149154745Y-117967844D01*
X149311444Y-117811145D01*
X149434562Y-117626887D01*
X149519367Y-117422150D01*
X149562600Y-117204803D01*
X149562600Y-116983197D01*
X149519367Y-116765850D01*
X149434562Y-116561113D01*
X149311444Y-116376855D01*
X149154745Y-116220156D01*
X148970487Y-116097038D01*
X148765750Y-116012233D01*
X148548403Y-115969000D01*
X148326797Y-115969000D01*
X148109450Y-116012233D01*
X147976563Y-116067277D01*
X144670335Y-112761050D01*
X144657811Y-112745789D01*
X144596903Y-112695803D01*
X144527414Y-112658660D01*
X144452014Y-112635788D01*
X144393247Y-112630000D01*
X144393246Y-112630000D01*
X144373600Y-112628065D01*
X144353954Y-112630000D01*
X137707320Y-112630000D01*
X136980517Y-111903197D01*
X167632600Y-111903197D01*
X167632600Y-112124803D01*
X167675833Y-112342150D01*
X167760638Y-112546887D01*
X167883756Y-112731145D01*
X168040455Y-112887844D01*
X168224713Y-113010962D01*
X168429450Y-113095767D01*
X168646797Y-113139000D01*
X168868403Y-113139000D01*
X169085750Y-113095767D01*
X169290487Y-113010962D01*
X169474745Y-112887844D01*
X169631444Y-112731145D01*
X169754562Y-112546887D01*
X169839367Y-112342150D01*
X169882600Y-112124803D01*
X169882600Y-111903197D01*
X169839367Y-111685850D01*
X169754562Y-111481113D01*
X169631444Y-111296855D01*
X169474745Y-111140156D01*
X169290487Y-111017038D01*
X169085750Y-110932233D01*
X168868403Y-110889000D01*
X168646797Y-110889000D01*
X168429450Y-110932233D01*
X168224713Y-111017038D01*
X168040455Y-111140156D01*
X167883756Y-111296855D01*
X167760638Y-111481113D01*
X167675833Y-111685850D01*
X167632600Y-111903197D01*
X136980517Y-111903197D01*
X136391673Y-111314353D01*
X136391673Y-111248405D01*
X136369576Y-111137317D01*
X136326231Y-111032673D01*
X136263305Y-110938497D01*
X136183214Y-110858406D01*
X136117305Y-110814367D01*
X137575610Y-110814367D01*
X137575610Y-110927633D01*
X137597707Y-111038721D01*
X137641052Y-111143365D01*
X137703978Y-111237541D01*
X137784069Y-111317632D01*
X137878245Y-111380558D01*
X137982889Y-111423903D01*
X138093977Y-111446000D01*
X138159924Y-111446000D01*
X138280876Y-111566952D01*
X138293398Y-111582210D01*
X138308656Y-111594732D01*
X138308658Y-111594734D01*
X138354306Y-111632196D01*
X138423795Y-111669339D01*
X138499195Y-111692211D01*
X138577609Y-111699934D01*
X138597256Y-111697999D01*
X140751955Y-111697999D01*
X140771601Y-111699934D01*
X140791247Y-111697999D01*
X140791248Y-111697999D01*
X140850015Y-111692211D01*
X140925415Y-111669339D01*
X140994904Y-111632196D01*
X141055812Y-111582210D01*
X141068338Y-111566947D01*
X142179587Y-110455698D01*
X152920269Y-110455698D01*
X152920269Y-110568964D01*
X152942366Y-110680052D01*
X152985711Y-110784696D01*
X153048637Y-110878872D01*
X153128728Y-110958963D01*
X153222904Y-111021889D01*
X153327548Y-111065234D01*
X153438636Y-111087331D01*
X153551902Y-111087331D01*
X153662990Y-111065234D01*
X153767634Y-111021889D01*
X153861810Y-110958963D01*
X153941901Y-110878872D01*
X154004827Y-110784696D01*
X154048172Y-110680052D01*
X154070269Y-110568964D01*
X154070269Y-110455698D01*
X154048172Y-110344610D01*
X154004827Y-110239966D01*
X153941901Y-110145790D01*
X153895269Y-110099158D01*
X153895269Y-109446016D01*
X153930616Y-109410669D01*
X153996564Y-109410669D01*
X154107652Y-109388572D01*
X154168912Y-109363197D01*
X167632600Y-109363197D01*
X167632600Y-109584803D01*
X167675833Y-109802150D01*
X167760638Y-110006887D01*
X167883756Y-110191145D01*
X168040455Y-110347844D01*
X168224713Y-110470962D01*
X168429450Y-110555767D01*
X168646797Y-110599000D01*
X168868403Y-110599000D01*
X169085750Y-110555767D01*
X169290487Y-110470962D01*
X169474745Y-110347844D01*
X169631444Y-110191145D01*
X169754562Y-110006887D01*
X169839367Y-109802150D01*
X169882600Y-109584803D01*
X169882600Y-109363197D01*
X169839367Y-109145850D01*
X169754562Y-108941113D01*
X169631444Y-108756855D01*
X169474745Y-108600156D01*
X169290487Y-108477038D01*
X169085750Y-108392233D01*
X168868403Y-108349000D01*
X168646797Y-108349000D01*
X168429450Y-108392233D01*
X168224713Y-108477038D01*
X168040455Y-108600156D01*
X167883756Y-108756855D01*
X167760638Y-108941113D01*
X167675833Y-109145850D01*
X167632600Y-109363197D01*
X154168912Y-109363197D01*
X154212296Y-109345227D01*
X154306472Y-109282301D01*
X154386563Y-109202210D01*
X154449489Y-109108034D01*
X154492834Y-109003390D01*
X154514931Y-108892302D01*
X154514931Y-108779036D01*
X154492834Y-108667948D01*
X154449489Y-108563304D01*
X154386563Y-108469128D01*
X154306472Y-108389037D01*
X154212296Y-108326111D01*
X154107652Y-108282766D01*
X153996564Y-108260669D01*
X153883298Y-108260669D01*
X153772210Y-108282766D01*
X153667566Y-108326111D01*
X153573390Y-108389037D01*
X153493299Y-108469128D01*
X153430373Y-108563304D01*
X153387028Y-108667948D01*
X153364931Y-108779036D01*
X153364931Y-108844984D01*
X153226316Y-108983599D01*
X153211059Y-108996120D01*
X153198537Y-109011378D01*
X153198534Y-109011381D01*
X153161072Y-109057029D01*
X153123930Y-109126517D01*
X153101057Y-109201918D01*
X153093334Y-109280331D01*
X153095270Y-109299987D01*
X153095269Y-110099158D01*
X153048637Y-110145790D01*
X152985711Y-110239966D01*
X152942366Y-110344610D01*
X152920269Y-110455698D01*
X142179587Y-110455698D01*
X147936723Y-104698562D01*
X150905005Y-104698562D01*
X150905005Y-104811828D01*
X150927102Y-104922916D01*
X150970447Y-105027560D01*
X151033373Y-105121736D01*
X151113464Y-105201827D01*
X151207640Y-105264753D01*
X151312284Y-105308098D01*
X151345194Y-105314644D01*
X151344079Y-105315240D01*
X151302205Y-105349605D01*
X151267840Y-105391479D01*
X151242304Y-105439253D01*
X151226580Y-105491091D01*
X151221270Y-105545000D01*
X151221270Y-106545000D01*
X151226580Y-106598909D01*
X151242304Y-106650747D01*
X151265958Y-106695000D01*
X151242304Y-106739253D01*
X151226580Y-106791091D01*
X151221270Y-106845000D01*
X151221270Y-107845000D01*
X151226580Y-107898909D01*
X151242304Y-107950747D01*
X151267840Y-107998521D01*
X151302205Y-108040395D01*
X151344079Y-108074760D01*
X151391853Y-108100296D01*
X151443691Y-108116020D01*
X151497600Y-108121330D01*
X152997600Y-108121330D01*
X153051509Y-108116020D01*
X153103347Y-108100296D01*
X153151121Y-108074760D01*
X153192995Y-108040395D01*
X153227360Y-107998521D01*
X153252896Y-107950747D01*
X153268620Y-107898909D01*
X153273930Y-107845000D01*
X153273930Y-106845000D01*
X153271783Y-106823197D01*
X167632600Y-106823197D01*
X167632600Y-107044803D01*
X167675833Y-107262150D01*
X167760638Y-107466887D01*
X167883756Y-107651145D01*
X168040455Y-107807844D01*
X168224713Y-107930962D01*
X168429450Y-108015767D01*
X168646797Y-108059000D01*
X168868403Y-108059000D01*
X169085750Y-108015767D01*
X169290487Y-107930962D01*
X169474745Y-107807844D01*
X169631444Y-107651145D01*
X169754562Y-107466887D01*
X169839367Y-107262150D01*
X169882600Y-107044803D01*
X169882600Y-106823197D01*
X169839367Y-106605850D01*
X169754562Y-106401113D01*
X169631444Y-106216855D01*
X169474745Y-106060156D01*
X169290487Y-105937038D01*
X169085750Y-105852233D01*
X168868403Y-105809000D01*
X168646797Y-105809000D01*
X168429450Y-105852233D01*
X168224713Y-105937038D01*
X168040455Y-106060156D01*
X167883756Y-106216855D01*
X167760638Y-106401113D01*
X167675833Y-106605850D01*
X167632600Y-106823197D01*
X153271783Y-106823197D01*
X153268620Y-106791091D01*
X153252896Y-106739253D01*
X153229242Y-106695000D01*
X153252896Y-106650747D01*
X153268620Y-106598909D01*
X153271468Y-106570000D01*
X154132361Y-106570000D01*
X154241879Y-106643177D01*
X154364721Y-106694060D01*
X154495129Y-106720000D01*
X154628093Y-106720000D01*
X154758501Y-106694060D01*
X154881343Y-106643177D01*
X154991898Y-106569307D01*
X155085918Y-106475287D01*
X155159788Y-106364732D01*
X155210671Y-106241890D01*
X155236611Y-106111482D01*
X155236611Y-105978518D01*
X155210671Y-105848110D01*
X155159788Y-105725268D01*
X155123439Y-105670867D01*
X162912100Y-105670867D01*
X162912100Y-105784133D01*
X162934197Y-105895221D01*
X162977542Y-105999865D01*
X163040468Y-106094041D01*
X163120559Y-106174132D01*
X163214735Y-106237058D01*
X163319379Y-106280403D01*
X163430467Y-106302500D01*
X163543733Y-106302500D01*
X163654821Y-106280403D01*
X163759465Y-106237058D01*
X163853641Y-106174132D01*
X163900273Y-106127500D01*
X167404454Y-106127500D01*
X167424100Y-106129435D01*
X167443746Y-106127500D01*
X167443747Y-106127500D01*
X167502514Y-106121712D01*
X167577914Y-106098840D01*
X167647403Y-106061697D01*
X167708311Y-106011711D01*
X167720837Y-105996448D01*
X168296562Y-105420723D01*
X168429450Y-105475767D01*
X168646797Y-105519000D01*
X168868403Y-105519000D01*
X169085750Y-105475767D01*
X169290487Y-105390962D01*
X169474745Y-105267844D01*
X169631444Y-105111145D01*
X169754562Y-104926887D01*
X169839367Y-104722150D01*
X169882600Y-104504803D01*
X169882600Y-104283197D01*
X169839367Y-104065850D01*
X169754562Y-103861113D01*
X169631444Y-103676855D01*
X169474745Y-103520156D01*
X169290487Y-103397038D01*
X169085750Y-103312233D01*
X168868403Y-103269000D01*
X168646797Y-103269000D01*
X168429450Y-103312233D01*
X168224713Y-103397038D01*
X168040455Y-103520156D01*
X167883756Y-103676855D01*
X167760638Y-103861113D01*
X167675833Y-104065850D01*
X167632600Y-104283197D01*
X167632600Y-104504803D01*
X167675833Y-104722150D01*
X167730877Y-104855038D01*
X167258415Y-105327500D01*
X163900273Y-105327500D01*
X163853641Y-105280868D01*
X163759465Y-105217942D01*
X163654821Y-105174597D01*
X163543733Y-105152500D01*
X163430467Y-105152500D01*
X163319379Y-105174597D01*
X163214735Y-105217942D01*
X163120559Y-105280868D01*
X163040468Y-105360959D01*
X162977542Y-105455135D01*
X162934197Y-105559779D01*
X162912100Y-105670867D01*
X155123439Y-105670867D01*
X155085918Y-105614713D01*
X154991898Y-105520693D01*
X154881343Y-105446823D01*
X154758501Y-105395940D01*
X154628093Y-105370000D01*
X154495129Y-105370000D01*
X154364721Y-105395940D01*
X154241879Y-105446823D01*
X154132361Y-105520000D01*
X153271468Y-105520000D01*
X153268620Y-105491091D01*
X153252896Y-105439253D01*
X153227360Y-105391479D01*
X153192995Y-105349605D01*
X153151121Y-105315240D01*
X153103347Y-105289704D01*
X153051509Y-105273980D01*
X152997600Y-105268670D01*
X151742914Y-105268670D01*
X151752370Y-105264753D01*
X151846546Y-105201827D01*
X151926637Y-105121736D01*
X151989563Y-105027560D01*
X152032908Y-104922916D01*
X152055005Y-104811828D01*
X152055005Y-104745880D01*
X154852140Y-101948745D01*
X155330200Y-101948745D01*
X155330200Y-102062011D01*
X155352297Y-102173099D01*
X155395642Y-102277743D01*
X155458568Y-102371919D01*
X155538659Y-102452010D01*
X155632835Y-102514936D01*
X155737479Y-102558281D01*
X155848567Y-102580378D01*
X155914515Y-102580378D01*
X157393026Y-104058889D01*
X157393026Y-104140409D01*
X157415123Y-104251497D01*
X157458468Y-104356141D01*
X157521394Y-104450317D01*
X157601485Y-104530408D01*
X157695661Y-104593334D01*
X157800305Y-104636679D01*
X157911393Y-104658776D01*
X158024659Y-104658776D01*
X158135747Y-104636679D01*
X158240391Y-104593334D01*
X158334567Y-104530408D01*
X158414658Y-104450317D01*
X158477584Y-104356141D01*
X158520929Y-104251497D01*
X158543026Y-104140409D01*
X158543026Y-104027143D01*
X158520929Y-103916055D01*
X158477584Y-103811411D01*
X158414658Y-103717235D01*
X158334567Y-103637144D01*
X158240391Y-103574218D01*
X158135747Y-103530873D01*
X158024659Y-103508776D01*
X157974283Y-103508776D01*
X157342374Y-102876867D01*
X163547100Y-102876867D01*
X163547100Y-102990133D01*
X163569197Y-103101221D01*
X163612542Y-103205865D01*
X163675468Y-103300041D01*
X163755559Y-103380132D01*
X163849735Y-103443058D01*
X163954379Y-103486403D01*
X164065467Y-103508500D01*
X164178733Y-103508500D01*
X164289821Y-103486403D01*
X164394465Y-103443058D01*
X164488641Y-103380132D01*
X164535273Y-103333500D01*
X165105958Y-103333500D01*
X166220643Y-104448185D01*
X166220643Y-104514133D01*
X166242740Y-104625221D01*
X166286085Y-104729865D01*
X166349011Y-104824041D01*
X166429102Y-104904132D01*
X166523278Y-104967058D01*
X166627922Y-105010403D01*
X166739010Y-105032500D01*
X166852276Y-105032500D01*
X166963364Y-105010403D01*
X167068008Y-104967058D01*
X167162184Y-104904132D01*
X167242275Y-104824041D01*
X167305201Y-104729865D01*
X167348546Y-104625221D01*
X167370643Y-104514133D01*
X167370643Y-104400867D01*
X167348546Y-104289779D01*
X167305201Y-104185135D01*
X167242275Y-104090959D01*
X167162184Y-104010868D01*
X167068008Y-103947942D01*
X166963364Y-103904597D01*
X166852276Y-103882500D01*
X166786328Y-103882500D01*
X165568380Y-102664552D01*
X165555854Y-102649289D01*
X165494946Y-102599303D01*
X165425457Y-102562160D01*
X165350057Y-102539288D01*
X165291290Y-102533500D01*
X165291289Y-102533500D01*
X165271643Y-102531565D01*
X165251997Y-102533500D01*
X164535273Y-102533500D01*
X164488641Y-102486868D01*
X164394465Y-102423942D01*
X164289821Y-102380597D01*
X164178733Y-102358500D01*
X164065467Y-102358500D01*
X163954379Y-102380597D01*
X163849735Y-102423942D01*
X163755559Y-102486868D01*
X163675468Y-102566959D01*
X163612542Y-102661135D01*
X163569197Y-102765779D01*
X163547100Y-102876867D01*
X157342374Y-102876867D01*
X156480200Y-102014693D01*
X156480200Y-101948745D01*
X156458103Y-101837657D01*
X156418977Y-101743197D01*
X167632600Y-101743197D01*
X167632600Y-101964803D01*
X167675833Y-102182150D01*
X167760638Y-102386887D01*
X167883756Y-102571145D01*
X168040455Y-102727844D01*
X168224713Y-102850962D01*
X168429450Y-102935767D01*
X168646797Y-102979000D01*
X168868403Y-102979000D01*
X169085750Y-102935767D01*
X169290487Y-102850962D01*
X169474745Y-102727844D01*
X169631444Y-102571145D01*
X169754562Y-102386887D01*
X169839367Y-102182150D01*
X169882600Y-101964803D01*
X169882600Y-101743197D01*
X169839367Y-101525850D01*
X169754562Y-101321113D01*
X169631444Y-101136855D01*
X169474745Y-100980156D01*
X169290487Y-100857038D01*
X169085750Y-100772233D01*
X168868403Y-100729000D01*
X168646797Y-100729000D01*
X168429450Y-100772233D01*
X168224713Y-100857038D01*
X168040455Y-100980156D01*
X167883756Y-101136855D01*
X167760638Y-101321113D01*
X167675833Y-101525850D01*
X167632600Y-101743197D01*
X156418977Y-101743197D01*
X156414758Y-101733013D01*
X156351832Y-101638837D01*
X156271741Y-101558746D01*
X156177565Y-101495820D01*
X156072921Y-101452475D01*
X155961833Y-101430378D01*
X155848567Y-101430378D01*
X155737479Y-101452475D01*
X155632835Y-101495820D01*
X155538659Y-101558746D01*
X155458568Y-101638837D01*
X155395642Y-101733013D01*
X155352297Y-101837657D01*
X155330200Y-101948745D01*
X154852140Y-101948745D01*
X155828707Y-100972179D01*
X155843964Y-100959658D01*
X155893950Y-100898750D01*
X155931093Y-100829261D01*
X155953965Y-100753861D01*
X155959753Y-100695094D01*
X155959753Y-100695093D01*
X155961688Y-100675447D01*
X155959753Y-100655801D01*
X155959753Y-98789369D01*
X160858898Y-98789369D01*
X160858898Y-98902635D01*
X160880995Y-99013723D01*
X160924340Y-99118367D01*
X160987266Y-99212543D01*
X161067357Y-99292634D01*
X161161533Y-99355560D01*
X161266177Y-99398905D01*
X161377265Y-99421002D01*
X161490531Y-99421002D01*
X161601619Y-99398905D01*
X161706263Y-99355560D01*
X161800439Y-99292634D01*
X161880530Y-99212543D01*
X161886774Y-99203197D01*
X167632600Y-99203197D01*
X167632600Y-99424803D01*
X167675833Y-99642150D01*
X167760638Y-99846887D01*
X167883756Y-100031145D01*
X168040455Y-100187844D01*
X168224713Y-100310962D01*
X168429450Y-100395767D01*
X168646797Y-100439000D01*
X168868403Y-100439000D01*
X169085750Y-100395767D01*
X169290487Y-100310962D01*
X169474745Y-100187844D01*
X169631444Y-100031145D01*
X169754562Y-99846887D01*
X169839367Y-99642150D01*
X169882600Y-99424803D01*
X169882600Y-99203197D01*
X169839367Y-98985850D01*
X169754562Y-98781113D01*
X169631444Y-98596855D01*
X169474745Y-98440156D01*
X169290487Y-98317038D01*
X169085750Y-98232233D01*
X168868403Y-98189000D01*
X168646797Y-98189000D01*
X168429450Y-98232233D01*
X168224713Y-98317038D01*
X168040455Y-98440156D01*
X167883756Y-98596855D01*
X167760638Y-98781113D01*
X167675833Y-98985850D01*
X167632600Y-99203197D01*
X161886774Y-99203197D01*
X161943456Y-99118367D01*
X161986801Y-99013723D01*
X162008898Y-98902635D01*
X162008898Y-98789369D01*
X161986801Y-98678281D01*
X161943456Y-98573637D01*
X161880530Y-98479461D01*
X161833898Y-98432829D01*
X161833898Y-96663197D01*
X167632600Y-96663197D01*
X167632600Y-96884803D01*
X167675833Y-97102150D01*
X167760638Y-97306887D01*
X167883756Y-97491145D01*
X168040455Y-97647844D01*
X168224713Y-97770962D01*
X168429450Y-97855767D01*
X168646797Y-97899000D01*
X168868403Y-97899000D01*
X169085750Y-97855767D01*
X169290487Y-97770962D01*
X169474745Y-97647844D01*
X169631444Y-97491145D01*
X169754562Y-97306887D01*
X169839367Y-97102150D01*
X169882600Y-96884803D01*
X169882600Y-96663197D01*
X169839367Y-96445850D01*
X169754562Y-96241113D01*
X169631444Y-96056855D01*
X169474745Y-95900156D01*
X169290487Y-95777038D01*
X169085750Y-95692233D01*
X168868403Y-95649000D01*
X168646797Y-95649000D01*
X168429450Y-95692233D01*
X168224713Y-95777038D01*
X168040455Y-95900156D01*
X167883756Y-96056855D01*
X167760638Y-96241113D01*
X167675833Y-96445850D01*
X167632600Y-96663197D01*
X161833898Y-96663197D01*
X161833898Y-94378377D01*
X163160286Y-93051990D01*
X163226233Y-93051990D01*
X163337321Y-93029893D01*
X163441965Y-92986548D01*
X163536141Y-92923622D01*
X163616232Y-92843531D01*
X163679158Y-92749355D01*
X163722503Y-92644711D01*
X163744600Y-92533623D01*
X163744600Y-92420357D01*
X163722503Y-92309269D01*
X163679158Y-92204625D01*
X163616232Y-92110449D01*
X163536141Y-92030358D01*
X163441965Y-91967432D01*
X163337321Y-91924087D01*
X163226233Y-91901990D01*
X163112967Y-91901990D01*
X163001879Y-91924087D01*
X162897235Y-91967432D01*
X162803059Y-92030358D01*
X162722968Y-92110449D01*
X162660042Y-92204625D01*
X162616697Y-92309269D01*
X162594600Y-92420357D01*
X162594600Y-92486304D01*
X161164950Y-93915955D01*
X161149687Y-93928481D01*
X161099701Y-93989390D01*
X161062558Y-94058879D01*
X161049898Y-94100614D01*
X161039686Y-94134279D01*
X161031963Y-94212692D01*
X161033898Y-94232338D01*
X161033899Y-98432828D01*
X160987266Y-98479461D01*
X160924340Y-98573637D01*
X160880995Y-98678281D01*
X160858898Y-98789369D01*
X155959753Y-98789369D01*
X155959753Y-98203177D01*
X156006385Y-98156545D01*
X156069311Y-98062369D01*
X156112656Y-97957725D01*
X156134753Y-97846637D01*
X156134753Y-97733371D01*
X156112656Y-97622283D01*
X156069311Y-97517639D01*
X156006385Y-97423463D01*
X155926294Y-97343372D01*
X155832118Y-97280446D01*
X155727474Y-97237101D01*
X155616386Y-97215004D01*
X155503120Y-97215004D01*
X155392032Y-97237101D01*
X155287388Y-97280446D01*
X155193212Y-97343372D01*
X155113121Y-97423463D01*
X155050195Y-97517639D01*
X155006850Y-97622283D01*
X154984753Y-97733371D01*
X154984753Y-97846637D01*
X155006850Y-97957725D01*
X155050195Y-98062369D01*
X155113121Y-98156545D01*
X155159754Y-98203178D01*
X155159753Y-100509761D01*
X151489320Y-104180195D01*
X151423372Y-104180195D01*
X151312284Y-104202292D01*
X151207640Y-104245637D01*
X151113464Y-104308563D01*
X151033373Y-104388654D01*
X150970447Y-104482830D01*
X150927102Y-104587474D01*
X150905005Y-104698562D01*
X147936723Y-104698562D01*
X148579549Y-104055736D01*
X148594811Y-104043211D01*
X148644797Y-103982303D01*
X148681940Y-103912814D01*
X148704812Y-103837414D01*
X148710600Y-103778647D01*
X148710600Y-103778646D01*
X148712535Y-103759000D01*
X148710600Y-103739353D01*
X148710600Y-100011032D01*
X150831245Y-97890388D01*
X150897192Y-97890388D01*
X151008280Y-97868291D01*
X151112924Y-97824946D01*
X151207100Y-97762020D01*
X151287191Y-97681929D01*
X151350117Y-97587753D01*
X151393462Y-97483109D01*
X151415559Y-97372021D01*
X151415559Y-97258755D01*
X151393462Y-97147667D01*
X151350117Y-97043023D01*
X151287191Y-96948847D01*
X151207100Y-96868756D01*
X151112924Y-96805830D01*
X151008280Y-96762485D01*
X150897192Y-96740388D01*
X150783926Y-96740388D01*
X150672838Y-96762485D01*
X150568194Y-96805830D01*
X150474018Y-96868756D01*
X150454788Y-96887986D01*
X150379380Y-96812578D01*
X150285204Y-96749652D01*
X150180560Y-96706307D01*
X150069472Y-96684210D01*
X149956206Y-96684210D01*
X149845118Y-96706307D01*
X149740474Y-96749652D01*
X149646298Y-96812578D01*
X149607650Y-96851226D01*
X149556031Y-96799607D01*
X149461855Y-96736681D01*
X149357211Y-96693336D01*
X149246123Y-96671239D01*
X149132857Y-96671239D01*
X149021769Y-96693336D01*
X148917125Y-96736681D01*
X148822949Y-96799607D01*
X148788465Y-96834091D01*
X148719669Y-96765295D01*
X148625493Y-96702369D01*
X148520849Y-96659024D01*
X148409761Y-96636927D01*
X148296495Y-96636927D01*
X148185407Y-96659024D01*
X148080763Y-96702369D01*
X147986587Y-96765295D01*
X147906496Y-96845386D01*
X147843570Y-96939562D01*
X147800225Y-97044206D01*
X147778128Y-97155294D01*
X147778128Y-97221242D01*
X146633626Y-98365744D01*
X146618368Y-98378266D01*
X146605846Y-98393524D01*
X146605843Y-98393527D01*
X146599600Y-98401134D01*
X146599600Y-97132447D01*
X146602382Y-97104204D01*
X146599600Y-97075958D01*
X146591280Y-96991484D01*
X146558401Y-96883096D01*
X146541794Y-96852027D01*
X146505008Y-96783205D01*
X146451159Y-96717590D01*
X146433154Y-96695650D01*
X146411213Y-96677644D01*
X146199198Y-96465629D01*
X146191059Y-96424713D01*
X146140176Y-96301871D01*
X146066306Y-96191316D01*
X145972286Y-96097296D01*
X145861731Y-96023426D01*
X145738889Y-95972543D01*
X145608481Y-95946603D01*
X145475517Y-95946603D01*
X145345109Y-95972543D01*
X145222267Y-96023426D01*
X145111712Y-96097296D01*
X145017692Y-96191316D01*
X144943822Y-96301871D01*
X144892939Y-96424713D01*
X144866999Y-96555121D01*
X144866999Y-96688085D01*
X144892939Y-96818493D01*
X144943822Y-96941335D01*
X145017692Y-97051890D01*
X145111712Y-97145910D01*
X145222267Y-97219780D01*
X145345109Y-97270663D01*
X145386025Y-97278802D01*
X145449600Y-97342377D01*
X145449601Y-101753592D01*
X145426423Y-101788280D01*
X145375540Y-101911122D01*
X145349600Y-102041530D01*
X145349600Y-102174494D01*
X145375540Y-102304902D01*
X145426423Y-102427744D01*
X145500293Y-102538299D01*
X145594313Y-102632319D01*
X145704868Y-102706189D01*
X145827710Y-102757072D01*
X145958118Y-102783012D01*
X146091082Y-102783012D01*
X146221490Y-102757072D01*
X146344332Y-102706189D01*
X146454887Y-102632319D01*
X146502578Y-102584628D01*
X146502578Y-102715337D01*
X140524915Y-108693000D01*
X139186247Y-108693000D01*
X139166600Y-108691065D01*
X139088186Y-108698788D01*
X139012785Y-108721660D01*
X138943297Y-108758803D01*
X138897649Y-108796265D01*
X138897647Y-108796267D01*
X138882389Y-108808789D01*
X138869867Y-108824047D01*
X138286915Y-109407000D01*
X138220967Y-109407000D01*
X138109879Y-109429097D01*
X138005235Y-109472442D01*
X137911059Y-109535368D01*
X137830968Y-109615459D01*
X137768042Y-109709635D01*
X137724697Y-109814279D01*
X137702600Y-109925367D01*
X137702600Y-110038633D01*
X137724697Y-110149721D01*
X137768042Y-110254365D01*
X137830968Y-110348541D01*
X137857638Y-110375211D01*
X137784069Y-110424368D01*
X137703978Y-110504459D01*
X137641052Y-110598635D01*
X137597707Y-110703279D01*
X137575610Y-110814367D01*
X136117305Y-110814367D01*
X136089038Y-110795480D01*
X135984394Y-110752135D01*
X135873306Y-110730038D01*
X135760040Y-110730038D01*
X135648952Y-110752135D01*
X135544308Y-110795480D01*
X135450132Y-110858406D01*
X135370041Y-110938497D01*
X135307115Y-111032673D01*
X135263770Y-111137317D01*
X135241673Y-111248405D01*
X135241673Y-111361671D01*
X135263770Y-111472759D01*
X135307115Y-111577403D01*
X135370041Y-111671579D01*
X135450132Y-111751670D01*
X135544308Y-111814596D01*
X135648952Y-111857941D01*
X135760040Y-111880038D01*
X135825988Y-111880038D01*
X137244898Y-113298948D01*
X137257424Y-113314211D01*
X137272685Y-113326735D01*
X137318332Y-113364197D01*
X137387821Y-113401340D01*
X137463221Y-113424212D01*
X137541635Y-113431935D01*
X137561282Y-113430000D01*
X144207915Y-113430000D01*
X147410877Y-116632963D01*
X147355833Y-116765850D01*
X147312600Y-116983197D01*
X147312600Y-117204803D01*
X147355833Y-117422150D01*
X147440638Y-117626887D01*
X147563756Y-117811145D01*
X147720455Y-117967844D01*
X147904713Y-118090962D01*
X147986791Y-118124960D01*
X146348409Y-118124960D01*
X146430487Y-118090962D01*
X146614745Y-117967844D01*
X146771444Y-117811145D01*
X146894562Y-117626887D01*
X146979367Y-117422150D01*
X147022600Y-117204803D01*
X147022600Y-116983197D01*
X146979367Y-116765850D01*
X146894562Y-116561113D01*
X146771444Y-116376855D01*
X146614745Y-116220156D01*
X146430487Y-116097038D01*
X146225750Y-116012233D01*
X146008403Y-115969000D01*
X145786797Y-115969000D01*
X145569450Y-116012233D01*
X145364713Y-116097038D01*
X145180455Y-116220156D01*
X145023756Y-116376855D01*
X144900638Y-116561113D01*
X144815833Y-116765850D01*
X144772600Y-116983197D01*
X144772600Y-117204803D01*
X144815833Y-117422150D01*
X144900638Y-117626887D01*
X145023756Y-117811145D01*
X145180455Y-117967844D01*
X145364713Y-118090962D01*
X145446791Y-118124960D01*
X143808409Y-118124960D01*
X143890487Y-118090962D01*
X144074745Y-117967844D01*
X144231444Y-117811145D01*
X144354562Y-117626887D01*
X144439367Y-117422150D01*
X144482600Y-117204803D01*
X144482600Y-116983197D01*
X144439367Y-116765850D01*
X144354562Y-116561113D01*
X144231444Y-116376855D01*
X144074745Y-116220156D01*
X143890487Y-116097038D01*
X143685750Y-116012233D01*
X143468403Y-115969000D01*
X143246797Y-115969000D01*
X143029450Y-116012233D01*
X142824713Y-116097038D01*
X142640455Y-116220156D01*
X142483756Y-116376855D01*
X142360638Y-116561113D01*
X142275833Y-116765850D01*
X142232600Y-116983197D01*
X142232600Y-117204803D01*
X142275833Y-117422150D01*
X142360638Y-117626887D01*
X142483756Y-117811145D01*
X142640455Y-117967844D01*
X142824713Y-118090962D01*
X142906791Y-118124960D01*
X141268409Y-118124960D01*
X141350487Y-118090962D01*
X141534745Y-117967844D01*
X141691444Y-117811145D01*
X141814562Y-117626887D01*
X141899367Y-117422150D01*
X141942600Y-117204803D01*
X141942600Y-116983197D01*
X141899367Y-116765850D01*
X141814562Y-116561113D01*
X141691444Y-116376855D01*
X141534745Y-116220156D01*
X141350487Y-116097038D01*
X141145750Y-116012233D01*
X140928403Y-115969000D01*
X140706797Y-115969000D01*
X140489450Y-116012233D01*
X140284713Y-116097038D01*
X140100455Y-116220156D01*
X139943756Y-116376855D01*
X139820638Y-116561113D01*
X139735833Y-116765850D01*
X139692600Y-116983197D01*
X139692600Y-117204803D01*
X139735833Y-117422150D01*
X139820638Y-117626887D01*
X139943756Y-117811145D01*
X140100455Y-117967844D01*
X140284713Y-118090962D01*
X140366791Y-118124960D01*
X138719122Y-118124960D01*
X138876714Y-118046207D01*
X139050968Y-117911029D01*
X139195502Y-117744453D01*
X139304762Y-117552881D01*
X139374549Y-117343674D01*
X139331351Y-117169000D01*
X138352600Y-117169000D01*
X138352600Y-117189000D01*
X138202600Y-117189000D01*
X138202600Y-117169000D01*
X137223849Y-117169000D01*
X137180651Y-117343674D01*
X137250438Y-117552881D01*
X137359698Y-117744453D01*
X137504232Y-117911029D01*
X137678486Y-118046207D01*
X137836078Y-118124960D01*
X136188409Y-118124960D01*
X136270487Y-118090962D01*
X136454745Y-117967844D01*
X136611444Y-117811145D01*
X136734562Y-117626887D01*
X136819367Y-117422150D01*
X136862600Y-117204803D01*
X136862600Y-116983197D01*
X136834977Y-116844326D01*
X137180651Y-116844326D01*
X137223849Y-117019000D01*
X138202600Y-117019000D01*
X138202600Y-116040416D01*
X138352600Y-116040416D01*
X138352600Y-117019000D01*
X139331351Y-117019000D01*
X139374549Y-116844326D01*
X139304762Y-116635119D01*
X139195502Y-116443547D01*
X139050968Y-116276971D01*
X138876714Y-116141793D01*
X138679436Y-116043208D01*
X138527274Y-115997055D01*
X138352600Y-116040416D01*
X138202600Y-116040416D01*
X138027926Y-115997055D01*
X137875764Y-116043208D01*
X137678486Y-116141793D01*
X137504232Y-116276971D01*
X137359698Y-116443547D01*
X137250438Y-116635119D01*
X137180651Y-116844326D01*
X136834977Y-116844326D01*
X136819367Y-116765850D01*
X136734562Y-116561113D01*
X136611444Y-116376855D01*
X136454745Y-116220156D01*
X136270487Y-116097038D01*
X136065750Y-116012233D01*
X135848403Y-115969000D01*
X135626797Y-115969000D01*
X135409450Y-116012233D01*
X135204713Y-116097038D01*
X135020455Y-116220156D01*
X134863756Y-116376855D01*
X134740638Y-116561113D01*
X134655833Y-116765850D01*
X134612600Y-116983197D01*
X134612600Y-117204803D01*
X134655833Y-117422150D01*
X134740638Y-117626887D01*
X134863756Y-117811145D01*
X135020455Y-117967844D01*
X135204713Y-118090962D01*
X135286791Y-118124960D01*
X134254841Y-118124960D01*
X134277360Y-118097521D01*
X134302896Y-118049747D01*
X134318620Y-117997909D01*
X134323930Y-117944000D01*
X134323930Y-116244000D01*
X134318620Y-116190091D01*
X134302896Y-116138253D01*
X134277360Y-116090479D01*
X134242995Y-116048605D01*
X134201121Y-116014240D01*
X134153347Y-115988704D01*
X134101509Y-115972980D01*
X134047600Y-115967670D01*
X132347600Y-115967670D01*
X132293691Y-115972980D01*
X132241853Y-115988704D01*
X132194079Y-116014240D01*
X132152205Y-116048605D01*
X132117840Y-116090479D01*
X132092304Y-116138253D01*
X132076580Y-116190091D01*
X132071270Y-116244000D01*
X132071270Y-117944000D01*
X132076580Y-117997909D01*
X132092304Y-118049747D01*
X132117840Y-118097521D01*
X132140359Y-118124960D01*
X128447230Y-118124960D01*
X127997757Y-118080889D01*
X127579508Y-117954612D01*
X127193760Y-117749507D01*
X126855193Y-117473378D01*
X126576710Y-117136749D01*
X126368914Y-116752438D01*
X126239722Y-116335089D01*
X126192567Y-115886440D01*
X126192560Y-115884483D01*
X126192560Y-114443197D01*
X126992600Y-114443197D01*
X126992600Y-114664803D01*
X127035833Y-114882150D01*
X127120638Y-115086887D01*
X127243756Y-115271145D01*
X127400455Y-115427844D01*
X127584713Y-115550962D01*
X127789450Y-115635767D01*
X128006797Y-115679000D01*
X128228403Y-115679000D01*
X128445750Y-115635767D01*
X128650487Y-115550962D01*
X128834745Y-115427844D01*
X128991444Y-115271145D01*
X129114562Y-115086887D01*
X129199367Y-114882150D01*
X129242600Y-114664803D01*
X129242600Y-114443197D01*
X129199367Y-114225850D01*
X129114562Y-114021113D01*
X128991444Y-113836855D01*
X128834745Y-113680156D01*
X128650487Y-113557038D01*
X128445750Y-113472233D01*
X128228403Y-113429000D01*
X128006797Y-113429000D01*
X127789450Y-113472233D01*
X127584713Y-113557038D01*
X127400455Y-113680156D01*
X127243756Y-113836855D01*
X127120638Y-114021113D01*
X127035833Y-114225850D01*
X126992600Y-114443197D01*
X126192560Y-114443197D01*
X126192560Y-111903197D01*
X126992600Y-111903197D01*
X126992600Y-112124803D01*
X127035833Y-112342150D01*
X127120638Y-112546887D01*
X127243756Y-112731145D01*
X127400455Y-112887844D01*
X127584713Y-113010962D01*
X127789450Y-113095767D01*
X128006797Y-113139000D01*
X128228403Y-113139000D01*
X128445750Y-113095767D01*
X128650487Y-113010962D01*
X128834745Y-112887844D01*
X128991444Y-112731145D01*
X129114562Y-112546887D01*
X129199367Y-112342150D01*
X129242600Y-112124803D01*
X129242600Y-111903197D01*
X129199367Y-111685850D01*
X129114562Y-111481113D01*
X128991444Y-111296855D01*
X128834745Y-111140156D01*
X128650487Y-111017038D01*
X128445750Y-110932233D01*
X128228403Y-110889000D01*
X128006797Y-110889000D01*
X127789450Y-110932233D01*
X127584713Y-111017038D01*
X127400455Y-111140156D01*
X127243756Y-111296855D01*
X127120638Y-111481113D01*
X127035833Y-111685850D01*
X126992600Y-111903197D01*
X126192560Y-111903197D01*
X126192560Y-109363197D01*
X126992600Y-109363197D01*
X126992600Y-109584803D01*
X127035833Y-109802150D01*
X127120638Y-110006887D01*
X127243756Y-110191145D01*
X127400455Y-110347844D01*
X127584713Y-110470962D01*
X127789450Y-110555767D01*
X128006797Y-110599000D01*
X128228403Y-110599000D01*
X128445750Y-110555767D01*
X128650487Y-110470962D01*
X128834745Y-110347844D01*
X128991444Y-110191145D01*
X129114562Y-110006887D01*
X129199367Y-109802150D01*
X129242600Y-109584803D01*
X129242600Y-109363197D01*
X129199367Y-109145850D01*
X129114562Y-108941113D01*
X128991444Y-108756855D01*
X128834745Y-108600156D01*
X128650487Y-108477038D01*
X128445750Y-108392233D01*
X128228403Y-108349000D01*
X128006797Y-108349000D01*
X127789450Y-108392233D01*
X127584713Y-108477038D01*
X127400455Y-108600156D01*
X127243756Y-108756855D01*
X127120638Y-108941113D01*
X127035833Y-109145850D01*
X126992600Y-109363197D01*
X126192560Y-109363197D01*
X126192560Y-106823197D01*
X126992600Y-106823197D01*
X126992600Y-107044803D01*
X127035833Y-107262150D01*
X127120638Y-107466887D01*
X127243756Y-107651145D01*
X127400455Y-107807844D01*
X127584713Y-107930962D01*
X127789450Y-108015767D01*
X128006797Y-108059000D01*
X128228403Y-108059000D01*
X128445750Y-108015767D01*
X128650487Y-107930962D01*
X128834745Y-107807844D01*
X128991444Y-107651145D01*
X129114562Y-107466887D01*
X129199367Y-107262150D01*
X129242600Y-107044803D01*
X129242600Y-106823197D01*
X129199367Y-106605850D01*
X129114562Y-106401113D01*
X128991444Y-106216855D01*
X128834745Y-106060156D01*
X128650487Y-105937038D01*
X128445750Y-105852233D01*
X128228403Y-105809000D01*
X128006797Y-105809000D01*
X127789450Y-105852233D01*
X127584713Y-105937038D01*
X127400455Y-106060156D01*
X127243756Y-106216855D01*
X127120638Y-106401113D01*
X127035833Y-106605850D01*
X126992600Y-106823197D01*
X126192560Y-106823197D01*
X126192560Y-104283197D01*
X126992600Y-104283197D01*
X126992600Y-104504803D01*
X127035833Y-104722150D01*
X127120638Y-104926887D01*
X127243756Y-105111145D01*
X127400455Y-105267844D01*
X127584713Y-105390962D01*
X127789450Y-105475767D01*
X128006797Y-105519000D01*
X128228403Y-105519000D01*
X128445750Y-105475767D01*
X128650487Y-105390962D01*
X128834745Y-105267844D01*
X128991444Y-105111145D01*
X129114562Y-104926887D01*
X129199367Y-104722150D01*
X129242600Y-104504803D01*
X129242600Y-104283197D01*
X129199367Y-104065850D01*
X129114562Y-103861113D01*
X128991444Y-103676855D01*
X128834745Y-103520156D01*
X128650487Y-103397038D01*
X128445750Y-103312233D01*
X128228403Y-103269000D01*
X128006797Y-103269000D01*
X127789450Y-103312233D01*
X127584713Y-103397038D01*
X127400455Y-103520156D01*
X127243756Y-103676855D01*
X127120638Y-103861113D01*
X127035833Y-104065850D01*
X126992600Y-104283197D01*
X126192560Y-104283197D01*
X126192560Y-101743197D01*
X126992600Y-101743197D01*
X126992600Y-101964803D01*
X127035833Y-102182150D01*
X127120638Y-102386887D01*
X127243756Y-102571145D01*
X127400455Y-102727844D01*
X127584713Y-102850962D01*
X127789450Y-102935767D01*
X128006797Y-102979000D01*
X128228403Y-102979000D01*
X128445750Y-102935767D01*
X128650487Y-102850962D01*
X128834745Y-102727844D01*
X128991444Y-102571145D01*
X129114562Y-102386887D01*
X129199367Y-102182150D01*
X129242600Y-101964803D01*
X129242600Y-101743197D01*
X129199367Y-101525850D01*
X129114562Y-101321113D01*
X128991444Y-101136855D01*
X128834745Y-100980156D01*
X128650487Y-100857038D01*
X128467802Y-100781367D01*
X140623596Y-100781367D01*
X140623596Y-100894633D01*
X140645693Y-101005721D01*
X140689038Y-101110365D01*
X140751964Y-101204541D01*
X140832055Y-101284632D01*
X140926231Y-101347558D01*
X141030875Y-101390903D01*
X141141963Y-101413000D01*
X141255229Y-101413000D01*
X141366317Y-101390903D01*
X141470961Y-101347558D01*
X141565137Y-101284632D01*
X141611769Y-101238000D01*
X143706427Y-101238000D01*
X143753059Y-101284632D01*
X143847235Y-101347558D01*
X143951879Y-101390903D01*
X144062967Y-101413000D01*
X144176233Y-101413000D01*
X144287321Y-101390903D01*
X144391965Y-101347558D01*
X144486141Y-101284632D01*
X144566232Y-101204541D01*
X144629158Y-101110365D01*
X144672503Y-101005721D01*
X144694600Y-100894633D01*
X144694600Y-100781367D01*
X144672503Y-100670279D01*
X144629158Y-100565635D01*
X144566232Y-100471459D01*
X144486141Y-100391368D01*
X144391965Y-100328442D01*
X144287321Y-100285097D01*
X144176233Y-100263000D01*
X144062967Y-100263000D01*
X143951879Y-100285097D01*
X143847235Y-100328442D01*
X143753059Y-100391368D01*
X143706427Y-100438000D01*
X141611769Y-100438000D01*
X141565137Y-100391368D01*
X141470961Y-100328442D01*
X141366317Y-100285097D01*
X141255229Y-100263000D01*
X141141963Y-100263000D01*
X141030875Y-100285097D01*
X140926231Y-100328442D01*
X140832055Y-100391368D01*
X140751964Y-100471459D01*
X140689038Y-100565635D01*
X140645693Y-100670279D01*
X140623596Y-100781367D01*
X128467802Y-100781367D01*
X128445750Y-100772233D01*
X128228403Y-100729000D01*
X128006797Y-100729000D01*
X127789450Y-100772233D01*
X127584713Y-100857038D01*
X127400455Y-100980156D01*
X127243756Y-101136855D01*
X127120638Y-101321113D01*
X127035833Y-101525850D01*
X126992600Y-101743197D01*
X126192560Y-101743197D01*
X126192560Y-99203197D01*
X126992600Y-99203197D01*
X126992600Y-99424803D01*
X127035833Y-99642150D01*
X127120638Y-99846887D01*
X127243756Y-100031145D01*
X127400455Y-100187844D01*
X127584713Y-100310962D01*
X127789450Y-100395767D01*
X128006797Y-100439000D01*
X128228403Y-100439000D01*
X128445750Y-100395767D01*
X128650487Y-100310962D01*
X128834745Y-100187844D01*
X128991444Y-100031145D01*
X129114562Y-99846887D01*
X129199367Y-99642150D01*
X129242600Y-99424803D01*
X129242600Y-99203197D01*
X129199367Y-98985850D01*
X129114562Y-98781113D01*
X128991444Y-98596855D01*
X128834745Y-98440156D01*
X128650487Y-98317038D01*
X128445750Y-98232233D01*
X128228403Y-98189000D01*
X128006797Y-98189000D01*
X127789450Y-98232233D01*
X127584713Y-98317038D01*
X127400455Y-98440156D01*
X127243756Y-98596855D01*
X127120638Y-98781113D01*
X127035833Y-98985850D01*
X126992600Y-99203197D01*
X126192560Y-99203197D01*
X126192560Y-96663197D01*
X126992600Y-96663197D01*
X126992600Y-96884803D01*
X127035833Y-97102150D01*
X127120638Y-97306887D01*
X127243756Y-97491145D01*
X127400455Y-97647844D01*
X127584713Y-97770962D01*
X127789450Y-97855767D01*
X128006797Y-97899000D01*
X128228403Y-97899000D01*
X128445750Y-97855767D01*
X128650487Y-97770962D01*
X128834745Y-97647844D01*
X128991444Y-97491145D01*
X129114562Y-97306887D01*
X129199367Y-97102150D01*
X129242600Y-96884803D01*
X129242600Y-96663197D01*
X129199367Y-96445850D01*
X129114562Y-96241113D01*
X128991444Y-96056855D01*
X128834745Y-95900156D01*
X128650487Y-95777038D01*
X128445750Y-95692233D01*
X128228403Y-95649000D01*
X128006797Y-95649000D01*
X127789450Y-95692233D01*
X127584713Y-95777038D01*
X127400455Y-95900156D01*
X127243756Y-96056855D01*
X127120638Y-96241113D01*
X127035833Y-96445850D01*
X126992600Y-96663197D01*
X126192560Y-96663197D01*
X126192560Y-94123197D01*
X126992600Y-94123197D01*
X126992600Y-94344803D01*
X127035833Y-94562150D01*
X127120638Y-94766887D01*
X127243756Y-94951145D01*
X127400455Y-95107844D01*
X127584713Y-95230962D01*
X127789450Y-95315767D01*
X128006797Y-95359000D01*
X128228403Y-95359000D01*
X128445750Y-95315767D01*
X128650487Y-95230962D01*
X128834745Y-95107844D01*
X128991444Y-94951145D01*
X129114562Y-94766887D01*
X129199367Y-94562150D01*
X129242600Y-94344803D01*
X129242600Y-94123197D01*
X129199367Y-93905850D01*
X129114562Y-93701113D01*
X128991444Y-93516855D01*
X128834745Y-93360156D01*
X128650487Y-93237038D01*
X128445750Y-93152233D01*
X128228403Y-93109000D01*
X128006797Y-93109000D01*
X127789450Y-93152233D01*
X127584713Y-93237038D01*
X127400455Y-93360156D01*
X127243756Y-93516855D01*
X127120638Y-93701113D01*
X127035833Y-93905850D01*
X126992600Y-94123197D01*
X126192560Y-94123197D01*
X126192560Y-91583197D01*
X126992600Y-91583197D01*
X126992600Y-91804803D01*
X127035833Y-92022150D01*
X127120638Y-92226887D01*
X127243756Y-92411145D01*
X127400455Y-92567844D01*
X127584713Y-92690962D01*
X127789450Y-92775767D01*
X128006797Y-92819000D01*
X128228403Y-92819000D01*
X128445750Y-92775767D01*
X128650487Y-92690962D01*
X128834745Y-92567844D01*
X128991444Y-92411145D01*
X129114562Y-92226887D01*
X129199367Y-92022150D01*
X129242600Y-91804803D01*
X129242600Y-91583197D01*
X129199367Y-91365850D01*
X129114562Y-91161113D01*
X128991444Y-90976855D01*
X128834745Y-90820156D01*
X128650487Y-90697038D01*
X128445750Y-90612233D01*
X128228403Y-90569000D01*
X128006797Y-90569000D01*
X127789450Y-90612233D01*
X127584713Y-90697038D01*
X127400455Y-90820156D01*
X127243756Y-90976855D01*
X127120638Y-91161113D01*
X127035833Y-91365850D01*
X126992600Y-91583197D01*
X126192560Y-91583197D01*
X126192560Y-89043197D01*
X126992600Y-89043197D01*
X126992600Y-89264803D01*
X127035833Y-89482150D01*
X127120638Y-89686887D01*
X127243756Y-89871145D01*
X127400455Y-90027844D01*
X127584713Y-90150962D01*
X127789450Y-90235767D01*
X128006797Y-90279000D01*
X128228403Y-90279000D01*
X128445750Y-90235767D01*
X128650487Y-90150962D01*
X128834745Y-90027844D01*
X128991444Y-89871145D01*
X129114562Y-89686887D01*
X129199367Y-89482150D01*
X129242600Y-89264803D01*
X129242600Y-89043197D01*
X167632600Y-89043197D01*
X167632600Y-89264803D01*
X167675833Y-89482150D01*
X167760638Y-89686887D01*
X167883756Y-89871145D01*
X168040455Y-90027844D01*
X168224713Y-90150962D01*
X168429450Y-90235767D01*
X168646797Y-90279000D01*
X168868403Y-90279000D01*
X169085750Y-90235767D01*
X169290487Y-90150962D01*
X169474745Y-90027844D01*
X169631444Y-89871145D01*
X169754562Y-89686887D01*
X169839367Y-89482150D01*
X169882600Y-89264803D01*
X169882600Y-89043197D01*
X169839367Y-88825850D01*
X169754562Y-88621113D01*
X169631444Y-88436855D01*
X169474745Y-88280156D01*
X169290487Y-88157038D01*
X169085750Y-88072233D01*
X168868403Y-88029000D01*
X168646797Y-88029000D01*
X168429450Y-88072233D01*
X168224713Y-88157038D01*
X168040455Y-88280156D01*
X167883756Y-88436855D01*
X167760638Y-88621113D01*
X167675833Y-88825850D01*
X167632600Y-89043197D01*
X129242600Y-89043197D01*
X129199367Y-88825850D01*
X129114562Y-88621113D01*
X128991444Y-88436855D01*
X128900098Y-88345509D01*
X154984742Y-88345509D01*
X154984742Y-88458775D01*
X155006839Y-88569863D01*
X155050184Y-88674507D01*
X155113110Y-88768683D01*
X155193201Y-88848774D01*
X155287377Y-88911700D01*
X155392021Y-88955045D01*
X155503109Y-88977142D01*
X155616375Y-88977142D01*
X155727463Y-88955045D01*
X155832107Y-88911700D01*
X155926283Y-88848774D01*
X156006374Y-88768683D01*
X156069300Y-88674507D01*
X156112645Y-88569863D01*
X156134742Y-88458775D01*
X156134742Y-88345509D01*
X156112645Y-88234421D01*
X156069300Y-88129777D01*
X156006374Y-88035601D01*
X155959742Y-87988969D01*
X155959742Y-83648831D01*
X156021632Y-83586941D01*
X156084558Y-83492765D01*
X156127903Y-83388121D01*
X156150000Y-83277033D01*
X156150000Y-83163767D01*
X156127903Y-83052679D01*
X156084558Y-82948035D01*
X156021632Y-82853859D01*
X155941541Y-82773768D01*
X155847365Y-82710842D01*
X155742721Y-82667497D01*
X155631633Y-82645400D01*
X155518367Y-82645400D01*
X155407279Y-82667497D01*
X155302635Y-82710842D01*
X155208459Y-82773768D01*
X155128368Y-82853859D01*
X155065442Y-82948035D01*
X155022097Y-83052679D01*
X155000000Y-83163767D01*
X155000000Y-83277033D01*
X155022097Y-83388121D01*
X155065442Y-83492765D01*
X155128368Y-83586941D01*
X155159743Y-83618316D01*
X155159742Y-87988969D01*
X155113110Y-88035601D01*
X155050184Y-88129777D01*
X155006839Y-88234421D01*
X154984742Y-88345509D01*
X128900098Y-88345509D01*
X128834745Y-88280156D01*
X128650487Y-88157038D01*
X128445750Y-88072233D01*
X128228403Y-88029000D01*
X128006797Y-88029000D01*
X127789450Y-88072233D01*
X127584713Y-88157038D01*
X127400455Y-88280156D01*
X127243756Y-88436855D01*
X127120638Y-88621113D01*
X127035833Y-88825850D01*
X126992600Y-89043197D01*
X126192560Y-89043197D01*
X126192560Y-86503197D01*
X126992600Y-86503197D01*
X126992600Y-86724803D01*
X127035833Y-86942150D01*
X127120638Y-87146887D01*
X127243756Y-87331145D01*
X127400455Y-87487844D01*
X127584713Y-87610962D01*
X127789450Y-87695767D01*
X128006797Y-87739000D01*
X128228403Y-87739000D01*
X128445750Y-87695767D01*
X128650487Y-87610962D01*
X128834745Y-87487844D01*
X128991444Y-87331145D01*
X129114562Y-87146887D01*
X129199367Y-86942150D01*
X129225381Y-86811367D01*
X133638600Y-86811367D01*
X133638600Y-86924633D01*
X133660697Y-87035721D01*
X133704042Y-87140365D01*
X133766968Y-87234541D01*
X133847059Y-87314632D01*
X133941235Y-87377558D01*
X134045879Y-87420903D01*
X134156967Y-87443000D01*
X134270233Y-87443000D01*
X134381321Y-87420903D01*
X134485965Y-87377558D01*
X134580141Y-87314632D01*
X134660232Y-87234541D01*
X134723158Y-87140365D01*
X134766503Y-87035721D01*
X134788600Y-86924633D01*
X134788600Y-86811367D01*
X134766503Y-86700279D01*
X134723158Y-86595635D01*
X134660232Y-86501459D01*
X134649029Y-86490256D01*
X135728285Y-85411000D01*
X135794233Y-85411000D01*
X135905321Y-85388903D01*
X136009965Y-85345558D01*
X136104141Y-85282632D01*
X136184232Y-85202541D01*
X136247158Y-85108365D01*
X136290503Y-85003721D01*
X136312600Y-84892633D01*
X136312600Y-84779367D01*
X136290503Y-84668279D01*
X136247158Y-84563635D01*
X136184232Y-84469459D01*
X136104141Y-84389368D01*
X136009965Y-84326442D01*
X135905321Y-84283097D01*
X135794233Y-84261000D01*
X135680967Y-84261000D01*
X135569879Y-84283097D01*
X135465235Y-84326442D01*
X135371059Y-84389368D01*
X135290968Y-84469459D01*
X135228042Y-84563635D01*
X135184697Y-84668279D01*
X135162600Y-84779367D01*
X135162600Y-84845315D01*
X133944648Y-86063267D01*
X133929390Y-86075789D01*
X133916868Y-86091047D01*
X133916865Y-86091050D01*
X133879403Y-86136698D01*
X133842261Y-86206186D01*
X133819388Y-86281587D01*
X133811665Y-86360000D01*
X133813601Y-86379656D01*
X133813601Y-86454826D01*
X133766968Y-86501459D01*
X133704042Y-86595635D01*
X133660697Y-86700279D01*
X133638600Y-86811367D01*
X129225381Y-86811367D01*
X129242600Y-86724803D01*
X129242600Y-86503197D01*
X129199367Y-86285850D01*
X129114562Y-86081113D01*
X128991444Y-85896855D01*
X128834745Y-85740156D01*
X128650487Y-85617038D01*
X128445750Y-85532233D01*
X128228403Y-85489000D01*
X128006797Y-85489000D01*
X127789450Y-85532233D01*
X127584713Y-85617038D01*
X127400455Y-85740156D01*
X127243756Y-85896855D01*
X127120638Y-86081113D01*
X127035833Y-86285850D01*
X126992600Y-86503197D01*
X126192560Y-86503197D01*
X126192560Y-83963197D01*
X126992600Y-83963197D01*
X126992600Y-84184803D01*
X127035833Y-84402150D01*
X127120638Y-84606887D01*
X127243756Y-84791145D01*
X127400455Y-84947844D01*
X127584713Y-85070962D01*
X127789450Y-85155767D01*
X128006797Y-85199000D01*
X128228403Y-85199000D01*
X128445750Y-85155767D01*
X128650487Y-85070962D01*
X128834745Y-84947844D01*
X128991444Y-84791145D01*
X129114562Y-84606887D01*
X129199367Y-84402150D01*
X129242600Y-84184803D01*
X129242600Y-83963197D01*
X129199367Y-83745850D01*
X129114562Y-83541113D01*
X128991444Y-83356855D01*
X128834745Y-83200156D01*
X128650487Y-83077038D01*
X128445750Y-82992233D01*
X128228403Y-82949000D01*
X128006797Y-82949000D01*
X127789450Y-82992233D01*
X127584713Y-83077038D01*
X127400455Y-83200156D01*
X127243756Y-83356855D01*
X127120638Y-83541113D01*
X127035833Y-83745850D01*
X126992600Y-83963197D01*
X126192560Y-83963197D01*
X126192560Y-82384000D01*
X126991269Y-82384000D01*
X126996579Y-82437910D01*
X127012303Y-82489747D01*
X127037839Y-82537521D01*
X127072204Y-82579396D01*
X127114079Y-82613761D01*
X127161853Y-82639297D01*
X127213690Y-82655021D01*
X127267600Y-82660331D01*
X127973850Y-82659000D01*
X128042600Y-82590250D01*
X128042600Y-81609000D01*
X128192600Y-81609000D01*
X128192600Y-82590250D01*
X128261350Y-82659000D01*
X128967600Y-82660331D01*
X129021510Y-82655021D01*
X129073347Y-82639297D01*
X129121121Y-82613761D01*
X129162996Y-82579396D01*
X129197361Y-82537521D01*
X129222897Y-82489747D01*
X129238621Y-82437910D01*
X129243931Y-82384000D01*
X129243659Y-82239367D01*
X160181590Y-82239367D01*
X160181590Y-82352633D01*
X160203687Y-82463721D01*
X160247032Y-82568365D01*
X160309958Y-82662541D01*
X160356601Y-82709184D01*
X160356600Y-86962827D01*
X160309968Y-87009459D01*
X160247042Y-87103635D01*
X160203697Y-87208279D01*
X160181600Y-87319367D01*
X160181600Y-87432633D01*
X160203697Y-87543721D01*
X160247042Y-87648365D01*
X160309968Y-87742541D01*
X160390059Y-87822632D01*
X160484235Y-87885558D01*
X160588879Y-87928903D01*
X160699967Y-87951000D01*
X160813233Y-87951000D01*
X160924321Y-87928903D01*
X161028965Y-87885558D01*
X161123141Y-87822632D01*
X161203232Y-87742541D01*
X161266158Y-87648365D01*
X161309503Y-87543721D01*
X161331600Y-87432633D01*
X161331600Y-87319367D01*
X161309503Y-87208279D01*
X161266158Y-87103635D01*
X161203232Y-87009459D01*
X161156600Y-86962827D01*
X161156600Y-86503197D01*
X167632600Y-86503197D01*
X167632600Y-86724803D01*
X167675833Y-86942150D01*
X167760638Y-87146887D01*
X167883756Y-87331145D01*
X168040455Y-87487844D01*
X168224713Y-87610962D01*
X168429450Y-87695767D01*
X168646797Y-87739000D01*
X168868403Y-87739000D01*
X169085750Y-87695767D01*
X169290487Y-87610962D01*
X169474745Y-87487844D01*
X169631444Y-87331145D01*
X169754562Y-87146887D01*
X169839367Y-86942150D01*
X169882600Y-86724803D01*
X169882600Y-86503197D01*
X169839367Y-86285850D01*
X169754562Y-86081113D01*
X169631444Y-85896855D01*
X169474745Y-85740156D01*
X169290487Y-85617038D01*
X169085750Y-85532233D01*
X168868403Y-85489000D01*
X168646797Y-85489000D01*
X168429450Y-85532233D01*
X168224713Y-85617038D01*
X168040455Y-85740156D01*
X167883756Y-85896855D01*
X167760638Y-86081113D01*
X167675833Y-86285850D01*
X167632600Y-86503197D01*
X161156600Y-86503197D01*
X161156600Y-83963197D01*
X167632600Y-83963197D01*
X167632600Y-84184803D01*
X167675833Y-84402150D01*
X167760638Y-84606887D01*
X167883756Y-84791145D01*
X168040455Y-84947844D01*
X168224713Y-85070962D01*
X168429450Y-85155767D01*
X168646797Y-85199000D01*
X168868403Y-85199000D01*
X169085750Y-85155767D01*
X169290487Y-85070962D01*
X169474745Y-84947844D01*
X169631444Y-84791145D01*
X169754562Y-84606887D01*
X169839367Y-84402150D01*
X169882600Y-84184803D01*
X169882600Y-83963197D01*
X169839367Y-83745850D01*
X169754562Y-83541113D01*
X169631444Y-83356855D01*
X169474745Y-83200156D01*
X169290487Y-83077038D01*
X169085750Y-82992233D01*
X168868403Y-82949000D01*
X168646797Y-82949000D01*
X168429450Y-82992233D01*
X168224713Y-83077038D01*
X168040455Y-83200156D01*
X167883756Y-83356855D01*
X167760638Y-83541113D01*
X167675833Y-83745850D01*
X167632600Y-83963197D01*
X161156600Y-83963197D01*
X161156600Y-82709163D01*
X161203222Y-82662541D01*
X161266148Y-82568365D01*
X161309493Y-82463721D01*
X161331590Y-82352633D01*
X161331590Y-82239367D01*
X161309493Y-82128279D01*
X161266148Y-82023635D01*
X161203222Y-81929459D01*
X161123131Y-81849368D01*
X161028955Y-81786442D01*
X160924311Y-81743097D01*
X160813223Y-81721000D01*
X160699957Y-81721000D01*
X160588869Y-81743097D01*
X160484225Y-81786442D01*
X160390049Y-81849368D01*
X160309958Y-81929459D01*
X160247032Y-82023635D01*
X160203687Y-82128279D01*
X160181590Y-82239367D01*
X129243659Y-82239367D01*
X129242600Y-81677750D01*
X129173850Y-81609000D01*
X128192600Y-81609000D01*
X128042600Y-81609000D01*
X127061350Y-81609000D01*
X126992600Y-81677750D01*
X126991269Y-82384000D01*
X126192560Y-82384000D01*
X126192560Y-80684000D01*
X126991269Y-80684000D01*
X126992600Y-81390250D01*
X127061350Y-81459000D01*
X128042600Y-81459000D01*
X128042600Y-80477750D01*
X128192600Y-80477750D01*
X128192600Y-81459000D01*
X129173850Y-81459000D01*
X129242600Y-81390250D01*
X129243931Y-80684000D01*
X167631270Y-80684000D01*
X167631270Y-82384000D01*
X167636580Y-82437909D01*
X167652304Y-82489747D01*
X167677840Y-82537521D01*
X167712205Y-82579395D01*
X167754079Y-82613760D01*
X167801853Y-82639296D01*
X167853691Y-82655020D01*
X167907600Y-82660330D01*
X169607600Y-82660330D01*
X169661509Y-82655020D01*
X169713347Y-82639296D01*
X169761121Y-82613760D01*
X169802995Y-82579395D01*
X169837360Y-82537521D01*
X169862896Y-82489747D01*
X169878620Y-82437909D01*
X169883930Y-82384000D01*
X169883930Y-80684000D01*
X169878620Y-80630091D01*
X169862896Y-80578253D01*
X169837360Y-80530479D01*
X169802995Y-80488605D01*
X169761121Y-80454240D01*
X169713347Y-80428704D01*
X169661509Y-80412980D01*
X169607600Y-80407670D01*
X167907600Y-80407670D01*
X167853691Y-80412980D01*
X167801853Y-80428704D01*
X167754079Y-80454240D01*
X167712205Y-80488605D01*
X167677840Y-80530479D01*
X167652304Y-80578253D01*
X167636580Y-80630091D01*
X167631270Y-80684000D01*
X129243931Y-80684000D01*
X129238621Y-80630090D01*
X129222897Y-80578253D01*
X129197361Y-80530479D01*
X129162996Y-80488604D01*
X129121121Y-80454239D01*
X129073347Y-80428703D01*
X129021510Y-80412979D01*
X128967600Y-80407669D01*
X128261350Y-80409000D01*
X128192600Y-80477750D01*
X128042600Y-80477750D01*
X127973850Y-80409000D01*
X127267600Y-80407669D01*
X127213690Y-80412979D01*
X127161853Y-80428703D01*
X127114079Y-80454239D01*
X127072204Y-80488604D01*
X127037839Y-80530479D01*
X127012303Y-80578253D01*
X126996579Y-80630090D01*
X126991269Y-80684000D01*
X126192560Y-80684000D01*
X126192560Y-79831000D01*
X170705435Y-79831000D01*
X170708040Y-81915137D01*
G37*
G04 #@! TD.AperFunction*
M02*
