G04 #@! TF.GenerationSoftware,KiCad,Pcbnew,(5.1.8)-1*
G04 #@! TF.CreationDate,2022-05-07T10:28:52+02:00*
G04 #@! TF.ProjectId,SuperPower-uC-KiCad,53757065-7250-46f7-9765-722d75432d4b,rev?*
G04 #@! TF.SameCoordinates,Original*
G04 #@! TF.FileFunction,Legend,Top*
G04 #@! TF.FilePolarity,Positive*
%FSLAX46Y46*%
G04 Gerber Fmt 4.6, Leading zero omitted, Abs format (unit mm)*
G04 Created by KiCad (PCBNEW (5.1.8)-1) date 2022-05-07 10:28:52*
%MOMM*%
%LPD*%
G01*
G04 APERTURE LIST*
%ADD10C,0.150000*%
%ADD11C,0.120000*%
%ADD12C,0.200000*%
%ADD13R,0.650000X1.060000*%
%ADD14R,1.000000X1.500000*%
%ADD15C,2.700000*%
%ADD16O,1.700000X1.700000*%
%ADD17R,1.700000X1.700000*%
%ADD18R,2.000000X0.900000*%
%ADD19R,0.900000X2.000000*%
%ADD20R,5.000000X5.000000*%
%ADD21R,2.000000X1.500000*%
%ADD22R,2.000000X3.800000*%
%ADD23R,1.900000X0.800000*%
%ADD24R,0.900000X1.200000*%
G04 APERTURE END LIST*
D10*
X148380457Y-115703190D02*
X148380457Y-115436523D01*
X148799504Y-115322238D02*
X148799504Y-115703190D01*
X147999504Y-115703190D01*
X147999504Y-115322238D01*
X148799504Y-114979380D02*
X147999504Y-114979380D01*
X148799504Y-114522238D01*
X147999504Y-114522238D01*
X148875695Y-114331761D02*
X148875695Y-113722238D01*
X147999504Y-113150809D02*
X147999504Y-113531761D01*
X148380457Y-113569857D01*
X148342361Y-113531761D01*
X148304266Y-113455571D01*
X148304266Y-113265095D01*
X148342361Y-113188904D01*
X148380457Y-113150809D01*
X148456647Y-113112714D01*
X148647123Y-113112714D01*
X148723314Y-113150809D01*
X148761409Y-113188904D01*
X148799504Y-113265095D01*
X148799504Y-113455571D01*
X148761409Y-113531761D01*
X148723314Y-113569857D01*
X153460457Y-115753904D02*
X153460457Y-115487238D01*
X153879504Y-115372952D02*
X153879504Y-115753904D01*
X153079504Y-115753904D01*
X153079504Y-115372952D01*
X153879504Y-115030095D02*
X153079504Y-115030095D01*
X153879504Y-114572952D01*
X153079504Y-114572952D01*
X153955695Y-114382476D02*
X153955695Y-113772952D01*
X153079504Y-113658666D02*
X153079504Y-113163428D01*
X153384266Y-113430095D01*
X153384266Y-113315809D01*
X153422361Y-113239619D01*
X153460457Y-113201523D01*
X153536647Y-113163428D01*
X153727123Y-113163428D01*
X153803314Y-113201523D01*
X153841409Y-113239619D01*
X153879504Y-113315809D01*
X153879504Y-113544380D01*
X153841409Y-113620571D01*
X153803314Y-113658666D01*
X153346171Y-112896761D02*
X153879504Y-112706285D01*
X153346171Y-112515809D01*
X153079504Y-112287238D02*
X153079504Y-111792000D01*
X153384266Y-112058666D01*
X153384266Y-111944380D01*
X153422361Y-111868190D01*
X153460457Y-111830095D01*
X153536647Y-111792000D01*
X153727123Y-111792000D01*
X153803314Y-111830095D01*
X153841409Y-111868190D01*
X153879504Y-111944380D01*
X153879504Y-112172952D01*
X153841409Y-112249142D01*
X153803314Y-112287238D01*
X150539504Y-115214380D02*
X150539504Y-115595333D01*
X150920457Y-115633428D01*
X150882361Y-115595333D01*
X150844266Y-115519142D01*
X150844266Y-115328666D01*
X150882361Y-115252476D01*
X150920457Y-115214380D01*
X150996647Y-115176285D01*
X151187123Y-115176285D01*
X151263314Y-115214380D01*
X151301409Y-115252476D01*
X151339504Y-115328666D01*
X151339504Y-115519142D01*
X151301409Y-115595333D01*
X151263314Y-115633428D01*
X150539504Y-114947714D02*
X151339504Y-114681047D01*
X150539504Y-114414380D01*
D11*
X142214600Y-100330000D02*
X142214600Y-102997000D01*
X140436600Y-100330000D02*
X142214600Y-100330000D01*
X132562600Y-97282000D02*
X138658600Y-97282000D01*
X132562600Y-104267000D02*
X132562600Y-97282000D01*
X132562600Y-115189000D02*
X132562600Y-105537000D01*
D10*
X133028742Y-97690142D02*
X133028742Y-98418714D01*
X133071600Y-98504428D01*
X133114457Y-98547285D01*
X133200171Y-98590142D01*
X133371600Y-98590142D01*
X133457314Y-98547285D01*
X133500171Y-98504428D01*
X133543028Y-98418714D01*
X133543028Y-97690142D01*
X133928742Y-98547285D02*
X134057314Y-98590142D01*
X134271600Y-98590142D01*
X134357314Y-98547285D01*
X134400171Y-98504428D01*
X134443028Y-98418714D01*
X134443028Y-98333000D01*
X134400171Y-98247285D01*
X134357314Y-98204428D01*
X134271600Y-98161571D01*
X134100171Y-98118714D01*
X134014457Y-98075857D01*
X133971600Y-98033000D01*
X133928742Y-97947285D01*
X133928742Y-97861571D01*
X133971600Y-97775857D01*
X134014457Y-97733000D01*
X134100171Y-97690142D01*
X134314457Y-97690142D01*
X134443028Y-97733000D01*
X135128742Y-98118714D02*
X135257314Y-98161571D01*
X135300171Y-98204428D01*
X135343028Y-98290142D01*
X135343028Y-98418714D01*
X135300171Y-98504428D01*
X135257314Y-98547285D01*
X135171600Y-98590142D01*
X134828742Y-98590142D01*
X134828742Y-97690142D01*
X135128742Y-97690142D01*
X135214457Y-97733000D01*
X135257314Y-97775857D01*
X135300171Y-97861571D01*
X135300171Y-97947285D01*
X135257314Y-98033000D01*
X135214457Y-98075857D01*
X135128742Y-98118714D01*
X134828742Y-98118714D01*
X135728742Y-98247285D02*
X136414457Y-98247285D01*
X132943028Y-100047285D02*
X133071600Y-100090142D01*
X133285885Y-100090142D01*
X133371600Y-100047285D01*
X133414457Y-100004428D01*
X133457314Y-99918714D01*
X133457314Y-99833000D01*
X133414457Y-99747285D01*
X133371600Y-99704428D01*
X133285885Y-99661571D01*
X133114457Y-99618714D01*
X133028742Y-99575857D01*
X132985885Y-99533000D01*
X132943028Y-99447285D01*
X132943028Y-99361571D01*
X132985885Y-99275857D01*
X133028742Y-99233000D01*
X133114457Y-99190142D01*
X133328742Y-99190142D01*
X133457314Y-99233000D01*
X134185885Y-100047285D02*
X134100171Y-100090142D01*
X133928742Y-100090142D01*
X133843028Y-100047285D01*
X133800171Y-99961571D01*
X133800171Y-99618714D01*
X133843028Y-99533000D01*
X133928742Y-99490142D01*
X134100171Y-99490142D01*
X134185885Y-99533000D01*
X134228742Y-99618714D01*
X134228742Y-99704428D01*
X133800171Y-99790142D01*
X134614457Y-100090142D02*
X134614457Y-99490142D01*
X134614457Y-99661571D02*
X134657314Y-99575857D01*
X134700171Y-99533000D01*
X134785885Y-99490142D01*
X134871600Y-99490142D01*
X135171600Y-100090142D02*
X135171600Y-99490142D01*
X135171600Y-99190142D02*
X135128742Y-99233000D01*
X135171600Y-99275857D01*
X135214457Y-99233000D01*
X135171600Y-99190142D01*
X135171600Y-99275857D01*
X135985885Y-100090142D02*
X135985885Y-99618714D01*
X135943028Y-99533000D01*
X135857314Y-99490142D01*
X135685885Y-99490142D01*
X135600171Y-99533000D01*
X135985885Y-100047285D02*
X135900171Y-100090142D01*
X135685885Y-100090142D01*
X135600171Y-100047285D01*
X135557314Y-99961571D01*
X135557314Y-99875857D01*
X135600171Y-99790142D01*
X135685885Y-99747285D01*
X135900171Y-99747285D01*
X135985885Y-99704428D01*
X136543028Y-100090142D02*
X136457314Y-100047285D01*
X136414457Y-99961571D01*
X136414457Y-99190142D01*
X134808980Y-89860380D02*
X134475647Y-89384190D01*
X134237552Y-89860380D02*
X134237552Y-88860380D01*
X134618504Y-88860380D01*
X134713742Y-88908000D01*
X134761361Y-88955619D01*
X134808980Y-89050857D01*
X134808980Y-89193714D01*
X134761361Y-89288952D01*
X134713742Y-89336571D01*
X134618504Y-89384190D01*
X134237552Y-89384190D01*
X135189933Y-89812761D02*
X135332790Y-89860380D01*
X135570885Y-89860380D01*
X135666123Y-89812761D01*
X135713742Y-89765142D01*
X135761361Y-89669904D01*
X135761361Y-89574666D01*
X135713742Y-89479428D01*
X135666123Y-89431809D01*
X135570885Y-89384190D01*
X135380409Y-89336571D01*
X135285171Y-89288952D01*
X135237552Y-89241333D01*
X135189933Y-89146095D01*
X135189933Y-89050857D01*
X135237552Y-88955619D01*
X135285171Y-88908000D01*
X135380409Y-88860380D01*
X135618504Y-88860380D01*
X135761361Y-88908000D01*
X136047076Y-88860380D02*
X136618504Y-88860380D01*
X136332790Y-89860380D02*
X136332790Y-88860380D01*
X155746504Y-115563333D02*
X155746504Y-115068095D01*
X156051266Y-115334761D01*
X156051266Y-115220476D01*
X156089361Y-115144285D01*
X156127457Y-115106190D01*
X156203647Y-115068095D01*
X156394123Y-115068095D01*
X156470314Y-115106190D01*
X156508409Y-115144285D01*
X156546504Y-115220476D01*
X156546504Y-115449047D01*
X156508409Y-115525238D01*
X156470314Y-115563333D01*
X156013171Y-114801428D02*
X156546504Y-114610952D01*
X156013171Y-114420476D01*
X155746504Y-114191904D02*
X155746504Y-113696666D01*
X156051266Y-113963333D01*
X156051266Y-113849047D01*
X156089361Y-113772857D01*
X156127457Y-113734761D01*
X156203647Y-113696666D01*
X156394123Y-113696666D01*
X156470314Y-113734761D01*
X156508409Y-113772857D01*
X156546504Y-113849047D01*
X156546504Y-114077619D01*
X156508409Y-114153809D01*
X156470314Y-114191904D01*
X156546504Y-112744285D02*
X155746504Y-112744285D01*
X156317933Y-112477619D01*
X155746504Y-112210952D01*
X156546504Y-112210952D01*
X156470314Y-111372857D02*
X156508409Y-111410952D01*
X156546504Y-111525238D01*
X156546504Y-111601428D01*
X156508409Y-111715714D01*
X156432219Y-111791904D01*
X156356028Y-111830000D01*
X156203647Y-111868095D01*
X156089361Y-111868095D01*
X155936980Y-111830000D01*
X155860790Y-111791904D01*
X155784600Y-111715714D01*
X155746504Y-111601428D01*
X155746504Y-111525238D01*
X155784600Y-111410952D01*
X155822695Y-111372857D01*
X155746504Y-111030000D02*
X156394123Y-111030000D01*
X156470314Y-110991904D01*
X156508409Y-110953809D01*
X156546504Y-110877619D01*
X156546504Y-110725238D01*
X156508409Y-110649047D01*
X156470314Y-110610952D01*
X156394123Y-110572857D01*
X155746504Y-110572857D01*
X158197600Y-115163523D02*
X158159504Y-115239714D01*
X158159504Y-115354000D01*
X158197600Y-115468285D01*
X158273790Y-115544476D01*
X158349980Y-115582571D01*
X158502361Y-115620666D01*
X158616647Y-115620666D01*
X158769028Y-115582571D01*
X158845219Y-115544476D01*
X158921409Y-115468285D01*
X158959504Y-115354000D01*
X158959504Y-115277809D01*
X158921409Y-115163523D01*
X158883314Y-115125428D01*
X158616647Y-115125428D01*
X158616647Y-115277809D01*
X158959504Y-114782571D02*
X158159504Y-114782571D01*
X158959504Y-114325428D01*
X158159504Y-114325428D01*
X158959504Y-113944476D02*
X158159504Y-113944476D01*
X158159504Y-113754000D01*
X158197600Y-113639714D01*
X158273790Y-113563523D01*
X158349980Y-113525428D01*
X158502361Y-113487333D01*
X158616647Y-113487333D01*
X158769028Y-113525428D01*
X158845219Y-113563523D01*
X158921409Y-113639714D01*
X158959504Y-113754000D01*
X158959504Y-113944476D01*
X160699504Y-115506380D02*
X160699504Y-115011142D01*
X161004266Y-115277809D01*
X161004266Y-115163523D01*
X161042361Y-115087333D01*
X161080457Y-115049238D01*
X161156647Y-115011142D01*
X161347123Y-115011142D01*
X161423314Y-115049238D01*
X161461409Y-115087333D01*
X161499504Y-115163523D01*
X161499504Y-115392095D01*
X161461409Y-115468285D01*
X161423314Y-115506380D01*
X160966171Y-114744476D02*
X161499504Y-114554000D01*
X160966171Y-114363523D01*
X160699504Y-114134952D02*
X160699504Y-113639714D01*
X161004266Y-113906380D01*
X161004266Y-113792095D01*
X161042361Y-113715904D01*
X161080457Y-113677809D01*
X161156647Y-113639714D01*
X161347123Y-113639714D01*
X161423314Y-113677809D01*
X161461409Y-113715904D01*
X161499504Y-113792095D01*
X161499504Y-114020666D01*
X161461409Y-114096857D01*
X161423314Y-114134952D01*
X163912504Y-115137904D02*
X163912504Y-115518857D01*
X163112504Y-115518857D01*
X163493457Y-114871238D02*
X163493457Y-114604571D01*
X163912504Y-114490285D02*
X163912504Y-114871238D01*
X163112504Y-114871238D01*
X163112504Y-114490285D01*
X163912504Y-114147428D02*
X163112504Y-114147428D01*
X163112504Y-113956952D01*
X163150600Y-113842666D01*
X163226790Y-113766476D01*
X163302980Y-113728380D01*
X163455361Y-113690285D01*
X163569647Y-113690285D01*
X163722028Y-113728380D01*
X163798219Y-113766476D01*
X163874409Y-113842666D01*
X163912504Y-113956952D01*
X163912504Y-114147428D01*
X163912504Y-112737904D02*
X163112504Y-112737904D01*
X163112504Y-112547428D01*
X163150600Y-112433142D01*
X163226790Y-112356952D01*
X163302980Y-112318857D01*
X163455361Y-112280761D01*
X163569647Y-112280761D01*
X163722028Y-112318857D01*
X163798219Y-112356952D01*
X163874409Y-112433142D01*
X163912504Y-112547428D01*
X163912504Y-112737904D01*
X163112504Y-111785523D02*
X163112504Y-111633142D01*
X163150600Y-111556952D01*
X163226790Y-111480761D01*
X163379171Y-111442666D01*
X163645838Y-111442666D01*
X163798219Y-111480761D01*
X163874409Y-111556952D01*
X163912504Y-111633142D01*
X163912504Y-111785523D01*
X163874409Y-111861714D01*
X163798219Y-111937904D01*
X163645838Y-111976000D01*
X163379171Y-111976000D01*
X163226790Y-111937904D01*
X163150600Y-111861714D01*
X163112504Y-111785523D01*
X163112504Y-111099809D02*
X163760123Y-111099809D01*
X163836314Y-111061714D01*
X163874409Y-111023619D01*
X163912504Y-110947428D01*
X163912504Y-110795047D01*
X163874409Y-110718857D01*
X163836314Y-110680761D01*
X163760123Y-110642666D01*
X163112504Y-110642666D01*
X163112504Y-110376000D02*
X163112504Y-109918857D01*
X163912504Y-110147428D02*
X163112504Y-110147428D01*
D11*
X163067600Y-80207000D02*
X164210600Y-81153000D01*
D12*
X159867742Y-98011571D02*
X160201076Y-98011571D01*
X160343933Y-98535380D02*
X159867742Y-98535380D01*
X159867742Y-97535380D01*
X160343933Y-97535380D01*
X160677266Y-98535380D02*
X161201076Y-97868714D01*
X160677266Y-97868714D02*
X161201076Y-98535380D01*
X161439171Y-97868714D02*
X161820123Y-97868714D01*
X161582028Y-97535380D02*
X161582028Y-98392523D01*
X161629647Y-98487761D01*
X161724885Y-98535380D01*
X161820123Y-98535380D01*
X162153457Y-98440142D02*
X162201076Y-98487761D01*
X162153457Y-98535380D01*
X162105838Y-98487761D01*
X162153457Y-98440142D01*
X162153457Y-98535380D01*
X158772504Y-100235380D02*
X158772504Y-99235380D01*
X159153457Y-99235380D01*
X159248695Y-99283000D01*
X159296314Y-99330619D01*
X159343933Y-99425857D01*
X159343933Y-99568714D01*
X159296314Y-99663952D01*
X159248695Y-99711571D01*
X159153457Y-99759190D01*
X158772504Y-99759190D01*
X159724885Y-100187761D02*
X159867742Y-100235380D01*
X160105838Y-100235380D01*
X160201076Y-100187761D01*
X160248695Y-100140142D01*
X160296314Y-100044904D01*
X160296314Y-99949666D01*
X160248695Y-99854428D01*
X160201076Y-99806809D01*
X160105838Y-99759190D01*
X159915361Y-99711571D01*
X159820123Y-99663952D01*
X159772504Y-99616333D01*
X159724885Y-99521095D01*
X159724885Y-99425857D01*
X159772504Y-99330619D01*
X159820123Y-99283000D01*
X159915361Y-99235380D01*
X160153457Y-99235380D01*
X160296314Y-99283000D01*
X161296314Y-100235380D02*
X160962980Y-99759190D01*
X160724885Y-100235380D02*
X160724885Y-99235380D01*
X161105838Y-99235380D01*
X161201076Y-99283000D01*
X161248695Y-99330619D01*
X161296314Y-99425857D01*
X161296314Y-99568714D01*
X161248695Y-99663952D01*
X161201076Y-99711571D01*
X161105838Y-99759190D01*
X160724885Y-99759190D01*
X161677266Y-99949666D02*
X162153457Y-99949666D01*
X161582028Y-100235380D02*
X161915361Y-99235380D01*
X162248695Y-100235380D01*
X162582028Y-100235380D02*
X162582028Y-99235380D01*
X162915361Y-99949666D01*
X163248695Y-99235380D01*
X163248695Y-100235380D01*
D11*
X164439600Y-97282000D02*
X164439600Y-108966000D01*
X158343600Y-97282000D02*
X164439600Y-97282000D01*
X157073600Y-109855000D02*
X157073600Y-99695000D01*
X145262600Y-102997000D02*
X142214600Y-102997000D01*
X146405600Y-104775000D02*
X146405600Y-115951000D01*
X136372600Y-113157000D02*
X136499600Y-113411000D01*
X136626600Y-113157000D02*
X136372600Y-113157000D01*
X136499600Y-113411000D02*
X136626600Y-113157000D01*
X162026600Y-102743000D02*
X161899600Y-102489000D01*
X161772600Y-102743000D02*
X162026600Y-102743000D01*
X161899600Y-102489000D02*
X161772600Y-102743000D01*
D10*
X135507361Y-115514285D02*
X135554980Y-115371428D01*
X135554980Y-115133333D01*
X135507361Y-115038095D01*
X135459742Y-114990476D01*
X135364504Y-114942857D01*
X135269266Y-114942857D01*
X135174028Y-114990476D01*
X135126409Y-115038095D01*
X135078790Y-115133333D01*
X135031171Y-115323809D01*
X134983552Y-115419047D01*
X134935933Y-115466666D01*
X134840695Y-115514285D01*
X134745457Y-115514285D01*
X134650219Y-115466666D01*
X134602600Y-115419047D01*
X134554980Y-115323809D01*
X134554980Y-115085714D01*
X134602600Y-114942857D01*
X135554980Y-114514285D02*
X134554980Y-114514285D01*
X134554980Y-114276190D01*
X134602600Y-114133333D01*
X134697838Y-114038095D01*
X134793076Y-113990476D01*
X134983552Y-113942857D01*
X135126409Y-113942857D01*
X135316885Y-113990476D01*
X135412123Y-114038095D01*
X135507361Y-114133333D01*
X135554980Y-114276190D01*
X135554980Y-114514285D01*
X135269266Y-113561904D02*
X135269266Y-113085714D01*
X135554980Y-113657142D02*
X134554980Y-113323809D01*
X135554980Y-112990476D01*
X133983361Y-115490476D02*
X134030980Y-115347619D01*
X134030980Y-115109523D01*
X133983361Y-115014285D01*
X133935742Y-114966666D01*
X133840504Y-114919047D01*
X133745266Y-114919047D01*
X133650028Y-114966666D01*
X133602409Y-115014285D01*
X133554790Y-115109523D01*
X133507171Y-115300000D01*
X133459552Y-115395238D01*
X133411933Y-115442857D01*
X133316695Y-115490476D01*
X133221457Y-115490476D01*
X133126219Y-115442857D01*
X133078600Y-115395238D01*
X133030980Y-115300000D01*
X133030980Y-115061904D01*
X133078600Y-114919047D01*
X133935742Y-113919047D02*
X133983361Y-113966666D01*
X134030980Y-114109523D01*
X134030980Y-114204761D01*
X133983361Y-114347619D01*
X133888123Y-114442857D01*
X133792885Y-114490476D01*
X133602409Y-114538095D01*
X133459552Y-114538095D01*
X133269076Y-114490476D01*
X133173838Y-114442857D01*
X133078600Y-114347619D01*
X133030980Y-114204761D01*
X133030980Y-114109523D01*
X133078600Y-113966666D01*
X133126219Y-113919047D01*
X134030980Y-113014285D02*
X134030980Y-113490476D01*
X133030980Y-113490476D01*
X165273123Y-114181000D02*
X165177885Y-114133380D01*
X165035028Y-114133380D01*
X164892171Y-114181000D01*
X164796933Y-114276238D01*
X164749314Y-114371476D01*
X164701695Y-114561952D01*
X164701695Y-114704809D01*
X164749314Y-114895285D01*
X164796933Y-114990523D01*
X164892171Y-115085761D01*
X165035028Y-115133380D01*
X165130266Y-115133380D01*
X165273123Y-115085761D01*
X165320742Y-115038142D01*
X165320742Y-114704809D01*
X165130266Y-114704809D01*
X166273123Y-115133380D02*
X165701695Y-115133380D01*
X165987409Y-115133380D02*
X165987409Y-114133380D01*
X165892171Y-114276238D01*
X165796933Y-114371476D01*
X165701695Y-114419095D01*
X167177885Y-114133380D02*
X166701695Y-114133380D01*
X166654076Y-114609571D01*
X166701695Y-114561952D01*
X166796933Y-114514333D01*
X167035028Y-114514333D01*
X167130266Y-114561952D01*
X167177885Y-114609571D01*
X167225504Y-114704809D01*
X167225504Y-114942904D01*
X167177885Y-115038142D01*
X167130266Y-115085761D01*
X167035028Y-115133380D01*
X166796933Y-115133380D01*
X166701695Y-115085761D01*
X166654076Y-115038142D01*
X165273123Y-111514000D02*
X165177885Y-111466380D01*
X165035028Y-111466380D01*
X164892171Y-111514000D01*
X164796933Y-111609238D01*
X164749314Y-111704476D01*
X164701695Y-111894952D01*
X164701695Y-112037809D01*
X164749314Y-112228285D01*
X164796933Y-112323523D01*
X164892171Y-112418761D01*
X165035028Y-112466380D01*
X165130266Y-112466380D01*
X165273123Y-112418761D01*
X165320742Y-112371142D01*
X165320742Y-112037809D01*
X165130266Y-112037809D01*
X165939790Y-111466380D02*
X166035028Y-111466380D01*
X166130266Y-111514000D01*
X166177885Y-111561619D01*
X166225504Y-111656857D01*
X166273123Y-111847333D01*
X166273123Y-112085428D01*
X166225504Y-112275904D01*
X166177885Y-112371142D01*
X166130266Y-112418761D01*
X166035028Y-112466380D01*
X165939790Y-112466380D01*
X165844552Y-112418761D01*
X165796933Y-112371142D01*
X165749314Y-112275904D01*
X165701695Y-112085428D01*
X165701695Y-111847333D01*
X165749314Y-111656857D01*
X165796933Y-111561619D01*
X165844552Y-111514000D01*
X165939790Y-111466380D01*
X166654076Y-111561619D02*
X166701695Y-111514000D01*
X166796933Y-111466380D01*
X167035028Y-111466380D01*
X167130266Y-111514000D01*
X167177885Y-111561619D01*
X167225504Y-111656857D01*
X167225504Y-111752095D01*
X167177885Y-111894952D01*
X166606457Y-112466380D01*
X167225504Y-112466380D01*
X165146123Y-109101000D02*
X165050885Y-109053380D01*
X164908028Y-109053380D01*
X164765171Y-109101000D01*
X164669933Y-109196238D01*
X164622314Y-109291476D01*
X164574695Y-109481952D01*
X164574695Y-109624809D01*
X164622314Y-109815285D01*
X164669933Y-109910523D01*
X164765171Y-110005761D01*
X164908028Y-110053380D01*
X165003266Y-110053380D01*
X165146123Y-110005761D01*
X165193742Y-109958142D01*
X165193742Y-109624809D01*
X165003266Y-109624809D01*
X165812790Y-109053380D02*
X165908028Y-109053380D01*
X166003266Y-109101000D01*
X166050885Y-109148619D01*
X166098504Y-109243857D01*
X166146123Y-109434333D01*
X166146123Y-109672428D01*
X166098504Y-109862904D01*
X166050885Y-109958142D01*
X166003266Y-110005761D01*
X165908028Y-110053380D01*
X165812790Y-110053380D01*
X165717552Y-110005761D01*
X165669933Y-109958142D01*
X165622314Y-109862904D01*
X165574695Y-109672428D01*
X165574695Y-109434333D01*
X165622314Y-109243857D01*
X165669933Y-109148619D01*
X165717552Y-109101000D01*
X165812790Y-109053380D01*
X167003266Y-109386714D02*
X167003266Y-110053380D01*
X166765171Y-109005761D02*
X166527076Y-109720047D01*
X167146123Y-109720047D01*
X165254133Y-106383200D02*
X165158895Y-106335580D01*
X165016038Y-106335580D01*
X164873181Y-106383200D01*
X164777943Y-106478438D01*
X164730324Y-106573676D01*
X164682705Y-106764152D01*
X164682705Y-106907009D01*
X164730324Y-107097485D01*
X164777943Y-107192723D01*
X164873181Y-107287961D01*
X165016038Y-107335580D01*
X165111276Y-107335580D01*
X165254133Y-107287961D01*
X165301752Y-107240342D01*
X165301752Y-106907009D01*
X165111276Y-106907009D01*
X166254133Y-107335580D02*
X165682705Y-107335580D01*
X165968419Y-107335580D02*
X165968419Y-106335580D01*
X165873181Y-106478438D01*
X165777943Y-106573676D01*
X165682705Y-106621295D01*
X167111276Y-106335580D02*
X166920800Y-106335580D01*
X166825562Y-106383200D01*
X166777943Y-106430819D01*
X166682705Y-106573676D01*
X166635086Y-106764152D01*
X166635086Y-107145104D01*
X166682705Y-107240342D01*
X166730324Y-107287961D01*
X166825562Y-107335580D01*
X167016038Y-107335580D01*
X167111276Y-107287961D01*
X167158895Y-107240342D01*
X167206514Y-107145104D01*
X167206514Y-106907009D01*
X167158895Y-106811771D01*
X167111276Y-106764152D01*
X167016038Y-106716533D01*
X166825562Y-106716533D01*
X166730324Y-106764152D01*
X166682705Y-106811771D01*
X166635086Y-106907009D01*
X165254133Y-103843200D02*
X165158895Y-103795580D01*
X165016038Y-103795580D01*
X164873181Y-103843200D01*
X164777943Y-103938438D01*
X164730324Y-104033676D01*
X164682705Y-104224152D01*
X164682705Y-104367009D01*
X164730324Y-104557485D01*
X164777943Y-104652723D01*
X164873181Y-104747961D01*
X165016038Y-104795580D01*
X165111276Y-104795580D01*
X165254133Y-104747961D01*
X165301752Y-104700342D01*
X165301752Y-104367009D01*
X165111276Y-104367009D01*
X166254133Y-104795580D02*
X165682705Y-104795580D01*
X165968419Y-104795580D02*
X165968419Y-103795580D01*
X165873181Y-103938438D01*
X165777943Y-104033676D01*
X165682705Y-104081295D01*
X166587467Y-103795580D02*
X167254133Y-103795580D01*
X166825562Y-104795580D01*
X165254133Y-101303200D02*
X165158895Y-101255580D01*
X165016038Y-101255580D01*
X164873181Y-101303200D01*
X164777943Y-101398438D01*
X164730324Y-101493676D01*
X164682705Y-101684152D01*
X164682705Y-101827009D01*
X164730324Y-102017485D01*
X164777943Y-102112723D01*
X164873181Y-102207961D01*
X165016038Y-102255580D01*
X165111276Y-102255580D01*
X165254133Y-102207961D01*
X165301752Y-102160342D01*
X165301752Y-101827009D01*
X165111276Y-101827009D01*
X165920800Y-101255580D02*
X166016038Y-101255580D01*
X166111276Y-101303200D01*
X166158895Y-101350819D01*
X166206514Y-101446057D01*
X166254133Y-101636533D01*
X166254133Y-101874628D01*
X166206514Y-102065104D01*
X166158895Y-102160342D01*
X166111276Y-102207961D01*
X166016038Y-102255580D01*
X165920800Y-102255580D01*
X165825562Y-102207961D01*
X165777943Y-102160342D01*
X165730324Y-102065104D01*
X165682705Y-101874628D01*
X165682705Y-101636533D01*
X165730324Y-101446057D01*
X165777943Y-101350819D01*
X165825562Y-101303200D01*
X165920800Y-101255580D01*
X167158895Y-101255580D02*
X166682705Y-101255580D01*
X166635086Y-101731771D01*
X166682705Y-101684152D01*
X166777943Y-101636533D01*
X167016038Y-101636533D01*
X167111276Y-101684152D01*
X167158895Y-101731771D01*
X167206514Y-101827009D01*
X167206514Y-102065104D01*
X167158895Y-102160342D01*
X167111276Y-102207961D01*
X167016038Y-102255580D01*
X166777943Y-102255580D01*
X166682705Y-102207961D01*
X166635086Y-102160342D01*
X165254133Y-98763200D02*
X165158895Y-98715580D01*
X165016038Y-98715580D01*
X164873181Y-98763200D01*
X164777943Y-98858438D01*
X164730324Y-98953676D01*
X164682705Y-99144152D01*
X164682705Y-99287009D01*
X164730324Y-99477485D01*
X164777943Y-99572723D01*
X164873181Y-99667961D01*
X165016038Y-99715580D01*
X165111276Y-99715580D01*
X165254133Y-99667961D01*
X165301752Y-99620342D01*
X165301752Y-99287009D01*
X165111276Y-99287009D01*
X166254133Y-99715580D02*
X165682705Y-99715580D01*
X165968419Y-99715580D02*
X165968419Y-98715580D01*
X165873181Y-98858438D01*
X165777943Y-98953676D01*
X165682705Y-99001295D01*
X166825562Y-99144152D02*
X166730324Y-99096533D01*
X166682705Y-99048914D01*
X166635086Y-98953676D01*
X166635086Y-98906057D01*
X166682705Y-98810819D01*
X166730324Y-98763200D01*
X166825562Y-98715580D01*
X167016038Y-98715580D01*
X167111276Y-98763200D01*
X167158895Y-98810819D01*
X167206514Y-98906057D01*
X167206514Y-98953676D01*
X167158895Y-99048914D01*
X167111276Y-99096533D01*
X167016038Y-99144152D01*
X166825562Y-99144152D01*
X166730324Y-99191771D01*
X166682705Y-99239390D01*
X166635086Y-99334628D01*
X166635086Y-99525104D01*
X166682705Y-99620342D01*
X166730324Y-99667961D01*
X166825562Y-99715580D01*
X167016038Y-99715580D01*
X167111276Y-99667961D01*
X167158895Y-99620342D01*
X167206514Y-99525104D01*
X167206514Y-99334628D01*
X167158895Y-99239390D01*
X167111276Y-99191771D01*
X167016038Y-99144152D01*
X165254133Y-96223200D02*
X165158895Y-96175580D01*
X165016038Y-96175580D01*
X164873181Y-96223200D01*
X164777943Y-96318438D01*
X164730324Y-96413676D01*
X164682705Y-96604152D01*
X164682705Y-96747009D01*
X164730324Y-96937485D01*
X164777943Y-97032723D01*
X164873181Y-97127961D01*
X165016038Y-97175580D01*
X165111276Y-97175580D01*
X165254133Y-97127961D01*
X165301752Y-97080342D01*
X165301752Y-96747009D01*
X165111276Y-96747009D01*
X166254133Y-97175580D02*
X165682705Y-97175580D01*
X165968419Y-97175580D02*
X165968419Y-96175580D01*
X165873181Y-96318438D01*
X165777943Y-96413676D01*
X165682705Y-96461295D01*
X166730324Y-97175580D02*
X166920800Y-97175580D01*
X167016038Y-97127961D01*
X167063657Y-97080342D01*
X167158895Y-96937485D01*
X167206514Y-96747009D01*
X167206514Y-96366057D01*
X167158895Y-96270819D01*
X167111276Y-96223200D01*
X167016038Y-96175580D01*
X166825562Y-96175580D01*
X166730324Y-96223200D01*
X166682705Y-96270819D01*
X166635086Y-96366057D01*
X166635086Y-96604152D01*
X166682705Y-96699390D01*
X166730324Y-96747009D01*
X166825562Y-96794628D01*
X167016038Y-96794628D01*
X167111276Y-96747009D01*
X167158895Y-96699390D01*
X167206514Y-96604152D01*
X165254133Y-93683200D02*
X165158895Y-93635580D01*
X165016038Y-93635580D01*
X164873181Y-93683200D01*
X164777943Y-93778438D01*
X164730324Y-93873676D01*
X164682705Y-94064152D01*
X164682705Y-94207009D01*
X164730324Y-94397485D01*
X164777943Y-94492723D01*
X164873181Y-94587961D01*
X165016038Y-94635580D01*
X165111276Y-94635580D01*
X165254133Y-94587961D01*
X165301752Y-94540342D01*
X165301752Y-94207009D01*
X165111276Y-94207009D01*
X165682705Y-93730819D02*
X165730324Y-93683200D01*
X165825562Y-93635580D01*
X166063657Y-93635580D01*
X166158895Y-93683200D01*
X166206514Y-93730819D01*
X166254133Y-93826057D01*
X166254133Y-93921295D01*
X166206514Y-94064152D01*
X165635086Y-94635580D01*
X166254133Y-94635580D01*
X167206514Y-94635580D02*
X166635086Y-94635580D01*
X166920800Y-94635580D02*
X166920800Y-93635580D01*
X166825562Y-93778438D01*
X166730324Y-93873676D01*
X166635086Y-93921295D01*
X165254133Y-92095580D02*
X164920800Y-91619390D01*
X164682704Y-92095580D02*
X164682704Y-91095580D01*
X165063657Y-91095580D01*
X165158895Y-91143200D01*
X165206514Y-91190819D01*
X165254133Y-91286057D01*
X165254133Y-91428914D01*
X165206514Y-91524152D01*
X165158895Y-91571771D01*
X165063657Y-91619390D01*
X164682704Y-91619390D01*
X165587466Y-91095580D02*
X166254133Y-92095580D01*
X166254133Y-91095580D02*
X165587466Y-92095580D01*
X166635085Y-92095580D02*
X166635085Y-91095580D01*
X166873180Y-91095580D01*
X167016038Y-91143200D01*
X167111276Y-91238438D01*
X167158895Y-91333676D01*
X167206514Y-91524152D01*
X167206514Y-91667009D01*
X167158895Y-91857485D01*
X167111276Y-91952723D01*
X167016038Y-92047961D01*
X166873180Y-92095580D01*
X166635085Y-92095580D01*
X165254133Y-86063200D02*
X165158895Y-86015580D01*
X165016038Y-86015580D01*
X164873181Y-86063200D01*
X164777943Y-86158438D01*
X164730324Y-86253676D01*
X164682705Y-86444152D01*
X164682705Y-86587009D01*
X164730324Y-86777485D01*
X164777943Y-86872723D01*
X164873181Y-86967961D01*
X165016038Y-87015580D01*
X165111276Y-87015580D01*
X165254133Y-86967961D01*
X165301752Y-86920342D01*
X165301752Y-86587009D01*
X165111276Y-86587009D01*
X165682705Y-86110819D02*
X165730324Y-86063200D01*
X165825562Y-86015580D01*
X166063657Y-86015580D01*
X166158895Y-86063200D01*
X166206514Y-86110819D01*
X166254133Y-86206057D01*
X166254133Y-86301295D01*
X166206514Y-86444152D01*
X165635086Y-87015580D01*
X166254133Y-87015580D01*
X166635086Y-86110819D02*
X166682705Y-86063200D01*
X166777943Y-86015580D01*
X167016038Y-86015580D01*
X167111276Y-86063200D01*
X167158895Y-86110819D01*
X167206514Y-86206057D01*
X167206514Y-86301295D01*
X167158895Y-86444152D01*
X166587467Y-87015580D01*
X167206514Y-87015580D01*
X164777943Y-88555580D02*
X165349371Y-88555580D01*
X165063657Y-89555580D02*
X165063657Y-88555580D01*
X165587467Y-88555580D02*
X166254133Y-89555580D01*
X166254133Y-88555580D02*
X165587467Y-89555580D01*
X166635086Y-89555580D02*
X166635086Y-88555580D01*
X166873181Y-88555580D01*
X167016038Y-88603200D01*
X167111276Y-88698438D01*
X167158895Y-88793676D01*
X167206514Y-88984152D01*
X167206514Y-89127009D01*
X167158895Y-89317485D01*
X167111276Y-89412723D01*
X167016038Y-89507961D01*
X166873181Y-89555580D01*
X166635086Y-89555580D01*
X165254133Y-83523200D02*
X165158895Y-83475580D01*
X165016038Y-83475580D01*
X164873181Y-83523200D01*
X164777943Y-83618438D01*
X164730324Y-83713676D01*
X164682705Y-83904152D01*
X164682705Y-84047009D01*
X164730324Y-84237485D01*
X164777943Y-84332723D01*
X164873181Y-84427961D01*
X165016038Y-84475580D01*
X165111276Y-84475580D01*
X165254133Y-84427961D01*
X165301752Y-84380342D01*
X165301752Y-84047009D01*
X165111276Y-84047009D01*
X165682705Y-83570819D02*
X165730324Y-83523200D01*
X165825562Y-83475580D01*
X166063657Y-83475580D01*
X166158895Y-83523200D01*
X166206514Y-83570819D01*
X166254133Y-83666057D01*
X166254133Y-83761295D01*
X166206514Y-83904152D01*
X165635086Y-84475580D01*
X166254133Y-84475580D01*
X166587467Y-83475580D02*
X167206514Y-83475580D01*
X166873181Y-83856533D01*
X167016038Y-83856533D01*
X167111276Y-83904152D01*
X167158895Y-83951771D01*
X167206514Y-84047009D01*
X167206514Y-84285104D01*
X167158895Y-84380342D01*
X167111276Y-84427961D01*
X167016038Y-84475580D01*
X166730324Y-84475580D01*
X166635086Y-84427961D01*
X166587467Y-84380342D01*
X166206514Y-80983200D02*
X166111276Y-80935580D01*
X165968419Y-80935580D01*
X165825561Y-80983200D01*
X165730323Y-81078438D01*
X165682704Y-81173676D01*
X165635085Y-81364152D01*
X165635085Y-81507009D01*
X165682704Y-81697485D01*
X165730323Y-81792723D01*
X165825561Y-81887961D01*
X165968419Y-81935580D01*
X166063657Y-81935580D01*
X166206514Y-81887961D01*
X166254133Y-81840342D01*
X166254133Y-81507009D01*
X166063657Y-81507009D01*
X166873180Y-80935580D02*
X166968419Y-80935580D01*
X167063657Y-80983200D01*
X167111276Y-81030819D01*
X167158895Y-81126057D01*
X167206514Y-81316533D01*
X167206514Y-81554628D01*
X167158895Y-81745104D01*
X167111276Y-81840342D01*
X167063657Y-81887961D01*
X166968419Y-81935580D01*
X166873180Y-81935580D01*
X166777942Y-81887961D01*
X166730323Y-81840342D01*
X166682704Y-81745104D01*
X166635085Y-81554628D01*
X166635085Y-81316533D01*
X166682704Y-81126057D01*
X166730323Y-81030819D01*
X166777942Y-80983200D01*
X166873180Y-80935580D01*
X130195723Y-114181000D02*
X130100485Y-114133380D01*
X129957628Y-114133380D01*
X129814771Y-114181000D01*
X129719533Y-114276238D01*
X129671914Y-114371476D01*
X129624295Y-114561952D01*
X129624295Y-114704809D01*
X129671914Y-114895285D01*
X129719533Y-114990523D01*
X129814771Y-115085761D01*
X129957628Y-115133380D01*
X130052866Y-115133380D01*
X130195723Y-115085761D01*
X130243342Y-115038142D01*
X130243342Y-114704809D01*
X130052866Y-114704809D01*
X131195723Y-115133380D02*
X130624295Y-115133380D01*
X130910009Y-115133380D02*
X130910009Y-114133380D01*
X130814771Y-114276238D01*
X130719533Y-114371476D01*
X130624295Y-114419095D01*
X131529057Y-114133380D02*
X132148104Y-114133380D01*
X131814771Y-114514333D01*
X131957628Y-114514333D01*
X132052866Y-114561952D01*
X132100485Y-114609571D01*
X132148104Y-114704809D01*
X132148104Y-114942904D01*
X132100485Y-115038142D01*
X132052866Y-115085761D01*
X131957628Y-115133380D01*
X131671914Y-115133380D01*
X131576676Y-115085761D01*
X131529057Y-115038142D01*
X130195723Y-111650760D02*
X130100485Y-111603140D01*
X129957628Y-111603140D01*
X129814771Y-111650760D01*
X129719533Y-111745998D01*
X129671914Y-111841236D01*
X129624295Y-112031712D01*
X129624295Y-112174569D01*
X129671914Y-112365045D01*
X129719533Y-112460283D01*
X129814771Y-112555521D01*
X129957628Y-112603140D01*
X130052866Y-112603140D01*
X130195723Y-112555521D01*
X130243342Y-112507902D01*
X130243342Y-112174569D01*
X130052866Y-112174569D01*
X131195723Y-112603140D02*
X130624295Y-112603140D01*
X130910009Y-112603140D02*
X130910009Y-111603140D01*
X130814771Y-111745998D01*
X130719533Y-111841236D01*
X130624295Y-111888855D01*
X131576676Y-111698379D02*
X131624295Y-111650760D01*
X131719533Y-111603140D01*
X131957628Y-111603140D01*
X132052866Y-111650760D01*
X132100485Y-111698379D01*
X132148104Y-111793617D01*
X132148104Y-111888855D01*
X132100485Y-112031712D01*
X131529057Y-112603140D01*
X132148104Y-112603140D01*
X130195723Y-109120530D02*
X130100485Y-109072910D01*
X129957628Y-109072910D01*
X129814771Y-109120530D01*
X129719533Y-109215768D01*
X129671914Y-109311006D01*
X129624295Y-109501482D01*
X129624295Y-109644339D01*
X129671914Y-109834815D01*
X129719533Y-109930053D01*
X129814771Y-110025291D01*
X129957628Y-110072910D01*
X130052866Y-110072910D01*
X130195723Y-110025291D01*
X130243342Y-109977672D01*
X130243342Y-109644339D01*
X130052866Y-109644339D01*
X131195723Y-110072910D02*
X130624295Y-110072910D01*
X130910009Y-110072910D02*
X130910009Y-109072910D01*
X130814771Y-109215768D01*
X130719533Y-109311006D01*
X130624295Y-109358625D01*
X132052866Y-109406244D02*
X132052866Y-110072910D01*
X131814771Y-109025291D02*
X131576676Y-109739577D01*
X132195723Y-109739577D01*
X130195723Y-106590300D02*
X130100485Y-106542680D01*
X129957628Y-106542680D01*
X129814771Y-106590300D01*
X129719533Y-106685538D01*
X129671914Y-106780776D01*
X129624295Y-106971252D01*
X129624295Y-107114109D01*
X129671914Y-107304585D01*
X129719533Y-107399823D01*
X129814771Y-107495061D01*
X129957628Y-107542680D01*
X130052866Y-107542680D01*
X130195723Y-107495061D01*
X130243342Y-107447442D01*
X130243342Y-107114109D01*
X130052866Y-107114109D01*
X130624295Y-106637919D02*
X130671914Y-106590300D01*
X130767152Y-106542680D01*
X131005247Y-106542680D01*
X131100485Y-106590300D01*
X131148104Y-106637919D01*
X131195723Y-106733157D01*
X131195723Y-106828395D01*
X131148104Y-106971252D01*
X130576676Y-107542680D01*
X131195723Y-107542680D01*
X131529057Y-106542680D02*
X132195723Y-106542680D01*
X131767152Y-107542680D01*
X130195723Y-104060070D02*
X130100485Y-104012450D01*
X129957628Y-104012450D01*
X129814771Y-104060070D01*
X129719533Y-104155308D01*
X129671914Y-104250546D01*
X129624295Y-104441022D01*
X129624295Y-104583879D01*
X129671914Y-104774355D01*
X129719533Y-104869593D01*
X129814771Y-104964831D01*
X129957628Y-105012450D01*
X130052866Y-105012450D01*
X130195723Y-104964831D01*
X130243342Y-104917212D01*
X130243342Y-104583879D01*
X130052866Y-104583879D01*
X130624295Y-104107689D02*
X130671914Y-104060070D01*
X130767152Y-104012450D01*
X131005247Y-104012450D01*
X131100485Y-104060070D01*
X131148104Y-104107689D01*
X131195723Y-104202927D01*
X131195723Y-104298165D01*
X131148104Y-104441022D01*
X130576676Y-105012450D01*
X131195723Y-105012450D01*
X132052866Y-104012450D02*
X131862390Y-104012450D01*
X131767152Y-104060070D01*
X131719533Y-104107689D01*
X131624295Y-104250546D01*
X131576676Y-104441022D01*
X131576676Y-104821974D01*
X131624295Y-104917212D01*
X131671914Y-104964831D01*
X131767152Y-105012450D01*
X131957628Y-105012450D01*
X132052866Y-104964831D01*
X132100485Y-104917212D01*
X132148104Y-104821974D01*
X132148104Y-104583879D01*
X132100485Y-104488641D01*
X132052866Y-104441022D01*
X131957628Y-104393403D01*
X131767152Y-104393403D01*
X131671914Y-104441022D01*
X131624295Y-104488641D01*
X131576676Y-104583879D01*
X130195723Y-101529840D02*
X130100485Y-101482220D01*
X129957628Y-101482220D01*
X129814771Y-101529840D01*
X129719533Y-101625078D01*
X129671914Y-101720316D01*
X129624295Y-101910792D01*
X129624295Y-102053649D01*
X129671914Y-102244125D01*
X129719533Y-102339363D01*
X129814771Y-102434601D01*
X129957628Y-102482220D01*
X130052866Y-102482220D01*
X130195723Y-102434601D01*
X130243342Y-102386982D01*
X130243342Y-102053649D01*
X130052866Y-102053649D01*
X130624295Y-101577459D02*
X130671914Y-101529840D01*
X130767152Y-101482220D01*
X131005247Y-101482220D01*
X131100485Y-101529840D01*
X131148104Y-101577459D01*
X131195723Y-101672697D01*
X131195723Y-101767935D01*
X131148104Y-101910792D01*
X130576676Y-102482220D01*
X131195723Y-102482220D01*
X132100485Y-101482220D02*
X131624295Y-101482220D01*
X131576676Y-101958411D01*
X131624295Y-101910792D01*
X131719533Y-101863173D01*
X131957628Y-101863173D01*
X132052866Y-101910792D01*
X132100485Y-101958411D01*
X132148104Y-102053649D01*
X132148104Y-102291744D01*
X132100485Y-102386982D01*
X132052866Y-102434601D01*
X131957628Y-102482220D01*
X131719533Y-102482220D01*
X131624295Y-102434601D01*
X131576676Y-102386982D01*
X130195723Y-98999610D02*
X130100485Y-98951990D01*
X129957628Y-98951990D01*
X129814771Y-98999610D01*
X129719533Y-99094848D01*
X129671914Y-99190086D01*
X129624295Y-99380562D01*
X129624295Y-99523419D01*
X129671914Y-99713895D01*
X129719533Y-99809133D01*
X129814771Y-99904371D01*
X129957628Y-99951990D01*
X130052866Y-99951990D01*
X130195723Y-99904371D01*
X130243342Y-99856752D01*
X130243342Y-99523419D01*
X130052866Y-99523419D01*
X130576676Y-98951990D02*
X131195723Y-98951990D01*
X130862390Y-99332943D01*
X131005247Y-99332943D01*
X131100485Y-99380562D01*
X131148104Y-99428181D01*
X131195723Y-99523419D01*
X131195723Y-99761514D01*
X131148104Y-99856752D01*
X131100485Y-99904371D01*
X131005247Y-99951990D01*
X130719533Y-99951990D01*
X130624295Y-99904371D01*
X130576676Y-99856752D01*
X131529057Y-98951990D02*
X132148104Y-98951990D01*
X131814771Y-99332943D01*
X131957628Y-99332943D01*
X132052866Y-99380562D01*
X132100485Y-99428181D01*
X132148104Y-99523419D01*
X132148104Y-99761514D01*
X132100485Y-99856752D01*
X132052866Y-99904371D01*
X131957628Y-99951990D01*
X131671914Y-99951990D01*
X131576676Y-99904371D01*
X131529057Y-99856752D01*
X130195723Y-96469380D02*
X130100485Y-96421760D01*
X129957628Y-96421760D01*
X129814771Y-96469380D01*
X129719533Y-96564618D01*
X129671914Y-96659856D01*
X129624295Y-96850332D01*
X129624295Y-96993189D01*
X129671914Y-97183665D01*
X129719533Y-97278903D01*
X129814771Y-97374141D01*
X129957628Y-97421760D01*
X130052866Y-97421760D01*
X130195723Y-97374141D01*
X130243342Y-97326522D01*
X130243342Y-96993189D01*
X130052866Y-96993189D01*
X130576676Y-96421760D02*
X131195723Y-96421760D01*
X130862390Y-96802713D01*
X131005247Y-96802713D01*
X131100485Y-96850332D01*
X131148104Y-96897951D01*
X131195723Y-96993189D01*
X131195723Y-97231284D01*
X131148104Y-97326522D01*
X131100485Y-97374141D01*
X131005247Y-97421760D01*
X130719533Y-97421760D01*
X130624295Y-97374141D01*
X130576676Y-97326522D01*
X131576676Y-96516999D02*
X131624295Y-96469380D01*
X131719533Y-96421760D01*
X131957628Y-96421760D01*
X132052866Y-96469380D01*
X132100485Y-96516999D01*
X132148104Y-96612237D01*
X132148104Y-96707475D01*
X132100485Y-96850332D01*
X131529057Y-97421760D01*
X132148104Y-97421760D01*
X130195723Y-93939150D02*
X130100485Y-93891530D01*
X129957628Y-93891530D01*
X129814771Y-93939150D01*
X129719533Y-94034388D01*
X129671914Y-94129626D01*
X129624295Y-94320102D01*
X129624295Y-94462959D01*
X129671914Y-94653435D01*
X129719533Y-94748673D01*
X129814771Y-94843911D01*
X129957628Y-94891530D01*
X130052866Y-94891530D01*
X130195723Y-94843911D01*
X130243342Y-94796292D01*
X130243342Y-94462959D01*
X130052866Y-94462959D01*
X130576676Y-93891530D02*
X131195723Y-93891530D01*
X130862390Y-94272483D01*
X131005247Y-94272483D01*
X131100485Y-94320102D01*
X131148104Y-94367721D01*
X131195723Y-94462959D01*
X131195723Y-94701054D01*
X131148104Y-94796292D01*
X131100485Y-94843911D01*
X131005247Y-94891530D01*
X130719533Y-94891530D01*
X130624295Y-94843911D01*
X130576676Y-94796292D01*
X132100485Y-93891530D02*
X131624295Y-93891530D01*
X131576676Y-94367721D01*
X131624295Y-94320102D01*
X131719533Y-94272483D01*
X131957628Y-94272483D01*
X132052866Y-94320102D01*
X132100485Y-94367721D01*
X132148104Y-94462959D01*
X132148104Y-94701054D01*
X132100485Y-94796292D01*
X132052866Y-94843911D01*
X131957628Y-94891530D01*
X131719533Y-94891530D01*
X131624295Y-94843911D01*
X131576676Y-94796292D01*
X130195723Y-91408920D02*
X130100485Y-91361300D01*
X129957628Y-91361300D01*
X129814771Y-91408920D01*
X129719533Y-91504158D01*
X129671914Y-91599396D01*
X129624295Y-91789872D01*
X129624295Y-91932729D01*
X129671914Y-92123205D01*
X129719533Y-92218443D01*
X129814771Y-92313681D01*
X129957628Y-92361300D01*
X130052866Y-92361300D01*
X130195723Y-92313681D01*
X130243342Y-92266062D01*
X130243342Y-91932729D01*
X130052866Y-91932729D01*
X130576676Y-91361300D02*
X131195723Y-91361300D01*
X130862390Y-91742253D01*
X131005247Y-91742253D01*
X131100485Y-91789872D01*
X131148104Y-91837491D01*
X131195723Y-91932729D01*
X131195723Y-92170824D01*
X131148104Y-92266062D01*
X131100485Y-92313681D01*
X131005247Y-92361300D01*
X130719533Y-92361300D01*
X130624295Y-92313681D01*
X130576676Y-92266062D01*
X132052866Y-91694634D02*
X132052866Y-92361300D01*
X131814771Y-91313681D02*
X131576676Y-92027967D01*
X132195723Y-92027967D01*
X130195723Y-88878690D02*
X130100485Y-88831070D01*
X129957628Y-88831070D01*
X129814771Y-88878690D01*
X129719533Y-88973928D01*
X129671914Y-89069166D01*
X129624295Y-89259642D01*
X129624295Y-89402499D01*
X129671914Y-89592975D01*
X129719533Y-89688213D01*
X129814771Y-89783451D01*
X129957628Y-89831070D01*
X130052866Y-89831070D01*
X130195723Y-89783451D01*
X130243342Y-89735832D01*
X130243342Y-89402499D01*
X130052866Y-89402499D01*
X130576676Y-88831070D02*
X131195723Y-88831070D01*
X130862390Y-89212023D01*
X131005247Y-89212023D01*
X131100485Y-89259642D01*
X131148104Y-89307261D01*
X131195723Y-89402499D01*
X131195723Y-89640594D01*
X131148104Y-89735832D01*
X131100485Y-89783451D01*
X131005247Y-89831070D01*
X130719533Y-89831070D01*
X130624295Y-89783451D01*
X130576676Y-89735832D01*
X131671914Y-89831070D02*
X131862390Y-89831070D01*
X131957628Y-89783451D01*
X132005247Y-89735832D01*
X132100485Y-89592975D01*
X132148104Y-89402499D01*
X132148104Y-89021547D01*
X132100485Y-88926309D01*
X132052866Y-88878690D01*
X131957628Y-88831070D01*
X131767152Y-88831070D01*
X131671914Y-88878690D01*
X131624295Y-88926309D01*
X131576676Y-89021547D01*
X131576676Y-89259642D01*
X131624295Y-89354880D01*
X131671914Y-89402499D01*
X131767152Y-89450118D01*
X131957628Y-89450118D01*
X132052866Y-89402499D01*
X132100485Y-89354880D01*
X132148104Y-89259642D01*
X130195723Y-86348460D02*
X130100485Y-86300840D01*
X129957628Y-86300840D01*
X129814771Y-86348460D01*
X129719533Y-86443698D01*
X129671914Y-86538936D01*
X129624295Y-86729412D01*
X129624295Y-86872269D01*
X129671914Y-87062745D01*
X129719533Y-87157983D01*
X129814771Y-87253221D01*
X129957628Y-87300840D01*
X130052866Y-87300840D01*
X130195723Y-87253221D01*
X130243342Y-87205602D01*
X130243342Y-86872269D01*
X130052866Y-86872269D01*
X130576676Y-86300840D02*
X131195723Y-86300840D01*
X130862390Y-86681793D01*
X131005247Y-86681793D01*
X131100485Y-86729412D01*
X131148104Y-86777031D01*
X131195723Y-86872269D01*
X131195723Y-87110364D01*
X131148104Y-87205602D01*
X131100485Y-87253221D01*
X131005247Y-87300840D01*
X130719533Y-87300840D01*
X130624295Y-87253221D01*
X130576676Y-87205602D01*
X132052866Y-86300840D02*
X131862390Y-86300840D01*
X131767152Y-86348460D01*
X131719533Y-86396079D01*
X131624295Y-86538936D01*
X131576676Y-86729412D01*
X131576676Y-87110364D01*
X131624295Y-87205602D01*
X131671914Y-87253221D01*
X131767152Y-87300840D01*
X131957628Y-87300840D01*
X132052866Y-87253221D01*
X132100485Y-87205602D01*
X132148104Y-87110364D01*
X132148104Y-86872269D01*
X132100485Y-86777031D01*
X132052866Y-86729412D01*
X131957628Y-86681793D01*
X131767152Y-86681793D01*
X131671914Y-86729412D01*
X131624295Y-86777031D01*
X131576676Y-86872269D01*
X129671913Y-84246801D02*
X130005247Y-84246801D01*
X130148104Y-84770610D02*
X129671913Y-84770610D01*
X129671913Y-83770610D01*
X130148104Y-83770610D01*
X130576675Y-84770610D02*
X130576675Y-83770610D01*
X131148104Y-84770610D01*
X131148104Y-83770610D01*
X130195723Y-81288000D02*
X130100485Y-81240380D01*
X129957628Y-81240380D01*
X129814770Y-81288000D01*
X129719532Y-81383238D01*
X129671913Y-81478476D01*
X129624294Y-81668952D01*
X129624294Y-81811809D01*
X129671913Y-82002285D01*
X129719532Y-82097523D01*
X129814770Y-82192761D01*
X129957628Y-82240380D01*
X130052866Y-82240380D01*
X130195723Y-82192761D01*
X130243342Y-82145142D01*
X130243342Y-81811809D01*
X130052866Y-81811809D01*
X130671913Y-82240380D02*
X130671913Y-81240380D01*
X131243342Y-82240380D01*
X131243342Y-81240380D01*
X131719532Y-82240380D02*
X131719532Y-81240380D01*
X131957628Y-81240380D01*
X132100485Y-81288000D01*
X132195723Y-81383238D01*
X132243342Y-81478476D01*
X132290961Y-81668952D01*
X132290961Y-81811809D01*
X132243342Y-82002285D01*
X132195723Y-82097523D01*
X132100485Y-82192761D01*
X131957628Y-82240380D01*
X131719532Y-82240380D01*
D11*
X161251020Y-110107000D02*
X161532180Y-110107000D01*
X161251020Y-111127000D02*
X161532180Y-111127000D01*
X163933600Y-88999420D02*
X163933600Y-89280580D01*
X162913600Y-88999420D02*
X162913600Y-89280580D01*
X137539000Y-83438580D02*
X137539000Y-83157420D01*
X138559000Y-83438580D02*
X138559000Y-83157420D01*
X132306600Y-83438580D02*
X132306600Y-83157420D01*
X133326600Y-83438580D02*
X133326600Y-83157420D01*
X150062020Y-109980000D02*
X150343180Y-109980000D01*
X150062020Y-111000000D02*
X150343180Y-111000000D01*
X147703000Y-106807420D02*
X147703000Y-107088580D01*
X146683000Y-106807420D02*
X146683000Y-107088580D01*
X150142348Y-111660000D02*
X150664852Y-111660000D01*
X150142348Y-113130000D02*
X150664852Y-113130000D01*
X143919348Y-102716000D02*
X144441852Y-102716000D01*
X143919348Y-101246000D02*
X144441852Y-101246000D01*
X162178600Y-90265000D02*
X162178600Y-88465000D01*
X158958600Y-88465000D02*
X158958600Y-90915000D01*
X158717600Y-87507000D02*
X158717600Y-80207000D01*
X164217600Y-87507000D02*
X164217600Y-80207000D01*
X164217600Y-80207000D02*
X163067600Y-80207000D01*
X133859600Y-83507252D02*
X133859600Y-82984748D01*
X135329600Y-83507252D02*
X135329600Y-82984748D01*
X133732600Y-108780252D02*
X133732600Y-108257748D01*
X135202600Y-108780252D02*
X135202600Y-108257748D01*
X159992600Y-93248267D02*
X159992600Y-92905733D01*
X161012600Y-93248267D02*
X161012600Y-92905733D01*
X161418600Y-92277000D02*
X161418600Y-94737000D01*
X161418600Y-94737000D02*
X162888600Y-94737000D01*
X162888600Y-94737000D02*
X162888600Y-92277000D01*
X162510400Y-102234600D02*
X162510400Y-100559600D01*
X162770400Y-102234600D02*
X162510400Y-102234600D01*
X162770400Y-104959600D02*
X162770400Y-102234600D01*
X162770400Y-107684600D02*
X162510400Y-107684600D01*
X162770400Y-104959600D02*
X162770400Y-107684600D01*
X157320400Y-102234600D02*
X157580400Y-102234600D01*
X157320400Y-104959600D02*
X157320400Y-102234600D01*
X157320400Y-107684600D02*
X157580400Y-107684600D01*
X157320400Y-104959600D02*
X157320400Y-107684600D01*
X139562600Y-98660400D02*
X139562600Y-99440400D01*
X139562600Y-99440400D02*
X140562600Y-99440400D01*
X157802600Y-98660400D02*
X157802600Y-99440400D01*
X157802600Y-99440400D02*
X156802600Y-99440400D01*
X139562600Y-73695400D02*
X157802600Y-73695400D01*
X157802600Y-73695400D02*
X157802600Y-80115400D01*
X139562600Y-73695400D02*
X139562600Y-80115400D01*
X139562600Y-80115400D02*
X139182600Y-80115400D01*
X164314600Y-108135267D02*
X164314600Y-107792733D01*
X163294600Y-108135267D02*
X163294600Y-107792733D01*
X137485600Y-85298000D02*
X137485600Y-85598000D01*
X133345600Y-88438000D02*
X133345600Y-88138000D01*
X133345600Y-85598000D02*
X133345600Y-85298000D01*
X137485600Y-88438000D02*
X133345600Y-88438000D01*
X137485600Y-88138000D02*
X137485600Y-88438000D01*
X133345600Y-85298000D02*
X137485600Y-85298000D01*
X128117600Y-80204000D02*
X129447600Y-80204000D01*
X129447600Y-80204000D02*
X129447600Y-81534000D01*
X129447600Y-82804000D02*
X129447600Y-115884000D01*
X126787600Y-115884000D02*
X129447600Y-115884000D01*
X126787600Y-82804000D02*
X126787600Y-115884000D01*
X126787600Y-82804000D02*
X129447600Y-82804000D01*
X168757600Y-80204000D02*
X170087600Y-80204000D01*
X170087600Y-80204000D02*
X170087600Y-81534000D01*
X170087600Y-82804000D02*
X170087600Y-115884000D01*
X167427600Y-115884000D02*
X170087600Y-115884000D01*
X167427600Y-82804000D02*
X167427600Y-115884000D01*
X167427600Y-82804000D02*
X170087600Y-82804000D01*
X154437400Y-109390200D02*
X154437400Y-108130200D01*
X154437400Y-102570200D02*
X154437400Y-103830200D01*
X150677400Y-109390200D02*
X154437400Y-109390200D01*
X148427400Y-102570200D02*
X154437400Y-102570200D01*
X146204600Y-111126200D02*
X146204600Y-108741200D01*
X146204600Y-108741200D02*
X145949600Y-108741200D01*
X146204600Y-111126200D02*
X146204600Y-113511200D01*
X146204600Y-113511200D02*
X145949600Y-113511200D01*
X135684600Y-111126200D02*
X135684600Y-108741200D01*
X135684600Y-108741200D02*
X135939600Y-108741200D01*
X135684600Y-111126200D02*
X135684600Y-113511200D01*
X135684600Y-113511200D02*
X135939600Y-113511200D01*
X135939600Y-113511200D02*
X135939600Y-115176200D01*
X147703000Y-103373133D02*
X147703000Y-103715667D01*
X146683000Y-103373133D02*
X146683000Y-103715667D01*
X136984200Y-83126733D02*
X136984200Y-83469267D01*
X135964200Y-83126733D02*
X135964200Y-83469267D01*
X138854333Y-105230200D02*
X139196867Y-105230200D01*
X138854333Y-106250200D02*
X139196867Y-106250200D01*
X139196867Y-104599200D02*
X138854333Y-104599200D01*
X139196867Y-103579200D02*
X138854333Y-103579200D01*
X133731600Y-103332200D02*
X133731600Y-104262200D01*
X133731600Y-106492200D02*
X133731600Y-105562200D01*
X133731600Y-106492200D02*
X136891600Y-106492200D01*
X133731600Y-103332200D02*
X135191600Y-103332200D01*
X144347600Y-106492200D02*
X144347600Y-105562200D01*
X144347600Y-103332200D02*
X144347600Y-104262200D01*
X144347600Y-103332200D02*
X141187600Y-103332200D01*
X144347600Y-106492200D02*
X142887600Y-106492200D01*
X136917600Y-100930200D02*
X136917600Y-102930200D01*
X136917600Y-102930200D02*
X140817600Y-102930200D01*
X136917600Y-100930200D02*
X140817600Y-100930200D01*
D10*
X160877314Y-112172714D02*
X160839219Y-112210809D01*
X160724933Y-112248904D01*
X160648742Y-112248904D01*
X160534457Y-112210809D01*
X160458266Y-112134619D01*
X160420171Y-112058428D01*
X160382076Y-111906047D01*
X160382076Y-111791761D01*
X160420171Y-111639380D01*
X160458266Y-111563190D01*
X160534457Y-111487000D01*
X160648742Y-111448904D01*
X160724933Y-111448904D01*
X160839219Y-111487000D01*
X160877314Y-111525095D01*
X161182076Y-111525095D02*
X161220171Y-111487000D01*
X161296361Y-111448904D01*
X161486838Y-111448904D01*
X161563028Y-111487000D01*
X161601123Y-111525095D01*
X161639219Y-111601285D01*
X161639219Y-111677476D01*
X161601123Y-111791761D01*
X161143980Y-112248904D01*
X161639219Y-112248904D01*
X162324933Y-111448904D02*
X162172552Y-111448904D01*
X162096361Y-111487000D01*
X162058266Y-111525095D01*
X161982076Y-111639380D01*
X161943980Y-111791761D01*
X161943980Y-112096523D01*
X161982076Y-112172714D01*
X162020171Y-112210809D01*
X162096361Y-112248904D01*
X162248742Y-112248904D01*
X162324933Y-112210809D01*
X162363028Y-112172714D01*
X162401123Y-112096523D01*
X162401123Y-111906047D01*
X162363028Y-111829857D01*
X162324933Y-111791761D01*
X162248742Y-111753666D01*
X162096361Y-111753666D01*
X162020171Y-111791761D01*
X161982076Y-111829857D01*
X161943980Y-111906047D01*
X163836314Y-92462285D02*
X163874409Y-92500380D01*
X163912504Y-92614666D01*
X163912504Y-92690857D01*
X163874409Y-92805142D01*
X163798219Y-92881333D01*
X163722028Y-92919428D01*
X163569647Y-92957523D01*
X163455361Y-92957523D01*
X163302980Y-92919428D01*
X163226790Y-92881333D01*
X163150600Y-92805142D01*
X163112504Y-92690857D01*
X163112504Y-92614666D01*
X163150600Y-92500380D01*
X163188695Y-92462285D01*
X163188695Y-92157523D02*
X163150600Y-92119428D01*
X163112504Y-92043238D01*
X163112504Y-91852761D01*
X163150600Y-91776571D01*
X163188695Y-91738476D01*
X163264885Y-91700380D01*
X163341076Y-91700380D01*
X163455361Y-91738476D01*
X163912504Y-92195619D01*
X163912504Y-91700380D01*
X163912504Y-90938476D02*
X163912504Y-91395619D01*
X163912504Y-91167047D02*
X163112504Y-91167047D01*
X163226790Y-91243238D01*
X163302980Y-91319428D01*
X163341076Y-91395619D01*
X138436314Y-81159285D02*
X138474409Y-81197380D01*
X138512504Y-81311666D01*
X138512504Y-81387857D01*
X138474409Y-81502142D01*
X138398219Y-81578333D01*
X138322028Y-81616428D01*
X138169647Y-81654523D01*
X138055361Y-81654523D01*
X137902980Y-81616428D01*
X137826790Y-81578333D01*
X137750600Y-81502142D01*
X137712504Y-81387857D01*
X137712504Y-81311666D01*
X137750600Y-81197380D01*
X137788695Y-81159285D01*
X137788695Y-80854523D02*
X137750600Y-80816428D01*
X137712504Y-80740238D01*
X137712504Y-80549761D01*
X137750600Y-80473571D01*
X137788695Y-80435476D01*
X137864885Y-80397380D01*
X137941076Y-80397380D01*
X138055361Y-80435476D01*
X138512504Y-80892619D01*
X138512504Y-80397380D01*
X137712504Y-79902142D02*
X137712504Y-79825952D01*
X137750600Y-79749761D01*
X137788695Y-79711666D01*
X137864885Y-79673571D01*
X138017266Y-79635476D01*
X138207742Y-79635476D01*
X138360123Y-79673571D01*
X138436314Y-79711666D01*
X138474409Y-79749761D01*
X138512504Y-79825952D01*
X138512504Y-79902142D01*
X138474409Y-79978333D01*
X138436314Y-80016428D01*
X138360123Y-80054523D01*
X138207742Y-80092619D01*
X138017266Y-80092619D01*
X137864885Y-80054523D01*
X137788695Y-80016428D01*
X137750600Y-79978333D01*
X137712504Y-79902142D01*
X133229314Y-81159285D02*
X133267409Y-81197380D01*
X133305504Y-81311666D01*
X133305504Y-81387857D01*
X133267409Y-81502142D01*
X133191219Y-81578333D01*
X133115028Y-81616428D01*
X132962647Y-81654523D01*
X132848361Y-81654523D01*
X132695980Y-81616428D01*
X132619790Y-81578333D01*
X132543600Y-81502142D01*
X132505504Y-81387857D01*
X132505504Y-81311666D01*
X132543600Y-81197380D01*
X132581695Y-81159285D01*
X133305504Y-80397380D02*
X133305504Y-80854523D01*
X133305504Y-80625952D02*
X132505504Y-80625952D01*
X132619790Y-80702142D01*
X132695980Y-80778333D01*
X132734076Y-80854523D01*
X133305504Y-80016428D02*
X133305504Y-79864047D01*
X133267409Y-79787857D01*
X133229314Y-79749761D01*
X133115028Y-79673571D01*
X132962647Y-79635476D01*
X132657885Y-79635476D01*
X132581695Y-79673571D01*
X132543600Y-79711666D01*
X132505504Y-79787857D01*
X132505504Y-79940238D01*
X132543600Y-80016428D01*
X132581695Y-80054523D01*
X132657885Y-80092619D01*
X132848361Y-80092619D01*
X132924552Y-80054523D01*
X132962647Y-80016428D01*
X133000742Y-79940238D01*
X133000742Y-79787857D01*
X132962647Y-79711666D01*
X132924552Y-79673571D01*
X132848361Y-79635476D01*
X147923266Y-110775714D02*
X147885171Y-110813809D01*
X147770885Y-110851904D01*
X147694695Y-110851904D01*
X147580409Y-110813809D01*
X147504219Y-110737619D01*
X147466123Y-110661428D01*
X147428028Y-110509047D01*
X147428028Y-110394761D01*
X147466123Y-110242380D01*
X147504219Y-110166190D01*
X147580409Y-110090000D01*
X147694695Y-110051904D01*
X147770885Y-110051904D01*
X147885171Y-110090000D01*
X147923266Y-110128095D01*
X148608980Y-110051904D02*
X148456600Y-110051904D01*
X148380409Y-110090000D01*
X148342314Y-110128095D01*
X148266123Y-110242380D01*
X148228028Y-110394761D01*
X148228028Y-110699523D01*
X148266123Y-110775714D01*
X148304219Y-110813809D01*
X148380409Y-110851904D01*
X148532790Y-110851904D01*
X148608980Y-110813809D01*
X148647076Y-110775714D01*
X148685171Y-110699523D01*
X148685171Y-110509047D01*
X148647076Y-110432857D01*
X148608980Y-110394761D01*
X148532790Y-110356666D01*
X148380409Y-110356666D01*
X148304219Y-110394761D01*
X148266123Y-110432857D01*
X148228028Y-110509047D01*
X147453314Y-109099333D02*
X147491409Y-109137428D01*
X147529504Y-109251714D01*
X147529504Y-109327904D01*
X147491409Y-109442190D01*
X147415219Y-109518380D01*
X147339028Y-109556476D01*
X147186647Y-109594571D01*
X147072361Y-109594571D01*
X146919980Y-109556476D01*
X146843790Y-109518380D01*
X146767600Y-109442190D01*
X146729504Y-109327904D01*
X146729504Y-109251714D01*
X146767600Y-109137428D01*
X146805695Y-109099333D01*
X146729504Y-108375523D02*
X146729504Y-108756476D01*
X147110457Y-108794571D01*
X147072361Y-108756476D01*
X147034266Y-108680285D01*
X147034266Y-108489809D01*
X147072361Y-108413619D01*
X147110457Y-108375523D01*
X147186647Y-108337428D01*
X147377123Y-108337428D01*
X147453314Y-108375523D01*
X147491409Y-108413619D01*
X147529504Y-108489809D01*
X147529504Y-108680285D01*
X147491409Y-108756476D01*
X147453314Y-108794571D01*
X147923266Y-112680714D02*
X147885171Y-112718809D01*
X147770885Y-112756904D01*
X147694695Y-112756904D01*
X147580409Y-112718809D01*
X147504219Y-112642619D01*
X147466123Y-112566428D01*
X147428028Y-112414047D01*
X147428028Y-112299761D01*
X147466123Y-112147380D01*
X147504219Y-112071190D01*
X147580409Y-111995000D01*
X147694695Y-111956904D01*
X147770885Y-111956904D01*
X147885171Y-111995000D01*
X147923266Y-112033095D01*
X148608980Y-112223571D02*
X148608980Y-112756904D01*
X148418504Y-111918809D02*
X148228028Y-112490238D01*
X148723266Y-112490238D01*
X143986266Y-100996714D02*
X143948171Y-101034809D01*
X143833885Y-101072904D01*
X143757695Y-101072904D01*
X143643409Y-101034809D01*
X143567219Y-100958619D01*
X143529123Y-100882428D01*
X143491028Y-100730047D01*
X143491028Y-100615761D01*
X143529123Y-100463380D01*
X143567219Y-100387190D01*
X143643409Y-100311000D01*
X143757695Y-100272904D01*
X143833885Y-100272904D01*
X143948171Y-100311000D01*
X143986266Y-100349095D01*
X144252933Y-100272904D02*
X144748171Y-100272904D01*
X144481504Y-100577666D01*
X144595790Y-100577666D01*
X144671980Y-100615761D01*
X144710076Y-100653857D01*
X144748171Y-100730047D01*
X144748171Y-100920523D01*
X144710076Y-100996714D01*
X144671980Y-101034809D01*
X144595790Y-101072904D01*
X144367219Y-101072904D01*
X144291028Y-101034809D01*
X144252933Y-100996714D01*
X158540504Y-92557523D02*
X159188123Y-92557523D01*
X159264314Y-92519428D01*
X159302409Y-92481333D01*
X159340504Y-92405142D01*
X159340504Y-92252761D01*
X159302409Y-92176571D01*
X159264314Y-92138476D01*
X159188123Y-92100380D01*
X158540504Y-92100380D01*
X158807171Y-91376571D02*
X159340504Y-91376571D01*
X158502409Y-91567047D02*
X159073838Y-91757523D01*
X159073838Y-91262285D01*
X159048123Y-80244904D02*
X159048123Y-79444904D01*
X159238600Y-79444904D01*
X159352885Y-79483000D01*
X159429076Y-79559190D01*
X159467171Y-79635380D01*
X159505266Y-79787761D01*
X159505266Y-79902047D01*
X159467171Y-80054428D01*
X159429076Y-80130619D01*
X159352885Y-80206809D01*
X159238600Y-80244904D01*
X159048123Y-80244904D01*
X159810028Y-79521095D02*
X159848123Y-79483000D01*
X159924314Y-79444904D01*
X160114790Y-79444904D01*
X160190980Y-79483000D01*
X160229076Y-79521095D01*
X160267171Y-79597285D01*
X160267171Y-79673476D01*
X160229076Y-79787761D01*
X159771933Y-80244904D01*
X160267171Y-80244904D01*
X134880314Y-80900333D02*
X134918409Y-80938428D01*
X134956504Y-81052714D01*
X134956504Y-81128904D01*
X134918409Y-81243190D01*
X134842219Y-81319380D01*
X134766028Y-81357476D01*
X134613647Y-81395571D01*
X134499361Y-81395571D01*
X134346980Y-81357476D01*
X134270790Y-81319380D01*
X134194600Y-81243190D01*
X134156504Y-81128904D01*
X134156504Y-81052714D01*
X134194600Y-80938428D01*
X134232695Y-80900333D01*
X134232695Y-80595571D02*
X134194600Y-80557476D01*
X134156504Y-80481285D01*
X134156504Y-80290809D01*
X134194600Y-80214619D01*
X134232695Y-80176523D01*
X134308885Y-80138428D01*
X134385076Y-80138428D01*
X134499361Y-80176523D01*
X134956504Y-80633666D01*
X134956504Y-80138428D01*
X133864314Y-111131333D02*
X133902409Y-111169428D01*
X133940504Y-111283714D01*
X133940504Y-111359904D01*
X133902409Y-111474190D01*
X133826219Y-111550380D01*
X133750028Y-111588476D01*
X133597647Y-111626571D01*
X133483361Y-111626571D01*
X133330980Y-111588476D01*
X133254790Y-111550380D01*
X133178600Y-111474190D01*
X133140504Y-111359904D01*
X133140504Y-111283714D01*
X133178600Y-111169428D01*
X133216695Y-111131333D01*
X133940504Y-110369428D02*
X133940504Y-110826571D01*
X133940504Y-110598000D02*
X133140504Y-110598000D01*
X133254790Y-110674190D01*
X133330980Y-110750380D01*
X133369076Y-110826571D01*
X160864504Y-96399285D02*
X160483552Y-96665952D01*
X160864504Y-96856428D02*
X160064504Y-96856428D01*
X160064504Y-96551666D01*
X160102600Y-96475476D01*
X160140695Y-96437380D01*
X160216885Y-96399285D01*
X160331171Y-96399285D01*
X160407361Y-96437380D01*
X160445457Y-96475476D01*
X160483552Y-96551666D01*
X160483552Y-96856428D01*
X160140695Y-96094523D02*
X160102600Y-96056428D01*
X160064504Y-95980238D01*
X160064504Y-95789761D01*
X160102600Y-95713571D01*
X160140695Y-95675476D01*
X160216885Y-95637380D01*
X160293076Y-95637380D01*
X160407361Y-95675476D01*
X160864504Y-96132619D01*
X160864504Y-95637380D01*
X160331171Y-94951666D02*
X160864504Y-94951666D01*
X160026409Y-95142142D02*
X160597838Y-95332619D01*
X160597838Y-94837380D01*
X162515504Y-96475476D02*
X161715504Y-96475476D01*
X161715504Y-96285000D01*
X161753600Y-96170714D01*
X161829790Y-96094523D01*
X161905980Y-96056428D01*
X162058361Y-96018333D01*
X162172647Y-96018333D01*
X162325028Y-96056428D01*
X162401219Y-96094523D01*
X162477409Y-96170714D01*
X162515504Y-96285000D01*
X162515504Y-96475476D01*
X161715504Y-95294523D02*
X161715504Y-95675476D01*
X162096457Y-95713571D01*
X162058361Y-95675476D01*
X162020266Y-95599285D01*
X162020266Y-95408809D01*
X162058361Y-95332619D01*
X162096457Y-95294523D01*
X162172647Y-95256428D01*
X162363123Y-95256428D01*
X162439314Y-95294523D01*
X162477409Y-95332619D01*
X162515504Y-95408809D01*
X162515504Y-95599285D01*
X162477409Y-95675476D01*
X162439314Y-95713571D01*
X162985504Y-103479476D02*
X163633123Y-103479476D01*
X163709314Y-103441380D01*
X163747409Y-103403285D01*
X163785504Y-103327095D01*
X163785504Y-103174714D01*
X163747409Y-103098523D01*
X163709314Y-103060428D01*
X163633123Y-103022333D01*
X162985504Y-103022333D01*
X163785504Y-102222333D02*
X163785504Y-102679476D01*
X163785504Y-102450904D02*
X162985504Y-102450904D01*
X163099790Y-102527095D01*
X163175980Y-102603285D01*
X163214076Y-102679476D01*
X163252171Y-101536619D02*
X163785504Y-101536619D01*
X162947409Y-101727095D02*
X163518838Y-101917571D01*
X163518838Y-101422333D01*
X158176980Y-78327095D02*
X158986504Y-78327095D01*
X159081742Y-78279476D01*
X159129361Y-78231857D01*
X159176980Y-78136619D01*
X159176980Y-77946142D01*
X159129361Y-77850904D01*
X159081742Y-77803285D01*
X158986504Y-77755666D01*
X158176980Y-77755666D01*
X159176980Y-76755666D02*
X159176980Y-77327095D01*
X159176980Y-77041380D02*
X158176980Y-77041380D01*
X158319838Y-77136619D01*
X158415076Y-77231857D01*
X158462695Y-77327095D01*
X158176980Y-76422333D02*
X158176980Y-75803285D01*
X158557933Y-76136619D01*
X158557933Y-75993761D01*
X158605552Y-75898523D01*
X158653171Y-75850904D01*
X158748409Y-75803285D01*
X158986504Y-75803285D01*
X159081742Y-75850904D01*
X159129361Y-75898523D01*
X159176980Y-75993761D01*
X159176980Y-76279476D01*
X159129361Y-76374714D01*
X159081742Y-76422333D01*
X164166504Y-105924285D02*
X163785552Y-106190952D01*
X164166504Y-106381428D02*
X163366504Y-106381428D01*
X163366504Y-106076666D01*
X163404600Y-106000476D01*
X163442695Y-105962380D01*
X163518885Y-105924285D01*
X163633171Y-105924285D01*
X163709361Y-105962380D01*
X163747457Y-106000476D01*
X163785552Y-106076666D01*
X163785552Y-106381428D01*
X163442695Y-105619523D02*
X163404600Y-105581428D01*
X163366504Y-105505238D01*
X163366504Y-105314761D01*
X163404600Y-105238571D01*
X163442695Y-105200476D01*
X163518885Y-105162380D01*
X163595076Y-105162380D01*
X163709361Y-105200476D01*
X164166504Y-105657619D01*
X164166504Y-105162380D01*
X163366504Y-104895714D02*
X163366504Y-104400476D01*
X163671266Y-104667142D01*
X163671266Y-104552857D01*
X163709361Y-104476666D01*
X163747457Y-104438571D01*
X163823647Y-104400476D01*
X164014123Y-104400476D01*
X164090314Y-104438571D01*
X164128409Y-104476666D01*
X164166504Y-104552857D01*
X164166504Y-104781428D01*
X164128409Y-104857619D01*
X164090314Y-104895714D01*
X134023266Y-87272761D02*
X134166123Y-87320380D01*
X134404219Y-87320380D01*
X134499457Y-87272761D01*
X134547076Y-87225142D01*
X134594695Y-87129904D01*
X134594695Y-87034666D01*
X134547076Y-86939428D01*
X134499457Y-86891809D01*
X134404219Y-86844190D01*
X134213742Y-86796571D01*
X134118504Y-86748952D01*
X134070885Y-86701333D01*
X134023266Y-86606095D01*
X134023266Y-86510857D01*
X134070885Y-86415619D01*
X134118504Y-86368000D01*
X134213742Y-86320380D01*
X134451838Y-86320380D01*
X134594695Y-86368000D01*
X134928028Y-86320380D02*
X135166123Y-87320380D01*
X135356600Y-86606095D01*
X135547076Y-87320380D01*
X135785171Y-86320380D01*
X136689933Y-87320380D02*
X136118504Y-87320380D01*
X136404219Y-87320380D02*
X136404219Y-86320380D01*
X136308980Y-86463238D01*
X136213742Y-86558476D01*
X136118504Y-86606095D01*
X151765076Y-101441304D02*
X151765076Y-102088923D01*
X151803171Y-102165114D01*
X151841266Y-102203209D01*
X151917457Y-102241304D01*
X152069838Y-102241304D01*
X152146028Y-102203209D01*
X152184123Y-102165114D01*
X152222219Y-102088923D01*
X152222219Y-101441304D01*
X152946028Y-101441304D02*
X152793647Y-101441304D01*
X152717457Y-101479400D01*
X152679361Y-101517495D01*
X152603171Y-101631780D01*
X152565076Y-101784161D01*
X152565076Y-102088923D01*
X152603171Y-102165114D01*
X152641266Y-102203209D01*
X152717457Y-102241304D01*
X152869838Y-102241304D01*
X152946028Y-102203209D01*
X152984123Y-102165114D01*
X153022219Y-102088923D01*
X153022219Y-101898447D01*
X152984123Y-101822257D01*
X152946028Y-101784161D01*
X152869838Y-101746066D01*
X152717457Y-101746066D01*
X152641266Y-101784161D01*
X152603171Y-101822257D01*
X152565076Y-101898447D01*
X134406504Y-111735723D02*
X135054123Y-111735723D01*
X135130314Y-111697628D01*
X135168409Y-111659533D01*
X135206504Y-111583342D01*
X135206504Y-111430961D01*
X135168409Y-111354771D01*
X135130314Y-111316676D01*
X135054123Y-111278580D01*
X134406504Y-111278580D01*
X134406504Y-110516676D02*
X134406504Y-110897628D01*
X134787457Y-110935723D01*
X134749361Y-110897628D01*
X134711266Y-110821438D01*
X134711266Y-110630961D01*
X134749361Y-110554771D01*
X134787457Y-110516676D01*
X134863647Y-110478580D01*
X135054123Y-110478580D01*
X135130314Y-110516676D01*
X135168409Y-110554771D01*
X135206504Y-110630961D01*
X135206504Y-110821438D01*
X135168409Y-110897628D01*
X135130314Y-110935723D01*
X146386504Y-103917685D02*
X146005552Y-104184352D01*
X146386504Y-104374828D02*
X145586504Y-104374828D01*
X145586504Y-104070066D01*
X145624600Y-103993876D01*
X145662695Y-103955780D01*
X145738885Y-103917685D01*
X145853171Y-103917685D01*
X145929361Y-103955780D01*
X145967457Y-103993876D01*
X146005552Y-104070066D01*
X146005552Y-104374828D01*
X145662695Y-103612923D02*
X145624600Y-103574828D01*
X145586504Y-103498638D01*
X145586504Y-103308161D01*
X145624600Y-103231971D01*
X145662695Y-103193876D01*
X145738885Y-103155780D01*
X145815076Y-103155780D01*
X145929361Y-103193876D01*
X146386504Y-103651019D01*
X146386504Y-103155780D01*
X145586504Y-102660542D02*
X145586504Y-102584352D01*
X145624600Y-102508161D01*
X145662695Y-102470066D01*
X145738885Y-102431971D01*
X145891266Y-102393876D01*
X146081742Y-102393876D01*
X146234123Y-102431971D01*
X146310314Y-102470066D01*
X146348409Y-102508161D01*
X146386504Y-102584352D01*
X146386504Y-102660542D01*
X146348409Y-102736733D01*
X146310314Y-102774828D01*
X146234123Y-102812923D01*
X146081742Y-102851019D01*
X145891266Y-102851019D01*
X145738885Y-102812923D01*
X145662695Y-102774828D01*
X145624600Y-102736733D01*
X145586504Y-102660542D01*
X136886904Y-80956085D02*
X136505952Y-81222752D01*
X136886904Y-81413228D02*
X136086904Y-81413228D01*
X136086904Y-81108466D01*
X136125000Y-81032276D01*
X136163095Y-80994180D01*
X136239285Y-80956085D01*
X136353571Y-80956085D01*
X136429761Y-80994180D01*
X136467857Y-81032276D01*
X136505952Y-81108466D01*
X136505952Y-81413228D01*
X136886904Y-80194180D02*
X136886904Y-80651323D01*
X136886904Y-80422752D02*
X136086904Y-80422752D01*
X136201190Y-80498942D01*
X136277380Y-80575133D01*
X136315476Y-80651323D01*
X136429761Y-79737038D02*
X136391666Y-79813228D01*
X136353571Y-79851323D01*
X136277380Y-79889419D01*
X136239285Y-79889419D01*
X136163095Y-79851323D01*
X136125000Y-79813228D01*
X136086904Y-79737038D01*
X136086904Y-79584657D01*
X136125000Y-79508466D01*
X136163095Y-79470371D01*
X136239285Y-79432276D01*
X136277380Y-79432276D01*
X136353571Y-79470371D01*
X136391666Y-79508466D01*
X136429761Y-79584657D01*
X136429761Y-79737038D01*
X136467857Y-79813228D01*
X136505952Y-79851323D01*
X136582142Y-79889419D01*
X136734523Y-79889419D01*
X136810714Y-79851323D01*
X136848809Y-79813228D01*
X136886904Y-79737038D01*
X136886904Y-79584657D01*
X136848809Y-79508466D01*
X136810714Y-79470371D01*
X136734523Y-79432276D01*
X136582142Y-79432276D01*
X136505952Y-79470371D01*
X136467857Y-79508466D01*
X136429761Y-79584657D01*
X138017266Y-100564904D02*
X137750600Y-100183952D01*
X137560123Y-100564904D02*
X137560123Y-99764904D01*
X137864885Y-99764904D01*
X137941076Y-99803000D01*
X137979171Y-99841095D01*
X138017266Y-99917285D01*
X138017266Y-100031571D01*
X137979171Y-100107761D01*
X137941076Y-100145857D01*
X137864885Y-100183952D01*
X137560123Y-100183952D01*
X138398219Y-100564904D02*
X138550600Y-100564904D01*
X138626790Y-100526809D01*
X138664885Y-100488714D01*
X138741076Y-100374428D01*
X138779171Y-100222047D01*
X138779171Y-99917285D01*
X138741076Y-99841095D01*
X138702980Y-99803000D01*
X138626790Y-99764904D01*
X138474409Y-99764904D01*
X138398219Y-99803000D01*
X138360123Y-99841095D01*
X138322028Y-99917285D01*
X138322028Y-100107761D01*
X138360123Y-100183952D01*
X138398219Y-100222047D01*
X138474409Y-100260142D01*
X138626790Y-100260142D01*
X138702980Y-100222047D01*
X138741076Y-100183952D01*
X138779171Y-100107761D01*
X138017266Y-99421904D02*
X137750600Y-99040952D01*
X137560123Y-99421904D02*
X137560123Y-98621904D01*
X137864885Y-98621904D01*
X137941076Y-98660000D01*
X137979171Y-98698095D01*
X138017266Y-98774285D01*
X138017266Y-98888571D01*
X137979171Y-98964761D01*
X137941076Y-99002857D01*
X137864885Y-99040952D01*
X137560123Y-99040952D01*
X138474409Y-98964761D02*
X138398219Y-98926666D01*
X138360123Y-98888571D01*
X138322028Y-98812380D01*
X138322028Y-98774285D01*
X138360123Y-98698095D01*
X138398219Y-98660000D01*
X138474409Y-98621904D01*
X138626790Y-98621904D01*
X138702980Y-98660000D01*
X138741076Y-98698095D01*
X138779171Y-98774285D01*
X138779171Y-98812380D01*
X138741076Y-98888571D01*
X138702980Y-98926666D01*
X138626790Y-98964761D01*
X138474409Y-98964761D01*
X138398219Y-99002857D01*
X138360123Y-99040952D01*
X138322028Y-99117142D01*
X138322028Y-99269523D01*
X138360123Y-99345714D01*
X138398219Y-99383809D01*
X138474409Y-99421904D01*
X138626790Y-99421904D01*
X138702980Y-99383809D01*
X138741076Y-99345714D01*
X138779171Y-99269523D01*
X138779171Y-99117142D01*
X138741076Y-99040952D01*
X138702980Y-99002857D01*
X138626790Y-98964761D01*
X136169409Y-105340095D02*
X136093219Y-105302000D01*
X136017028Y-105225809D01*
X135902742Y-105111523D01*
X135826552Y-105073428D01*
X135750361Y-105073428D01*
X135788457Y-105263904D02*
X135712266Y-105225809D01*
X135636076Y-105149619D01*
X135597980Y-104997238D01*
X135597980Y-104730571D01*
X135636076Y-104578190D01*
X135712266Y-104502000D01*
X135788457Y-104463904D01*
X135940838Y-104463904D01*
X136017028Y-104502000D01*
X136093219Y-104578190D01*
X136131314Y-104730571D01*
X136131314Y-104997238D01*
X136093219Y-105149619D01*
X136017028Y-105225809D01*
X135940838Y-105263904D01*
X135788457Y-105263904D01*
X136817028Y-104730571D02*
X136817028Y-105263904D01*
X136626552Y-104425809D02*
X136436076Y-104997238D01*
X136931314Y-104997238D01*
X141757409Y-105340095D02*
X141681219Y-105302000D01*
X141605028Y-105225809D01*
X141490742Y-105111523D01*
X141414552Y-105073428D01*
X141338361Y-105073428D01*
X141376457Y-105263904D02*
X141300266Y-105225809D01*
X141224076Y-105149619D01*
X141185980Y-104997238D01*
X141185980Y-104730571D01*
X141224076Y-104578190D01*
X141300266Y-104502000D01*
X141376457Y-104463904D01*
X141528838Y-104463904D01*
X141605028Y-104502000D01*
X141681219Y-104578190D01*
X141719314Y-104730571D01*
X141719314Y-104997238D01*
X141681219Y-105149619D01*
X141605028Y-105225809D01*
X141528838Y-105263904D01*
X141376457Y-105263904D01*
X141985980Y-104463904D02*
X142481219Y-104463904D01*
X142214552Y-104768666D01*
X142328838Y-104768666D01*
X142405028Y-104806761D01*
X142443123Y-104844857D01*
X142481219Y-104921047D01*
X142481219Y-105111523D01*
X142443123Y-105187714D01*
X142405028Y-105225809D01*
X142328838Y-105263904D01*
X142100266Y-105263904D01*
X142024076Y-105225809D01*
X141985980Y-105187714D01*
X137560123Y-98278904D02*
X137560123Y-97478904D01*
X137750600Y-97478904D01*
X137864885Y-97517000D01*
X137941076Y-97593190D01*
X137979171Y-97669380D01*
X138017266Y-97821761D01*
X138017266Y-97936047D01*
X137979171Y-98088428D01*
X137941076Y-98164619D01*
X137864885Y-98240809D01*
X137750600Y-98278904D01*
X137560123Y-98278904D01*
X138779171Y-98278904D02*
X138322028Y-98278904D01*
X138550600Y-98278904D02*
X138550600Y-97478904D01*
X138474409Y-97593190D01*
X138398219Y-97669380D01*
X138322028Y-97707476D01*
%LPC*%
G36*
G01*
X161716600Y-110867000D02*
X161716600Y-110367000D01*
G75*
G02*
X161941600Y-110142000I225000J0D01*
G01*
X162391600Y-110142000D01*
G75*
G02*
X162616600Y-110367000I0J-225000D01*
G01*
X162616600Y-110867000D01*
G75*
G02*
X162391600Y-111092000I-225000J0D01*
G01*
X161941600Y-111092000D01*
G75*
G02*
X161716600Y-110867000I0J225000D01*
G01*
G37*
G36*
G01*
X160166600Y-110867000D02*
X160166600Y-110367000D01*
G75*
G02*
X160391600Y-110142000I225000J0D01*
G01*
X160841600Y-110142000D01*
G75*
G02*
X161066600Y-110367000I0J-225000D01*
G01*
X161066600Y-110867000D01*
G75*
G02*
X160841600Y-111092000I-225000J0D01*
G01*
X160391600Y-111092000D01*
G75*
G02*
X160166600Y-110867000I0J225000D01*
G01*
G37*
G36*
G01*
X163173600Y-89465000D02*
X163673600Y-89465000D01*
G75*
G02*
X163898600Y-89690000I0J-225000D01*
G01*
X163898600Y-90140000D01*
G75*
G02*
X163673600Y-90365000I-225000J0D01*
G01*
X163173600Y-90365000D01*
G75*
G02*
X162948600Y-90140000I0J225000D01*
G01*
X162948600Y-89690000D01*
G75*
G02*
X163173600Y-89465000I225000J0D01*
G01*
G37*
G36*
G01*
X163173600Y-87915000D02*
X163673600Y-87915000D01*
G75*
G02*
X163898600Y-88140000I0J-225000D01*
G01*
X163898600Y-88590000D01*
G75*
G02*
X163673600Y-88815000I-225000J0D01*
G01*
X163173600Y-88815000D01*
G75*
G02*
X162948600Y-88590000I0J225000D01*
G01*
X162948600Y-88140000D01*
G75*
G02*
X163173600Y-87915000I225000J0D01*
G01*
G37*
G36*
G01*
X138299000Y-82973000D02*
X137799000Y-82973000D01*
G75*
G02*
X137574000Y-82748000I0J225000D01*
G01*
X137574000Y-82298000D01*
G75*
G02*
X137799000Y-82073000I225000J0D01*
G01*
X138299000Y-82073000D01*
G75*
G02*
X138524000Y-82298000I0J-225000D01*
G01*
X138524000Y-82748000D01*
G75*
G02*
X138299000Y-82973000I-225000J0D01*
G01*
G37*
G36*
G01*
X138299000Y-84523000D02*
X137799000Y-84523000D01*
G75*
G02*
X137574000Y-84298000I0J225000D01*
G01*
X137574000Y-83848000D01*
G75*
G02*
X137799000Y-83623000I225000J0D01*
G01*
X138299000Y-83623000D01*
G75*
G02*
X138524000Y-83848000I0J-225000D01*
G01*
X138524000Y-84298000D01*
G75*
G02*
X138299000Y-84523000I-225000J0D01*
G01*
G37*
G36*
G01*
X133066600Y-82973000D02*
X132566600Y-82973000D01*
G75*
G02*
X132341600Y-82748000I0J225000D01*
G01*
X132341600Y-82298000D01*
G75*
G02*
X132566600Y-82073000I225000J0D01*
G01*
X133066600Y-82073000D01*
G75*
G02*
X133291600Y-82298000I0J-225000D01*
G01*
X133291600Y-82748000D01*
G75*
G02*
X133066600Y-82973000I-225000J0D01*
G01*
G37*
G36*
G01*
X133066600Y-84523000D02*
X132566600Y-84523000D01*
G75*
G02*
X132341600Y-84298000I0J225000D01*
G01*
X132341600Y-83848000D01*
G75*
G02*
X132566600Y-83623000I225000J0D01*
G01*
X133066600Y-83623000D01*
G75*
G02*
X133291600Y-83848000I0J-225000D01*
G01*
X133291600Y-84298000D01*
G75*
G02*
X133066600Y-84523000I-225000J0D01*
G01*
G37*
G36*
G01*
X150527600Y-110740000D02*
X150527600Y-110240000D01*
G75*
G02*
X150752600Y-110015000I225000J0D01*
G01*
X151202600Y-110015000D01*
G75*
G02*
X151427600Y-110240000I0J-225000D01*
G01*
X151427600Y-110740000D01*
G75*
G02*
X151202600Y-110965000I-225000J0D01*
G01*
X150752600Y-110965000D01*
G75*
G02*
X150527600Y-110740000I0J225000D01*
G01*
G37*
G36*
G01*
X148977600Y-110740000D02*
X148977600Y-110240000D01*
G75*
G02*
X149202600Y-110015000I225000J0D01*
G01*
X149652600Y-110015000D01*
G75*
G02*
X149877600Y-110240000I0J-225000D01*
G01*
X149877600Y-110740000D01*
G75*
G02*
X149652600Y-110965000I-225000J0D01*
G01*
X149202600Y-110965000D01*
G75*
G02*
X148977600Y-110740000I0J225000D01*
G01*
G37*
G36*
G01*
X146943000Y-107273000D02*
X147443000Y-107273000D01*
G75*
G02*
X147668000Y-107498000I0J-225000D01*
G01*
X147668000Y-107948000D01*
G75*
G02*
X147443000Y-108173000I-225000J0D01*
G01*
X146943000Y-108173000D01*
G75*
G02*
X146718000Y-107948000I0J225000D01*
G01*
X146718000Y-107498000D01*
G75*
G02*
X146943000Y-107273000I225000J0D01*
G01*
G37*
G36*
G01*
X146943000Y-105723000D02*
X147443000Y-105723000D01*
G75*
G02*
X147668000Y-105948000I0J-225000D01*
G01*
X147668000Y-106398000D01*
G75*
G02*
X147443000Y-106623000I-225000J0D01*
G01*
X146943000Y-106623000D01*
G75*
G02*
X146718000Y-106398000I0J225000D01*
G01*
X146718000Y-105948000D01*
G75*
G02*
X146943000Y-105723000I225000J0D01*
G01*
G37*
G36*
G01*
X150853600Y-112870000D02*
X150853600Y-111920000D01*
G75*
G02*
X151103600Y-111670000I250000J0D01*
G01*
X151603600Y-111670000D01*
G75*
G02*
X151853600Y-111920000I0J-250000D01*
G01*
X151853600Y-112870000D01*
G75*
G02*
X151603600Y-113120000I-250000J0D01*
G01*
X151103600Y-113120000D01*
G75*
G02*
X150853600Y-112870000I0J250000D01*
G01*
G37*
G36*
G01*
X148953600Y-112870000D02*
X148953600Y-111920000D01*
G75*
G02*
X149203600Y-111670000I250000J0D01*
G01*
X149703600Y-111670000D01*
G75*
G02*
X149953600Y-111920000I0J-250000D01*
G01*
X149953600Y-112870000D01*
G75*
G02*
X149703600Y-113120000I-250000J0D01*
G01*
X149203600Y-113120000D01*
G75*
G02*
X148953600Y-112870000I0J250000D01*
G01*
G37*
G36*
G01*
X144630600Y-102456000D02*
X144630600Y-101506000D01*
G75*
G02*
X144880600Y-101256000I250000J0D01*
G01*
X145380600Y-101256000D01*
G75*
G02*
X145630600Y-101506000I0J-250000D01*
G01*
X145630600Y-102456000D01*
G75*
G02*
X145380600Y-102706000I-250000J0D01*
G01*
X144880600Y-102706000D01*
G75*
G02*
X144630600Y-102456000I0J250000D01*
G01*
G37*
G36*
G01*
X142730600Y-102456000D02*
X142730600Y-101506000D01*
G75*
G02*
X142980600Y-101256000I250000J0D01*
G01*
X143480600Y-101256000D01*
G75*
G02*
X143730600Y-101506000I0J-250000D01*
G01*
X143730600Y-102456000D01*
G75*
G02*
X143480600Y-102706000I-250000J0D01*
G01*
X142980600Y-102706000D01*
G75*
G02*
X142730600Y-102456000I0J250000D01*
G01*
G37*
D13*
X159618600Y-88265000D03*
X161518600Y-88265000D03*
X161518600Y-90465000D03*
X160568600Y-90465000D03*
X159618600Y-90465000D03*
D14*
X159867600Y-86307000D03*
X163067600Y-86307000D03*
X159867600Y-81407000D03*
X163067600Y-81407000D03*
G36*
G01*
X135069600Y-82796000D02*
X134119600Y-82796000D01*
G75*
G02*
X133869600Y-82546000I0J250000D01*
G01*
X133869600Y-82046000D01*
G75*
G02*
X134119600Y-81796000I250000J0D01*
G01*
X135069600Y-81796000D01*
G75*
G02*
X135319600Y-82046000I0J-250000D01*
G01*
X135319600Y-82546000D01*
G75*
G02*
X135069600Y-82796000I-250000J0D01*
G01*
G37*
G36*
G01*
X135069600Y-84696000D02*
X134119600Y-84696000D01*
G75*
G02*
X133869600Y-84446000I0J250000D01*
G01*
X133869600Y-83946000D01*
G75*
G02*
X134119600Y-83696000I250000J0D01*
G01*
X135069600Y-83696000D01*
G75*
G02*
X135319600Y-83946000I0J-250000D01*
G01*
X135319600Y-84446000D01*
G75*
G02*
X135069600Y-84696000I-250000J0D01*
G01*
G37*
G36*
G01*
X134942600Y-108069000D02*
X133992600Y-108069000D01*
G75*
G02*
X133742600Y-107819000I0J250000D01*
G01*
X133742600Y-107319000D01*
G75*
G02*
X133992600Y-107069000I250000J0D01*
G01*
X134942600Y-107069000D01*
G75*
G02*
X135192600Y-107319000I0J-250000D01*
G01*
X135192600Y-107819000D01*
G75*
G02*
X134942600Y-108069000I-250000J0D01*
G01*
G37*
G36*
G01*
X134942600Y-109969000D02*
X133992600Y-109969000D01*
G75*
G02*
X133742600Y-109719000I0J250000D01*
G01*
X133742600Y-109219000D01*
G75*
G02*
X133992600Y-108969000I250000J0D01*
G01*
X134942600Y-108969000D01*
G75*
G02*
X135192600Y-109219000I0J-250000D01*
G01*
X135192600Y-109719000D01*
G75*
G02*
X134942600Y-109969000I-250000J0D01*
G01*
G37*
D15*
X128432560Y-75905360D03*
X168462960Y-75905360D03*
G36*
G01*
X160740100Y-92727000D02*
X160265100Y-92727000D01*
G75*
G02*
X160027600Y-92489500I0J237500D01*
G01*
X160027600Y-91914500D01*
G75*
G02*
X160265100Y-91677000I237500J0D01*
G01*
X160740100Y-91677000D01*
G75*
G02*
X160977600Y-91914500I0J-237500D01*
G01*
X160977600Y-92489500D01*
G75*
G02*
X160740100Y-92727000I-237500J0D01*
G01*
G37*
G36*
G01*
X160740100Y-94477000D02*
X160265100Y-94477000D01*
G75*
G02*
X160027600Y-94239500I0J237500D01*
G01*
X160027600Y-93664500D01*
G75*
G02*
X160265100Y-93427000I237500J0D01*
G01*
X160740100Y-93427000D01*
G75*
G02*
X160977600Y-93664500I0J-237500D01*
G01*
X160977600Y-94239500D01*
G75*
G02*
X160740100Y-94477000I-237500J0D01*
G01*
G37*
G36*
G01*
X162391100Y-92727000D02*
X161916100Y-92727000D01*
G75*
G02*
X161678600Y-92489500I0J237500D01*
G01*
X161678600Y-91914500D01*
G75*
G02*
X161916100Y-91677000I237500J0D01*
G01*
X162391100Y-91677000D01*
G75*
G02*
X162628600Y-91914500I0J-237500D01*
G01*
X162628600Y-92489500D01*
G75*
G02*
X162391100Y-92727000I-237500J0D01*
G01*
G37*
G36*
G01*
X162391100Y-94477000D02*
X161916100Y-94477000D01*
G75*
G02*
X161678600Y-94239500I0J237500D01*
G01*
X161678600Y-93664500D01*
G75*
G02*
X161916100Y-93427000I237500J0D01*
G01*
X162391100Y-93427000D01*
G75*
G02*
X162628600Y-93664500I0J-237500D01*
G01*
X162628600Y-94239500D01*
G75*
G02*
X162391100Y-94477000I-237500J0D01*
G01*
G37*
D16*
X163677600Y-117094000D03*
X161137600Y-117094000D03*
X158597600Y-117094000D03*
X156057600Y-117094000D03*
X153517600Y-117094000D03*
X150977600Y-117094000D03*
X148437600Y-117094000D03*
X145897600Y-117094000D03*
X143357600Y-117094000D03*
X140817600Y-117094000D03*
X138277600Y-117094000D03*
X135737600Y-117094000D03*
D17*
X133197600Y-117094000D03*
G36*
G01*
X161800400Y-107759600D02*
X162100400Y-107759600D01*
G75*
G02*
X162250400Y-107909600I0J-150000D01*
G01*
X162250400Y-109209600D01*
G75*
G02*
X162100400Y-109359600I-150000J0D01*
G01*
X161800400Y-109359600D01*
G75*
G02*
X161650400Y-109209600I0J150000D01*
G01*
X161650400Y-107909600D01*
G75*
G02*
X161800400Y-107759600I150000J0D01*
G01*
G37*
G36*
G01*
X160530400Y-107759600D02*
X160830400Y-107759600D01*
G75*
G02*
X160980400Y-107909600I0J-150000D01*
G01*
X160980400Y-109209600D01*
G75*
G02*
X160830400Y-109359600I-150000J0D01*
G01*
X160530400Y-109359600D01*
G75*
G02*
X160380400Y-109209600I0J150000D01*
G01*
X160380400Y-107909600D01*
G75*
G02*
X160530400Y-107759600I150000J0D01*
G01*
G37*
G36*
G01*
X159260400Y-107759600D02*
X159560400Y-107759600D01*
G75*
G02*
X159710400Y-107909600I0J-150000D01*
G01*
X159710400Y-109209600D01*
G75*
G02*
X159560400Y-109359600I-150000J0D01*
G01*
X159260400Y-109359600D01*
G75*
G02*
X159110400Y-109209600I0J150000D01*
G01*
X159110400Y-107909600D01*
G75*
G02*
X159260400Y-107759600I150000J0D01*
G01*
G37*
G36*
G01*
X157990400Y-107759600D02*
X158290400Y-107759600D01*
G75*
G02*
X158440400Y-107909600I0J-150000D01*
G01*
X158440400Y-109209600D01*
G75*
G02*
X158290400Y-109359600I-150000J0D01*
G01*
X157990400Y-109359600D01*
G75*
G02*
X157840400Y-109209600I0J150000D01*
G01*
X157840400Y-107909600D01*
G75*
G02*
X157990400Y-107759600I150000J0D01*
G01*
G37*
G36*
G01*
X157990400Y-100559600D02*
X158290400Y-100559600D01*
G75*
G02*
X158440400Y-100709600I0J-150000D01*
G01*
X158440400Y-102009600D01*
G75*
G02*
X158290400Y-102159600I-150000J0D01*
G01*
X157990400Y-102159600D01*
G75*
G02*
X157840400Y-102009600I0J150000D01*
G01*
X157840400Y-100709600D01*
G75*
G02*
X157990400Y-100559600I150000J0D01*
G01*
G37*
G36*
G01*
X159260400Y-100559600D02*
X159560400Y-100559600D01*
G75*
G02*
X159710400Y-100709600I0J-150000D01*
G01*
X159710400Y-102009600D01*
G75*
G02*
X159560400Y-102159600I-150000J0D01*
G01*
X159260400Y-102159600D01*
G75*
G02*
X159110400Y-102009600I0J150000D01*
G01*
X159110400Y-100709600D01*
G75*
G02*
X159260400Y-100559600I150000J0D01*
G01*
G37*
G36*
G01*
X160530400Y-100559600D02*
X160830400Y-100559600D01*
G75*
G02*
X160980400Y-100709600I0J-150000D01*
G01*
X160980400Y-102009600D01*
G75*
G02*
X160830400Y-102159600I-150000J0D01*
G01*
X160530400Y-102159600D01*
G75*
G02*
X160380400Y-102009600I0J150000D01*
G01*
X160380400Y-100709600D01*
G75*
G02*
X160530400Y-100559600I150000J0D01*
G01*
G37*
G36*
G01*
X161800400Y-100559600D02*
X162100400Y-100559600D01*
G75*
G02*
X162250400Y-100709600I0J-150000D01*
G01*
X162250400Y-102009600D01*
G75*
G02*
X162100400Y-102159600I-150000J0D01*
G01*
X161800400Y-102159600D01*
G75*
G02*
X161650400Y-102009600I0J150000D01*
G01*
X161650400Y-100709600D01*
G75*
G02*
X161800400Y-100559600I150000J0D01*
G01*
G37*
D18*
X157182600Y-81305400D03*
X157182600Y-82575400D03*
X157182600Y-83845400D03*
X157182600Y-85115400D03*
X157182600Y-86385400D03*
X157182600Y-87655400D03*
X157182600Y-88925400D03*
X157182600Y-90195400D03*
X157182600Y-91465400D03*
X157182600Y-92735400D03*
X157182600Y-94005400D03*
X157182600Y-95275400D03*
X157182600Y-96545400D03*
X157182600Y-97815400D03*
D19*
X154397600Y-98815400D03*
X153127600Y-98815400D03*
X151857600Y-98815400D03*
X150587600Y-98815400D03*
X149317600Y-98815400D03*
X148047600Y-98815400D03*
X146777600Y-98815400D03*
X145507600Y-98815400D03*
X144237600Y-98815400D03*
X142967600Y-98815400D03*
D18*
X140182600Y-97815400D03*
X140182600Y-96545400D03*
X140182600Y-95275400D03*
X140182600Y-94005400D03*
X140182600Y-92735400D03*
X140182600Y-91465400D03*
X140182600Y-90195400D03*
X140182600Y-88925400D03*
X140182600Y-87655400D03*
X140182600Y-86385400D03*
X140182600Y-85115400D03*
X140182600Y-83845400D03*
X140182600Y-82575400D03*
X140182600Y-81305400D03*
D20*
X147682600Y-88805400D03*
G36*
G01*
X164042100Y-107614000D02*
X163567100Y-107614000D01*
G75*
G02*
X163329600Y-107376500I0J237500D01*
G01*
X163329600Y-106801500D01*
G75*
G02*
X163567100Y-106564000I237500J0D01*
G01*
X164042100Y-106564000D01*
G75*
G02*
X164279600Y-106801500I0J-237500D01*
G01*
X164279600Y-107376500D01*
G75*
G02*
X164042100Y-107614000I-237500J0D01*
G01*
G37*
G36*
G01*
X164042100Y-109364000D02*
X163567100Y-109364000D01*
G75*
G02*
X163329600Y-109126500I0J237500D01*
G01*
X163329600Y-108551500D01*
G75*
G02*
X163567100Y-108314000I237500J0D01*
G01*
X164042100Y-108314000D01*
G75*
G02*
X164279600Y-108551500I0J-237500D01*
G01*
X164279600Y-109126500D01*
G75*
G02*
X164042100Y-109364000I-237500J0D01*
G01*
G37*
G36*
G01*
X132915600Y-87668000D02*
X132915600Y-86068000D01*
G75*
G02*
X133115600Y-85868000I200000J0D01*
G01*
X133515600Y-85868000D01*
G75*
G02*
X133715600Y-86068000I0J-200000D01*
G01*
X133715600Y-87668000D01*
G75*
G02*
X133515600Y-87868000I-200000J0D01*
G01*
X133115600Y-87868000D01*
G75*
G02*
X132915600Y-87668000I0J200000D01*
G01*
G37*
G36*
G01*
X137115600Y-87668000D02*
X137115600Y-86068000D01*
G75*
G02*
X137315600Y-85868000I200000J0D01*
G01*
X137715600Y-85868000D01*
G75*
G02*
X137915600Y-86068000I0J-200000D01*
G01*
X137915600Y-87668000D01*
G75*
G02*
X137715600Y-87868000I-200000J0D01*
G01*
X137315600Y-87868000D01*
G75*
G02*
X137115600Y-87668000I0J200000D01*
G01*
G37*
D16*
X128117600Y-114554000D03*
X128117600Y-112014000D03*
X128117600Y-109474000D03*
X128117600Y-106934000D03*
X128117600Y-104394000D03*
X128117600Y-101854000D03*
X128117600Y-99314000D03*
X128117600Y-96774000D03*
X128117600Y-94234000D03*
X128117600Y-91694000D03*
X128117600Y-89154000D03*
X128117600Y-86614000D03*
X128117600Y-84074000D03*
D17*
X128117600Y-81534000D03*
D16*
X168757600Y-114554000D03*
X168757600Y-112014000D03*
X168757600Y-109474000D03*
X168757600Y-106934000D03*
X168757600Y-104394000D03*
X168757600Y-101854000D03*
X168757600Y-99314000D03*
X168757600Y-96774000D03*
X168757600Y-94234000D03*
X168757600Y-91694000D03*
X168757600Y-89154000D03*
X168757600Y-86614000D03*
X168757600Y-84074000D03*
D17*
X168757600Y-81534000D03*
D21*
X149377400Y-103680200D03*
X149377400Y-108280200D03*
X149377400Y-105980200D03*
D22*
X155677400Y-105980200D03*
G36*
G01*
X136649600Y-108676200D02*
X136349600Y-108676200D01*
G75*
G02*
X136199600Y-108526200I0J150000D01*
G01*
X136199600Y-107226200D01*
G75*
G02*
X136349600Y-107076200I150000J0D01*
G01*
X136649600Y-107076200D01*
G75*
G02*
X136799600Y-107226200I0J-150000D01*
G01*
X136799600Y-108526200D01*
G75*
G02*
X136649600Y-108676200I-150000J0D01*
G01*
G37*
G36*
G01*
X137919600Y-108676200D02*
X137619600Y-108676200D01*
G75*
G02*
X137469600Y-108526200I0J150000D01*
G01*
X137469600Y-107226200D01*
G75*
G02*
X137619600Y-107076200I150000J0D01*
G01*
X137919600Y-107076200D01*
G75*
G02*
X138069600Y-107226200I0J-150000D01*
G01*
X138069600Y-108526200D01*
G75*
G02*
X137919600Y-108676200I-150000J0D01*
G01*
G37*
G36*
G01*
X139189600Y-108676200D02*
X138889600Y-108676200D01*
G75*
G02*
X138739600Y-108526200I0J150000D01*
G01*
X138739600Y-107226200D01*
G75*
G02*
X138889600Y-107076200I150000J0D01*
G01*
X139189600Y-107076200D01*
G75*
G02*
X139339600Y-107226200I0J-150000D01*
G01*
X139339600Y-108526200D01*
G75*
G02*
X139189600Y-108676200I-150000J0D01*
G01*
G37*
G36*
G01*
X140459600Y-108676200D02*
X140159600Y-108676200D01*
G75*
G02*
X140009600Y-108526200I0J150000D01*
G01*
X140009600Y-107226200D01*
G75*
G02*
X140159600Y-107076200I150000J0D01*
G01*
X140459600Y-107076200D01*
G75*
G02*
X140609600Y-107226200I0J-150000D01*
G01*
X140609600Y-108526200D01*
G75*
G02*
X140459600Y-108676200I-150000J0D01*
G01*
G37*
G36*
G01*
X141729600Y-108676200D02*
X141429600Y-108676200D01*
G75*
G02*
X141279600Y-108526200I0J150000D01*
G01*
X141279600Y-107226200D01*
G75*
G02*
X141429600Y-107076200I150000J0D01*
G01*
X141729600Y-107076200D01*
G75*
G02*
X141879600Y-107226200I0J-150000D01*
G01*
X141879600Y-108526200D01*
G75*
G02*
X141729600Y-108676200I-150000J0D01*
G01*
G37*
G36*
G01*
X142999600Y-108676200D02*
X142699600Y-108676200D01*
G75*
G02*
X142549600Y-108526200I0J150000D01*
G01*
X142549600Y-107226200D01*
G75*
G02*
X142699600Y-107076200I150000J0D01*
G01*
X142999600Y-107076200D01*
G75*
G02*
X143149600Y-107226200I0J-150000D01*
G01*
X143149600Y-108526200D01*
G75*
G02*
X142999600Y-108676200I-150000J0D01*
G01*
G37*
G36*
G01*
X144269600Y-108676200D02*
X143969600Y-108676200D01*
G75*
G02*
X143819600Y-108526200I0J150000D01*
G01*
X143819600Y-107226200D01*
G75*
G02*
X143969600Y-107076200I150000J0D01*
G01*
X144269600Y-107076200D01*
G75*
G02*
X144419600Y-107226200I0J-150000D01*
G01*
X144419600Y-108526200D01*
G75*
G02*
X144269600Y-108676200I-150000J0D01*
G01*
G37*
G36*
G01*
X145539600Y-108676200D02*
X145239600Y-108676200D01*
G75*
G02*
X145089600Y-108526200I0J150000D01*
G01*
X145089600Y-107226200D01*
G75*
G02*
X145239600Y-107076200I150000J0D01*
G01*
X145539600Y-107076200D01*
G75*
G02*
X145689600Y-107226200I0J-150000D01*
G01*
X145689600Y-108526200D01*
G75*
G02*
X145539600Y-108676200I-150000J0D01*
G01*
G37*
G36*
G01*
X145539600Y-115176200D02*
X145239600Y-115176200D01*
G75*
G02*
X145089600Y-115026200I0J150000D01*
G01*
X145089600Y-113726200D01*
G75*
G02*
X145239600Y-113576200I150000J0D01*
G01*
X145539600Y-113576200D01*
G75*
G02*
X145689600Y-113726200I0J-150000D01*
G01*
X145689600Y-115026200D01*
G75*
G02*
X145539600Y-115176200I-150000J0D01*
G01*
G37*
G36*
G01*
X144269600Y-115176200D02*
X143969600Y-115176200D01*
G75*
G02*
X143819600Y-115026200I0J150000D01*
G01*
X143819600Y-113726200D01*
G75*
G02*
X143969600Y-113576200I150000J0D01*
G01*
X144269600Y-113576200D01*
G75*
G02*
X144419600Y-113726200I0J-150000D01*
G01*
X144419600Y-115026200D01*
G75*
G02*
X144269600Y-115176200I-150000J0D01*
G01*
G37*
G36*
G01*
X142999600Y-115176200D02*
X142699600Y-115176200D01*
G75*
G02*
X142549600Y-115026200I0J150000D01*
G01*
X142549600Y-113726200D01*
G75*
G02*
X142699600Y-113576200I150000J0D01*
G01*
X142999600Y-113576200D01*
G75*
G02*
X143149600Y-113726200I0J-150000D01*
G01*
X143149600Y-115026200D01*
G75*
G02*
X142999600Y-115176200I-150000J0D01*
G01*
G37*
G36*
G01*
X141729600Y-115176200D02*
X141429600Y-115176200D01*
G75*
G02*
X141279600Y-115026200I0J150000D01*
G01*
X141279600Y-113726200D01*
G75*
G02*
X141429600Y-113576200I150000J0D01*
G01*
X141729600Y-113576200D01*
G75*
G02*
X141879600Y-113726200I0J-150000D01*
G01*
X141879600Y-115026200D01*
G75*
G02*
X141729600Y-115176200I-150000J0D01*
G01*
G37*
G36*
G01*
X140459600Y-115176200D02*
X140159600Y-115176200D01*
G75*
G02*
X140009600Y-115026200I0J150000D01*
G01*
X140009600Y-113726200D01*
G75*
G02*
X140159600Y-113576200I150000J0D01*
G01*
X140459600Y-113576200D01*
G75*
G02*
X140609600Y-113726200I0J-150000D01*
G01*
X140609600Y-115026200D01*
G75*
G02*
X140459600Y-115176200I-150000J0D01*
G01*
G37*
G36*
G01*
X139189600Y-115176200D02*
X138889600Y-115176200D01*
G75*
G02*
X138739600Y-115026200I0J150000D01*
G01*
X138739600Y-113726200D01*
G75*
G02*
X138889600Y-113576200I150000J0D01*
G01*
X139189600Y-113576200D01*
G75*
G02*
X139339600Y-113726200I0J-150000D01*
G01*
X139339600Y-115026200D01*
G75*
G02*
X139189600Y-115176200I-150000J0D01*
G01*
G37*
G36*
G01*
X137919600Y-115176200D02*
X137619600Y-115176200D01*
G75*
G02*
X137469600Y-115026200I0J150000D01*
G01*
X137469600Y-113726200D01*
G75*
G02*
X137619600Y-113576200I150000J0D01*
G01*
X137919600Y-113576200D01*
G75*
G02*
X138069600Y-113726200I0J-150000D01*
G01*
X138069600Y-115026200D01*
G75*
G02*
X137919600Y-115176200I-150000J0D01*
G01*
G37*
G36*
G01*
X136649600Y-115176200D02*
X136349600Y-115176200D01*
G75*
G02*
X136199600Y-115026200I0J150000D01*
G01*
X136199600Y-113726200D01*
G75*
G02*
X136349600Y-113576200I150000J0D01*
G01*
X136649600Y-113576200D01*
G75*
G02*
X136799600Y-113726200I0J-150000D01*
G01*
X136799600Y-115026200D01*
G75*
G02*
X136649600Y-115176200I-150000J0D01*
G01*
G37*
G36*
G01*
X146955500Y-103894400D02*
X147430500Y-103894400D01*
G75*
G02*
X147668000Y-104131900I0J-237500D01*
G01*
X147668000Y-104706900D01*
G75*
G02*
X147430500Y-104944400I-237500J0D01*
G01*
X146955500Y-104944400D01*
G75*
G02*
X146718000Y-104706900I0J237500D01*
G01*
X146718000Y-104131900D01*
G75*
G02*
X146955500Y-103894400I237500J0D01*
G01*
G37*
G36*
G01*
X146955500Y-102144400D02*
X147430500Y-102144400D01*
G75*
G02*
X147668000Y-102381900I0J-237500D01*
G01*
X147668000Y-102956900D01*
G75*
G02*
X147430500Y-103194400I-237500J0D01*
G01*
X146955500Y-103194400D01*
G75*
G02*
X146718000Y-102956900I0J237500D01*
G01*
X146718000Y-102381900D01*
G75*
G02*
X146955500Y-102144400I237500J0D01*
G01*
G37*
G36*
G01*
X136236700Y-83648000D02*
X136711700Y-83648000D01*
G75*
G02*
X136949200Y-83885500I0J-237500D01*
G01*
X136949200Y-84460500D01*
G75*
G02*
X136711700Y-84698000I-237500J0D01*
G01*
X136236700Y-84698000D01*
G75*
G02*
X135999200Y-84460500I0J237500D01*
G01*
X135999200Y-83885500D01*
G75*
G02*
X136236700Y-83648000I237500J0D01*
G01*
G37*
G36*
G01*
X136236700Y-81898000D02*
X136711700Y-81898000D01*
G75*
G02*
X136949200Y-82135500I0J-237500D01*
G01*
X136949200Y-82710500D01*
G75*
G02*
X136711700Y-82948000I-237500J0D01*
G01*
X136236700Y-82948000D01*
G75*
G02*
X135999200Y-82710500I0J237500D01*
G01*
X135999200Y-82135500D01*
G75*
G02*
X136236700Y-81898000I237500J0D01*
G01*
G37*
G36*
G01*
X139375600Y-105977700D02*
X139375600Y-105502700D01*
G75*
G02*
X139613100Y-105265200I237500J0D01*
G01*
X140188100Y-105265200D01*
G75*
G02*
X140425600Y-105502700I0J-237500D01*
G01*
X140425600Y-105977700D01*
G75*
G02*
X140188100Y-106215200I-237500J0D01*
G01*
X139613100Y-106215200D01*
G75*
G02*
X139375600Y-105977700I0J237500D01*
G01*
G37*
G36*
G01*
X137625600Y-105977700D02*
X137625600Y-105502700D01*
G75*
G02*
X137863100Y-105265200I237500J0D01*
G01*
X138438100Y-105265200D01*
G75*
G02*
X138675600Y-105502700I0J-237500D01*
G01*
X138675600Y-105977700D01*
G75*
G02*
X138438100Y-106215200I-237500J0D01*
G01*
X137863100Y-106215200D01*
G75*
G02*
X137625600Y-105977700I0J237500D01*
G01*
G37*
G36*
G01*
X138675600Y-103851700D02*
X138675600Y-104326700D01*
G75*
G02*
X138438100Y-104564200I-237500J0D01*
G01*
X137863100Y-104564200D01*
G75*
G02*
X137625600Y-104326700I0J237500D01*
G01*
X137625600Y-103851700D01*
G75*
G02*
X137863100Y-103614200I237500J0D01*
G01*
X138438100Y-103614200D01*
G75*
G02*
X138675600Y-103851700I0J-237500D01*
G01*
G37*
G36*
G01*
X140425600Y-103851700D02*
X140425600Y-104326700D01*
G75*
G02*
X140188100Y-104564200I-237500J0D01*
G01*
X139613100Y-104564200D01*
G75*
G02*
X139375600Y-104326700I0J237500D01*
G01*
X139375600Y-103851700D01*
G75*
G02*
X139613100Y-103614200I237500J0D01*
G01*
X140188100Y-103614200D01*
G75*
G02*
X140425600Y-103851700I0J-237500D01*
G01*
G37*
D23*
X132991600Y-104912200D03*
X135991600Y-103962200D03*
X135991600Y-105862200D03*
X145087600Y-104912200D03*
X142087600Y-105862200D03*
X142087600Y-103962200D03*
D24*
X140817600Y-101930200D03*
X137517600Y-101930200D03*
M02*
