G04 #@! TF.GenerationSoftware,KiCad,Pcbnew,(5.1.8)-1*
G04 #@! TF.CreationDate,2022-05-07T10:28:52+02:00*
G04 #@! TF.ProjectId,SuperPower-uC-KiCad,53757065-7250-46f7-9765-722d75432d4b,rev?*
G04 #@! TF.SameCoordinates,Original*
G04 #@! TF.FileFunction,Legend,Bot*
G04 #@! TF.FilePolarity,Positive*
%FSLAX46Y46*%
G04 Gerber Fmt 4.6, Leading zero omitted, Abs format (unit mm)*
G04 Created by KiCad (PCBNEW (5.1.8)-1) date 2022-05-07 10:28:52*
%MOMM*%
%LPD*%
G01*
G04 APERTURE LIST*
%ADD10C,0.350000*%
%ADD11C,0.150000*%
%ADD12C,0.120000*%
%ADD13C,0.010000*%
%ADD14R,1.500000X1.000000*%
%ADD15C,2.700000*%
%ADD16O,1.700000X1.700000*%
%ADD17R,1.700000X1.700000*%
G04 APERTURE END LIST*
D10*
X145817742Y-98684571D02*
X145217742Y-98684571D01*
X144960600Y-99575047D02*
X145817742Y-99575047D01*
X145817742Y-97875047D01*
X144960600Y-97875047D01*
X144274885Y-99494095D02*
X144017742Y-99575047D01*
X143589171Y-99575047D01*
X143417742Y-99494095D01*
X143332028Y-99413142D01*
X143246314Y-99251238D01*
X143246314Y-99089333D01*
X143332028Y-98927428D01*
X143417742Y-98846476D01*
X143589171Y-98765523D01*
X143932028Y-98684571D01*
X144103457Y-98603619D01*
X144189171Y-98522666D01*
X144274885Y-98360761D01*
X144274885Y-98198857D01*
X144189171Y-98036952D01*
X144103457Y-97956000D01*
X143932028Y-97875047D01*
X143503457Y-97875047D01*
X143246314Y-97956000D01*
X142474885Y-99575047D02*
X142474885Y-97875047D01*
X141789171Y-97875047D01*
X141617742Y-97956000D01*
X141532028Y-98036952D01*
X141446314Y-98198857D01*
X141446314Y-98441714D01*
X141532028Y-98603619D01*
X141617742Y-98684571D01*
X141789171Y-98765523D01*
X142474885Y-98765523D01*
X140846314Y-97875047D02*
X139732028Y-97875047D01*
X140332028Y-98522666D01*
X140074885Y-98522666D01*
X139903457Y-98603619D01*
X139817742Y-98684571D01*
X139732028Y-98846476D01*
X139732028Y-99251238D01*
X139817742Y-99413142D01*
X139903457Y-99494095D01*
X140074885Y-99575047D01*
X140589171Y-99575047D01*
X140760600Y-99494095D01*
X140846314Y-99413142D01*
X139046314Y-98036952D02*
X138960600Y-97956000D01*
X138789171Y-97875047D01*
X138360600Y-97875047D01*
X138189171Y-97956000D01*
X138103457Y-98036952D01*
X138017742Y-98198857D01*
X138017742Y-98360761D01*
X138103457Y-98603619D01*
X139132028Y-99575047D01*
X138017742Y-99575047D01*
D11*
X165822285Y-80983200D02*
X165917523Y-80935580D01*
X166060380Y-80935580D01*
X166203238Y-80983200D01*
X166298476Y-81078438D01*
X166346095Y-81173676D01*
X166393714Y-81364152D01*
X166393714Y-81507009D01*
X166346095Y-81697485D01*
X166298476Y-81792723D01*
X166203238Y-81887961D01*
X166060380Y-81935580D01*
X165965142Y-81935580D01*
X165822285Y-81887961D01*
X165774666Y-81840342D01*
X165774666Y-81507009D01*
X165965142Y-81507009D01*
X165155619Y-80935580D02*
X165060380Y-80935580D01*
X164965142Y-80983200D01*
X164917523Y-81030819D01*
X164869904Y-81126057D01*
X164822285Y-81316533D01*
X164822285Y-81554628D01*
X164869904Y-81745104D01*
X164917523Y-81840342D01*
X164965142Y-81887961D01*
X165060380Y-81935580D01*
X165155619Y-81935580D01*
X165250857Y-81887961D01*
X165298476Y-81840342D01*
X165346095Y-81745104D01*
X165393714Y-81554628D01*
X165393714Y-81316533D01*
X165346095Y-81126057D01*
X165298476Y-81030819D01*
X165250857Y-80983200D01*
X165155619Y-80935580D01*
X166774666Y-83523200D02*
X166869904Y-83475580D01*
X167012761Y-83475580D01*
X167155618Y-83523200D01*
X167250856Y-83618438D01*
X167298475Y-83713676D01*
X167346094Y-83904152D01*
X167346094Y-84047009D01*
X167298475Y-84237485D01*
X167250856Y-84332723D01*
X167155618Y-84427961D01*
X167012761Y-84475580D01*
X166917523Y-84475580D01*
X166774666Y-84427961D01*
X166727047Y-84380342D01*
X166727047Y-84047009D01*
X166917523Y-84047009D01*
X166346094Y-83570819D02*
X166298475Y-83523200D01*
X166203237Y-83475580D01*
X165965142Y-83475580D01*
X165869904Y-83523200D01*
X165822285Y-83570819D01*
X165774666Y-83666057D01*
X165774666Y-83761295D01*
X165822285Y-83904152D01*
X166393713Y-84475580D01*
X165774666Y-84475580D01*
X165441332Y-83475580D02*
X164822285Y-83475580D01*
X165155618Y-83856533D01*
X165012761Y-83856533D01*
X164917523Y-83904152D01*
X164869904Y-83951771D01*
X164822285Y-84047009D01*
X164822285Y-84285104D01*
X164869904Y-84380342D01*
X164917523Y-84427961D01*
X165012761Y-84475580D01*
X165298475Y-84475580D01*
X165393713Y-84427961D01*
X165441332Y-84380342D01*
X167250856Y-88555580D02*
X166679428Y-88555580D01*
X166965142Y-89555580D02*
X166965142Y-88555580D01*
X166441332Y-88555580D02*
X165774666Y-89555580D01*
X165774666Y-88555580D02*
X166441332Y-89555580D01*
X165393713Y-89555580D02*
X165393713Y-88555580D01*
X165155618Y-88555580D01*
X165012761Y-88603200D01*
X164917523Y-88698438D01*
X164869904Y-88793676D01*
X164822285Y-88984152D01*
X164822285Y-89127009D01*
X164869904Y-89317485D01*
X164917523Y-89412723D01*
X165012761Y-89507961D01*
X165155618Y-89555580D01*
X165393713Y-89555580D01*
X166774666Y-86063200D02*
X166869904Y-86015580D01*
X167012761Y-86015580D01*
X167155618Y-86063200D01*
X167250856Y-86158438D01*
X167298475Y-86253676D01*
X167346094Y-86444152D01*
X167346094Y-86587009D01*
X167298475Y-86777485D01*
X167250856Y-86872723D01*
X167155618Y-86967961D01*
X167012761Y-87015580D01*
X166917523Y-87015580D01*
X166774666Y-86967961D01*
X166727047Y-86920342D01*
X166727047Y-86587009D01*
X166917523Y-86587009D01*
X166346094Y-86110819D02*
X166298475Y-86063200D01*
X166203237Y-86015580D01*
X165965142Y-86015580D01*
X165869904Y-86063200D01*
X165822285Y-86110819D01*
X165774666Y-86206057D01*
X165774666Y-86301295D01*
X165822285Y-86444152D01*
X166393713Y-87015580D01*
X165774666Y-87015580D01*
X165393713Y-86110819D02*
X165346094Y-86063200D01*
X165250856Y-86015580D01*
X165012761Y-86015580D01*
X164917523Y-86063200D01*
X164869904Y-86110819D01*
X164822285Y-86206057D01*
X164822285Y-86301295D01*
X164869904Y-86444152D01*
X165441332Y-87015580D01*
X164822285Y-87015580D01*
X166774666Y-92095580D02*
X167108000Y-91619390D01*
X167346095Y-92095580D02*
X167346095Y-91095580D01*
X166965142Y-91095580D01*
X166869904Y-91143200D01*
X166822285Y-91190819D01*
X166774666Y-91286057D01*
X166774666Y-91428914D01*
X166822285Y-91524152D01*
X166869904Y-91571771D01*
X166965142Y-91619390D01*
X167346095Y-91619390D01*
X166441333Y-91095580D02*
X165774666Y-92095580D01*
X165774666Y-91095580D02*
X166441333Y-92095580D01*
X165393714Y-92095580D02*
X165393714Y-91095580D01*
X165155619Y-91095580D01*
X165012761Y-91143200D01*
X164917523Y-91238438D01*
X164869904Y-91333676D01*
X164822285Y-91524152D01*
X164822285Y-91667009D01*
X164869904Y-91857485D01*
X164917523Y-91952723D01*
X165012761Y-92047961D01*
X165155619Y-92095580D01*
X165393714Y-92095580D01*
X166774666Y-93683200D02*
X166869904Y-93635580D01*
X167012761Y-93635580D01*
X167155618Y-93683200D01*
X167250856Y-93778438D01*
X167298475Y-93873676D01*
X167346094Y-94064152D01*
X167346094Y-94207009D01*
X167298475Y-94397485D01*
X167250856Y-94492723D01*
X167155618Y-94587961D01*
X167012761Y-94635580D01*
X166917523Y-94635580D01*
X166774666Y-94587961D01*
X166727047Y-94540342D01*
X166727047Y-94207009D01*
X166917523Y-94207009D01*
X166346094Y-93730819D02*
X166298475Y-93683200D01*
X166203237Y-93635580D01*
X165965142Y-93635580D01*
X165869904Y-93683200D01*
X165822285Y-93730819D01*
X165774666Y-93826057D01*
X165774666Y-93921295D01*
X165822285Y-94064152D01*
X166393713Y-94635580D01*
X165774666Y-94635580D01*
X164822285Y-94635580D02*
X165393713Y-94635580D01*
X165107999Y-94635580D02*
X165107999Y-93635580D01*
X165203237Y-93778438D01*
X165298475Y-93873676D01*
X165393713Y-93921295D01*
X166774666Y-96223200D02*
X166869904Y-96175580D01*
X167012761Y-96175580D01*
X167155618Y-96223200D01*
X167250856Y-96318438D01*
X167298475Y-96413676D01*
X167346094Y-96604152D01*
X167346094Y-96747009D01*
X167298475Y-96937485D01*
X167250856Y-97032723D01*
X167155618Y-97127961D01*
X167012761Y-97175580D01*
X166917523Y-97175580D01*
X166774666Y-97127961D01*
X166727047Y-97080342D01*
X166727047Y-96747009D01*
X166917523Y-96747009D01*
X165774666Y-97175580D02*
X166346094Y-97175580D01*
X166060380Y-97175580D02*
X166060380Y-96175580D01*
X166155618Y-96318438D01*
X166250856Y-96413676D01*
X166346094Y-96461295D01*
X165298475Y-97175580D02*
X165107999Y-97175580D01*
X165012761Y-97127961D01*
X164965142Y-97080342D01*
X164869904Y-96937485D01*
X164822285Y-96747009D01*
X164822285Y-96366057D01*
X164869904Y-96270819D01*
X164917523Y-96223200D01*
X165012761Y-96175580D01*
X165203237Y-96175580D01*
X165298475Y-96223200D01*
X165346094Y-96270819D01*
X165393713Y-96366057D01*
X165393713Y-96604152D01*
X165346094Y-96699390D01*
X165298475Y-96747009D01*
X165203237Y-96794628D01*
X165012761Y-96794628D01*
X164917523Y-96747009D01*
X164869904Y-96699390D01*
X164822285Y-96604152D01*
X166774666Y-98763200D02*
X166869904Y-98715580D01*
X167012761Y-98715580D01*
X167155618Y-98763200D01*
X167250856Y-98858438D01*
X167298475Y-98953676D01*
X167346094Y-99144152D01*
X167346094Y-99287009D01*
X167298475Y-99477485D01*
X167250856Y-99572723D01*
X167155618Y-99667961D01*
X167012761Y-99715580D01*
X166917523Y-99715580D01*
X166774666Y-99667961D01*
X166727047Y-99620342D01*
X166727047Y-99287009D01*
X166917523Y-99287009D01*
X165774666Y-99715580D02*
X166346094Y-99715580D01*
X166060380Y-99715580D02*
X166060380Y-98715580D01*
X166155618Y-98858438D01*
X166250856Y-98953676D01*
X166346094Y-99001295D01*
X165203237Y-99144152D02*
X165298475Y-99096533D01*
X165346094Y-99048914D01*
X165393713Y-98953676D01*
X165393713Y-98906057D01*
X165346094Y-98810819D01*
X165298475Y-98763200D01*
X165203237Y-98715580D01*
X165012761Y-98715580D01*
X164917523Y-98763200D01*
X164869904Y-98810819D01*
X164822285Y-98906057D01*
X164822285Y-98953676D01*
X164869904Y-99048914D01*
X164917523Y-99096533D01*
X165012761Y-99144152D01*
X165203237Y-99144152D01*
X165298475Y-99191771D01*
X165346094Y-99239390D01*
X165393713Y-99334628D01*
X165393713Y-99525104D01*
X165346094Y-99620342D01*
X165298475Y-99667961D01*
X165203237Y-99715580D01*
X165012761Y-99715580D01*
X164917523Y-99667961D01*
X164869904Y-99620342D01*
X164822285Y-99525104D01*
X164822285Y-99334628D01*
X164869904Y-99239390D01*
X164917523Y-99191771D01*
X165012761Y-99144152D01*
X166774666Y-101303200D02*
X166869904Y-101255580D01*
X167012761Y-101255580D01*
X167155618Y-101303200D01*
X167250856Y-101398438D01*
X167298475Y-101493676D01*
X167346094Y-101684152D01*
X167346094Y-101827009D01*
X167298475Y-102017485D01*
X167250856Y-102112723D01*
X167155618Y-102207961D01*
X167012761Y-102255580D01*
X166917523Y-102255580D01*
X166774666Y-102207961D01*
X166727047Y-102160342D01*
X166727047Y-101827009D01*
X166917523Y-101827009D01*
X166107999Y-101255580D02*
X166012761Y-101255580D01*
X165917523Y-101303200D01*
X165869904Y-101350819D01*
X165822285Y-101446057D01*
X165774666Y-101636533D01*
X165774666Y-101874628D01*
X165822285Y-102065104D01*
X165869904Y-102160342D01*
X165917523Y-102207961D01*
X166012761Y-102255580D01*
X166107999Y-102255580D01*
X166203237Y-102207961D01*
X166250856Y-102160342D01*
X166298475Y-102065104D01*
X166346094Y-101874628D01*
X166346094Y-101636533D01*
X166298475Y-101446057D01*
X166250856Y-101350819D01*
X166203237Y-101303200D01*
X166107999Y-101255580D01*
X164869904Y-101255580D02*
X165346094Y-101255580D01*
X165393713Y-101731771D01*
X165346094Y-101684152D01*
X165250856Y-101636533D01*
X165012761Y-101636533D01*
X164917523Y-101684152D01*
X164869904Y-101731771D01*
X164822285Y-101827009D01*
X164822285Y-102065104D01*
X164869904Y-102160342D01*
X164917523Y-102207961D01*
X165012761Y-102255580D01*
X165250856Y-102255580D01*
X165346094Y-102207961D01*
X165393713Y-102160342D01*
X166774666Y-103843200D02*
X166869904Y-103795580D01*
X167012761Y-103795580D01*
X167155618Y-103843200D01*
X167250856Y-103938438D01*
X167298475Y-104033676D01*
X167346094Y-104224152D01*
X167346094Y-104367009D01*
X167298475Y-104557485D01*
X167250856Y-104652723D01*
X167155618Y-104747961D01*
X167012761Y-104795580D01*
X166917523Y-104795580D01*
X166774666Y-104747961D01*
X166727047Y-104700342D01*
X166727047Y-104367009D01*
X166917523Y-104367009D01*
X165774666Y-104795580D02*
X166346094Y-104795580D01*
X166060380Y-104795580D02*
X166060380Y-103795580D01*
X166155618Y-103938438D01*
X166250856Y-104033676D01*
X166346094Y-104081295D01*
X165441332Y-103795580D02*
X164774666Y-103795580D01*
X165203237Y-104795580D01*
X166774666Y-106383200D02*
X166869904Y-106335580D01*
X167012761Y-106335580D01*
X167155618Y-106383200D01*
X167250856Y-106478438D01*
X167298475Y-106573676D01*
X167346094Y-106764152D01*
X167346094Y-106907009D01*
X167298475Y-107097485D01*
X167250856Y-107192723D01*
X167155618Y-107287961D01*
X167012761Y-107335580D01*
X166917523Y-107335580D01*
X166774666Y-107287961D01*
X166727047Y-107240342D01*
X166727047Y-106907009D01*
X166917523Y-106907009D01*
X165774666Y-107335580D02*
X166346094Y-107335580D01*
X166060380Y-107335580D02*
X166060380Y-106335580D01*
X166155618Y-106478438D01*
X166250856Y-106573676D01*
X166346094Y-106621295D01*
X164917523Y-106335580D02*
X165107999Y-106335580D01*
X165203237Y-106383200D01*
X165250856Y-106430819D01*
X165346094Y-106573676D01*
X165393713Y-106764152D01*
X165393713Y-107145104D01*
X165346094Y-107240342D01*
X165298475Y-107287961D01*
X165203237Y-107335580D01*
X165012761Y-107335580D01*
X164917523Y-107287961D01*
X164869904Y-107240342D01*
X164822285Y-107145104D01*
X164822285Y-106907009D01*
X164869904Y-106811771D01*
X164917523Y-106764152D01*
X165012761Y-106716533D01*
X165203237Y-106716533D01*
X165298475Y-106764152D01*
X165346094Y-106811771D01*
X165393713Y-106907009D01*
X166774666Y-108923200D02*
X166869904Y-108875580D01*
X167012761Y-108875580D01*
X167155618Y-108923200D01*
X167250856Y-109018438D01*
X167298475Y-109113676D01*
X167346094Y-109304152D01*
X167346094Y-109447009D01*
X167298475Y-109637485D01*
X167250856Y-109732723D01*
X167155618Y-109827961D01*
X167012761Y-109875580D01*
X166917523Y-109875580D01*
X166774666Y-109827961D01*
X166727047Y-109780342D01*
X166727047Y-109447009D01*
X166917523Y-109447009D01*
X166107999Y-108875580D02*
X166012761Y-108875580D01*
X165917523Y-108923200D01*
X165869904Y-108970819D01*
X165822285Y-109066057D01*
X165774666Y-109256533D01*
X165774666Y-109494628D01*
X165822285Y-109685104D01*
X165869904Y-109780342D01*
X165917523Y-109827961D01*
X166012761Y-109875580D01*
X166107999Y-109875580D01*
X166203237Y-109827961D01*
X166250856Y-109780342D01*
X166298475Y-109685104D01*
X166346094Y-109494628D01*
X166346094Y-109256533D01*
X166298475Y-109066057D01*
X166250856Y-108970819D01*
X166203237Y-108923200D01*
X166107999Y-108875580D01*
X164917523Y-109208914D02*
X164917523Y-109875580D01*
X165155618Y-108827961D02*
X165393713Y-109542247D01*
X164774666Y-109542247D01*
X131678276Y-86297660D02*
X131773514Y-86250040D01*
X131916371Y-86250040D01*
X132059228Y-86297660D01*
X132154466Y-86392898D01*
X132202085Y-86488136D01*
X132249704Y-86678612D01*
X132249704Y-86821469D01*
X132202085Y-87011945D01*
X132154466Y-87107183D01*
X132059228Y-87202421D01*
X131916371Y-87250040D01*
X131821133Y-87250040D01*
X131678276Y-87202421D01*
X131630657Y-87154802D01*
X131630657Y-86821469D01*
X131821133Y-86821469D01*
X131297323Y-86250040D02*
X130678276Y-86250040D01*
X131011609Y-86630993D01*
X130868752Y-86630993D01*
X130773514Y-86678612D01*
X130725895Y-86726231D01*
X130678276Y-86821469D01*
X130678276Y-87059564D01*
X130725895Y-87154802D01*
X130773514Y-87202421D01*
X130868752Y-87250040D01*
X131154466Y-87250040D01*
X131249704Y-87202421D01*
X131297323Y-87154802D01*
X129821133Y-86250040D02*
X130011609Y-86250040D01*
X130106847Y-86297660D01*
X130154466Y-86345279D01*
X130249704Y-86488136D01*
X130297323Y-86678612D01*
X130297323Y-87059564D01*
X130249704Y-87154802D01*
X130202085Y-87202421D01*
X130106847Y-87250040D01*
X129916371Y-87250040D01*
X129821133Y-87202421D01*
X129773514Y-87154802D01*
X129725895Y-87059564D01*
X129725895Y-86821469D01*
X129773514Y-86726231D01*
X129821133Y-86678612D01*
X129916371Y-86630993D01*
X130106847Y-86630993D01*
X130202085Y-86678612D01*
X130249704Y-86726231D01*
X130297323Y-86821469D01*
X131678276Y-88827890D02*
X131773514Y-88780270D01*
X131916371Y-88780270D01*
X132059228Y-88827890D01*
X132154466Y-88923128D01*
X132202085Y-89018366D01*
X132249704Y-89208842D01*
X132249704Y-89351699D01*
X132202085Y-89542175D01*
X132154466Y-89637413D01*
X132059228Y-89732651D01*
X131916371Y-89780270D01*
X131821133Y-89780270D01*
X131678276Y-89732651D01*
X131630657Y-89685032D01*
X131630657Y-89351699D01*
X131821133Y-89351699D01*
X131297323Y-88780270D02*
X130678276Y-88780270D01*
X131011609Y-89161223D01*
X130868752Y-89161223D01*
X130773514Y-89208842D01*
X130725895Y-89256461D01*
X130678276Y-89351699D01*
X130678276Y-89589794D01*
X130725895Y-89685032D01*
X130773514Y-89732651D01*
X130868752Y-89780270D01*
X131154466Y-89780270D01*
X131249704Y-89732651D01*
X131297323Y-89685032D01*
X130202085Y-89780270D02*
X130011609Y-89780270D01*
X129916371Y-89732651D01*
X129868752Y-89685032D01*
X129773514Y-89542175D01*
X129725895Y-89351699D01*
X129725895Y-88970747D01*
X129773514Y-88875509D01*
X129821133Y-88827890D01*
X129916371Y-88780270D01*
X130106847Y-88780270D01*
X130202085Y-88827890D01*
X130249704Y-88875509D01*
X130297323Y-88970747D01*
X130297323Y-89208842D01*
X130249704Y-89304080D01*
X130202085Y-89351699D01*
X130106847Y-89399318D01*
X129916371Y-89399318D01*
X129821133Y-89351699D01*
X129773514Y-89304080D01*
X129725895Y-89208842D01*
X131678276Y-91358120D02*
X131773514Y-91310500D01*
X131916371Y-91310500D01*
X132059228Y-91358120D01*
X132154466Y-91453358D01*
X132202085Y-91548596D01*
X132249704Y-91739072D01*
X132249704Y-91881929D01*
X132202085Y-92072405D01*
X132154466Y-92167643D01*
X132059228Y-92262881D01*
X131916371Y-92310500D01*
X131821133Y-92310500D01*
X131678276Y-92262881D01*
X131630657Y-92215262D01*
X131630657Y-91881929D01*
X131821133Y-91881929D01*
X131297323Y-91310500D02*
X130678276Y-91310500D01*
X131011609Y-91691453D01*
X130868752Y-91691453D01*
X130773514Y-91739072D01*
X130725895Y-91786691D01*
X130678276Y-91881929D01*
X130678276Y-92120024D01*
X130725895Y-92215262D01*
X130773514Y-92262881D01*
X130868752Y-92310500D01*
X131154466Y-92310500D01*
X131249704Y-92262881D01*
X131297323Y-92215262D01*
X129821133Y-91643834D02*
X129821133Y-92310500D01*
X130059228Y-91262881D02*
X130297323Y-91977167D01*
X129678276Y-91977167D01*
X145168024Y-100702131D02*
X144977548Y-101235464D01*
X144787072Y-100702131D01*
X144063262Y-101235464D02*
X144520405Y-101235464D01*
X144291834Y-101235464D02*
X144291834Y-100435464D01*
X144368024Y-100549750D01*
X144444215Y-100625940D01*
X144520405Y-100664036D01*
X143720405Y-101159274D02*
X143682310Y-101197369D01*
X143720405Y-101235464D01*
X143758500Y-101197369D01*
X143720405Y-101159274D01*
X143720405Y-101235464D01*
X142920405Y-101235464D02*
X143377548Y-101235464D01*
X143148977Y-101235464D02*
X143148977Y-100435464D01*
X143225167Y-100549750D01*
X143301358Y-100625940D01*
X143377548Y-100664036D01*
X141739453Y-101540226D02*
X141777548Y-101502131D01*
X141853739Y-101387845D01*
X141891834Y-101311655D01*
X141929929Y-101197369D01*
X141968024Y-101006893D01*
X141968024Y-100854512D01*
X141929929Y-100664036D01*
X141891834Y-100549750D01*
X141853739Y-100473560D01*
X141777548Y-100359274D01*
X141739453Y-100321179D01*
X141472786Y-100511655D02*
X141434691Y-100473560D01*
X141358500Y-100435464D01*
X141168024Y-100435464D01*
X141091834Y-100473560D01*
X141053739Y-100511655D01*
X141015643Y-100587845D01*
X141015643Y-100664036D01*
X141053739Y-100778321D01*
X141510881Y-101235464D01*
X141015643Y-101235464D01*
X140520405Y-100435464D02*
X140444215Y-100435464D01*
X140368024Y-100473560D01*
X140329929Y-100511655D01*
X140291834Y-100587845D01*
X140253739Y-100740226D01*
X140253739Y-100930702D01*
X140291834Y-101083083D01*
X140329929Y-101159274D01*
X140368024Y-101197369D01*
X140444215Y-101235464D01*
X140520405Y-101235464D01*
X140596596Y-101197369D01*
X140634691Y-101159274D01*
X140672786Y-101083083D01*
X140710881Y-100930702D01*
X140710881Y-100740226D01*
X140672786Y-100587845D01*
X140634691Y-100511655D01*
X140596596Y-100473560D01*
X140520405Y-100435464D01*
X139948977Y-100511655D02*
X139910881Y-100473560D01*
X139834691Y-100435464D01*
X139644215Y-100435464D01*
X139568024Y-100473560D01*
X139529929Y-100511655D01*
X139491834Y-100587845D01*
X139491834Y-100664036D01*
X139529929Y-100778321D01*
X139987072Y-101235464D01*
X139491834Y-101235464D01*
X138729929Y-101235464D02*
X139187072Y-101235464D01*
X138958500Y-101235464D02*
X138958500Y-100435464D01*
X139034691Y-100549750D01*
X139110881Y-100625940D01*
X139187072Y-100664036D01*
X138387072Y-100930702D02*
X137777548Y-100930702D01*
X137244215Y-100435464D02*
X137168024Y-100435464D01*
X137091834Y-100473560D01*
X137053739Y-100511655D01*
X137015643Y-100587845D01*
X136977548Y-100740226D01*
X136977548Y-100930702D01*
X137015643Y-101083083D01*
X137053739Y-101159274D01*
X137091834Y-101197369D01*
X137168024Y-101235464D01*
X137244215Y-101235464D01*
X137320405Y-101197369D01*
X137358500Y-101159274D01*
X137396596Y-101083083D01*
X137434691Y-100930702D01*
X137434691Y-100740226D01*
X137396596Y-100587845D01*
X137358500Y-100511655D01*
X137320405Y-100473560D01*
X137244215Y-100435464D01*
X136520405Y-100778321D02*
X136596596Y-100740226D01*
X136634691Y-100702131D01*
X136672786Y-100625940D01*
X136672786Y-100587845D01*
X136634691Y-100511655D01*
X136596596Y-100473560D01*
X136520405Y-100435464D01*
X136368024Y-100435464D01*
X136291834Y-100473560D01*
X136253739Y-100511655D01*
X136215643Y-100587845D01*
X136215643Y-100625940D01*
X136253739Y-100702131D01*
X136291834Y-100740226D01*
X136368024Y-100778321D01*
X136520405Y-100778321D01*
X136596596Y-100816417D01*
X136634691Y-100854512D01*
X136672786Y-100930702D01*
X136672786Y-101083083D01*
X136634691Y-101159274D01*
X136596596Y-101197369D01*
X136520405Y-101235464D01*
X136368024Y-101235464D01*
X136291834Y-101197369D01*
X136253739Y-101159274D01*
X136215643Y-101083083D01*
X136215643Y-100930702D01*
X136253739Y-100854512D01*
X136291834Y-100816417D01*
X136368024Y-100778321D01*
X135948977Y-101540226D02*
X135910881Y-101502131D01*
X135834691Y-101387845D01*
X135796596Y-101311655D01*
X135758500Y-101197369D01*
X135720405Y-101006893D01*
X135720405Y-100854512D01*
X135758500Y-100664036D01*
X135796596Y-100549750D01*
X135834691Y-100473560D01*
X135910881Y-100359274D01*
X135948977Y-100321179D01*
X163901380Y-108934619D02*
X163901380Y-108458428D01*
X162901380Y-108458428D01*
X163377571Y-109267952D02*
X163377571Y-109601285D01*
X163901380Y-109744142D02*
X163901380Y-109267952D01*
X162901380Y-109267952D01*
X162901380Y-109744142D01*
X163901380Y-110172714D02*
X162901380Y-110172714D01*
X162901380Y-110410809D01*
X162949000Y-110553666D01*
X163044238Y-110648904D01*
X163139476Y-110696523D01*
X163329952Y-110744142D01*
X163472809Y-110744142D01*
X163663285Y-110696523D01*
X163758523Y-110648904D01*
X163853761Y-110553666D01*
X163901380Y-110410809D01*
X163901380Y-110172714D01*
X163901380Y-111934619D02*
X162901380Y-111934619D01*
X162901380Y-112172714D01*
X162949000Y-112315571D01*
X163044238Y-112410809D01*
X163139476Y-112458428D01*
X163329952Y-112506047D01*
X163472809Y-112506047D01*
X163663285Y-112458428D01*
X163758523Y-112410809D01*
X163853761Y-112315571D01*
X163901380Y-112172714D01*
X163901380Y-111934619D01*
X162901380Y-113125095D02*
X162901380Y-113315571D01*
X162949000Y-113410809D01*
X163044238Y-113506047D01*
X163234714Y-113553666D01*
X163568047Y-113553666D01*
X163758523Y-113506047D01*
X163853761Y-113410809D01*
X163901380Y-113315571D01*
X163901380Y-113125095D01*
X163853761Y-113029857D01*
X163758523Y-112934619D01*
X163568047Y-112887000D01*
X163234714Y-112887000D01*
X163044238Y-112934619D01*
X162949000Y-113029857D01*
X162901380Y-113125095D01*
X162901380Y-113982238D02*
X163710904Y-113982238D01*
X163806142Y-114029857D01*
X163853761Y-114077476D01*
X163901380Y-114172714D01*
X163901380Y-114363190D01*
X163853761Y-114458428D01*
X163806142Y-114506047D01*
X163710904Y-114553666D01*
X162901380Y-114553666D01*
X162901380Y-114887000D02*
X162901380Y-115458428D01*
X163901380Y-115172714D02*
X162901380Y-115172714D01*
X155509980Y-109228333D02*
X155509980Y-109847380D01*
X155890933Y-109514047D01*
X155890933Y-109656904D01*
X155938552Y-109752142D01*
X155986171Y-109799761D01*
X156081409Y-109847380D01*
X156319504Y-109847380D01*
X156414742Y-109799761D01*
X156462361Y-109752142D01*
X156509980Y-109656904D01*
X156509980Y-109371190D01*
X156462361Y-109275952D01*
X156414742Y-109228333D01*
X155843314Y-110180714D02*
X156509980Y-110418809D01*
X155843314Y-110656904D01*
X155509980Y-110942619D02*
X155509980Y-111561666D01*
X155890933Y-111228333D01*
X155890933Y-111371190D01*
X155938552Y-111466428D01*
X155986171Y-111514047D01*
X156081409Y-111561666D01*
X156319504Y-111561666D01*
X156414742Y-111514047D01*
X156462361Y-111466428D01*
X156509980Y-111371190D01*
X156509980Y-111085476D01*
X156462361Y-110990238D01*
X156414742Y-110942619D01*
X156605219Y-111752142D02*
X156605219Y-112514047D01*
X156509980Y-112752142D02*
X155509980Y-112752142D01*
X156224266Y-113085476D01*
X155509980Y-113418809D01*
X156509980Y-113418809D01*
X156414742Y-114466428D02*
X156462361Y-114418809D01*
X156509980Y-114275952D01*
X156509980Y-114180714D01*
X156462361Y-114037857D01*
X156367123Y-113942619D01*
X156271885Y-113895000D01*
X156081409Y-113847380D01*
X155938552Y-113847380D01*
X155748076Y-113895000D01*
X155652838Y-113942619D01*
X155557600Y-114037857D01*
X155509980Y-114180714D01*
X155509980Y-114275952D01*
X155557600Y-114418809D01*
X155605219Y-114466428D01*
X155509980Y-114895000D02*
X156319504Y-114895000D01*
X156414742Y-114942619D01*
X156462361Y-114990238D01*
X156509980Y-115085476D01*
X156509980Y-115275952D01*
X156462361Y-115371190D01*
X156414742Y-115418809D01*
X156319504Y-115466428D01*
X155509980Y-115466428D01*
X160589980Y-113109523D02*
X160589980Y-113728571D01*
X160970933Y-113395238D01*
X160970933Y-113538095D01*
X161018552Y-113633333D01*
X161066171Y-113680952D01*
X161161409Y-113728571D01*
X161399504Y-113728571D01*
X161494742Y-113680952D01*
X161542361Y-113633333D01*
X161589980Y-113538095D01*
X161589980Y-113252380D01*
X161542361Y-113157142D01*
X161494742Y-113109523D01*
X160923314Y-114061904D02*
X161589980Y-114300000D01*
X160923314Y-114538095D01*
X160589980Y-114823809D02*
X160589980Y-115442857D01*
X160970933Y-115109523D01*
X160970933Y-115252380D01*
X161018552Y-115347619D01*
X161066171Y-115395238D01*
X161161409Y-115442857D01*
X161399504Y-115442857D01*
X161494742Y-115395238D01*
X161542361Y-115347619D01*
X161589980Y-115252380D01*
X161589980Y-114966666D01*
X161542361Y-114871428D01*
X161494742Y-114823809D01*
X152919180Y-110355380D02*
X152919180Y-110974428D01*
X153300133Y-110641095D01*
X153300133Y-110783952D01*
X153347752Y-110879190D01*
X153395371Y-110926809D01*
X153490609Y-110974428D01*
X153728704Y-110974428D01*
X153823942Y-110926809D01*
X153871561Y-110879190D01*
X153919180Y-110783952D01*
X153919180Y-110498238D01*
X153871561Y-110403000D01*
X153823942Y-110355380D01*
X153252514Y-111307761D02*
X153919180Y-111545857D01*
X153252514Y-111783952D01*
X152919180Y-112069666D02*
X152919180Y-112688714D01*
X153300133Y-112355380D01*
X153300133Y-112498238D01*
X153347752Y-112593476D01*
X153395371Y-112641095D01*
X153490609Y-112688714D01*
X153728704Y-112688714D01*
X153823942Y-112641095D01*
X153871561Y-112593476D01*
X153919180Y-112498238D01*
X153919180Y-112212523D01*
X153871561Y-112117285D01*
X153823942Y-112069666D01*
X153395371Y-113879190D02*
X153395371Y-114212523D01*
X153919180Y-114355380D02*
X153919180Y-113879190D01*
X152919180Y-113879190D01*
X152919180Y-114355380D01*
X153919180Y-114783952D02*
X152919180Y-114783952D01*
X153919180Y-115355380D01*
X152919180Y-115355380D01*
X147915380Y-111911000D02*
X147915380Y-111434809D01*
X148391571Y-111387190D01*
X148343952Y-111434809D01*
X148296333Y-111530047D01*
X148296333Y-111768142D01*
X148343952Y-111863380D01*
X148391571Y-111911000D01*
X148486809Y-111958619D01*
X148724904Y-111958619D01*
X148820142Y-111911000D01*
X148867761Y-111863380D01*
X148915380Y-111768142D01*
X148915380Y-111530047D01*
X148867761Y-111434809D01*
X148820142Y-111387190D01*
X148248714Y-112291952D02*
X148915380Y-112530047D01*
X148248714Y-112768142D01*
X148391571Y-113911000D02*
X148391571Y-114244333D01*
X148915380Y-114387190D02*
X148915380Y-113911000D01*
X147915380Y-113911000D01*
X147915380Y-114387190D01*
X148915380Y-114815761D02*
X147915380Y-114815761D01*
X148915380Y-115387190D01*
X147915380Y-115387190D01*
X145299180Y-111831666D02*
X146299180Y-112165000D01*
X145299180Y-112498333D01*
X145775371Y-113165000D02*
X145822990Y-113307857D01*
X145870609Y-113355476D01*
X145965847Y-113403095D01*
X146108704Y-113403095D01*
X146203942Y-113355476D01*
X146251561Y-113307857D01*
X146299180Y-113212619D01*
X146299180Y-112831666D01*
X145299180Y-112831666D01*
X145299180Y-113165000D01*
X145346800Y-113260238D01*
X145394419Y-113307857D01*
X145489657Y-113355476D01*
X145584895Y-113355476D01*
X145680133Y-113307857D01*
X145727752Y-113260238D01*
X145775371Y-113165000D01*
X145775371Y-112831666D01*
X145299180Y-113831666D02*
X146108704Y-113831666D01*
X146203942Y-113879285D01*
X146251561Y-113926904D01*
X146299180Y-114022142D01*
X146299180Y-114212619D01*
X146251561Y-114307857D01*
X146203942Y-114355476D01*
X146108704Y-114403095D01*
X145299180Y-114403095D01*
X146251561Y-114831666D02*
X146299180Y-114974523D01*
X146299180Y-115212619D01*
X146251561Y-115307857D01*
X146203942Y-115355476D01*
X146108704Y-115403095D01*
X146013466Y-115403095D01*
X145918228Y-115355476D01*
X145870609Y-115307857D01*
X145822990Y-115212619D01*
X145775371Y-115022142D01*
X145727752Y-114926904D01*
X145680133Y-114879285D01*
X145584895Y-114831666D01*
X145489657Y-114831666D01*
X145394419Y-114879285D01*
X145346800Y-114926904D01*
X145299180Y-115022142D01*
X145299180Y-115260238D01*
X145346800Y-115403095D01*
X150455380Y-114490523D02*
X150455380Y-114014333D01*
X150931571Y-113966714D01*
X150883952Y-114014333D01*
X150836333Y-114109571D01*
X150836333Y-114347666D01*
X150883952Y-114442904D01*
X150931571Y-114490523D01*
X151026809Y-114538142D01*
X151264904Y-114538142D01*
X151360142Y-114490523D01*
X151407761Y-114442904D01*
X151455380Y-114347666D01*
X151455380Y-114109571D01*
X151407761Y-114014333D01*
X151360142Y-113966714D01*
X150455380Y-114823857D02*
X151455380Y-115157190D01*
X150455380Y-115490523D01*
X143759180Y-113800047D02*
X142759180Y-113800047D01*
X142759180Y-114038142D01*
X142806800Y-114181000D01*
X142902038Y-114276238D01*
X142997276Y-114323857D01*
X143187752Y-114371476D01*
X143330609Y-114371476D01*
X143521085Y-114323857D01*
X143616323Y-114276238D01*
X143711561Y-114181000D01*
X143759180Y-114038142D01*
X143759180Y-113800047D01*
X143378228Y-114800047D02*
X143378228Y-115561952D01*
X141219180Y-113800047D02*
X140219180Y-113800047D01*
X140219180Y-114038142D01*
X140266800Y-114181000D01*
X140362038Y-114276238D01*
X140457276Y-114323857D01*
X140647752Y-114371476D01*
X140790609Y-114371476D01*
X140981085Y-114323857D01*
X141076323Y-114276238D01*
X141171561Y-114181000D01*
X141219180Y-114038142D01*
X141219180Y-113800047D01*
X140838228Y-114800047D02*
X140838228Y-115561952D01*
X141219180Y-115181000D02*
X140457276Y-115181000D01*
X136091561Y-113030142D02*
X136139180Y-113172999D01*
X136139180Y-113411094D01*
X136091561Y-113506332D01*
X136043942Y-113553951D01*
X135948704Y-113601570D01*
X135853466Y-113601570D01*
X135758228Y-113553951D01*
X135710609Y-113506332D01*
X135662990Y-113411094D01*
X135615371Y-113220618D01*
X135567752Y-113125380D01*
X135520133Y-113077761D01*
X135424895Y-113030142D01*
X135329657Y-113030142D01*
X135234419Y-113077761D01*
X135186800Y-113125380D01*
X135139180Y-113220618D01*
X135139180Y-113458713D01*
X135186800Y-113601570D01*
X136139180Y-114030142D02*
X135139180Y-114030142D01*
X135139180Y-114268237D01*
X135186800Y-114411094D01*
X135282038Y-114506332D01*
X135377276Y-114553951D01*
X135567752Y-114601570D01*
X135710609Y-114601570D01*
X135901085Y-114553951D01*
X135996323Y-114506332D01*
X136091561Y-114411094D01*
X136139180Y-114268237D01*
X136139180Y-114030142D01*
X135853466Y-114982523D02*
X135853466Y-115458713D01*
X136139180Y-114887285D02*
X135139180Y-115220618D01*
X136139180Y-115553951D01*
X133551561Y-113053951D02*
X133599180Y-113196808D01*
X133599180Y-113434904D01*
X133551561Y-113530142D01*
X133503942Y-113577761D01*
X133408704Y-113625380D01*
X133313466Y-113625380D01*
X133218228Y-113577761D01*
X133170609Y-113530142D01*
X133122990Y-113434904D01*
X133075371Y-113244428D01*
X133027752Y-113149189D01*
X132980133Y-113101570D01*
X132884895Y-113053951D01*
X132789657Y-113053951D01*
X132694419Y-113101570D01*
X132646800Y-113149189D01*
X132599180Y-113244428D01*
X132599180Y-113482523D01*
X132646800Y-113625380D01*
X133503942Y-114625380D02*
X133551561Y-114577761D01*
X133599180Y-114434904D01*
X133599180Y-114339666D01*
X133551561Y-114196808D01*
X133456323Y-114101570D01*
X133361085Y-114053951D01*
X133170609Y-114006332D01*
X133027752Y-114006332D01*
X132837276Y-114053951D01*
X132742038Y-114101570D01*
X132646800Y-114196808D01*
X132599180Y-114339666D01*
X132599180Y-114434904D01*
X132646800Y-114577761D01*
X132694419Y-114625380D01*
X133599180Y-115530142D02*
X133599180Y-115053951D01*
X132599180Y-115053951D01*
X158097600Y-113411095D02*
X158049980Y-113315857D01*
X158049980Y-113173000D01*
X158097600Y-113030142D01*
X158192838Y-112934904D01*
X158288076Y-112887285D01*
X158478552Y-112839666D01*
X158621409Y-112839666D01*
X158811885Y-112887285D01*
X158907123Y-112934904D01*
X159002361Y-113030142D01*
X159049980Y-113173000D01*
X159049980Y-113268238D01*
X159002361Y-113411095D01*
X158954742Y-113458714D01*
X158621409Y-113458714D01*
X158621409Y-113268238D01*
X159049980Y-113887285D02*
X158049980Y-113887285D01*
X159049980Y-114458714D01*
X158049980Y-114458714D01*
X159049980Y-114934904D02*
X158049980Y-114934904D01*
X158049980Y-115173000D01*
X158097600Y-115315857D01*
X158192838Y-115411095D01*
X158288076Y-115458714D01*
X158478552Y-115506333D01*
X158621409Y-115506333D01*
X158811885Y-115458714D01*
X158907123Y-115411095D01*
X159002361Y-115315857D01*
X159049980Y-115173000D01*
X159049980Y-114934904D01*
X137777600Y-113411095D02*
X137729980Y-113315857D01*
X137729980Y-113173000D01*
X137777600Y-113030142D01*
X137872838Y-112934904D01*
X137968076Y-112887285D01*
X138158552Y-112839666D01*
X138301409Y-112839666D01*
X138491885Y-112887285D01*
X138587123Y-112934904D01*
X138682361Y-113030142D01*
X138729980Y-113173000D01*
X138729980Y-113268238D01*
X138682361Y-113411095D01*
X138634742Y-113458714D01*
X138301409Y-113458714D01*
X138301409Y-113268238D01*
X138729980Y-113887285D02*
X137729980Y-113887285D01*
X138729980Y-114458714D01*
X137729980Y-114458714D01*
X138729980Y-114934904D02*
X137729980Y-114934904D01*
X137729980Y-115173000D01*
X137777600Y-115315857D01*
X137872838Y-115411095D01*
X137968076Y-115458714D01*
X138158552Y-115506333D01*
X138301409Y-115506333D01*
X138491885Y-115458714D01*
X138587123Y-115411095D01*
X138682361Y-115315857D01*
X138729980Y-115173000D01*
X138729980Y-114934904D01*
X131678276Y-81237200D02*
X131773514Y-81189580D01*
X131916372Y-81189580D01*
X132059229Y-81237200D01*
X132154467Y-81332438D01*
X132202086Y-81427676D01*
X132249705Y-81618152D01*
X132249705Y-81761009D01*
X132202086Y-81951485D01*
X132154467Y-82046723D01*
X132059229Y-82141961D01*
X131916372Y-82189580D01*
X131821133Y-82189580D01*
X131678276Y-82141961D01*
X131630657Y-82094342D01*
X131630657Y-81761009D01*
X131821133Y-81761009D01*
X131202086Y-82189580D02*
X131202086Y-81189580D01*
X130630657Y-82189580D01*
X130630657Y-81189580D01*
X130154467Y-82189580D02*
X130154467Y-81189580D01*
X129916372Y-81189580D01*
X129773514Y-81237200D01*
X129678276Y-81332438D01*
X129630657Y-81427676D01*
X129583038Y-81618152D01*
X129583038Y-81761009D01*
X129630657Y-81951485D01*
X129678276Y-82046723D01*
X129773514Y-82141961D01*
X129916372Y-82189580D01*
X130154467Y-82189580D01*
X132202086Y-84196001D02*
X131868752Y-84196001D01*
X131725895Y-84719810D02*
X132202086Y-84719810D01*
X132202086Y-83719810D01*
X131725895Y-83719810D01*
X131297324Y-84719810D02*
X131297324Y-83719810D01*
X130725895Y-84719810D01*
X130725895Y-83719810D01*
X131678276Y-93888350D02*
X131773514Y-93840730D01*
X131916371Y-93840730D01*
X132059228Y-93888350D01*
X132154466Y-93983588D01*
X132202085Y-94078826D01*
X132249704Y-94269302D01*
X132249704Y-94412159D01*
X132202085Y-94602635D01*
X132154466Y-94697873D01*
X132059228Y-94793111D01*
X131916371Y-94840730D01*
X131821133Y-94840730D01*
X131678276Y-94793111D01*
X131630657Y-94745492D01*
X131630657Y-94412159D01*
X131821133Y-94412159D01*
X131297323Y-93840730D02*
X130678276Y-93840730D01*
X131011609Y-94221683D01*
X130868752Y-94221683D01*
X130773514Y-94269302D01*
X130725895Y-94316921D01*
X130678276Y-94412159D01*
X130678276Y-94650254D01*
X130725895Y-94745492D01*
X130773514Y-94793111D01*
X130868752Y-94840730D01*
X131154466Y-94840730D01*
X131249704Y-94793111D01*
X131297323Y-94745492D01*
X129773514Y-93840730D02*
X130249704Y-93840730D01*
X130297323Y-94316921D01*
X130249704Y-94269302D01*
X130154466Y-94221683D01*
X129916371Y-94221683D01*
X129821133Y-94269302D01*
X129773514Y-94316921D01*
X129725895Y-94412159D01*
X129725895Y-94650254D01*
X129773514Y-94745492D01*
X129821133Y-94793111D01*
X129916371Y-94840730D01*
X130154466Y-94840730D01*
X130249704Y-94793111D01*
X130297323Y-94745492D01*
X131678276Y-96418580D02*
X131773514Y-96370960D01*
X131916371Y-96370960D01*
X132059228Y-96418580D01*
X132154466Y-96513818D01*
X132202085Y-96609056D01*
X132249704Y-96799532D01*
X132249704Y-96942389D01*
X132202085Y-97132865D01*
X132154466Y-97228103D01*
X132059228Y-97323341D01*
X131916371Y-97370960D01*
X131821133Y-97370960D01*
X131678276Y-97323341D01*
X131630657Y-97275722D01*
X131630657Y-96942389D01*
X131821133Y-96942389D01*
X131297323Y-96370960D02*
X130678276Y-96370960D01*
X131011609Y-96751913D01*
X130868752Y-96751913D01*
X130773514Y-96799532D01*
X130725895Y-96847151D01*
X130678276Y-96942389D01*
X130678276Y-97180484D01*
X130725895Y-97275722D01*
X130773514Y-97323341D01*
X130868752Y-97370960D01*
X131154466Y-97370960D01*
X131249704Y-97323341D01*
X131297323Y-97275722D01*
X130297323Y-96466199D02*
X130249704Y-96418580D01*
X130154466Y-96370960D01*
X129916371Y-96370960D01*
X129821133Y-96418580D01*
X129773514Y-96466199D01*
X129725895Y-96561437D01*
X129725895Y-96656675D01*
X129773514Y-96799532D01*
X130344942Y-97370960D01*
X129725895Y-97370960D01*
X131678276Y-98948810D02*
X131773514Y-98901190D01*
X131916371Y-98901190D01*
X132059228Y-98948810D01*
X132154466Y-99044048D01*
X132202085Y-99139286D01*
X132249704Y-99329762D01*
X132249704Y-99472619D01*
X132202085Y-99663095D01*
X132154466Y-99758333D01*
X132059228Y-99853571D01*
X131916371Y-99901190D01*
X131821133Y-99901190D01*
X131678276Y-99853571D01*
X131630657Y-99805952D01*
X131630657Y-99472619D01*
X131821133Y-99472619D01*
X131297323Y-98901190D02*
X130678276Y-98901190D01*
X131011609Y-99282143D01*
X130868752Y-99282143D01*
X130773514Y-99329762D01*
X130725895Y-99377381D01*
X130678276Y-99472619D01*
X130678276Y-99710714D01*
X130725895Y-99805952D01*
X130773514Y-99853571D01*
X130868752Y-99901190D01*
X131154466Y-99901190D01*
X131249704Y-99853571D01*
X131297323Y-99805952D01*
X130344942Y-98901190D02*
X129725895Y-98901190D01*
X130059228Y-99282143D01*
X129916371Y-99282143D01*
X129821133Y-99329762D01*
X129773514Y-99377381D01*
X129725895Y-99472619D01*
X129725895Y-99710714D01*
X129773514Y-99805952D01*
X129821133Y-99853571D01*
X129916371Y-99901190D01*
X130202085Y-99901190D01*
X130297323Y-99853571D01*
X130344942Y-99805952D01*
X131678276Y-101479040D02*
X131773514Y-101431420D01*
X131916371Y-101431420D01*
X132059228Y-101479040D01*
X132154466Y-101574278D01*
X132202085Y-101669516D01*
X132249704Y-101859992D01*
X132249704Y-102002849D01*
X132202085Y-102193325D01*
X132154466Y-102288563D01*
X132059228Y-102383801D01*
X131916371Y-102431420D01*
X131821133Y-102431420D01*
X131678276Y-102383801D01*
X131630657Y-102336182D01*
X131630657Y-102002849D01*
X131821133Y-102002849D01*
X131249704Y-101526659D02*
X131202085Y-101479040D01*
X131106847Y-101431420D01*
X130868752Y-101431420D01*
X130773514Y-101479040D01*
X130725895Y-101526659D01*
X130678276Y-101621897D01*
X130678276Y-101717135D01*
X130725895Y-101859992D01*
X131297323Y-102431420D01*
X130678276Y-102431420D01*
X129773514Y-101431420D02*
X130249704Y-101431420D01*
X130297323Y-101907611D01*
X130249704Y-101859992D01*
X130154466Y-101812373D01*
X129916371Y-101812373D01*
X129821133Y-101859992D01*
X129773514Y-101907611D01*
X129725895Y-102002849D01*
X129725895Y-102240944D01*
X129773514Y-102336182D01*
X129821133Y-102383801D01*
X129916371Y-102431420D01*
X130154466Y-102431420D01*
X130249704Y-102383801D01*
X130297323Y-102336182D01*
X131678276Y-104009270D02*
X131773514Y-103961650D01*
X131916371Y-103961650D01*
X132059228Y-104009270D01*
X132154466Y-104104508D01*
X132202085Y-104199746D01*
X132249704Y-104390222D01*
X132249704Y-104533079D01*
X132202085Y-104723555D01*
X132154466Y-104818793D01*
X132059228Y-104914031D01*
X131916371Y-104961650D01*
X131821133Y-104961650D01*
X131678276Y-104914031D01*
X131630657Y-104866412D01*
X131630657Y-104533079D01*
X131821133Y-104533079D01*
X131249704Y-104056889D02*
X131202085Y-104009270D01*
X131106847Y-103961650D01*
X130868752Y-103961650D01*
X130773514Y-104009270D01*
X130725895Y-104056889D01*
X130678276Y-104152127D01*
X130678276Y-104247365D01*
X130725895Y-104390222D01*
X131297323Y-104961650D01*
X130678276Y-104961650D01*
X129821133Y-103961650D02*
X130011609Y-103961650D01*
X130106847Y-104009270D01*
X130154466Y-104056889D01*
X130249704Y-104199746D01*
X130297323Y-104390222D01*
X130297323Y-104771174D01*
X130249704Y-104866412D01*
X130202085Y-104914031D01*
X130106847Y-104961650D01*
X129916371Y-104961650D01*
X129821133Y-104914031D01*
X129773514Y-104866412D01*
X129725895Y-104771174D01*
X129725895Y-104533079D01*
X129773514Y-104437841D01*
X129821133Y-104390222D01*
X129916371Y-104342603D01*
X130106847Y-104342603D01*
X130202085Y-104390222D01*
X130249704Y-104437841D01*
X130297323Y-104533079D01*
X131678276Y-106539500D02*
X131773514Y-106491880D01*
X131916371Y-106491880D01*
X132059228Y-106539500D01*
X132154466Y-106634738D01*
X132202085Y-106729976D01*
X132249704Y-106920452D01*
X132249704Y-107063309D01*
X132202085Y-107253785D01*
X132154466Y-107349023D01*
X132059228Y-107444261D01*
X131916371Y-107491880D01*
X131821133Y-107491880D01*
X131678276Y-107444261D01*
X131630657Y-107396642D01*
X131630657Y-107063309D01*
X131821133Y-107063309D01*
X131249704Y-106587119D02*
X131202085Y-106539500D01*
X131106847Y-106491880D01*
X130868752Y-106491880D01*
X130773514Y-106539500D01*
X130725895Y-106587119D01*
X130678276Y-106682357D01*
X130678276Y-106777595D01*
X130725895Y-106920452D01*
X131297323Y-107491880D01*
X130678276Y-107491880D01*
X130344942Y-106491880D02*
X129678276Y-106491880D01*
X130106847Y-107491880D01*
X131678276Y-109069730D02*
X131773514Y-109022110D01*
X131916371Y-109022110D01*
X132059228Y-109069730D01*
X132154466Y-109164968D01*
X132202085Y-109260206D01*
X132249704Y-109450682D01*
X132249704Y-109593539D01*
X132202085Y-109784015D01*
X132154466Y-109879253D01*
X132059228Y-109974491D01*
X131916371Y-110022110D01*
X131821133Y-110022110D01*
X131678276Y-109974491D01*
X131630657Y-109926872D01*
X131630657Y-109593539D01*
X131821133Y-109593539D01*
X130678276Y-110022110D02*
X131249704Y-110022110D01*
X130963990Y-110022110D02*
X130963990Y-109022110D01*
X131059228Y-109164968D01*
X131154466Y-109260206D01*
X131249704Y-109307825D01*
X129821133Y-109355444D02*
X129821133Y-110022110D01*
X130059228Y-108974491D02*
X130297323Y-109688777D01*
X129678276Y-109688777D01*
X131678276Y-111599960D02*
X131773514Y-111552340D01*
X131916371Y-111552340D01*
X132059228Y-111599960D01*
X132154466Y-111695198D01*
X132202085Y-111790436D01*
X132249704Y-111980912D01*
X132249704Y-112123769D01*
X132202085Y-112314245D01*
X132154466Y-112409483D01*
X132059228Y-112504721D01*
X131916371Y-112552340D01*
X131821133Y-112552340D01*
X131678276Y-112504721D01*
X131630657Y-112457102D01*
X131630657Y-112123769D01*
X131821133Y-112123769D01*
X130678276Y-112552340D02*
X131249704Y-112552340D01*
X130963990Y-112552340D02*
X130963990Y-111552340D01*
X131059228Y-111695198D01*
X131154466Y-111790436D01*
X131249704Y-111838055D01*
X130297323Y-111647579D02*
X130249704Y-111599960D01*
X130154466Y-111552340D01*
X129916371Y-111552340D01*
X129821133Y-111599960D01*
X129773514Y-111647579D01*
X129725895Y-111742817D01*
X129725895Y-111838055D01*
X129773514Y-111980912D01*
X130344942Y-112552340D01*
X129725895Y-112552340D01*
X131678276Y-114130200D02*
X131773514Y-114082580D01*
X131916371Y-114082580D01*
X132059228Y-114130200D01*
X132154466Y-114225438D01*
X132202085Y-114320676D01*
X132249704Y-114511152D01*
X132249704Y-114654009D01*
X132202085Y-114844485D01*
X132154466Y-114939723D01*
X132059228Y-115034961D01*
X131916371Y-115082580D01*
X131821133Y-115082580D01*
X131678276Y-115034961D01*
X131630657Y-114987342D01*
X131630657Y-114654009D01*
X131821133Y-114654009D01*
X130678276Y-115082580D02*
X131249704Y-115082580D01*
X130963990Y-115082580D02*
X130963990Y-114082580D01*
X131059228Y-114225438D01*
X131154466Y-114320676D01*
X131249704Y-114368295D01*
X130344942Y-114082580D02*
X129725895Y-114082580D01*
X130059228Y-114463533D01*
X129916371Y-114463533D01*
X129821133Y-114511152D01*
X129773514Y-114558771D01*
X129725895Y-114654009D01*
X129725895Y-114892104D01*
X129773514Y-114987342D01*
X129821133Y-115034961D01*
X129916371Y-115082580D01*
X130202085Y-115082580D01*
X130297323Y-115034961D01*
X130344942Y-114987342D01*
X166825466Y-111463200D02*
X166920704Y-111415580D01*
X167063561Y-111415580D01*
X167206418Y-111463200D01*
X167301656Y-111558438D01*
X167349275Y-111653676D01*
X167396894Y-111844152D01*
X167396894Y-111987009D01*
X167349275Y-112177485D01*
X167301656Y-112272723D01*
X167206418Y-112367961D01*
X167063561Y-112415580D01*
X166968323Y-112415580D01*
X166825466Y-112367961D01*
X166777847Y-112320342D01*
X166777847Y-111987009D01*
X166968323Y-111987009D01*
X166158799Y-111415580D02*
X166063561Y-111415580D01*
X165968323Y-111463200D01*
X165920704Y-111510819D01*
X165873085Y-111606057D01*
X165825466Y-111796533D01*
X165825466Y-112034628D01*
X165873085Y-112225104D01*
X165920704Y-112320342D01*
X165968323Y-112367961D01*
X166063561Y-112415580D01*
X166158799Y-112415580D01*
X166254037Y-112367961D01*
X166301656Y-112320342D01*
X166349275Y-112225104D01*
X166396894Y-112034628D01*
X166396894Y-111796533D01*
X166349275Y-111606057D01*
X166301656Y-111510819D01*
X166254037Y-111463200D01*
X166158799Y-111415580D01*
X165444513Y-111510819D02*
X165396894Y-111463200D01*
X165301656Y-111415580D01*
X165063561Y-111415580D01*
X164968323Y-111463200D01*
X164920704Y-111510819D01*
X164873085Y-111606057D01*
X164873085Y-111701295D01*
X164920704Y-111844152D01*
X165492132Y-112415580D01*
X164873085Y-112415580D01*
X166825466Y-114003200D02*
X166920704Y-113955580D01*
X167063561Y-113955580D01*
X167206418Y-114003200D01*
X167301656Y-114098438D01*
X167349275Y-114193676D01*
X167396894Y-114384152D01*
X167396894Y-114527009D01*
X167349275Y-114717485D01*
X167301656Y-114812723D01*
X167206418Y-114907961D01*
X167063561Y-114955580D01*
X166968323Y-114955580D01*
X166825466Y-114907961D01*
X166777847Y-114860342D01*
X166777847Y-114527009D01*
X166968323Y-114527009D01*
X165825466Y-114955580D02*
X166396894Y-114955580D01*
X166111180Y-114955580D02*
X166111180Y-113955580D01*
X166206418Y-114098438D01*
X166301656Y-114193676D01*
X166396894Y-114241295D01*
X164920704Y-113955580D02*
X165396894Y-113955580D01*
X165444513Y-114431771D01*
X165396894Y-114384152D01*
X165301656Y-114336533D01*
X165063561Y-114336533D01*
X164968323Y-114384152D01*
X164920704Y-114431771D01*
X164873085Y-114527009D01*
X164873085Y-114765104D01*
X164920704Y-114860342D01*
X164968323Y-114907961D01*
X165063561Y-114955580D01*
X165301656Y-114955580D01*
X165396894Y-114907961D01*
X165444513Y-114860342D01*
D12*
X151247600Y-105295000D02*
X151247600Y-108095000D01*
X151247600Y-108095000D02*
X153247600Y-108095000D01*
X153247600Y-108095000D02*
X153247600Y-105295000D01*
X153247600Y-105295000D02*
X151247600Y-105295000D01*
X165007600Y-115764000D02*
X165007600Y-118424000D01*
X134467600Y-115764000D02*
X165007600Y-115764000D01*
X134467600Y-118424000D02*
X165007600Y-118424000D01*
X134467600Y-115764000D02*
X134467600Y-118424000D01*
X133197600Y-115764000D02*
X131867600Y-115764000D01*
X131867600Y-115764000D02*
X131867600Y-117094000D01*
D13*
G36*
X147524953Y-89478017D02*
G01*
X147449476Y-89530435D01*
X147378420Y-89591548D01*
X147371619Y-91584918D01*
X147370138Y-91968529D01*
X147368450Y-92304020D01*
X147366504Y-92594068D01*
X147364249Y-92841353D01*
X147361635Y-93048553D01*
X147358611Y-93218348D01*
X147355127Y-93353416D01*
X147351132Y-93456435D01*
X147346575Y-93530086D01*
X147341407Y-93577046D01*
X147335576Y-93599995D01*
X147333519Y-93602739D01*
X147287874Y-93628334D01*
X147226020Y-93653676D01*
X147156999Y-93678466D01*
X147105950Y-93697957D01*
X147096863Y-93699277D01*
X147089084Y-93692838D01*
X147082492Y-93674943D01*
X147076961Y-93641894D01*
X147072369Y-93589996D01*
X147068592Y-93515551D01*
X147065506Y-93414862D01*
X147062988Y-93284233D01*
X147060914Y-93119968D01*
X147059161Y-92918368D01*
X147057605Y-92675737D01*
X147056122Y-92388379D01*
X147055150Y-92178401D01*
X147053685Y-91860740D01*
X147052277Y-91589931D01*
X147050778Y-91362026D01*
X147049040Y-91173077D01*
X147046916Y-91019137D01*
X147044257Y-90896257D01*
X147040915Y-90800489D01*
X147036743Y-90727886D01*
X147031592Y-90674500D01*
X147025314Y-90636383D01*
X147017761Y-90609587D01*
X147008786Y-90590165D01*
X146998240Y-90574168D01*
X146994836Y-90569565D01*
X146913929Y-90495867D01*
X146820397Y-90469154D01*
X146721532Y-90491096D01*
X146700562Y-90502166D01*
X146635633Y-90551599D01*
X146588424Y-90607301D01*
X146585102Y-90613350D01*
X146578479Y-90638421D01*
X146572763Y-90687542D01*
X146567902Y-90763634D01*
X146563841Y-90869618D01*
X146560528Y-91008414D01*
X146557910Y-91182945D01*
X146555933Y-91396129D01*
X146554543Y-91650888D01*
X146553688Y-91950144D01*
X146553314Y-92296816D01*
X146553295Y-92356041D01*
X146552920Y-94036623D01*
X146407617Y-94178491D01*
X146262314Y-94320360D01*
X144564163Y-94320359D01*
X142866013Y-94320359D01*
X142791767Y-94394606D01*
X142729420Y-94486728D01*
X142716233Y-94584413D01*
X142752206Y-94680421D01*
X142791767Y-94728713D01*
X142866013Y-94802960D01*
X145948828Y-94802960D01*
X145931649Y-94871403D01*
X145909262Y-94944260D01*
X145879492Y-95023563D01*
X145879392Y-95023803D01*
X145844313Y-95107760D01*
X143931667Y-95108365D01*
X143610565Y-95108776D01*
X143305568Y-95109767D01*
X143020594Y-95111293D01*
X142759559Y-95113307D01*
X142526382Y-95115762D01*
X142324979Y-95118611D01*
X142159267Y-95121808D01*
X142033163Y-95125305D01*
X141950585Y-95129055D01*
X141917420Y-95132436D01*
X141812241Y-95177350D01*
X141740003Y-95249698D01*
X141704665Y-95339254D01*
X141710185Y-95435794D01*
X141760522Y-95529094D01*
X141762815Y-95531793D01*
X141824109Y-95603060D01*
X143782115Y-95609871D01*
X145740120Y-95616682D01*
X145740120Y-95920560D01*
X143847005Y-95920560D01*
X143480251Y-95920577D01*
X143160857Y-95920770D01*
X142885382Y-95921352D01*
X142650386Y-95922535D01*
X142452430Y-95924531D01*
X142288072Y-95927554D01*
X142153872Y-95931815D01*
X142046390Y-95937527D01*
X141962185Y-95944903D01*
X141897819Y-95954155D01*
X141849849Y-95965496D01*
X141814836Y-95979138D01*
X141789340Y-95995293D01*
X141769920Y-96014175D01*
X141753136Y-96035995D01*
X141742940Y-96050528D01*
X141705441Y-96145040D01*
X141711395Y-96247347D01*
X141759680Y-96340874D01*
X141762815Y-96344593D01*
X141824109Y-96415860D01*
X145838407Y-96429458D01*
X145890864Y-96569662D01*
X145918953Y-96646576D01*
X145937990Y-96702221D01*
X145943320Y-96721612D01*
X145918663Y-96723750D01*
X145847661Y-96725767D01*
X145734771Y-96727627D01*
X145584447Y-96729295D01*
X145401146Y-96730736D01*
X145189322Y-96731912D01*
X144953432Y-96732789D01*
X144697932Y-96733331D01*
X144463770Y-96733501D01*
X144132590Y-96733986D01*
X143834869Y-96735348D01*
X143573099Y-96737545D01*
X143349771Y-96740536D01*
X143167378Y-96744281D01*
X143028410Y-96748739D01*
X142935359Y-96753868D01*
X142891582Y-96759374D01*
X142800751Y-96808279D01*
X142740020Y-96888294D01*
X142714935Y-96986060D01*
X142731039Y-97088216D01*
X142743673Y-97115766D01*
X142757004Y-97139920D01*
X142771695Y-97160761D01*
X142791367Y-97178533D01*
X142819644Y-97193482D01*
X142860146Y-97205856D01*
X142916496Y-97215899D01*
X142992315Y-97223857D01*
X143091224Y-97229976D01*
X143216847Y-97234503D01*
X143372803Y-97237682D01*
X143562716Y-97239761D01*
X143790207Y-97240984D01*
X144058897Y-97241597D01*
X144372409Y-97241847D01*
X144602209Y-97241931D01*
X146286220Y-97242502D01*
X146421946Y-97378283D01*
X146557671Y-97514064D01*
X146554199Y-99192952D01*
X146553513Y-99537342D01*
X146553143Y-99834559D01*
X146553334Y-100088228D01*
X146554326Y-100301976D01*
X146556363Y-100479429D01*
X146559688Y-100624213D01*
X146564543Y-100739955D01*
X146571171Y-100830280D01*
X146579814Y-100898816D01*
X146590716Y-100949188D01*
X146604118Y-100985022D01*
X146620264Y-101009946D01*
X146639396Y-101027584D01*
X146661757Y-101041563D01*
X146678514Y-101050607D01*
X146758946Y-101072983D01*
X146854616Y-101073017D01*
X146935139Y-101050707D01*
X146935327Y-101050607D01*
X146960646Y-101036429D01*
X146982310Y-101020505D01*
X147000605Y-100999008D01*
X147015815Y-100968113D01*
X147028226Y-100923995D01*
X147038122Y-100862829D01*
X147045787Y-100780790D01*
X147051507Y-100674052D01*
X147055567Y-100538791D01*
X147058250Y-100371180D01*
X147059843Y-100167396D01*
X147060629Y-99923612D01*
X147060893Y-99636004D01*
X147060920Y-99363521D01*
X147061112Y-99091550D01*
X147061664Y-98835276D01*
X147062542Y-98599103D01*
X147063712Y-98387439D01*
X147065139Y-98204691D01*
X147066790Y-98055265D01*
X147068630Y-97943569D01*
X147070625Y-97874007D01*
X147072668Y-97850960D01*
X147100894Y-97859170D01*
X147162043Y-97880454D01*
X147225068Y-97903584D01*
X147365720Y-97956209D01*
X147365720Y-99924146D01*
X147365822Y-100292557D01*
X147366167Y-100613506D01*
X147366818Y-100890332D01*
X147367839Y-101126371D01*
X147369292Y-101324962D01*
X147371240Y-101489443D01*
X147373746Y-101623151D01*
X147376871Y-101729425D01*
X147380680Y-101811602D01*
X147385234Y-101873020D01*
X147390596Y-101917017D01*
X147396829Y-101946931D01*
X147403996Y-101966099D01*
X147404083Y-101966268D01*
X147471754Y-102049567D01*
X147562668Y-102089781D01*
X147670356Y-102085031D01*
X147734730Y-102062414D01*
X147759981Y-102051043D01*
X147781974Y-102039238D01*
X147800935Y-102023622D01*
X147817088Y-102000815D01*
X147830657Y-101967440D01*
X147841868Y-101920116D01*
X147850946Y-101855466D01*
X147858115Y-101770110D01*
X147863600Y-101660671D01*
X147867625Y-101523768D01*
X147870416Y-101356025D01*
X147872198Y-101154062D01*
X147873194Y-100914499D01*
X147873630Y-100633960D01*
X147873731Y-100309064D01*
X147873720Y-99973121D01*
X147873720Y-98054160D01*
X148178520Y-98054160D01*
X148178520Y-99973121D01*
X148178625Y-100336711D01*
X148178982Y-100652884D01*
X148179656Y-100925023D01*
X148180712Y-101156509D01*
X148182216Y-101350725D01*
X148184233Y-101511054D01*
X148186827Y-101640878D01*
X148190065Y-101743580D01*
X148194010Y-101822541D01*
X148198728Y-101881146D01*
X148204285Y-101922775D01*
X148210745Y-101950811D01*
X148216883Y-101966268D01*
X148283949Y-102048845D01*
X148371798Y-102089543D01*
X148470113Y-102086650D01*
X148568578Y-102038453D01*
X148582972Y-102027002D01*
X148661120Y-101961244D01*
X148661467Y-100014052D01*
X148661716Y-99702826D01*
X148662328Y-99405517D01*
X148663273Y-99126161D01*
X148664518Y-98868793D01*
X148666034Y-98637447D01*
X148667790Y-98436159D01*
X148669753Y-98268965D01*
X148671892Y-98139898D01*
X148674178Y-98052995D01*
X148676578Y-98012290D01*
X148676922Y-98010504D01*
X148708349Y-97965130D01*
X148781052Y-97922454D01*
X148829928Y-97902554D01*
X148906180Y-97874723D01*
X148961081Y-97855991D01*
X148979573Y-97850960D01*
X148981668Y-97875631D01*
X148983643Y-97946734D01*
X148985465Y-98059898D01*
X148987101Y-98210755D01*
X148988518Y-98394934D01*
X148989681Y-98608068D01*
X148990558Y-98845787D01*
X148991116Y-99103722D01*
X148991320Y-99377504D01*
X148991320Y-100928267D01*
X149065567Y-101002513D01*
X149157018Y-101063379D01*
X149257089Y-101079480D01*
X149353826Y-101050545D01*
X149406438Y-101010315D01*
X149472883Y-100943870D01*
X149479752Y-99230809D01*
X149486620Y-97517748D01*
X149630437Y-97379554D01*
X149774253Y-97241360D01*
X151442698Y-97241360D01*
X151789204Y-97241352D01*
X152088485Y-97241129D01*
X152344117Y-97240386D01*
X152559674Y-97238820D01*
X152738733Y-97236127D01*
X152884869Y-97232004D01*
X153001657Y-97226148D01*
X153092672Y-97218255D01*
X153161490Y-97208022D01*
X153211686Y-97195146D01*
X153246835Y-97179322D01*
X153270512Y-97160249D01*
X153286294Y-97137622D01*
X153297754Y-97111137D01*
X153307552Y-97083114D01*
X153331174Y-96990841D01*
X153322817Y-96920048D01*
X153278635Y-96849918D01*
X153260615Y-96829010D01*
X153186509Y-96746060D01*
X151645107Y-96739130D01*
X150103704Y-96732200D01*
X150120737Y-96664336D01*
X150142997Y-96591960D01*
X150172699Y-96512876D01*
X150172849Y-96512516D01*
X150207928Y-96428560D01*
X152178986Y-96428560D01*
X152552620Y-96428586D01*
X152878779Y-96428510D01*
X153160787Y-96428094D01*
X153401969Y-96427104D01*
X153605649Y-96425304D01*
X153775152Y-96422458D01*
X153913803Y-96418332D01*
X154024926Y-96412688D01*
X154111846Y-96405293D01*
X154177886Y-96395910D01*
X154226373Y-96384304D01*
X154260630Y-96370239D01*
X154283982Y-96353480D01*
X154299753Y-96333790D01*
X154311268Y-96310936D01*
X154321852Y-96284681D01*
X154325175Y-96276512D01*
X154343090Y-96172162D01*
X154314780Y-96072034D01*
X154244045Y-95989172D01*
X154240712Y-95986644D01*
X154226721Y-95976747D01*
X154210758Y-95968141D01*
X154189345Y-95960722D01*
X154159002Y-95954386D01*
X154116250Y-95949030D01*
X154057609Y-95944547D01*
X153979599Y-95940835D01*
X153878741Y-95937789D01*
X153751555Y-95935304D01*
X153594563Y-95933276D01*
X153404284Y-95931601D01*
X153177238Y-95930174D01*
X152909947Y-95928892D01*
X152598931Y-95927649D01*
X152240710Y-95926342D01*
X152227972Y-95926296D01*
X150286720Y-95919333D01*
X150286720Y-95834334D01*
X149794221Y-95834334D01*
X149762291Y-96119488D01*
X149682667Y-96394820D01*
X149556384Y-96656972D01*
X149384477Y-96902589D01*
X149167982Y-97128312D01*
X149117479Y-97172423D01*
X148915097Y-97312839D01*
X148681263Y-97421985D01*
X148426171Y-97497682D01*
X148160017Y-97537750D01*
X147892994Y-97540011D01*
X147635296Y-97502283D01*
X147607011Y-97495357D01*
X147488806Y-97461332D01*
X147368286Y-97420552D01*
X147271148Y-97381727D01*
X147269525Y-97380987D01*
X147022330Y-97240621D01*
X146802896Y-97061289D01*
X146614836Y-96848717D01*
X146461764Y-96608631D01*
X146347294Y-96346759D01*
X146275038Y-96068827D01*
X146248611Y-95780562D01*
X146248562Y-95762880D01*
X146267843Y-95508539D01*
X146326643Y-95261920D01*
X146428269Y-95009656D01*
X146442045Y-94981311D01*
X146509881Y-94852708D01*
X146577606Y-94747738D01*
X146658525Y-94648104D01*
X146765945Y-94535507D01*
X146767006Y-94534445D01*
X146879027Y-94427386D01*
X146977663Y-94346956D01*
X147081078Y-94279968D01*
X147207437Y-94213238D01*
X147213872Y-94210070D01*
X147420111Y-94117906D01*
X147606813Y-94056418D01*
X147791278Y-94021299D01*
X147990805Y-94008244D01*
X148026120Y-94007913D01*
X148317087Y-94031586D01*
X148595252Y-94101907D01*
X148855838Y-94215360D01*
X149094072Y-94368430D01*
X149305177Y-94557603D01*
X149484380Y-94779364D01*
X149626905Y-95030197D01*
X149710857Y-95247987D01*
X149777421Y-95542715D01*
X149794221Y-95834334D01*
X150286720Y-95834334D01*
X150286720Y-95615760D01*
X152218382Y-95615760D01*
X152587670Y-95615769D01*
X152909526Y-95615650D01*
X153187316Y-95615180D01*
X153424409Y-95614135D01*
X153624171Y-95612293D01*
X153789971Y-95609432D01*
X153925175Y-95605329D01*
X154033151Y-95599761D01*
X154117266Y-95592505D01*
X154180888Y-95583339D01*
X154227384Y-95572041D01*
X154260122Y-95558387D01*
X154282468Y-95542155D01*
X154297791Y-95523122D01*
X154309457Y-95501065D01*
X154320375Y-95476769D01*
X154343306Y-95408396D01*
X154350720Y-95358135D01*
X154328290Y-95279116D01*
X154270156Y-95203956D01*
X154190054Y-95148197D01*
X154152776Y-95134193D01*
X154106890Y-95128744D01*
X154011350Y-95123892D01*
X153867298Y-95119653D01*
X153675876Y-95116041D01*
X153438226Y-95113071D01*
X153155491Y-95110758D01*
X152828812Y-95109116D01*
X152459333Y-95108161D01*
X152127832Y-95107901D01*
X150197044Y-95107759D01*
X150147082Y-94974410D01*
X150118057Y-94897735D01*
X150096081Y-94841120D01*
X150088203Y-94822010D01*
X150111265Y-94818630D01*
X150180811Y-94815441D01*
X150292525Y-94812498D01*
X150442089Y-94809853D01*
X150625189Y-94807559D01*
X150837508Y-94805669D01*
X151074731Y-94804238D01*
X151332540Y-94803318D01*
X151606619Y-94802962D01*
X151631958Y-94802960D01*
X153184630Y-94802960D01*
X153245942Y-94741647D01*
X153294450Y-94678369D01*
X153323865Y-94614154D01*
X153323943Y-94530410D01*
X153294117Y-94440038D01*
X153243296Y-94369187D01*
X153239203Y-94365652D01*
X153220862Y-94358887D01*
X153181076Y-94352870D01*
X153116817Y-94347522D01*
X153025054Y-94342766D01*
X152902761Y-94338524D01*
X152746907Y-94334717D01*
X152554464Y-94331269D01*
X152322402Y-94328101D01*
X152047694Y-94325135D01*
X151727310Y-94322293D01*
X151477350Y-94320360D01*
X149754750Y-94307660D01*
X149614335Y-94163830D01*
X149473920Y-94020001D01*
X149473920Y-92314826D01*
X149473921Y-90609650D01*
X149412608Y-90548338D01*
X149350341Y-90500165D01*
X149287761Y-90471079D01*
X149207257Y-90472896D01*
X149120180Y-90506480D01*
X149048098Y-90561302D01*
X149020240Y-90601679D01*
X149013563Y-90634362D01*
X149007839Y-90702314D01*
X149003033Y-90807571D01*
X148999106Y-90952169D01*
X148996021Y-91138145D01*
X148993742Y-91367537D01*
X148992232Y-91642380D01*
X148991453Y-91964712D01*
X148991320Y-92190672D01*
X148991257Y-92507276D01*
X148990995Y-92776796D01*
X148990423Y-93002947D01*
X148989433Y-93189445D01*
X148987914Y-93340006D01*
X148985758Y-93458345D01*
X148982854Y-93548178D01*
X148979094Y-93613220D01*
X148974367Y-93657187D01*
X148968564Y-93683796D01*
X148961576Y-93696761D01*
X148953292Y-93699797D01*
X148946870Y-93698090D01*
X148895666Y-93678577D01*
X148821284Y-93651640D01*
X148795067Y-93642388D01*
X148687714Y-93604791D01*
X148680767Y-91619425D01*
X148679435Y-91253992D01*
X148678111Y-90935942D01*
X148676707Y-90661856D01*
X148675136Y-90428317D01*
X148673310Y-90231907D01*
X148671141Y-90069209D01*
X148668543Y-89936804D01*
X148665426Y-89831276D01*
X148661704Y-89749207D01*
X148657289Y-89687179D01*
X148652094Y-89641774D01*
X148646030Y-89609574D01*
X148639010Y-89587163D01*
X148630946Y-89571122D01*
X148628132Y-89566778D01*
X148551293Y-89490136D01*
X148458976Y-89455407D01*
X148362378Y-89466592D01*
X148355460Y-89469316D01*
X148282961Y-89513093D01*
X148228460Y-89564723D01*
X148219194Y-89577747D01*
X148211151Y-89593945D01*
X148204244Y-89616783D01*
X148198386Y-89649728D01*
X148193493Y-89696247D01*
X148189476Y-89759807D01*
X148186249Y-89843875D01*
X148183726Y-89951919D01*
X148181822Y-90087405D01*
X148180448Y-90253800D01*
X148179519Y-90454571D01*
X148178948Y-90693185D01*
X148178649Y-90973109D01*
X148178536Y-91297810D01*
X148178520Y-91567885D01*
X148178520Y-93507560D01*
X147874947Y-93507560D01*
X147867984Y-91569676D01*
X147866707Y-91202152D01*
X147865530Y-90882030D01*
X147864203Y-90605912D01*
X147862478Y-90370400D01*
X147860104Y-90172098D01*
X147856832Y-90007608D01*
X147852414Y-89873532D01*
X147846599Y-89766474D01*
X147839138Y-89683035D01*
X147829783Y-89619819D01*
X147818283Y-89573428D01*
X147804389Y-89540465D01*
X147787851Y-89517533D01*
X147768422Y-89501233D01*
X147745850Y-89488170D01*
X147719887Y-89474944D01*
X147714007Y-89471842D01*
X147622746Y-89450054D01*
X147524953Y-89478017D01*
G37*
X147524953Y-89478017D02*
X147449476Y-89530435D01*
X147378420Y-89591548D01*
X147371619Y-91584918D01*
X147370138Y-91968529D01*
X147368450Y-92304020D01*
X147366504Y-92594068D01*
X147364249Y-92841353D01*
X147361635Y-93048553D01*
X147358611Y-93218348D01*
X147355127Y-93353416D01*
X147351132Y-93456435D01*
X147346575Y-93530086D01*
X147341407Y-93577046D01*
X147335576Y-93599995D01*
X147333519Y-93602739D01*
X147287874Y-93628334D01*
X147226020Y-93653676D01*
X147156999Y-93678466D01*
X147105950Y-93697957D01*
X147096863Y-93699277D01*
X147089084Y-93692838D01*
X147082492Y-93674943D01*
X147076961Y-93641894D01*
X147072369Y-93589996D01*
X147068592Y-93515551D01*
X147065506Y-93414862D01*
X147062988Y-93284233D01*
X147060914Y-93119968D01*
X147059161Y-92918368D01*
X147057605Y-92675737D01*
X147056122Y-92388379D01*
X147055150Y-92178401D01*
X147053685Y-91860740D01*
X147052277Y-91589931D01*
X147050778Y-91362026D01*
X147049040Y-91173077D01*
X147046916Y-91019137D01*
X147044257Y-90896257D01*
X147040915Y-90800489D01*
X147036743Y-90727886D01*
X147031592Y-90674500D01*
X147025314Y-90636383D01*
X147017761Y-90609587D01*
X147008786Y-90590165D01*
X146998240Y-90574168D01*
X146994836Y-90569565D01*
X146913929Y-90495867D01*
X146820397Y-90469154D01*
X146721532Y-90491096D01*
X146700562Y-90502166D01*
X146635633Y-90551599D01*
X146588424Y-90607301D01*
X146585102Y-90613350D01*
X146578479Y-90638421D01*
X146572763Y-90687542D01*
X146567902Y-90763634D01*
X146563841Y-90869618D01*
X146560528Y-91008414D01*
X146557910Y-91182945D01*
X146555933Y-91396129D01*
X146554543Y-91650888D01*
X146553688Y-91950144D01*
X146553314Y-92296816D01*
X146553295Y-92356041D01*
X146552920Y-94036623D01*
X146407617Y-94178491D01*
X146262314Y-94320360D01*
X144564163Y-94320359D01*
X142866013Y-94320359D01*
X142791767Y-94394606D01*
X142729420Y-94486728D01*
X142716233Y-94584413D01*
X142752206Y-94680421D01*
X142791767Y-94728713D01*
X142866013Y-94802960D01*
X145948828Y-94802960D01*
X145931649Y-94871403D01*
X145909262Y-94944260D01*
X145879492Y-95023563D01*
X145879392Y-95023803D01*
X145844313Y-95107760D01*
X143931667Y-95108365D01*
X143610565Y-95108776D01*
X143305568Y-95109767D01*
X143020594Y-95111293D01*
X142759559Y-95113307D01*
X142526382Y-95115762D01*
X142324979Y-95118611D01*
X142159267Y-95121808D01*
X142033163Y-95125305D01*
X141950585Y-95129055D01*
X141917420Y-95132436D01*
X141812241Y-95177350D01*
X141740003Y-95249698D01*
X141704665Y-95339254D01*
X141710185Y-95435794D01*
X141760522Y-95529094D01*
X141762815Y-95531793D01*
X141824109Y-95603060D01*
X143782115Y-95609871D01*
X145740120Y-95616682D01*
X145740120Y-95920560D01*
X143847005Y-95920560D01*
X143480251Y-95920577D01*
X143160857Y-95920770D01*
X142885382Y-95921352D01*
X142650386Y-95922535D01*
X142452430Y-95924531D01*
X142288072Y-95927554D01*
X142153872Y-95931815D01*
X142046390Y-95937527D01*
X141962185Y-95944903D01*
X141897819Y-95954155D01*
X141849849Y-95965496D01*
X141814836Y-95979138D01*
X141789340Y-95995293D01*
X141769920Y-96014175D01*
X141753136Y-96035995D01*
X141742940Y-96050528D01*
X141705441Y-96145040D01*
X141711395Y-96247347D01*
X141759680Y-96340874D01*
X141762815Y-96344593D01*
X141824109Y-96415860D01*
X145838407Y-96429458D01*
X145890864Y-96569662D01*
X145918953Y-96646576D01*
X145937990Y-96702221D01*
X145943320Y-96721612D01*
X145918663Y-96723750D01*
X145847661Y-96725767D01*
X145734771Y-96727627D01*
X145584447Y-96729295D01*
X145401146Y-96730736D01*
X145189322Y-96731912D01*
X144953432Y-96732789D01*
X144697932Y-96733331D01*
X144463770Y-96733501D01*
X144132590Y-96733986D01*
X143834869Y-96735348D01*
X143573099Y-96737545D01*
X143349771Y-96740536D01*
X143167378Y-96744281D01*
X143028410Y-96748739D01*
X142935359Y-96753868D01*
X142891582Y-96759374D01*
X142800751Y-96808279D01*
X142740020Y-96888294D01*
X142714935Y-96986060D01*
X142731039Y-97088216D01*
X142743673Y-97115766D01*
X142757004Y-97139920D01*
X142771695Y-97160761D01*
X142791367Y-97178533D01*
X142819644Y-97193482D01*
X142860146Y-97205856D01*
X142916496Y-97215899D01*
X142992315Y-97223857D01*
X143091224Y-97229976D01*
X143216847Y-97234503D01*
X143372803Y-97237682D01*
X143562716Y-97239761D01*
X143790207Y-97240984D01*
X144058897Y-97241597D01*
X144372409Y-97241847D01*
X144602209Y-97241931D01*
X146286220Y-97242502D01*
X146421946Y-97378283D01*
X146557671Y-97514064D01*
X146554199Y-99192952D01*
X146553513Y-99537342D01*
X146553143Y-99834559D01*
X146553334Y-100088228D01*
X146554326Y-100301976D01*
X146556363Y-100479429D01*
X146559688Y-100624213D01*
X146564543Y-100739955D01*
X146571171Y-100830280D01*
X146579814Y-100898816D01*
X146590716Y-100949188D01*
X146604118Y-100985022D01*
X146620264Y-101009946D01*
X146639396Y-101027584D01*
X146661757Y-101041563D01*
X146678514Y-101050607D01*
X146758946Y-101072983D01*
X146854616Y-101073017D01*
X146935139Y-101050707D01*
X146935327Y-101050607D01*
X146960646Y-101036429D01*
X146982310Y-101020505D01*
X147000605Y-100999008D01*
X147015815Y-100968113D01*
X147028226Y-100923995D01*
X147038122Y-100862829D01*
X147045787Y-100780790D01*
X147051507Y-100674052D01*
X147055567Y-100538791D01*
X147058250Y-100371180D01*
X147059843Y-100167396D01*
X147060629Y-99923612D01*
X147060893Y-99636004D01*
X147060920Y-99363521D01*
X147061112Y-99091550D01*
X147061664Y-98835276D01*
X147062542Y-98599103D01*
X147063712Y-98387439D01*
X147065139Y-98204691D01*
X147066790Y-98055265D01*
X147068630Y-97943569D01*
X147070625Y-97874007D01*
X147072668Y-97850960D01*
X147100894Y-97859170D01*
X147162043Y-97880454D01*
X147225068Y-97903584D01*
X147365720Y-97956209D01*
X147365720Y-99924146D01*
X147365822Y-100292557D01*
X147366167Y-100613506D01*
X147366818Y-100890332D01*
X147367839Y-101126371D01*
X147369292Y-101324962D01*
X147371240Y-101489443D01*
X147373746Y-101623151D01*
X147376871Y-101729425D01*
X147380680Y-101811602D01*
X147385234Y-101873020D01*
X147390596Y-101917017D01*
X147396829Y-101946931D01*
X147403996Y-101966099D01*
X147404083Y-101966268D01*
X147471754Y-102049567D01*
X147562668Y-102089781D01*
X147670356Y-102085031D01*
X147734730Y-102062414D01*
X147759981Y-102051043D01*
X147781974Y-102039238D01*
X147800935Y-102023622D01*
X147817088Y-102000815D01*
X147830657Y-101967440D01*
X147841868Y-101920116D01*
X147850946Y-101855466D01*
X147858115Y-101770110D01*
X147863600Y-101660671D01*
X147867625Y-101523768D01*
X147870416Y-101356025D01*
X147872198Y-101154062D01*
X147873194Y-100914499D01*
X147873630Y-100633960D01*
X147873731Y-100309064D01*
X147873720Y-99973121D01*
X147873720Y-98054160D01*
X148178520Y-98054160D01*
X148178520Y-99973121D01*
X148178625Y-100336711D01*
X148178982Y-100652884D01*
X148179656Y-100925023D01*
X148180712Y-101156509D01*
X148182216Y-101350725D01*
X148184233Y-101511054D01*
X148186827Y-101640878D01*
X148190065Y-101743580D01*
X148194010Y-101822541D01*
X148198728Y-101881146D01*
X148204285Y-101922775D01*
X148210745Y-101950811D01*
X148216883Y-101966268D01*
X148283949Y-102048845D01*
X148371798Y-102089543D01*
X148470113Y-102086650D01*
X148568578Y-102038453D01*
X148582972Y-102027002D01*
X148661120Y-101961244D01*
X148661467Y-100014052D01*
X148661716Y-99702826D01*
X148662328Y-99405517D01*
X148663273Y-99126161D01*
X148664518Y-98868793D01*
X148666034Y-98637447D01*
X148667790Y-98436159D01*
X148669753Y-98268965D01*
X148671892Y-98139898D01*
X148674178Y-98052995D01*
X148676578Y-98012290D01*
X148676922Y-98010504D01*
X148708349Y-97965130D01*
X148781052Y-97922454D01*
X148829928Y-97902554D01*
X148906180Y-97874723D01*
X148961081Y-97855991D01*
X148979573Y-97850960D01*
X148981668Y-97875631D01*
X148983643Y-97946734D01*
X148985465Y-98059898D01*
X148987101Y-98210755D01*
X148988518Y-98394934D01*
X148989681Y-98608068D01*
X148990558Y-98845787D01*
X148991116Y-99103722D01*
X148991320Y-99377504D01*
X148991320Y-100928267D01*
X149065567Y-101002513D01*
X149157018Y-101063379D01*
X149257089Y-101079480D01*
X149353826Y-101050545D01*
X149406438Y-101010315D01*
X149472883Y-100943870D01*
X149479752Y-99230809D01*
X149486620Y-97517748D01*
X149630437Y-97379554D01*
X149774253Y-97241360D01*
X151442698Y-97241360D01*
X151789204Y-97241352D01*
X152088485Y-97241129D01*
X152344117Y-97240386D01*
X152559674Y-97238820D01*
X152738733Y-97236127D01*
X152884869Y-97232004D01*
X153001657Y-97226148D01*
X153092672Y-97218255D01*
X153161490Y-97208022D01*
X153211686Y-97195146D01*
X153246835Y-97179322D01*
X153270512Y-97160249D01*
X153286294Y-97137622D01*
X153297754Y-97111137D01*
X153307552Y-97083114D01*
X153331174Y-96990841D01*
X153322817Y-96920048D01*
X153278635Y-96849918D01*
X153260615Y-96829010D01*
X153186509Y-96746060D01*
X151645107Y-96739130D01*
X150103704Y-96732200D01*
X150120737Y-96664336D01*
X150142997Y-96591960D01*
X150172699Y-96512876D01*
X150172849Y-96512516D01*
X150207928Y-96428560D01*
X152178986Y-96428560D01*
X152552620Y-96428586D01*
X152878779Y-96428510D01*
X153160787Y-96428094D01*
X153401969Y-96427104D01*
X153605649Y-96425304D01*
X153775152Y-96422458D01*
X153913803Y-96418332D01*
X154024926Y-96412688D01*
X154111846Y-96405293D01*
X154177886Y-96395910D01*
X154226373Y-96384304D01*
X154260630Y-96370239D01*
X154283982Y-96353480D01*
X154299753Y-96333790D01*
X154311268Y-96310936D01*
X154321852Y-96284681D01*
X154325175Y-96276512D01*
X154343090Y-96172162D01*
X154314780Y-96072034D01*
X154244045Y-95989172D01*
X154240712Y-95986644D01*
X154226721Y-95976747D01*
X154210758Y-95968141D01*
X154189345Y-95960722D01*
X154159002Y-95954386D01*
X154116250Y-95949030D01*
X154057609Y-95944547D01*
X153979599Y-95940835D01*
X153878741Y-95937789D01*
X153751555Y-95935304D01*
X153594563Y-95933276D01*
X153404284Y-95931601D01*
X153177238Y-95930174D01*
X152909947Y-95928892D01*
X152598931Y-95927649D01*
X152240710Y-95926342D01*
X152227972Y-95926296D01*
X150286720Y-95919333D01*
X150286720Y-95834334D01*
X149794221Y-95834334D01*
X149762291Y-96119488D01*
X149682667Y-96394820D01*
X149556384Y-96656972D01*
X149384477Y-96902589D01*
X149167982Y-97128312D01*
X149117479Y-97172423D01*
X148915097Y-97312839D01*
X148681263Y-97421985D01*
X148426171Y-97497682D01*
X148160017Y-97537750D01*
X147892994Y-97540011D01*
X147635296Y-97502283D01*
X147607011Y-97495357D01*
X147488806Y-97461332D01*
X147368286Y-97420552D01*
X147271148Y-97381727D01*
X147269525Y-97380987D01*
X147022330Y-97240621D01*
X146802896Y-97061289D01*
X146614836Y-96848717D01*
X146461764Y-96608631D01*
X146347294Y-96346759D01*
X146275038Y-96068827D01*
X146248611Y-95780562D01*
X146248562Y-95762880D01*
X146267843Y-95508539D01*
X146326643Y-95261920D01*
X146428269Y-95009656D01*
X146442045Y-94981311D01*
X146509881Y-94852708D01*
X146577606Y-94747738D01*
X146658525Y-94648104D01*
X146765945Y-94535507D01*
X146767006Y-94534445D01*
X146879027Y-94427386D01*
X146977663Y-94346956D01*
X147081078Y-94279968D01*
X147207437Y-94213238D01*
X147213872Y-94210070D01*
X147420111Y-94117906D01*
X147606813Y-94056418D01*
X147791278Y-94021299D01*
X147990805Y-94008244D01*
X148026120Y-94007913D01*
X148317087Y-94031586D01*
X148595252Y-94101907D01*
X148855838Y-94215360D01*
X149094072Y-94368430D01*
X149305177Y-94557603D01*
X149484380Y-94779364D01*
X149626905Y-95030197D01*
X149710857Y-95247987D01*
X149777421Y-95542715D01*
X149794221Y-95834334D01*
X150286720Y-95834334D01*
X150286720Y-95615760D01*
X152218382Y-95615760D01*
X152587670Y-95615769D01*
X152909526Y-95615650D01*
X153187316Y-95615180D01*
X153424409Y-95614135D01*
X153624171Y-95612293D01*
X153789971Y-95609432D01*
X153925175Y-95605329D01*
X154033151Y-95599761D01*
X154117266Y-95592505D01*
X154180888Y-95583339D01*
X154227384Y-95572041D01*
X154260122Y-95558387D01*
X154282468Y-95542155D01*
X154297791Y-95523122D01*
X154309457Y-95501065D01*
X154320375Y-95476769D01*
X154343306Y-95408396D01*
X154350720Y-95358135D01*
X154328290Y-95279116D01*
X154270156Y-95203956D01*
X154190054Y-95148197D01*
X154152776Y-95134193D01*
X154106890Y-95128744D01*
X154011350Y-95123892D01*
X153867298Y-95119653D01*
X153675876Y-95116041D01*
X153438226Y-95113071D01*
X153155491Y-95110758D01*
X152828812Y-95109116D01*
X152459333Y-95108161D01*
X152127832Y-95107901D01*
X150197044Y-95107759D01*
X150147082Y-94974410D01*
X150118057Y-94897735D01*
X150096081Y-94841120D01*
X150088203Y-94822010D01*
X150111265Y-94818630D01*
X150180811Y-94815441D01*
X150292525Y-94812498D01*
X150442089Y-94809853D01*
X150625189Y-94807559D01*
X150837508Y-94805669D01*
X151074731Y-94804238D01*
X151332540Y-94803318D01*
X151606619Y-94802962D01*
X151631958Y-94802960D01*
X153184630Y-94802960D01*
X153245942Y-94741647D01*
X153294450Y-94678369D01*
X153323865Y-94614154D01*
X153323943Y-94530410D01*
X153294117Y-94440038D01*
X153243296Y-94369187D01*
X153239203Y-94365652D01*
X153220862Y-94358887D01*
X153181076Y-94352870D01*
X153116817Y-94347522D01*
X153025054Y-94342766D01*
X152902761Y-94338524D01*
X152746907Y-94334717D01*
X152554464Y-94331269D01*
X152322402Y-94328101D01*
X152047694Y-94325135D01*
X151727310Y-94322293D01*
X151477350Y-94320360D01*
X149754750Y-94307660D01*
X149614335Y-94163830D01*
X149473920Y-94020001D01*
X149473920Y-92314826D01*
X149473921Y-90609650D01*
X149412608Y-90548338D01*
X149350341Y-90500165D01*
X149287761Y-90471079D01*
X149207257Y-90472896D01*
X149120180Y-90506480D01*
X149048098Y-90561302D01*
X149020240Y-90601679D01*
X149013563Y-90634362D01*
X149007839Y-90702314D01*
X149003033Y-90807571D01*
X148999106Y-90952169D01*
X148996021Y-91138145D01*
X148993742Y-91367537D01*
X148992232Y-91642380D01*
X148991453Y-91964712D01*
X148991320Y-92190672D01*
X148991257Y-92507276D01*
X148990995Y-92776796D01*
X148990423Y-93002947D01*
X148989433Y-93189445D01*
X148987914Y-93340006D01*
X148985758Y-93458345D01*
X148982854Y-93548178D01*
X148979094Y-93613220D01*
X148974367Y-93657187D01*
X148968564Y-93683796D01*
X148961576Y-93696761D01*
X148953292Y-93699797D01*
X148946870Y-93698090D01*
X148895666Y-93678577D01*
X148821284Y-93651640D01*
X148795067Y-93642388D01*
X148687714Y-93604791D01*
X148680767Y-91619425D01*
X148679435Y-91253992D01*
X148678111Y-90935942D01*
X148676707Y-90661856D01*
X148675136Y-90428317D01*
X148673310Y-90231907D01*
X148671141Y-90069209D01*
X148668543Y-89936804D01*
X148665426Y-89831276D01*
X148661704Y-89749207D01*
X148657289Y-89687179D01*
X148652094Y-89641774D01*
X148646030Y-89609574D01*
X148639010Y-89587163D01*
X148630946Y-89571122D01*
X148628132Y-89566778D01*
X148551293Y-89490136D01*
X148458976Y-89455407D01*
X148362378Y-89466592D01*
X148355460Y-89469316D01*
X148282961Y-89513093D01*
X148228460Y-89564723D01*
X148219194Y-89577747D01*
X148211151Y-89593945D01*
X148204244Y-89616783D01*
X148198386Y-89649728D01*
X148193493Y-89696247D01*
X148189476Y-89759807D01*
X148186249Y-89843875D01*
X148183726Y-89951919D01*
X148181822Y-90087405D01*
X148180448Y-90253800D01*
X148179519Y-90454571D01*
X148178948Y-90693185D01*
X148178649Y-90973109D01*
X148178536Y-91297810D01*
X148178520Y-91567885D01*
X148178520Y-93507560D01*
X147874947Y-93507560D01*
X147867984Y-91569676D01*
X147866707Y-91202152D01*
X147865530Y-90882030D01*
X147864203Y-90605912D01*
X147862478Y-90370400D01*
X147860104Y-90172098D01*
X147856832Y-90007608D01*
X147852414Y-89873532D01*
X147846599Y-89766474D01*
X147839138Y-89683035D01*
X147829783Y-89619819D01*
X147818283Y-89573428D01*
X147804389Y-89540465D01*
X147787851Y-89517533D01*
X147768422Y-89501233D01*
X147745850Y-89488170D01*
X147719887Y-89474944D01*
X147714007Y-89471842D01*
X147622746Y-89450054D01*
X147524953Y-89478017D01*
D11*
X149899980Y-105861666D02*
X150614266Y-105861666D01*
X150757123Y-105814047D01*
X150852361Y-105718809D01*
X150899980Y-105575952D01*
X150899980Y-105480714D01*
X150899980Y-106337857D02*
X149899980Y-106337857D01*
X149899980Y-106718809D01*
X149947600Y-106814047D01*
X149995219Y-106861666D01*
X150090457Y-106909285D01*
X150233314Y-106909285D01*
X150328552Y-106861666D01*
X150376171Y-106814047D01*
X150423790Y-106718809D01*
X150423790Y-106337857D01*
X150899980Y-107861666D02*
X150899980Y-107290238D01*
X150899980Y-107575952D02*
X149899980Y-107575952D01*
X150042838Y-107480714D01*
X150138076Y-107385476D01*
X150185695Y-107290238D01*
X130319980Y-116760666D02*
X131034266Y-116760666D01*
X131177123Y-116713047D01*
X131272361Y-116617809D01*
X131319980Y-116474952D01*
X131319980Y-116379714D01*
X131319980Y-117284476D02*
X131319980Y-117474952D01*
X131272361Y-117570190D01*
X131224742Y-117617809D01*
X131081885Y-117713047D01*
X130891409Y-117760666D01*
X130510457Y-117760666D01*
X130415219Y-117713047D01*
X130367600Y-117665428D01*
X130319980Y-117570190D01*
X130319980Y-117379714D01*
X130367600Y-117284476D01*
X130415219Y-117236857D01*
X130510457Y-117189238D01*
X130748552Y-117189238D01*
X130843790Y-117236857D01*
X130891409Y-117284476D01*
X130939028Y-117379714D01*
X130939028Y-117570190D01*
X130891409Y-117665428D01*
X130843790Y-117713047D01*
X130748552Y-117760666D01*
%LPC*%
D14*
X152247600Y-106045000D03*
X152247600Y-107345000D03*
D15*
X128432560Y-75905360D03*
X168462960Y-75905360D03*
D16*
X163677600Y-117094000D03*
X161137600Y-117094000D03*
X158597600Y-117094000D03*
X156057600Y-117094000D03*
X153517600Y-117094000D03*
X150977600Y-117094000D03*
X148437600Y-117094000D03*
X145897600Y-117094000D03*
X143357600Y-117094000D03*
X140817600Y-117094000D03*
X138277600Y-117094000D03*
X135737600Y-117094000D03*
D17*
X133197600Y-117094000D03*
D16*
X128117600Y-114554000D03*
X128117600Y-112014000D03*
X128117600Y-109474000D03*
X128117600Y-106934000D03*
X128117600Y-104394000D03*
X128117600Y-101854000D03*
X128117600Y-99314000D03*
X128117600Y-96774000D03*
X128117600Y-94234000D03*
X128117600Y-91694000D03*
X128117600Y-89154000D03*
X128117600Y-86614000D03*
X128117600Y-84074000D03*
D17*
X128117600Y-81534000D03*
D16*
X168757600Y-114554000D03*
X168757600Y-112014000D03*
X168757600Y-109474000D03*
X168757600Y-106934000D03*
X168757600Y-104394000D03*
X168757600Y-101854000D03*
X168757600Y-99314000D03*
X168757600Y-96774000D03*
X168757600Y-94234000D03*
X168757600Y-91694000D03*
X168757600Y-89154000D03*
X168757600Y-86614000D03*
X168757600Y-84074000D03*
D17*
X168757600Y-81534000D03*
M02*
