%FSLAX45Y45*%
G04 Gerber Fmt 4.5, Leading zero omitted, Abs format (unit mm)*
G04 Created by KiCad (PCBNEW (5.1.8)-1) date 2022-05-07 10:28:56*
%MOMM*%
%LPD*%
G01*
G04 APERTURE LIST*
%TA.AperFunction,Profile*%
%ADD10C,0.050000*%
%TD*%
%ADD11C,0.200000*%
%ADD12C,0.300000*%
G04 APERTURE END LIST*
D10*
X17100296Y-10985500D02*
X17095216Y-11391900D01*
X17100296Y-7785100D02*
X17100804Y-8191500D01*
X17100804Y-8191500D02*
X17100296Y-10985500D01*
X17095216Y-11583416D02*
X17095216Y-11391900D01*
X17100296Y-7595616D02*
X17100296Y-7785100D01*
X12843256Y-11842496D02*
G75*
G02*
X12589256Y-11588496I0J254000D01*
G01*
X17095216Y-11583416D02*
G75*
G02*
X16836136Y-11842496I-259080J0D01*
G01*
X16841216Y-7336536D02*
G75*
G02*
X17100296Y-7595616I0J-259080D01*
G01*
X12589256Y-7585456D02*
G75*
G02*
X12838176Y-7336536I248920J0D01*
G01*
X12843256Y-11842496D02*
X16836136Y-11842496D01*
X12589256Y-7585456D02*
X12589256Y-11588496D01*
X16841216Y-7336536D02*
X12838176Y-7336536D01*
D11*
X13406360Y-8671800D02*
X13436360Y-8701800D01*
X13436360Y-8671800D02*
X13406360Y-8701800D01*
X13558760Y-8468600D02*
X13588760Y-8498600D01*
X13588760Y-8468600D02*
X13558760Y-8498600D01*
X13566667Y-11115504D02*
X13596667Y-11145504D01*
X13596667Y-11115504D02*
X13566667Y-11145504D01*
X13647660Y-8671800D02*
X13677660Y-8701800D01*
X13677660Y-8671800D02*
X13647660Y-8701800D01*
X13800061Y-11072100D02*
X13830061Y-11102100D01*
X13830061Y-11072100D02*
X13800061Y-11102100D01*
X13812760Y-10983200D02*
X13842760Y-11013200D01*
X13842760Y-10983200D02*
X13812760Y-11013200D01*
X13873954Y-11041444D02*
X13903954Y-11071444D01*
X13903954Y-11041444D02*
X13873954Y-11071444D01*
X13919706Y-10975816D02*
X13949706Y-11005816D01*
X13949706Y-10975816D02*
X13919706Y-11005816D01*
X14104860Y-10068800D02*
X14134860Y-10098800D01*
X14134860Y-10068800D02*
X14104860Y-10098800D01*
X14396960Y-10068800D02*
X14426960Y-10098800D01*
X14426960Y-10068800D02*
X14396960Y-10098800D01*
X14625559Y-10678400D02*
X14655559Y-10708400D01*
X14655559Y-10678400D02*
X14625559Y-10708400D01*
X15334527Y-11036233D02*
X15364527Y-11066233D01*
X15364527Y-11036233D02*
X15334527Y-11066233D01*
X15378993Y-10868567D02*
X15408993Y-10898567D01*
X15408993Y-10868567D02*
X15378993Y-10898567D01*
X15540975Y-9764000D02*
X15570975Y-9794000D01*
X15570975Y-9764000D02*
X15540975Y-9794000D01*
X15575520Y-10185538D02*
X15605520Y-10215538D01*
X15605520Y-10185538D02*
X15575520Y-10215538D01*
X15679660Y-11567400D02*
X15709660Y-11597400D01*
X15709660Y-11567400D02*
X15679660Y-11597400D01*
X15781803Y-10393378D02*
X15811803Y-10423378D01*
X15811803Y-10393378D02*
X15781803Y-10423378D01*
X15799040Y-9998502D02*
X15829040Y-10028502D01*
X15829040Y-9998502D02*
X15799040Y-10028502D01*
X15946360Y-9141700D02*
X15976360Y-9171700D01*
X15976360Y-9141700D02*
X15946360Y-9171700D01*
X15946360Y-11046700D02*
X15976360Y-11076700D01*
X15976360Y-11046700D02*
X15946360Y-11076700D01*
X16060659Y-8214600D02*
X16090659Y-8244600D01*
X16090659Y-8214600D02*
X16060659Y-8244600D01*
X16060660Y-8722600D02*
X16090660Y-8752600D01*
X16090660Y-8722600D02*
X16060660Y-8752600D01*
X16128390Y-9869600D02*
X16158390Y-9899600D01*
X16158390Y-9869600D02*
X16128390Y-9899600D01*
X16225760Y-9014700D02*
X16255760Y-9044700D01*
X16255760Y-9014700D02*
X16225760Y-9044700D01*
X16301960Y-9232699D02*
X16331960Y-9262699D01*
X16331960Y-9232699D02*
X16301960Y-9262699D01*
X16333710Y-10557750D02*
X16363710Y-10587750D01*
X16363710Y-10557750D02*
X16333710Y-10587750D01*
X16390860Y-8125700D02*
X16420860Y-8155700D01*
X16420860Y-8125700D02*
X16390860Y-8155700D01*
X16397210Y-10278350D02*
X16427210Y-10308350D01*
X16427210Y-10278350D02*
X16397210Y-10308350D01*
X16594060Y-9027400D02*
X16624060Y-9057400D01*
X16624060Y-9027400D02*
X16594060Y-9057400D01*
X16664564Y-10430750D02*
X16694564Y-10460750D01*
X16694564Y-10430750D02*
X16664564Y-10460750D01*
X16784560Y-11567400D02*
X16814560Y-11597400D01*
X16814560Y-11567400D02*
X16784560Y-11597400D01*
X13665210Y-11310620D02*
G75*
G03*
X13665210Y-11310620I-15250J0D01*
G01*
X13741411Y-8331199D02*
G75*
G03*
X13741411Y-8331199I-15250J0D01*
G01*
X14582150Y-8679180D02*
G75*
G03*
X14582150Y-8679180I-15250J0D01*
G01*
X14582150Y-8780780D02*
G75*
G03*
X14582150Y-8780780I-15250J0D01*
G01*
X14582150Y-8882380D02*
G75*
G03*
X14582150Y-8882380I-15250J0D01*
G01*
X14582150Y-8983980D02*
G75*
G03*
X14582150Y-8983980I-15250J0D01*
G01*
X14582150Y-9085580D02*
G75*
G03*
X14582150Y-9085580I-15250J0D01*
G01*
X14683750Y-8679180D02*
G75*
G03*
X14683750Y-8679180I-15250J0D01*
G01*
X14683750Y-8780780D02*
G75*
G03*
X14683750Y-8780780I-15250J0D01*
G01*
X14683750Y-8882380D02*
G75*
G03*
X14683750Y-8882380I-15250J0D01*
G01*
X14683750Y-8983980D02*
G75*
G03*
X14683750Y-8983980I-15250J0D01*
G01*
X14683750Y-9085580D02*
G75*
G03*
X14683750Y-9085580I-15250J0D01*
G01*
X14785350Y-8679180D02*
G75*
G03*
X14785350Y-8679180I-15250J0D01*
G01*
X14785350Y-8780780D02*
G75*
G03*
X14785350Y-8780780I-15250J0D01*
G01*
X14785350Y-8882380D02*
G75*
G03*
X14785350Y-8882380I-15250J0D01*
G01*
X14785350Y-8983980D02*
G75*
G03*
X14785350Y-8983980I-15250J0D01*
G01*
X14785350Y-9085580D02*
G75*
G03*
X14785350Y-9085580I-15250J0D01*
G01*
X14850563Y-9721193D02*
G75*
G03*
X14850563Y-9721193I-15250J0D01*
G01*
X14886950Y-8679180D02*
G75*
G03*
X14886950Y-8679180I-15250J0D01*
G01*
X14886950Y-8780780D02*
G75*
G03*
X14886950Y-8780780I-15250J0D01*
G01*
X14886950Y-8882380D02*
G75*
G03*
X14886950Y-8882380I-15250J0D01*
G01*
X14886950Y-8983980D02*
G75*
G03*
X14886950Y-8983980I-15250J0D01*
G01*
X14886950Y-9085580D02*
G75*
G03*
X14886950Y-9085580I-15250J0D01*
G01*
X14934199Y-9724624D02*
G75*
G03*
X14934199Y-9724624I-15250J0D01*
G01*
X14988550Y-8679180D02*
G75*
G03*
X14988550Y-8679180I-15250J0D01*
G01*
X14988550Y-8780780D02*
G75*
G03*
X14988550Y-8780780I-15250J0D01*
G01*
X14988550Y-8882380D02*
G75*
G03*
X14988550Y-8882380I-15250J0D01*
G01*
X14988550Y-8983980D02*
G75*
G03*
X14988550Y-8983980I-15250J0D01*
G01*
X14988550Y-9085580D02*
G75*
G03*
X14988550Y-9085580I-15250J0D01*
G01*
X15016534Y-9725921D02*
G75*
G03*
X15016534Y-9725921I-15250J0D01*
G01*
X15099306Y-9731539D02*
G75*
G03*
X15099306Y-9731539I-15250J0D01*
G01*
X15163250Y-10475520D02*
G75*
G03*
X15163250Y-10475520I-15250J0D01*
G01*
X15571224Y-8840214D02*
G75*
G03*
X15571224Y-8840214I-15250J0D01*
G01*
X15572750Y-8322040D02*
G75*
G03*
X15572750Y-8322040I-15250J0D01*
G01*
X13154660Y-8222300D02*
X13154660Y-8262300D01*
X13134660Y-8242300D02*
X13174660Y-8242300D01*
X13383260Y-8323900D02*
X13383260Y-8363900D01*
X13363260Y-8343900D02*
X13403260Y-8343900D01*
X13586460Y-10927400D02*
X13586460Y-10967400D01*
X13566460Y-10947400D02*
X13606460Y-10947400D01*
X13855700Y-8100380D02*
X13855700Y-8140380D01*
X13835700Y-8120380D02*
X13875700Y-8120380D01*
X14297660Y-9695500D02*
X14297660Y-9735500D01*
X14277660Y-9715500D02*
X14317660Y-9715500D01*
X14399260Y-10292400D02*
X14399260Y-10332400D01*
X14379260Y-10312400D02*
X14419260Y-10312400D01*
X14554200Y-9642160D02*
X14554200Y-9682160D01*
X14534200Y-9662160D02*
X14574200Y-9662160D01*
X14602460Y-10190801D02*
X14602460Y-10230801D01*
X14582460Y-10210801D02*
X14622460Y-10210801D01*
X15094221Y-10382299D02*
X15094221Y-10422299D01*
X15074221Y-10402299D02*
X15114221Y-10402299D01*
X15199360Y-11029000D02*
X15199360Y-11069000D01*
X15179360Y-11049000D02*
X15219360Y-11049000D01*
X15216160Y-10584500D02*
X15216160Y-10624500D01*
X15196160Y-10604500D02*
X15236160Y-10604500D01*
X15224760Y-10711500D02*
X15224760Y-10751500D01*
X15204760Y-10731500D02*
X15244760Y-10731500D01*
X15237460Y-11219500D02*
X15237460Y-11259500D01*
X15217460Y-11239500D02*
X15257460Y-11239500D01*
X15456161Y-10584500D02*
X15456161Y-10624500D01*
X15436161Y-10604500D02*
X15476161Y-10604500D01*
X15875000Y-8113080D02*
X15875000Y-8153080D01*
X15855000Y-8133080D02*
X15895000Y-8133080D01*
X16911116Y-8188756D02*
X16911116Y-8118044D01*
X16840404Y-8118044D01*
X16840404Y-8188756D01*
X16911116Y-8188756D01*
X16911116Y-8442756D02*
X16911116Y-8372044D01*
X16840404Y-8372044D01*
X16840404Y-8442756D01*
X16911116Y-8442756D01*
X16911116Y-8696756D02*
X16911116Y-8626044D01*
X16840404Y-8626044D01*
X16840404Y-8696756D01*
X16911116Y-8696756D01*
X16911116Y-8950756D02*
X16911116Y-8880044D01*
X16840404Y-8880044D01*
X16840404Y-8950756D01*
X16911116Y-8950756D01*
X16911116Y-9204756D02*
X16911116Y-9134044D01*
X16840404Y-9134044D01*
X16840404Y-9204756D01*
X16911116Y-9204756D01*
X16911116Y-9458756D02*
X16911116Y-9388044D01*
X16840404Y-9388044D01*
X16840404Y-9458756D01*
X16911116Y-9458756D01*
X16911116Y-9712756D02*
X16911116Y-9642044D01*
X16840404Y-9642044D01*
X16840404Y-9712756D01*
X16911116Y-9712756D01*
X16911116Y-9966756D02*
X16911116Y-9896044D01*
X16840404Y-9896044D01*
X16840404Y-9966756D01*
X16911116Y-9966756D01*
X16911116Y-10220756D02*
X16911116Y-10150044D01*
X16840404Y-10150044D01*
X16840404Y-10220756D01*
X16911116Y-10220756D01*
X16911116Y-10474756D02*
X16911116Y-10404044D01*
X16840404Y-10404044D01*
X16840404Y-10474756D01*
X16911116Y-10474756D01*
X16911116Y-10728756D02*
X16911116Y-10658044D01*
X16840404Y-10658044D01*
X16840404Y-10728756D01*
X16911116Y-10728756D01*
X16911116Y-10982756D02*
X16911116Y-10912044D01*
X16840404Y-10912044D01*
X16840404Y-10982756D01*
X16911116Y-10982756D01*
X16911116Y-11236756D02*
X16911116Y-11166044D01*
X16840404Y-11166044D01*
X16840404Y-11236756D01*
X16911116Y-11236756D01*
X16911116Y-11490756D02*
X16911116Y-11420044D01*
X16840404Y-11420044D01*
X16840404Y-11490756D01*
X16911116Y-11490756D01*
X13355116Y-11744756D02*
X13355116Y-11674044D01*
X13284404Y-11674044D01*
X13284404Y-11744756D01*
X13355116Y-11744756D01*
X13609116Y-11744756D02*
X13609116Y-11674044D01*
X13538404Y-11674044D01*
X13538404Y-11744756D01*
X13609116Y-11744756D01*
X13863116Y-11744756D02*
X13863116Y-11674044D01*
X13792404Y-11674044D01*
X13792404Y-11744756D01*
X13863116Y-11744756D01*
X14117116Y-11744756D02*
X14117116Y-11674044D01*
X14046404Y-11674044D01*
X14046404Y-11744756D01*
X14117116Y-11744756D01*
X14371116Y-11744756D02*
X14371116Y-11674044D01*
X14300404Y-11674044D01*
X14300404Y-11744756D01*
X14371116Y-11744756D01*
X14625116Y-11744756D02*
X14625116Y-11674044D01*
X14554404Y-11674044D01*
X14554404Y-11744756D01*
X14625116Y-11744756D01*
X14879116Y-11744756D02*
X14879116Y-11674044D01*
X14808404Y-11674044D01*
X14808404Y-11744756D01*
X14879116Y-11744756D01*
X15133116Y-11744756D02*
X15133116Y-11674044D01*
X15062404Y-11674044D01*
X15062404Y-11744756D01*
X15133116Y-11744756D01*
X15387116Y-11744756D02*
X15387116Y-11674044D01*
X15316404Y-11674044D01*
X15316404Y-11744756D01*
X15387116Y-11744756D01*
X15641116Y-11744756D02*
X15641116Y-11674044D01*
X15570404Y-11674044D01*
X15570404Y-11744756D01*
X15641116Y-11744756D01*
X15895116Y-11744756D02*
X15895116Y-11674044D01*
X15824404Y-11674044D01*
X15824404Y-11744756D01*
X15895116Y-11744756D01*
X16149116Y-11744756D02*
X16149116Y-11674044D01*
X16078404Y-11674044D01*
X16078404Y-11744756D01*
X16149116Y-11744756D01*
X16403116Y-11744756D02*
X16403116Y-11674044D01*
X16332404Y-11674044D01*
X16332404Y-11744756D01*
X16403116Y-11744756D01*
X12847116Y-8188756D02*
X12847116Y-8118044D01*
X12776404Y-8118044D01*
X12776404Y-8188756D01*
X12847116Y-8188756D01*
X12847116Y-8442756D02*
X12847116Y-8372044D01*
X12776404Y-8372044D01*
X12776404Y-8442756D01*
X12847116Y-8442756D01*
X12847116Y-8696756D02*
X12847116Y-8626044D01*
X12776404Y-8626044D01*
X12776404Y-8696756D01*
X12847116Y-8696756D01*
X12847116Y-8950756D02*
X12847116Y-8880044D01*
X12776404Y-8880044D01*
X12776404Y-8950756D01*
X12847116Y-8950756D01*
X12847116Y-9204756D02*
X12847116Y-9134044D01*
X12776404Y-9134044D01*
X12776404Y-9204756D01*
X12847116Y-9204756D01*
X12847116Y-9458756D02*
X12847116Y-9388044D01*
X12776404Y-9388044D01*
X12776404Y-9458756D01*
X12847116Y-9458756D01*
X12847116Y-9712756D02*
X12847116Y-9642044D01*
X12776404Y-9642044D01*
X12776404Y-9712756D01*
X12847116Y-9712756D01*
X12847116Y-9966756D02*
X12847116Y-9896044D01*
X12776404Y-9896044D01*
X12776404Y-9966756D01*
X12847116Y-9966756D01*
X12847116Y-10220756D02*
X12847116Y-10150044D01*
X12776404Y-10150044D01*
X12776404Y-10220756D01*
X12847116Y-10220756D01*
X12847116Y-10474756D02*
X12847116Y-10404044D01*
X12776404Y-10404044D01*
X12776404Y-10474756D01*
X12847116Y-10474756D01*
X12847116Y-10728756D02*
X12847116Y-10658044D01*
X12776404Y-10658044D01*
X12776404Y-10728756D01*
X12847116Y-10728756D01*
X12847116Y-10982756D02*
X12847116Y-10912044D01*
X12776404Y-10912044D01*
X12776404Y-10982756D01*
X12847116Y-10982756D01*
X12847116Y-11236756D02*
X12847116Y-11166044D01*
X12776404Y-11166044D01*
X12776404Y-11236756D01*
X12847116Y-11236756D01*
X12847116Y-11490756D02*
X12847116Y-11420044D01*
X12776404Y-11420044D01*
X12776404Y-11490756D01*
X12847116Y-11490756D01*
D12*
X12873184Y-12310710D02*
X12873184Y-12010710D01*
X12944613Y-12010710D01*
X12987470Y-12024996D01*
X13016042Y-12053567D01*
X13030327Y-12082139D01*
X13044613Y-12139282D01*
X13044613Y-12182139D01*
X13030327Y-12239282D01*
X13016042Y-12267853D01*
X12987470Y-12296425D01*
X12944613Y-12310710D01*
X12873184Y-12310710D01*
X13173184Y-12310710D02*
X13173184Y-12110710D01*
X13173184Y-12167853D02*
X13187470Y-12139282D01*
X13201756Y-12124996D01*
X13230327Y-12110710D01*
X13258899Y-12110710D01*
X13358899Y-12310710D02*
X13358899Y-12110710D01*
X13358899Y-12010710D02*
X13344613Y-12024996D01*
X13358899Y-12039282D01*
X13373184Y-12024996D01*
X13358899Y-12010710D01*
X13358899Y-12039282D01*
X13544613Y-12310710D02*
X13516042Y-12296425D01*
X13501756Y-12267853D01*
X13501756Y-12010710D01*
X13701756Y-12310710D02*
X13673184Y-12296425D01*
X13658899Y-12267853D01*
X13658899Y-12010710D01*
X14044613Y-12310710D02*
X14044613Y-12010710D01*
X14144613Y-12224996D01*
X14244613Y-12010710D01*
X14244613Y-12310710D01*
X14516042Y-12310710D02*
X14516042Y-12153567D01*
X14501756Y-12124996D01*
X14473184Y-12110710D01*
X14416042Y-12110710D01*
X14387470Y-12124996D01*
X14516042Y-12296425D02*
X14487470Y-12310710D01*
X14416042Y-12310710D01*
X14387470Y-12296425D01*
X14373184Y-12267853D01*
X14373184Y-12239282D01*
X14387470Y-12210710D01*
X14416042Y-12196425D01*
X14487470Y-12196425D01*
X14516042Y-12182139D01*
X14658899Y-12110710D02*
X14658899Y-12410710D01*
X14658899Y-12124996D02*
X14687470Y-12110710D01*
X14744613Y-12110710D01*
X14773184Y-12124996D01*
X14787470Y-12139282D01*
X14801756Y-12167853D01*
X14801756Y-12253567D01*
X14787470Y-12282139D01*
X14773184Y-12296425D01*
X14744613Y-12310710D01*
X14687470Y-12310710D01*
X14658899Y-12296425D01*
X14930327Y-12282139D02*
X14944613Y-12296425D01*
X14930327Y-12310710D01*
X14916042Y-12296425D01*
X14930327Y-12282139D01*
X14930327Y-12310710D01*
X14930327Y-12124996D02*
X14944613Y-12139282D01*
X14930327Y-12153567D01*
X14916042Y-12139282D01*
X14930327Y-12124996D01*
X14930327Y-12153567D01*
X12556756Y-12789996D02*
X12586756Y-12819996D01*
X12586756Y-12789996D02*
X12556756Y-12819996D01*
X12930327Y-12640710D02*
X12958899Y-12640710D01*
X12987470Y-12654996D01*
X13001756Y-12669282D01*
X13016042Y-12697853D01*
X13030327Y-12754996D01*
X13030327Y-12826425D01*
X13016042Y-12883567D01*
X13001756Y-12912139D01*
X12987470Y-12926425D01*
X12958899Y-12940710D01*
X12930327Y-12940710D01*
X12901756Y-12926425D01*
X12887470Y-12912139D01*
X12873184Y-12883567D01*
X12858899Y-12826425D01*
X12858899Y-12754996D01*
X12873184Y-12697853D01*
X12887470Y-12669282D01*
X12901756Y-12654996D01*
X12930327Y-12640710D01*
X13158899Y-12912139D02*
X13173184Y-12926425D01*
X13158899Y-12940710D01*
X13144613Y-12926425D01*
X13158899Y-12912139D01*
X13158899Y-12940710D01*
X13273184Y-12640710D02*
X13458899Y-12640710D01*
X13358899Y-12754996D01*
X13401756Y-12754996D01*
X13430327Y-12769282D01*
X13444613Y-12783567D01*
X13458899Y-12812139D01*
X13458899Y-12883567D01*
X13444613Y-12912139D01*
X13430327Y-12926425D01*
X13401756Y-12940710D01*
X13316042Y-12940710D01*
X13287470Y-12926425D01*
X13273184Y-12912139D01*
X13644613Y-12640710D02*
X13673184Y-12640710D01*
X13701756Y-12654996D01*
X13716042Y-12669282D01*
X13730327Y-12697853D01*
X13744613Y-12754996D01*
X13744613Y-12826425D01*
X13730327Y-12883567D01*
X13716042Y-12912139D01*
X13701756Y-12926425D01*
X13673184Y-12940710D01*
X13644613Y-12940710D01*
X13616042Y-12926425D01*
X13601756Y-12912139D01*
X13587470Y-12883567D01*
X13573184Y-12826425D01*
X13573184Y-12754996D01*
X13587470Y-12697853D01*
X13601756Y-12669282D01*
X13616042Y-12654996D01*
X13644613Y-12640710D01*
X13873184Y-12940710D02*
X13873184Y-12740710D01*
X13873184Y-12769282D02*
X13887470Y-12754996D01*
X13916042Y-12740710D01*
X13958899Y-12740710D01*
X13987470Y-12754996D01*
X14001756Y-12783567D01*
X14001756Y-12940710D01*
X14001756Y-12783567D02*
X14016042Y-12754996D01*
X14044613Y-12740710D01*
X14087470Y-12740710D01*
X14116042Y-12754996D01*
X14130327Y-12783567D01*
X14130327Y-12940710D01*
X14273184Y-12940710D02*
X14273184Y-12740710D01*
X14273184Y-12769282D02*
X14287470Y-12754996D01*
X14316042Y-12740710D01*
X14358899Y-12740710D01*
X14387470Y-12754996D01*
X14401756Y-12783567D01*
X14401756Y-12940710D01*
X14401756Y-12783567D02*
X14416042Y-12754996D01*
X14444613Y-12740710D01*
X14487470Y-12740710D01*
X14516042Y-12754996D01*
X14530327Y-12783567D01*
X14530327Y-12940710D01*
X15116042Y-12626425D02*
X14858899Y-13012139D01*
X15501756Y-12640710D02*
X15530327Y-12640710D01*
X15558899Y-12654996D01*
X15573184Y-12669282D01*
X15587470Y-12697853D01*
X15601756Y-12754996D01*
X15601756Y-12826425D01*
X15587470Y-12883567D01*
X15573184Y-12912139D01*
X15558899Y-12926425D01*
X15530327Y-12940710D01*
X15501756Y-12940710D01*
X15473184Y-12926425D01*
X15458899Y-12912139D01*
X15444613Y-12883567D01*
X15430327Y-12826425D01*
X15430327Y-12754996D01*
X15444613Y-12697853D01*
X15458899Y-12669282D01*
X15473184Y-12654996D01*
X15501756Y-12640710D01*
X15730327Y-12912139D02*
X15744613Y-12926425D01*
X15730327Y-12940710D01*
X15716042Y-12926425D01*
X15730327Y-12912139D01*
X15730327Y-12940710D01*
X15930327Y-12640710D02*
X15958899Y-12640710D01*
X15987470Y-12654996D01*
X16001756Y-12669282D01*
X16016042Y-12697853D01*
X16030327Y-12754996D01*
X16030327Y-12826425D01*
X16016042Y-12883567D01*
X16001756Y-12912139D01*
X15987470Y-12926425D01*
X15958899Y-12940710D01*
X15930327Y-12940710D01*
X15901756Y-12926425D01*
X15887470Y-12912139D01*
X15873184Y-12883567D01*
X15858899Y-12826425D01*
X15858899Y-12754996D01*
X15873184Y-12697853D01*
X15887470Y-12669282D01*
X15901756Y-12654996D01*
X15930327Y-12640710D01*
X16316042Y-12940710D02*
X16144613Y-12940710D01*
X16230327Y-12940710D02*
X16230327Y-12640710D01*
X16201756Y-12683567D01*
X16173184Y-12712139D01*
X16144613Y-12726425D01*
X16430327Y-12669282D02*
X16444613Y-12654996D01*
X16473184Y-12640710D01*
X16544613Y-12640710D01*
X16573184Y-12654996D01*
X16587470Y-12669282D01*
X16601756Y-12697853D01*
X16601756Y-12726425D01*
X16587470Y-12769282D01*
X16416042Y-12940710D01*
X16601756Y-12940710D01*
X16716042Y-12640710D02*
X16716042Y-12697853D01*
X16830327Y-12640710D02*
X16830327Y-12697853D01*
X17273184Y-13054996D02*
X17258899Y-13040710D01*
X17230327Y-12997853D01*
X17216042Y-12969282D01*
X17201756Y-12926425D01*
X17187470Y-12854996D01*
X17187470Y-12797853D01*
X17201756Y-12726425D01*
X17216042Y-12683567D01*
X17230327Y-12654996D01*
X17258899Y-12612139D01*
X17273184Y-12597853D01*
X17358899Y-12640710D02*
X17544613Y-12640710D01*
X17444613Y-12754996D01*
X17487470Y-12754996D01*
X17516042Y-12769282D01*
X17530327Y-12783567D01*
X17544613Y-12812139D01*
X17544613Y-12883567D01*
X17530327Y-12912139D01*
X17516042Y-12926425D01*
X17487470Y-12940710D01*
X17401756Y-12940710D01*
X17373184Y-12926425D01*
X17358899Y-12912139D01*
X17830327Y-12940710D02*
X17658899Y-12940710D01*
X17744613Y-12940710D02*
X17744613Y-12640710D01*
X17716042Y-12683567D01*
X17687470Y-12712139D01*
X17658899Y-12726425D01*
X18187470Y-12940710D02*
X18187470Y-12640710D01*
X18316042Y-12940710D02*
X18316042Y-12783567D01*
X18301756Y-12754996D01*
X18273184Y-12740710D01*
X18230327Y-12740710D01*
X18201756Y-12754996D01*
X18187470Y-12769282D01*
X18501756Y-12940710D02*
X18473184Y-12926425D01*
X18458899Y-12912139D01*
X18444613Y-12883567D01*
X18444613Y-12797853D01*
X18458899Y-12769282D01*
X18473184Y-12754996D01*
X18501756Y-12740710D01*
X18544613Y-12740710D01*
X18573184Y-12754996D01*
X18587470Y-12769282D01*
X18601756Y-12797853D01*
X18601756Y-12883567D01*
X18587470Y-12912139D01*
X18573184Y-12926425D01*
X18544613Y-12940710D01*
X18501756Y-12940710D01*
X18773184Y-12940710D02*
X18744613Y-12926425D01*
X18730327Y-12897853D01*
X18730327Y-12640710D01*
X19001756Y-12926425D02*
X18973184Y-12940710D01*
X18916042Y-12940710D01*
X18887470Y-12926425D01*
X18873184Y-12897853D01*
X18873184Y-12783567D01*
X18887470Y-12754996D01*
X18916042Y-12740710D01*
X18973184Y-12740710D01*
X19001756Y-12754996D01*
X19016042Y-12783567D01*
X19016042Y-12812139D01*
X18873184Y-12840710D01*
X19130327Y-12926425D02*
X19158899Y-12940710D01*
X19216042Y-12940710D01*
X19244613Y-12926425D01*
X19258899Y-12897853D01*
X19258899Y-12883567D01*
X19244613Y-12854996D01*
X19216042Y-12840710D01*
X19173184Y-12840710D01*
X19144613Y-12826425D01*
X19130327Y-12797853D01*
X19130327Y-12783567D01*
X19144613Y-12754996D01*
X19173184Y-12740710D01*
X19216042Y-12740710D01*
X19244613Y-12754996D01*
X19358899Y-13054996D02*
X19373184Y-13040710D01*
X19401756Y-12997853D01*
X19416042Y-12969282D01*
X19430327Y-12926425D01*
X19444613Y-12854996D01*
X19444613Y-12797853D01*
X19430327Y-12726425D01*
X19416042Y-12683567D01*
X19401756Y-12654996D01*
X19373184Y-12612139D01*
X19358899Y-12597853D01*
X12586756Y-13200996D02*
G75*
G03*
X12586756Y-13200996I-15250J0D01*
G01*
X12930327Y-13036710D02*
X12958899Y-13036710D01*
X12987470Y-13050996D01*
X13001756Y-13065282D01*
X13016042Y-13093853D01*
X13030327Y-13150996D01*
X13030327Y-13222425D01*
X13016042Y-13279567D01*
X13001756Y-13308139D01*
X12987470Y-13322425D01*
X12958899Y-13336710D01*
X12930327Y-13336710D01*
X12901756Y-13322425D01*
X12887470Y-13308139D01*
X12873184Y-13279567D01*
X12858899Y-13222425D01*
X12858899Y-13150996D01*
X12873184Y-13093853D01*
X12887470Y-13065282D01*
X12901756Y-13050996D01*
X12930327Y-13036710D01*
X13158899Y-13308139D02*
X13173184Y-13322425D01*
X13158899Y-13336710D01*
X13144613Y-13322425D01*
X13158899Y-13308139D01*
X13158899Y-13336710D01*
X13273184Y-13036710D02*
X13458899Y-13036710D01*
X13358899Y-13150996D01*
X13401756Y-13150996D01*
X13430327Y-13165282D01*
X13444613Y-13179567D01*
X13458899Y-13208139D01*
X13458899Y-13279567D01*
X13444613Y-13308139D01*
X13430327Y-13322425D01*
X13401756Y-13336710D01*
X13316042Y-13336710D01*
X13287470Y-13322425D01*
X13273184Y-13308139D01*
X13644613Y-13036710D02*
X13673184Y-13036710D01*
X13701756Y-13050996D01*
X13716042Y-13065282D01*
X13730327Y-13093853D01*
X13744613Y-13150996D01*
X13744613Y-13222425D01*
X13730327Y-13279567D01*
X13716042Y-13308139D01*
X13701756Y-13322425D01*
X13673184Y-13336710D01*
X13644613Y-13336710D01*
X13616042Y-13322425D01*
X13601756Y-13308139D01*
X13587470Y-13279567D01*
X13573184Y-13222425D01*
X13573184Y-13150996D01*
X13587470Y-13093853D01*
X13601756Y-13065282D01*
X13616042Y-13050996D01*
X13644613Y-13036710D01*
X13873184Y-13336710D02*
X13873184Y-13136710D01*
X13873184Y-13165282D02*
X13887470Y-13150996D01*
X13916042Y-13136710D01*
X13958899Y-13136710D01*
X13987470Y-13150996D01*
X14001756Y-13179567D01*
X14001756Y-13336710D01*
X14001756Y-13179567D02*
X14016042Y-13150996D01*
X14044613Y-13136710D01*
X14087470Y-13136710D01*
X14116042Y-13150996D01*
X14130327Y-13179567D01*
X14130327Y-13336710D01*
X14273184Y-13336710D02*
X14273184Y-13136710D01*
X14273184Y-13165282D02*
X14287470Y-13150996D01*
X14316042Y-13136710D01*
X14358899Y-13136710D01*
X14387470Y-13150996D01*
X14401756Y-13179567D01*
X14401756Y-13336710D01*
X14401756Y-13179567D02*
X14416042Y-13150996D01*
X14444613Y-13136710D01*
X14487470Y-13136710D01*
X14516042Y-13150996D01*
X14530327Y-13179567D01*
X14530327Y-13336710D01*
X15116042Y-13022425D02*
X14858899Y-13408139D01*
X15501756Y-13036710D02*
X15530327Y-13036710D01*
X15558899Y-13050996D01*
X15573184Y-13065282D01*
X15587470Y-13093853D01*
X15601756Y-13150996D01*
X15601756Y-13222425D01*
X15587470Y-13279567D01*
X15573184Y-13308139D01*
X15558899Y-13322425D01*
X15530327Y-13336710D01*
X15501756Y-13336710D01*
X15473184Y-13322425D01*
X15458899Y-13308139D01*
X15444613Y-13279567D01*
X15430327Y-13222425D01*
X15430327Y-13150996D01*
X15444613Y-13093853D01*
X15458899Y-13065282D01*
X15473184Y-13050996D01*
X15501756Y-13036710D01*
X15730327Y-13308139D02*
X15744613Y-13322425D01*
X15730327Y-13336710D01*
X15716042Y-13322425D01*
X15730327Y-13308139D01*
X15730327Y-13336710D01*
X15930327Y-13036710D02*
X15958899Y-13036710D01*
X15987470Y-13050996D01*
X16001756Y-13065282D01*
X16016042Y-13093853D01*
X16030327Y-13150996D01*
X16030327Y-13222425D01*
X16016042Y-13279567D01*
X16001756Y-13308139D01*
X15987470Y-13322425D01*
X15958899Y-13336710D01*
X15930327Y-13336710D01*
X15901756Y-13322425D01*
X15887470Y-13308139D01*
X15873184Y-13279567D01*
X15858899Y-13222425D01*
X15858899Y-13150996D01*
X15873184Y-13093853D01*
X15887470Y-13065282D01*
X15901756Y-13050996D01*
X15930327Y-13036710D01*
X16316042Y-13336710D02*
X16144613Y-13336710D01*
X16230327Y-13336710D02*
X16230327Y-13036710D01*
X16201756Y-13079567D01*
X16173184Y-13108139D01*
X16144613Y-13122425D01*
X16430327Y-13065282D02*
X16444613Y-13050996D01*
X16473184Y-13036710D01*
X16544613Y-13036710D01*
X16573184Y-13050996D01*
X16587470Y-13065282D01*
X16601756Y-13093853D01*
X16601756Y-13122425D01*
X16587470Y-13165282D01*
X16416042Y-13336710D01*
X16601756Y-13336710D01*
X16716042Y-13036710D02*
X16716042Y-13093853D01*
X16830327Y-13036710D02*
X16830327Y-13093853D01*
X17273184Y-13450996D02*
X17258899Y-13436710D01*
X17230327Y-13393853D01*
X17216042Y-13365282D01*
X17201756Y-13322425D01*
X17187470Y-13250996D01*
X17187470Y-13193853D01*
X17201756Y-13122425D01*
X17216042Y-13079567D01*
X17230327Y-13050996D01*
X17258899Y-13008139D01*
X17273184Y-12993853D01*
X17358899Y-13036710D02*
X17544613Y-13036710D01*
X17444613Y-13150996D01*
X17487470Y-13150996D01*
X17516042Y-13165282D01*
X17530327Y-13179567D01*
X17544613Y-13208139D01*
X17544613Y-13279567D01*
X17530327Y-13308139D01*
X17516042Y-13322425D01*
X17487470Y-13336710D01*
X17401756Y-13336710D01*
X17373184Y-13322425D01*
X17358899Y-13308139D01*
X17801756Y-13136710D02*
X17801756Y-13336710D01*
X17730327Y-13022425D02*
X17658899Y-13236710D01*
X17844613Y-13236710D01*
X18187470Y-13336710D02*
X18187470Y-13036710D01*
X18316042Y-13336710D02*
X18316042Y-13179567D01*
X18301756Y-13150996D01*
X18273184Y-13136710D01*
X18230327Y-13136710D01*
X18201756Y-13150996D01*
X18187470Y-13165282D01*
X18501756Y-13336710D02*
X18473184Y-13322425D01*
X18458899Y-13308139D01*
X18444613Y-13279567D01*
X18444613Y-13193853D01*
X18458899Y-13165282D01*
X18473184Y-13150996D01*
X18501756Y-13136710D01*
X18544613Y-13136710D01*
X18573184Y-13150996D01*
X18587470Y-13165282D01*
X18601756Y-13193853D01*
X18601756Y-13279567D01*
X18587470Y-13308139D01*
X18573184Y-13322425D01*
X18544613Y-13336710D01*
X18501756Y-13336710D01*
X18773184Y-13336710D02*
X18744613Y-13322425D01*
X18730327Y-13293853D01*
X18730327Y-13036710D01*
X19001756Y-13322425D02*
X18973184Y-13336710D01*
X18916042Y-13336710D01*
X18887470Y-13322425D01*
X18873184Y-13293853D01*
X18873184Y-13179567D01*
X18887470Y-13150996D01*
X18916042Y-13136710D01*
X18973184Y-13136710D01*
X19001756Y-13150996D01*
X19016042Y-13179567D01*
X19016042Y-13208139D01*
X18873184Y-13236710D01*
X19130327Y-13322425D02*
X19158899Y-13336710D01*
X19216042Y-13336710D01*
X19244613Y-13322425D01*
X19258899Y-13293853D01*
X19258899Y-13279567D01*
X19244613Y-13250996D01*
X19216042Y-13236710D01*
X19173184Y-13236710D01*
X19144613Y-13222425D01*
X19130327Y-13193853D01*
X19130327Y-13179567D01*
X19144613Y-13150996D01*
X19173184Y-13136710D01*
X19216042Y-13136710D01*
X19244613Y-13150996D01*
X19358899Y-13450996D02*
X19373184Y-13436710D01*
X19401756Y-13393853D01*
X19416042Y-13365282D01*
X19430327Y-13322425D01*
X19444613Y-13250996D01*
X19444613Y-13193853D01*
X19430327Y-13122425D01*
X19416042Y-13079567D01*
X19401756Y-13050996D01*
X19373184Y-13008139D01*
X19358899Y-12993853D01*
X12566756Y-13576996D02*
X12566756Y-13616996D01*
X12546756Y-13596996D02*
X12586756Y-13596996D01*
X12930327Y-13432710D02*
X12958899Y-13432710D01*
X12987470Y-13446996D01*
X13001756Y-13461282D01*
X13016042Y-13489853D01*
X13030327Y-13546996D01*
X13030327Y-13618425D01*
X13016042Y-13675567D01*
X13001756Y-13704139D01*
X12987470Y-13718425D01*
X12958899Y-13732710D01*
X12930327Y-13732710D01*
X12901756Y-13718425D01*
X12887470Y-13704139D01*
X12873184Y-13675567D01*
X12858899Y-13618425D01*
X12858899Y-13546996D01*
X12873184Y-13489853D01*
X12887470Y-13461282D01*
X12901756Y-13446996D01*
X12930327Y-13432710D01*
X13158899Y-13704139D02*
X13173184Y-13718425D01*
X13158899Y-13732710D01*
X13144613Y-13718425D01*
X13158899Y-13704139D01*
X13158899Y-13732710D01*
X13430327Y-13532710D02*
X13430327Y-13732710D01*
X13358899Y-13418425D02*
X13287470Y-13632710D01*
X13473184Y-13632710D01*
X13644613Y-13432710D02*
X13673184Y-13432710D01*
X13701756Y-13446996D01*
X13716042Y-13461282D01*
X13730327Y-13489853D01*
X13744613Y-13546996D01*
X13744613Y-13618425D01*
X13730327Y-13675567D01*
X13716042Y-13704139D01*
X13701756Y-13718425D01*
X13673184Y-13732710D01*
X13644613Y-13732710D01*
X13616042Y-13718425D01*
X13601756Y-13704139D01*
X13587470Y-13675567D01*
X13573184Y-13618425D01*
X13573184Y-13546996D01*
X13587470Y-13489853D01*
X13601756Y-13461282D01*
X13616042Y-13446996D01*
X13644613Y-13432710D01*
X13873184Y-13732710D02*
X13873184Y-13532710D01*
X13873184Y-13561282D02*
X13887470Y-13546996D01*
X13916042Y-13532710D01*
X13958899Y-13532710D01*
X13987470Y-13546996D01*
X14001756Y-13575567D01*
X14001756Y-13732710D01*
X14001756Y-13575567D02*
X14016042Y-13546996D01*
X14044613Y-13532710D01*
X14087470Y-13532710D01*
X14116042Y-13546996D01*
X14130327Y-13575567D01*
X14130327Y-13732710D01*
X14273184Y-13732710D02*
X14273184Y-13532710D01*
X14273184Y-13561282D02*
X14287470Y-13546996D01*
X14316042Y-13532710D01*
X14358899Y-13532710D01*
X14387470Y-13546996D01*
X14401756Y-13575567D01*
X14401756Y-13732710D01*
X14401756Y-13575567D02*
X14416042Y-13546996D01*
X14444613Y-13532710D01*
X14487470Y-13532710D01*
X14516042Y-13546996D01*
X14530327Y-13575567D01*
X14530327Y-13732710D01*
X15116042Y-13418425D02*
X14858899Y-13804139D01*
X15501756Y-13432710D02*
X15530327Y-13432710D01*
X15558899Y-13446996D01*
X15573184Y-13461282D01*
X15587470Y-13489853D01*
X15601756Y-13546996D01*
X15601756Y-13618425D01*
X15587470Y-13675567D01*
X15573184Y-13704139D01*
X15558899Y-13718425D01*
X15530327Y-13732710D01*
X15501756Y-13732710D01*
X15473184Y-13718425D01*
X15458899Y-13704139D01*
X15444613Y-13675567D01*
X15430327Y-13618425D01*
X15430327Y-13546996D01*
X15444613Y-13489853D01*
X15458899Y-13461282D01*
X15473184Y-13446996D01*
X15501756Y-13432710D01*
X15730327Y-13704139D02*
X15744613Y-13718425D01*
X15730327Y-13732710D01*
X15716042Y-13718425D01*
X15730327Y-13704139D01*
X15730327Y-13732710D01*
X15930327Y-13432710D02*
X15958899Y-13432710D01*
X15987470Y-13446996D01*
X16001756Y-13461282D01*
X16016042Y-13489853D01*
X16030327Y-13546996D01*
X16030327Y-13618425D01*
X16016042Y-13675567D01*
X16001756Y-13704139D01*
X15987470Y-13718425D01*
X15958899Y-13732710D01*
X15930327Y-13732710D01*
X15901756Y-13718425D01*
X15887470Y-13704139D01*
X15873184Y-13675567D01*
X15858899Y-13618425D01*
X15858899Y-13546996D01*
X15873184Y-13489853D01*
X15887470Y-13461282D01*
X15901756Y-13446996D01*
X15930327Y-13432710D01*
X16316042Y-13732710D02*
X16144613Y-13732710D01*
X16230327Y-13732710D02*
X16230327Y-13432710D01*
X16201756Y-13475567D01*
X16173184Y-13504139D01*
X16144613Y-13518425D01*
X16573184Y-13432710D02*
X16516042Y-13432710D01*
X16487470Y-13446996D01*
X16473184Y-13461282D01*
X16444613Y-13504139D01*
X16430327Y-13561282D01*
X16430327Y-13675567D01*
X16444613Y-13704139D01*
X16458899Y-13718425D01*
X16487470Y-13732710D01*
X16544613Y-13732710D01*
X16573184Y-13718425D01*
X16587470Y-13704139D01*
X16601756Y-13675567D01*
X16601756Y-13604139D01*
X16587470Y-13575567D01*
X16573184Y-13561282D01*
X16544613Y-13546996D01*
X16487470Y-13546996D01*
X16458899Y-13561282D01*
X16444613Y-13575567D01*
X16430327Y-13604139D01*
X16716042Y-13432710D02*
X16716042Y-13489853D01*
X16830327Y-13432710D02*
X16830327Y-13489853D01*
X17273184Y-13846996D02*
X17258899Y-13832710D01*
X17230327Y-13789853D01*
X17216042Y-13761282D01*
X17201756Y-13718425D01*
X17187470Y-13646996D01*
X17187470Y-13589853D01*
X17201756Y-13518425D01*
X17216042Y-13475567D01*
X17230327Y-13446996D01*
X17258899Y-13404139D01*
X17273184Y-13389853D01*
X17544613Y-13732710D02*
X17373184Y-13732710D01*
X17458899Y-13732710D02*
X17458899Y-13432710D01*
X17430327Y-13475567D01*
X17401756Y-13504139D01*
X17373184Y-13518425D01*
X17816042Y-13432710D02*
X17673184Y-13432710D01*
X17658899Y-13575567D01*
X17673184Y-13561282D01*
X17701756Y-13546996D01*
X17773184Y-13546996D01*
X17801756Y-13561282D01*
X17816042Y-13575567D01*
X17830327Y-13604139D01*
X17830327Y-13675567D01*
X17816042Y-13704139D01*
X17801756Y-13718425D01*
X17773184Y-13732710D01*
X17701756Y-13732710D01*
X17673184Y-13718425D01*
X17658899Y-13704139D01*
X18187470Y-13732710D02*
X18187470Y-13432710D01*
X18316042Y-13732710D02*
X18316042Y-13575567D01*
X18301756Y-13546996D01*
X18273184Y-13532710D01*
X18230327Y-13532710D01*
X18201756Y-13546996D01*
X18187470Y-13561282D01*
X18501756Y-13732710D02*
X18473184Y-13718425D01*
X18458899Y-13704139D01*
X18444613Y-13675567D01*
X18444613Y-13589853D01*
X18458899Y-13561282D01*
X18473184Y-13546996D01*
X18501756Y-13532710D01*
X18544613Y-13532710D01*
X18573184Y-13546996D01*
X18587470Y-13561282D01*
X18601756Y-13589853D01*
X18601756Y-13675567D01*
X18587470Y-13704139D01*
X18573184Y-13718425D01*
X18544613Y-13732710D01*
X18501756Y-13732710D01*
X18773184Y-13732710D02*
X18744613Y-13718425D01*
X18730327Y-13689853D01*
X18730327Y-13432710D01*
X19001756Y-13718425D02*
X18973184Y-13732710D01*
X18916042Y-13732710D01*
X18887470Y-13718425D01*
X18873184Y-13689853D01*
X18873184Y-13575567D01*
X18887470Y-13546996D01*
X18916042Y-13532710D01*
X18973184Y-13532710D01*
X19001756Y-13546996D01*
X19016042Y-13575567D01*
X19016042Y-13604139D01*
X18873184Y-13632710D01*
X19130327Y-13718425D02*
X19158899Y-13732710D01*
X19216042Y-13732710D01*
X19244613Y-13718425D01*
X19258899Y-13689853D01*
X19258899Y-13675567D01*
X19244613Y-13646996D01*
X19216042Y-13632710D01*
X19173184Y-13632710D01*
X19144613Y-13618425D01*
X19130327Y-13589853D01*
X19130327Y-13575567D01*
X19144613Y-13546996D01*
X19173184Y-13532710D01*
X19216042Y-13532710D01*
X19244613Y-13546996D01*
X19358899Y-13846996D02*
X19373184Y-13832710D01*
X19401756Y-13789853D01*
X19416042Y-13761282D01*
X19430327Y-13718425D01*
X19444613Y-13646996D01*
X19444613Y-13589853D01*
X19430327Y-13518425D01*
X19416042Y-13475567D01*
X19401756Y-13446996D01*
X19373184Y-13404139D01*
X19358899Y-13389853D01*
X12572112Y-14028352D02*
X12572112Y-13957640D01*
X12501400Y-13957640D01*
X12501400Y-14028352D01*
X12572112Y-14028352D01*
X13030327Y-14128710D02*
X12858899Y-14128710D01*
X12944613Y-14128710D02*
X12944613Y-13828710D01*
X12916042Y-13871567D01*
X12887470Y-13900139D01*
X12858899Y-13914425D01*
X13158899Y-14100139D02*
X13173184Y-14114425D01*
X13158899Y-14128710D01*
X13144613Y-14114425D01*
X13158899Y-14100139D01*
X13158899Y-14128710D01*
X13358899Y-13828710D02*
X13387470Y-13828710D01*
X13416042Y-13842996D01*
X13430327Y-13857282D01*
X13444613Y-13885853D01*
X13458899Y-13942996D01*
X13458899Y-14014425D01*
X13444613Y-14071567D01*
X13430327Y-14100139D01*
X13416042Y-14114425D01*
X13387470Y-14128710D01*
X13358899Y-14128710D01*
X13330327Y-14114425D01*
X13316042Y-14100139D01*
X13301756Y-14071567D01*
X13287470Y-14014425D01*
X13287470Y-13942996D01*
X13301756Y-13885853D01*
X13316042Y-13857282D01*
X13330327Y-13842996D01*
X13358899Y-13828710D01*
X13644613Y-13828710D02*
X13673184Y-13828710D01*
X13701756Y-13842996D01*
X13716042Y-13857282D01*
X13730327Y-13885853D01*
X13744613Y-13942996D01*
X13744613Y-14014425D01*
X13730327Y-14071567D01*
X13716042Y-14100139D01*
X13701756Y-14114425D01*
X13673184Y-14128710D01*
X13644613Y-14128710D01*
X13616042Y-14114425D01*
X13601756Y-14100139D01*
X13587470Y-14071567D01*
X13573184Y-14014425D01*
X13573184Y-13942996D01*
X13587470Y-13885853D01*
X13601756Y-13857282D01*
X13616042Y-13842996D01*
X13644613Y-13828710D01*
X13873184Y-14128710D02*
X13873184Y-13928710D01*
X13873184Y-13957282D02*
X13887470Y-13942996D01*
X13916042Y-13928710D01*
X13958899Y-13928710D01*
X13987470Y-13942996D01*
X14001756Y-13971567D01*
X14001756Y-14128710D01*
X14001756Y-13971567D02*
X14016042Y-13942996D01*
X14044613Y-13928710D01*
X14087470Y-13928710D01*
X14116042Y-13942996D01*
X14130327Y-13971567D01*
X14130327Y-14128710D01*
X14273184Y-14128710D02*
X14273184Y-13928710D01*
X14273184Y-13957282D02*
X14287470Y-13942996D01*
X14316042Y-13928710D01*
X14358899Y-13928710D01*
X14387470Y-13942996D01*
X14401756Y-13971567D01*
X14401756Y-14128710D01*
X14401756Y-13971567D02*
X14416042Y-13942996D01*
X14444613Y-13928710D01*
X14487470Y-13928710D01*
X14516042Y-13942996D01*
X14530327Y-13971567D01*
X14530327Y-14128710D01*
X15116042Y-13814425D02*
X14858899Y-14200139D01*
X15501756Y-13828710D02*
X15530327Y-13828710D01*
X15558899Y-13842996D01*
X15573184Y-13857282D01*
X15587470Y-13885853D01*
X15601756Y-13942996D01*
X15601756Y-14014425D01*
X15587470Y-14071567D01*
X15573184Y-14100139D01*
X15558899Y-14114425D01*
X15530327Y-14128710D01*
X15501756Y-14128710D01*
X15473184Y-14114425D01*
X15458899Y-14100139D01*
X15444613Y-14071567D01*
X15430327Y-14014425D01*
X15430327Y-13942996D01*
X15444613Y-13885853D01*
X15458899Y-13857282D01*
X15473184Y-13842996D01*
X15501756Y-13828710D01*
X15730327Y-14100139D02*
X15744613Y-14114425D01*
X15730327Y-14128710D01*
X15716042Y-14114425D01*
X15730327Y-14100139D01*
X15730327Y-14128710D01*
X15930327Y-13828710D02*
X15958899Y-13828710D01*
X15987470Y-13842996D01*
X16001756Y-13857282D01*
X16016042Y-13885853D01*
X16030327Y-13942996D01*
X16030327Y-14014425D01*
X16016042Y-14071567D01*
X16001756Y-14100139D01*
X15987470Y-14114425D01*
X15958899Y-14128710D01*
X15930327Y-14128710D01*
X15901756Y-14114425D01*
X15887470Y-14100139D01*
X15873184Y-14071567D01*
X15858899Y-14014425D01*
X15858899Y-13942996D01*
X15873184Y-13885853D01*
X15887470Y-13857282D01*
X15901756Y-13842996D01*
X15930327Y-13828710D01*
X16130327Y-13828710D02*
X16316042Y-13828710D01*
X16216042Y-13942996D01*
X16258899Y-13942996D01*
X16287470Y-13957282D01*
X16301756Y-13971567D01*
X16316042Y-14000139D01*
X16316042Y-14071567D01*
X16301756Y-14100139D01*
X16287470Y-14114425D01*
X16258899Y-14128710D01*
X16173184Y-14128710D01*
X16144613Y-14114425D01*
X16130327Y-14100139D01*
X16458899Y-14128710D02*
X16516042Y-14128710D01*
X16544613Y-14114425D01*
X16558899Y-14100139D01*
X16587470Y-14057282D01*
X16601756Y-14000139D01*
X16601756Y-13885853D01*
X16587470Y-13857282D01*
X16573184Y-13842996D01*
X16544613Y-13828710D01*
X16487470Y-13828710D01*
X16458899Y-13842996D01*
X16444613Y-13857282D01*
X16430327Y-13885853D01*
X16430327Y-13957282D01*
X16444613Y-13985853D01*
X16458899Y-14000139D01*
X16487470Y-14014425D01*
X16544613Y-14014425D01*
X16573184Y-14000139D01*
X16587470Y-13985853D01*
X16601756Y-13957282D01*
X16716042Y-13828710D02*
X16716042Y-13885853D01*
X16830327Y-13828710D02*
X16830327Y-13885853D01*
X17273184Y-14242996D02*
X17258899Y-14228710D01*
X17230327Y-14185853D01*
X17216042Y-14157282D01*
X17201756Y-14114425D01*
X17187470Y-14042996D01*
X17187470Y-13985853D01*
X17201756Y-13914425D01*
X17216042Y-13871567D01*
X17230327Y-13842996D01*
X17258899Y-13800139D01*
X17273184Y-13785853D01*
X17516042Y-13928710D02*
X17516042Y-14128710D01*
X17444613Y-13814425D02*
X17373184Y-14028710D01*
X17558899Y-14028710D01*
X17830327Y-14128710D02*
X17658899Y-14128710D01*
X17744613Y-14128710D02*
X17744613Y-13828710D01*
X17716042Y-13871567D01*
X17687470Y-13900139D01*
X17658899Y-13914425D01*
X18187470Y-14128710D02*
X18187470Y-13828710D01*
X18316042Y-14128710D02*
X18316042Y-13971567D01*
X18301756Y-13942996D01*
X18273184Y-13928710D01*
X18230327Y-13928710D01*
X18201756Y-13942996D01*
X18187470Y-13957282D01*
X18501756Y-14128710D02*
X18473184Y-14114425D01*
X18458899Y-14100139D01*
X18444613Y-14071567D01*
X18444613Y-13985853D01*
X18458899Y-13957282D01*
X18473184Y-13942996D01*
X18501756Y-13928710D01*
X18544613Y-13928710D01*
X18573184Y-13942996D01*
X18587470Y-13957282D01*
X18601756Y-13985853D01*
X18601756Y-14071567D01*
X18587470Y-14100139D01*
X18573184Y-14114425D01*
X18544613Y-14128710D01*
X18501756Y-14128710D01*
X18773184Y-14128710D02*
X18744613Y-14114425D01*
X18730327Y-14085853D01*
X18730327Y-13828710D01*
X19001756Y-14114425D02*
X18973184Y-14128710D01*
X18916042Y-14128710D01*
X18887470Y-14114425D01*
X18873184Y-14085853D01*
X18873184Y-13971567D01*
X18887470Y-13942996D01*
X18916042Y-13928710D01*
X18973184Y-13928710D01*
X19001756Y-13942996D01*
X19016042Y-13971567D01*
X19016042Y-14000139D01*
X18873184Y-14028710D01*
X19130327Y-14114425D02*
X19158899Y-14128710D01*
X19216042Y-14128710D01*
X19244613Y-14114425D01*
X19258899Y-14085853D01*
X19258899Y-14071567D01*
X19244613Y-14042996D01*
X19216042Y-14028710D01*
X19173184Y-14028710D01*
X19144613Y-14014425D01*
X19130327Y-13985853D01*
X19130327Y-13971567D01*
X19144613Y-13942996D01*
X19173184Y-13928710D01*
X19216042Y-13928710D01*
X19244613Y-13942996D01*
X19358899Y-14242996D02*
X19373184Y-14228710D01*
X19401756Y-14185853D01*
X19416042Y-14157282D01*
X19430327Y-14114425D01*
X19444613Y-14042996D01*
X19444613Y-13985853D01*
X19430327Y-13914425D01*
X19416042Y-13871567D01*
X19401756Y-13842996D01*
X19373184Y-13800139D01*
X19358899Y-13785853D01*
M02*
