%FSLAX45Y45*%
G04 Gerber Fmt 4.5, Leading zero omitted, Abs format (unit mm)*
G04 Created by KiCad (PCBNEW (5.1.8)-1) date 2022-05-07 10:28:56*
%MOMM*%
%LPD*%
G01*
G04 APERTURE LIST*
%TA.AperFunction,Profile*%
%ADD10C,0.050000*%
%TD*%
%ADD11C,0.200000*%
%ADD12C,0.300000*%
G04 APERTURE END LIST*
D10*
X17100296Y-10985500D02*
X17095216Y-11391900D01*
X17100296Y-7785100D02*
X17100804Y-8191500D01*
X17100804Y-8191500D02*
X17100296Y-10985500D01*
X17095216Y-11583416D02*
X17095216Y-11391900D01*
X17100296Y-7595616D02*
X17100296Y-7785100D01*
X12843256Y-11842496D02*
G75*
G02*
X12589256Y-11588496I0J254000D01*
G01*
X17095216Y-11583416D02*
G75*
G02*
X16836136Y-11842496I-259080J0D01*
G01*
X16841216Y-7336536D02*
G75*
G02*
X17100296Y-7595616I0J-259080D01*
G01*
X12589256Y-7585456D02*
G75*
G02*
X12838176Y-7336536I248920J0D01*
G01*
X12843256Y-11842496D02*
X16836136Y-11842496D01*
X12589256Y-7585456D02*
X12589256Y-11588496D01*
X16841216Y-7336536D02*
X12838176Y-7336536D01*
D11*
X16711296Y-7455536D02*
X16981296Y-7725536D01*
X16981296Y-7455536D02*
X16711296Y-7725536D01*
X12708256Y-7455536D02*
X12978256Y-7725536D01*
X12978256Y-7455536D02*
X12708256Y-7725536D01*
D12*
X12873184Y-12310710D02*
X12873184Y-12010710D01*
X12944613Y-12010710D01*
X12987470Y-12024996D01*
X13016042Y-12053567D01*
X13030327Y-12082139D01*
X13044613Y-12139282D01*
X13044613Y-12182139D01*
X13030327Y-12239282D01*
X13016042Y-12267853D01*
X12987470Y-12296425D01*
X12944613Y-12310710D01*
X12873184Y-12310710D01*
X13173184Y-12310710D02*
X13173184Y-12110710D01*
X13173184Y-12167853D02*
X13187470Y-12139282D01*
X13201756Y-12124996D01*
X13230327Y-12110710D01*
X13258899Y-12110710D01*
X13358899Y-12310710D02*
X13358899Y-12110710D01*
X13358899Y-12010710D02*
X13344613Y-12024996D01*
X13358899Y-12039282D01*
X13373184Y-12024996D01*
X13358899Y-12010710D01*
X13358899Y-12039282D01*
X13544613Y-12310710D02*
X13516042Y-12296425D01*
X13501756Y-12267853D01*
X13501756Y-12010710D01*
X13701756Y-12310710D02*
X13673184Y-12296425D01*
X13658899Y-12267853D01*
X13658899Y-12010710D01*
X14044613Y-12310710D02*
X14044613Y-12010710D01*
X14144613Y-12224996D01*
X14244613Y-12010710D01*
X14244613Y-12310710D01*
X14516042Y-12310710D02*
X14516042Y-12153567D01*
X14501756Y-12124996D01*
X14473184Y-12110710D01*
X14416042Y-12110710D01*
X14387470Y-12124996D01*
X14516042Y-12296425D02*
X14487470Y-12310710D01*
X14416042Y-12310710D01*
X14387470Y-12296425D01*
X14373184Y-12267853D01*
X14373184Y-12239282D01*
X14387470Y-12210710D01*
X14416042Y-12196425D01*
X14487470Y-12196425D01*
X14516042Y-12182139D01*
X14658899Y-12110710D02*
X14658899Y-12410710D01*
X14658899Y-12124996D02*
X14687470Y-12110710D01*
X14744613Y-12110710D01*
X14773184Y-12124996D01*
X14787470Y-12139282D01*
X14801756Y-12167853D01*
X14801756Y-12253567D01*
X14787470Y-12282139D01*
X14773184Y-12296425D01*
X14744613Y-12310710D01*
X14687470Y-12310710D01*
X14658899Y-12296425D01*
X14930327Y-12282139D02*
X14944613Y-12296425D01*
X14930327Y-12310710D01*
X14916042Y-12296425D01*
X14930327Y-12282139D01*
X14930327Y-12310710D01*
X14930327Y-12124996D02*
X14944613Y-12139282D01*
X14930327Y-12153567D01*
X14916042Y-12139282D01*
X14930327Y-12124996D01*
X14930327Y-12153567D01*
X12316756Y-12669996D02*
X12586756Y-12939996D01*
X12586756Y-12669996D02*
X12316756Y-12939996D01*
X12858899Y-12669282D02*
X12873184Y-12654996D01*
X12901756Y-12640710D01*
X12973184Y-12640710D01*
X13001756Y-12654996D01*
X13016042Y-12669282D01*
X13030327Y-12697853D01*
X13030327Y-12726425D01*
X13016042Y-12769282D01*
X12844613Y-12940710D01*
X13030327Y-12940710D01*
X13158899Y-12912139D02*
X13173184Y-12926425D01*
X13158899Y-12940710D01*
X13144613Y-12926425D01*
X13158899Y-12912139D01*
X13158899Y-12940710D01*
X13273184Y-12640710D02*
X13473184Y-12640710D01*
X13344613Y-12940710D01*
X13644613Y-12640710D02*
X13673184Y-12640710D01*
X13701756Y-12654996D01*
X13716042Y-12669282D01*
X13730327Y-12697853D01*
X13744613Y-12754996D01*
X13744613Y-12826425D01*
X13730327Y-12883567D01*
X13716042Y-12912139D01*
X13701756Y-12926425D01*
X13673184Y-12940710D01*
X13644613Y-12940710D01*
X13616042Y-12926425D01*
X13601756Y-12912139D01*
X13587470Y-12883567D01*
X13573184Y-12826425D01*
X13573184Y-12754996D01*
X13587470Y-12697853D01*
X13601756Y-12669282D01*
X13616042Y-12654996D01*
X13644613Y-12640710D01*
X13873184Y-12940710D02*
X13873184Y-12740710D01*
X13873184Y-12769282D02*
X13887470Y-12754996D01*
X13916042Y-12740710D01*
X13958899Y-12740710D01*
X13987470Y-12754996D01*
X14001756Y-12783567D01*
X14001756Y-12940710D01*
X14001756Y-12783567D02*
X14016042Y-12754996D01*
X14044613Y-12740710D01*
X14087470Y-12740710D01*
X14116042Y-12754996D01*
X14130327Y-12783567D01*
X14130327Y-12940710D01*
X14273184Y-12940710D02*
X14273184Y-12740710D01*
X14273184Y-12769282D02*
X14287470Y-12754996D01*
X14316042Y-12740710D01*
X14358899Y-12740710D01*
X14387470Y-12754996D01*
X14401756Y-12783567D01*
X14401756Y-12940710D01*
X14401756Y-12783567D02*
X14416042Y-12754996D01*
X14444613Y-12740710D01*
X14487470Y-12740710D01*
X14516042Y-12754996D01*
X14530327Y-12783567D01*
X14530327Y-12940710D01*
X15116042Y-12626425D02*
X14858899Y-13012139D01*
X15501756Y-12640710D02*
X15530327Y-12640710D01*
X15558899Y-12654996D01*
X15573184Y-12669282D01*
X15587470Y-12697853D01*
X15601756Y-12754996D01*
X15601756Y-12826425D01*
X15587470Y-12883567D01*
X15573184Y-12912139D01*
X15558899Y-12926425D01*
X15530327Y-12940710D01*
X15501756Y-12940710D01*
X15473184Y-12926425D01*
X15458899Y-12912139D01*
X15444613Y-12883567D01*
X15430327Y-12826425D01*
X15430327Y-12754996D01*
X15444613Y-12697853D01*
X15458899Y-12669282D01*
X15473184Y-12654996D01*
X15501756Y-12640710D01*
X15730327Y-12912139D02*
X15744613Y-12926425D01*
X15730327Y-12940710D01*
X15716042Y-12926425D01*
X15730327Y-12912139D01*
X15730327Y-12940710D01*
X16030327Y-12940710D02*
X15858899Y-12940710D01*
X15944613Y-12940710D02*
X15944613Y-12640710D01*
X15916042Y-12683567D01*
X15887470Y-12712139D01*
X15858899Y-12726425D01*
X16216042Y-12640710D02*
X16244613Y-12640710D01*
X16273184Y-12654996D01*
X16287470Y-12669282D01*
X16301756Y-12697853D01*
X16316042Y-12754996D01*
X16316042Y-12826425D01*
X16301756Y-12883567D01*
X16287470Y-12912139D01*
X16273184Y-12926425D01*
X16244613Y-12940710D01*
X16216042Y-12940710D01*
X16187470Y-12926425D01*
X16173184Y-12912139D01*
X16158899Y-12883567D01*
X16144613Y-12826425D01*
X16144613Y-12754996D01*
X16158899Y-12697853D01*
X16173184Y-12669282D01*
X16187470Y-12654996D01*
X16216042Y-12640710D01*
X16573184Y-12640710D02*
X16516042Y-12640710D01*
X16487470Y-12654996D01*
X16473184Y-12669282D01*
X16444613Y-12712139D01*
X16430327Y-12769282D01*
X16430327Y-12883567D01*
X16444613Y-12912139D01*
X16458899Y-12926425D01*
X16487470Y-12940710D01*
X16544613Y-12940710D01*
X16573184Y-12926425D01*
X16587470Y-12912139D01*
X16601756Y-12883567D01*
X16601756Y-12812139D01*
X16587470Y-12783567D01*
X16573184Y-12769282D01*
X16544613Y-12754996D01*
X16487470Y-12754996D01*
X16458899Y-12769282D01*
X16444613Y-12783567D01*
X16430327Y-12812139D01*
X16716042Y-12640710D02*
X16716042Y-12697853D01*
X16830327Y-12640710D02*
X16830327Y-12697853D01*
X17273184Y-13054996D02*
X17258899Y-13040710D01*
X17230327Y-12997853D01*
X17216042Y-12969282D01*
X17201756Y-12926425D01*
X17187470Y-12854996D01*
X17187470Y-12797853D01*
X17201756Y-12726425D01*
X17216042Y-12683567D01*
X17230327Y-12654996D01*
X17258899Y-12612139D01*
X17273184Y-12597853D01*
X17373184Y-12669282D02*
X17387470Y-12654996D01*
X17416042Y-12640710D01*
X17487470Y-12640710D01*
X17516042Y-12654996D01*
X17530327Y-12669282D01*
X17544613Y-12697853D01*
X17544613Y-12726425D01*
X17530327Y-12769282D01*
X17358899Y-12940710D01*
X17544613Y-12940710D01*
X17901756Y-12940710D02*
X17901756Y-12640710D01*
X18030327Y-12940710D02*
X18030327Y-12783567D01*
X18016042Y-12754996D01*
X17987470Y-12740710D01*
X17944613Y-12740710D01*
X17916042Y-12754996D01*
X17901756Y-12769282D01*
X18216042Y-12940710D02*
X18187470Y-12926425D01*
X18173184Y-12912139D01*
X18158899Y-12883567D01*
X18158899Y-12797853D01*
X18173184Y-12769282D01*
X18187470Y-12754996D01*
X18216042Y-12740710D01*
X18258899Y-12740710D01*
X18287470Y-12754996D01*
X18301756Y-12769282D01*
X18316042Y-12797853D01*
X18316042Y-12883567D01*
X18301756Y-12912139D01*
X18287470Y-12926425D01*
X18258899Y-12940710D01*
X18216042Y-12940710D01*
X18487470Y-12940710D02*
X18458899Y-12926425D01*
X18444613Y-12897853D01*
X18444613Y-12640710D01*
X18716042Y-12926425D02*
X18687470Y-12940710D01*
X18630327Y-12940710D01*
X18601756Y-12926425D01*
X18587470Y-12897853D01*
X18587470Y-12783567D01*
X18601756Y-12754996D01*
X18630327Y-12740710D01*
X18687470Y-12740710D01*
X18716042Y-12754996D01*
X18730327Y-12783567D01*
X18730327Y-12812139D01*
X18587470Y-12840710D01*
X18844613Y-12926425D02*
X18873184Y-12940710D01*
X18930327Y-12940710D01*
X18958899Y-12926425D01*
X18973184Y-12897853D01*
X18973184Y-12883567D01*
X18958899Y-12854996D01*
X18930327Y-12840710D01*
X18887470Y-12840710D01*
X18858899Y-12826425D01*
X18844613Y-12797853D01*
X18844613Y-12783567D01*
X18858899Y-12754996D01*
X18887470Y-12740710D01*
X18930327Y-12740710D01*
X18958899Y-12754996D01*
X19073184Y-13054996D02*
X19087470Y-13040710D01*
X19116042Y-12997853D01*
X19130327Y-12969282D01*
X19144613Y-12926425D01*
X19158899Y-12854996D01*
X19158899Y-12797853D01*
X19144613Y-12726425D01*
X19130327Y-12683567D01*
X19116042Y-12654996D01*
X19087470Y-12612139D01*
X19073184Y-12597853D01*
X19616042Y-13054996D02*
X19601756Y-13040710D01*
X19573184Y-12997853D01*
X19558899Y-12969282D01*
X19544613Y-12926425D01*
X19530327Y-12854996D01*
X19530327Y-12797853D01*
X19544613Y-12726425D01*
X19558899Y-12683567D01*
X19573184Y-12654996D01*
X19601756Y-12612139D01*
X19616042Y-12597853D01*
X19730327Y-12740710D02*
X19730327Y-12940710D01*
X19730327Y-12769282D02*
X19744613Y-12754996D01*
X19773184Y-12740710D01*
X19816042Y-12740710D01*
X19844613Y-12754996D01*
X19858899Y-12783567D01*
X19858899Y-12940710D01*
X20044613Y-12940710D02*
X20016042Y-12926425D01*
X20001756Y-12912139D01*
X19987470Y-12883567D01*
X19987470Y-12797853D01*
X20001756Y-12769282D01*
X20016042Y-12754996D01*
X20044613Y-12740710D01*
X20087470Y-12740710D01*
X20116042Y-12754996D01*
X20130327Y-12769282D01*
X20144613Y-12797853D01*
X20144613Y-12883567D01*
X20130327Y-12912139D01*
X20116042Y-12926425D01*
X20087470Y-12940710D01*
X20044613Y-12940710D01*
X20230327Y-12740710D02*
X20344613Y-12740710D01*
X20273184Y-12640710D02*
X20273184Y-12897853D01*
X20287470Y-12926425D01*
X20316042Y-12940710D01*
X20344613Y-12940710D01*
X20673184Y-12740710D02*
X20673184Y-13040710D01*
X20673184Y-12754996D02*
X20701756Y-12740710D01*
X20758899Y-12740710D01*
X20787470Y-12754996D01*
X20801756Y-12769282D01*
X20816042Y-12797853D01*
X20816042Y-12883567D01*
X20801756Y-12912139D01*
X20787470Y-12926425D01*
X20758899Y-12940710D01*
X20701756Y-12940710D01*
X20673184Y-12926425D01*
X20987470Y-12940710D02*
X20958899Y-12926425D01*
X20944613Y-12897853D01*
X20944613Y-12640710D01*
X21230327Y-12940710D02*
X21230327Y-12783567D01*
X21216042Y-12754996D01*
X21187470Y-12740710D01*
X21130327Y-12740710D01*
X21101756Y-12754996D01*
X21230327Y-12926425D02*
X21201756Y-12940710D01*
X21130327Y-12940710D01*
X21101756Y-12926425D01*
X21087470Y-12897853D01*
X21087470Y-12869282D01*
X21101756Y-12840710D01*
X21130327Y-12826425D01*
X21201756Y-12826425D01*
X21230327Y-12812139D01*
X21330327Y-12740710D02*
X21444613Y-12740710D01*
X21373184Y-12640710D02*
X21373184Y-12897853D01*
X21387470Y-12926425D01*
X21416042Y-12940710D01*
X21444613Y-12940710D01*
X21658899Y-12926425D02*
X21630327Y-12940710D01*
X21573184Y-12940710D01*
X21544613Y-12926425D01*
X21530327Y-12897853D01*
X21530327Y-12783567D01*
X21544613Y-12754996D01*
X21573184Y-12740710D01*
X21630327Y-12740710D01*
X21658899Y-12754996D01*
X21673184Y-12783567D01*
X21673184Y-12812139D01*
X21530327Y-12840710D01*
X21930327Y-12940710D02*
X21930327Y-12640710D01*
X21930327Y-12926425D02*
X21901756Y-12940710D01*
X21844613Y-12940710D01*
X21816042Y-12926425D01*
X21801756Y-12912139D01*
X21787470Y-12883567D01*
X21787470Y-12797853D01*
X21801756Y-12769282D01*
X21816042Y-12754996D01*
X21844613Y-12740710D01*
X21901756Y-12740710D01*
X21930327Y-12754996D01*
X22044613Y-13054996D02*
X22058899Y-13040710D01*
X22087470Y-12997853D01*
X22101756Y-12969282D01*
X22116042Y-12926425D01*
X22130327Y-12854996D01*
X22130327Y-12797853D01*
X22116042Y-12726425D01*
X22101756Y-12683567D01*
X22087470Y-12654996D01*
X22058899Y-12612139D01*
X22044613Y-12597853D01*
M02*
