M48
; DRILL file {KiCad (5.1.8)-1} date 05/07/22 10:28:55
; FORMAT={-:-/ absolute / metric / decimal}
; #@! TF.CreationDate,2022-05-07T10:28:55+02:00
; #@! TF.GenerationSoftware,Kicad,Pcbnew,(5.1.8)-1
; #@! TF.FileFunction,Plated,1,2,PTH
FMAT,2
METRIC
T1C0.300
T2C0.305
T3C0.400
T4C1.000
%
G90
G05
T1
X134.214Y-86.868
X135.738Y-84.836
X135.817Y-111.305
X136.627Y-86.868
X138.151Y-110.871
X138.278Y-109.982
X138.89Y-110.564
X139.347Y-109.908
X141.199Y-100.838
X144.12Y-100.838
X146.406Y-106.934
X153.495Y-110.512
X153.94Y-108.836
X155.56Y-97.79
X155.905Y-102.005
X156.947Y-115.824
X157.968Y-104.084
X158.14Y-100.135
X159.614Y-91.567
X159.614Y-110.617
X160.757Y-82.296
X160.757Y-87.376
X161.434Y-98.846
X162.408Y-90.297
X163.17Y-92.477
X163.487Y-105.727
X164.059Y-81.407
X164.122Y-102.933
X166.091Y-90.424
X166.796Y-104.457
X167.996Y-115.824
T2
X136.5Y-113.106
X137.262Y-83.312
X145.669Y-86.792
X145.669Y-87.808
X145.669Y-88.824
X145.669Y-89.84
X145.669Y-90.856
X146.685Y-86.792
X146.685Y-87.808
X146.685Y-88.824
X146.685Y-89.84
X146.685Y-90.856
X147.701Y-86.792
X147.701Y-87.808
X147.701Y-88.824
X147.701Y-89.84
X147.701Y-90.856
X148.353Y-97.212
X148.717Y-86.792
X148.717Y-87.808
X148.717Y-88.824
X148.717Y-89.84
X148.717Y-90.856
X149.189Y-97.246
X149.733Y-86.792
X149.733Y-87.808
X149.733Y-88.824
X149.733Y-89.84
X149.733Y-90.856
X150.013Y-97.259
X150.841Y-97.315
X151.48Y-104.755
X155.56Y-88.402
X155.575Y-83.22
T3
X131.547Y-82.423
X133.833Y-83.439
X135.865Y-109.474
X138.557Y-81.204
X142.977Y-97.155
X143.993Y-103.124
X145.542Y-96.622
X146.025Y-102.108
X150.942Y-104.023
X151.994Y-110.49
X152.162Y-106.045
X152.248Y-107.315
X152.375Y-112.395
X154.562Y-106.045
X158.75Y-81.331
T4
X168.758Y-81.534
X168.758Y-84.074
X168.758Y-86.614
X168.758Y-89.154
X168.758Y-91.694
X168.758Y-94.234
X168.758Y-96.774
X168.758Y-99.314
X168.758Y-101.854
X168.758Y-104.394
X168.758Y-106.934
X168.758Y-109.474
X168.758Y-112.014
X168.758Y-114.554
X133.198Y-117.094
X135.738Y-117.094
X138.278Y-117.094
X140.818Y-117.094
X143.358Y-117.094
X145.898Y-117.094
X148.438Y-117.094
X150.978Y-117.094
X153.518Y-117.094
X156.058Y-117.094
X158.598Y-117.094
X161.138Y-117.094
X163.678Y-117.094
X128.118Y-81.534
X128.118Y-84.074
X128.118Y-86.614
X128.118Y-89.154
X128.118Y-91.694
X128.118Y-94.234
X128.118Y-96.774
X128.118Y-99.314
X128.118Y-101.854
X128.118Y-104.394
X128.118Y-106.934
X128.118Y-109.474
X128.118Y-112.014
X128.118Y-114.554
T0
M30
